<svg width="22" height="22" viewBox="0 0 22 22" fill="none" xmlns="http://www.w3.org/2000/svg">
<path d="M1.36183 10.6399L6.10587 12.4088L7.95522 18.3589C8.03562 18.761 8.51807 18.8414 8.8397 18.6002L11.4931 16.4292C11.7343 16.1879 12.1364 16.1879 12.458 16.4292L17.202 19.8867C17.5237 20.1279 18.0061 19.9671 18.0865 19.565L21.6244 2.67956C21.7048 2.27752 21.3028 1.87549 20.9008 2.03631L1.36183 9.59457C0.879389 9.75538 0.879389 10.479 1.36183 10.6399ZM7.71401 11.5243L17.0412 5.81544C17.202 5.73503 17.3628 5.97625 17.202 6.05666L9.56336 13.2129C9.32214 13.4541 9.08091 13.7757 9.08091 14.1778L8.8397 16.1075C8.8397 16.3488 8.43766 16.4292 8.35725 16.1075L7.39236 12.5696C7.15114 12.1676 7.31197 11.6851 7.71401 11.5243Z" fill="#23262F"/>
</svg>
