<?xml version="1.0" standalone="no"?>
<!DOCTYPE svg PUBLIC "-//W3C//DTD SVG 20010904//EN"
 "http://www.w3.org/TR/2001/REC-SVG-20010904/DTD/svg10.dtd">
<svg version="1.0" xmlns="http://www.w3.org/2000/svg"
 width="700.000000pt" height="700.000000pt" viewBox="0 0 700.000000 700.000000"
 preserveAspectRatio="xMidYMid meet">
<metadata>
Created by potrace 1.14, written by Peter Selinger 2001-2017
</metadata>
<g transform="translate(0.000000,700.000000) scale(0.100000,-0.100000)"
fill="#000000" stroke="none">
<path d="M2947 6623 c-1 0 -40 -4 -87 -7 -86 -5 -243 -23 -270 -31 -8 -2 -35
-7 -60 -10 -39 -6 -154 -29 -185 -38 -5 -2 -26 -7 -45 -11 -49 -11 -148 -42
-265 -83 -117 -41 -130 -47 -295 -126 -678 -326 -1238 -931 -1518 -1642 -100
-254 -171 -528 -197 -765 -4 -30 -10 -86 -14 -125 -9 -76 -7 -530 2 -555 3 -8
8 -42 11 -75 10 -105 53 -323 92 -455 8 -30 18 -64 21 -75 35 -128 148 -401
235 -565 171 -325 321 -515 645 -821 225 -213 525 -410 809 -533 49 -21 105
-45 124 -54 160 -70 531 -167 720 -188 30 -4 57 -8 60 -9 11 -7 249 -19 355
-18 102 0 250 9 320 18 17 2 50 7 75 10 166 20 534 114 645 165 11 5 70 30
130 55 454 190 931 563 1241 970 56 74 135 187 159 227 121 205 184 331 249
500 64 168 134 409 150 518 2 14 9 53 16 88 13 75 18 107 26 187 3 33 7 71 9
85 7 39 18 229 18 295 -1 77 -12 220 -27 335 -3 25 -8 65 -11 90 -7 59 -11 76
-35 195 -105 511 -340 989 -682 1383 -42 48 -303 308 -347 346 -88 75 -200
162 -245 191 -203 129 -613 342 -628 327 -5 -5 -9 -64 -9 -130 1 -188 -35
-326 -109 -416 -39 -48 -40 -50 -23 -67 10 -10 90 -59 178 -110 212 -121 304
-182 405 -272 106 -93 296 -281 310 -307 9 -18 8 -19 -12 -11 -13 5 -60 27
-106 50 -45 23 -90 44 -100 46 -9 2 -48 11 -87 20 -79 19 -94 21 -203 30 -42
4 -92 8 -110 10 -190 22 -945 26 -1048 6 l-71 -14 -58 -121 c-33 -66 -151
-308 -263 -536 -113 -228 -204 -417 -204 -420 0 -3 -3 -10 -8 -15 -5 -6 -42
-75 -83 -155 -65 -127 -103 -196 -136 -250 -5 -8 -11 -13 -14 -10 -19 22 -159
290 -437 835 -73 143 -147 287 -165 320 -17 33 -58 110 -90 170 -85 161 -101
184 -133 191 -15 3 -33 7 -40 10 -7 2 -34 6 -60 10 -91 12 -86 34 30 124 35
28 68 53 73 58 63 50 312 204 428 265 220 116 585 215 887 243 36 3 76 11 90
18 22 10 24 16 20 51 -3 22 -5 94 -5 160 0 168 12 232 65 348 17 37 30 68 30
70 0 4 -140 4 -143 0z m-2012 -3083 c0 -542 -1 -1030 -3 -1085 l-4 -100 -54
130 c-183 434 -220 619 -218 1100 0 189 4 274 17 350 39 220 93 397 193 625
l59 135 5 -85 c3 -47 5 -528 5 -1070z m3280 1104 c213 -31 314 -84 370 -194
28 -56 37 -98 37 -170 0 -173 -80 -269 -274 -323 -89 -25 -142 -31 -380 -41
-117 -6 -118 -5 -119 17 -4 113 3 649 9 672 5 17 19 36 33 43 31 16 202 14
324 -4z m1081 -161 c19 -43 39 -87 44 -98 21 -47 62 -187 80 -275 38 -188 45
-279 45 -605 0 -336 0 -340 -60 -601 -23 -101 -134 -395 -183 -489 -41 -77
-51 -80 -83 -30 -25 39 -133 231 -209 370 -18 33 -45 83 -60 110 -15 28 -40
73 -55 100 -15 28 -60 109 -100 180 -85 150 -94 175 -72 209 14 20 156 116
173 116 3 0 38 24 77 54 172 127 292 291 337 461 8 32 14 131 16 275 1 124 3
242 3 263 1 20 4 37 7 37 3 0 21 -35 40 -77z m-3628 -813 c16 -30 106 -208
200 -395 l170 -340 343 2 c189 1 351 2 359 2 8 1 20 11 26 24 5 12 67 132 136
267 69 135 153 299 187 365 33 66 65 126 70 134 5 8 9 -23 11 -85 1 -55 3
-119 5 -144 13 -177 23 -685 25 -1286 1 -198 5 -366 8 -371 5 -8 107 -11 322
-10 l315 2 2 490 c2 600 9 945 20 956 15 15 51 -19 96 -89 47 -73 91 -150 183
-319 20 -37 44 -81 54 -98 9 -16 39 -70 65 -120 26 -49 64 -121 85 -160 20
-38 61 -115 90 -170 216 -409 270 -495 311 -495 78 0 -117 -183 -381 -356 -92
-60 -294 -169 -375 -201 -16 -7 -48 -20 -70 -29 -47 -20 -277 -90 -320 -97
-87 -16 -213 -39 -235 -42 -157 -28 -513 -22 -700 11 -19 3 -46 8 -60 10 -60
11 -242 59 -325 87 -225 74 -495 219 -671 361 -28 22 -66 53 -85 68 -84 66
-189 159 -189 168 0 14 49 20 163 22 71 0 107 4 108 12 0 6 2 421 5 921 2 501
5 925 6 943 2 38 6 35 46 -38z"/>
<path d="M3505 6623 c-32 -7 -123 -41 -163 -62 -116 -61 -181 -176 -188 -332
-7 -186 72 -332 219 -399 63 -28 154 -49 193 -44 11 1 40 5 66 7 69 8 169 61
226 119 199 202 141 530 -118 667 -72 38 -171 56 -235 44z"/>
<path d="M5737 6384 c-1 -1 -29 -4 -61 -8 -158 -16 -266 -121 -296 -285 -13
-72 -16 -246 -6 -306 9 -56 48 -135 82 -168 65 -64 201 -122 295 -126 62 -3
216 32 237 53 21 21 26 151 7 170 -14 13 -19 13 -53 -2 -26 -11 -67 -16 -139
-16 -88 -1 -105 2 -130 20 -37 28 -60 69 -68 122 -6 46 -8 178 -2 202 16 67
52 119 104 151 28 18 44 21 86 16 65 -8 100 -15 131 -26 44 -17 95 42 98 114
2 45 -13 61 -70 74 -39 9 -208 21 -215 15z"/>
<path d="M6450 6376 c-82 -20 -121 -40 -166 -88 -159 -165 -168 -494 -18 -665
145 -167 489 -171 638 -9 36 39 61 94 80 175 19 80 14 286 -7 355 -33 102
-115 187 -218 223 -60 21 -239 26 -309 9z m221 -188 c102 -68 128 -295 49
-423 -27 -44 -53 -61 -106 -70 -88 -14 -158 28 -190 115 -23 64 -24 233 0 281
49 103 167 149 247 97z"/>
</g>
</svg>
