<svg width="422" height="47" viewBox="0 0 422 47" fill="none" xmlns="http://www.w3.org/2000/svg">
<path d="M0 5.80577C0 3.06276 2.22365 0.839111 4.96665 0.839111H475.557C478.3 0.839111 480.524 3.06276 480.524 5.80577V41.5036C480.524 44.2466 478.3 46.4703 475.557 46.4703H4.96666C2.22365 46.4703 0 44.2466 0 41.5036V5.80577Z" fill="white"/>
<path d="M6.6459 16.033V12.4208H7.0833V15.6449H8.76237V16.033H6.6459ZM9.65129 12.4208L10.5825 13.9235H10.6108L11.542 12.4208H12.057L10.9212 14.2269L12.057 16.033H11.542L10.6108 14.5585H10.5825L9.65129 16.033H9.13628L10.3003 14.2269L9.13628 12.4208H9.65129ZM12.6263 12.4208H13.1483L14.3759 15.4192H14.4182L15.6458 12.4208H16.1678V16.033H15.7586V13.2886H15.7234L14.5946 16.033H14.1995L13.0707 13.2886H13.0354V16.033H12.6263V12.4208ZM17.0448 16.033V12.4208H17.4822V15.6449H19.1613V16.033H17.0448ZM21.082 14.2904V14.6784H19.5017V14.2904H21.082ZM21.8708 16.033V12.4208H23.0913C23.3747 12.4208 23.6063 12.472 23.7862 12.5743C23.9673 12.6754 24.1014 12.8124 24.1884 12.9852C24.2754 13.1581 24.3189 13.3509 24.3189 13.5637C24.3189 13.7766 24.2754 13.97 24.1884 14.144C24.1025 14.318 23.9697 14.4568 23.7898 14.5602C23.6099 14.6625 23.3794 14.7137 23.0984 14.7137H22.2236V14.3257H23.0843C23.2783 14.3257 23.4341 14.2922 23.5517 14.2251C23.6692 14.1581 23.7545 14.0676 23.8074 13.9535C23.8615 13.8383 23.8885 13.7084 23.8885 13.5637C23.8885 13.4191 23.8615 13.2898 23.8074 13.1757C23.7545 13.0617 23.6687 12.9723 23.5499 12.9076C23.4311 12.8418 23.2736 12.8089 23.0772 12.8089H22.3082V16.033H21.8708ZM25.6796 16.033L24.6919 12.4208H25.1364L25.8912 15.3627H25.9265L26.6955 12.4208H27.1894L27.9583 15.3627H27.9936L28.7485 12.4208H29.1929L28.2053 16.033H27.7537L26.9565 13.1546H26.9283L26.1311 16.033H25.6796ZM32.6022 12.4208V16.033H32.1789L30.2106 13.1969H30.1753V16.033H29.7379V12.4208H30.1612L32.1366 15.264H32.1719V12.4208H32.6022ZM33.414 16.033V15.7155L34.6063 14.4103C34.7462 14.2575 34.8614 14.1246 34.952 14.0117C35.0425 13.8977 35.1095 13.7907 35.153 13.6907C35.1977 13.5896 35.22 13.4838 35.22 13.3733C35.22 13.2463 35.1895 13.1363 35.1283 13.0434C35.0684 12.9506 34.9861 12.8788 34.8814 12.8283C34.7768 12.7777 34.6592 12.7524 34.5287 12.7524C34.3899 12.7524 34.2688 12.7812 34.1653 12.8388C34.063 12.8953 33.9837 12.9747 33.9272 13.077C33.872 13.1792 33.8443 13.2992 33.8443 13.4368H33.4281C33.4281 13.2251 33.4769 13.0393 33.5745 12.8794C33.6721 12.7195 33.8049 12.5949 33.9731 12.5055C34.1424 12.4161 34.3323 12.3715 34.5428 12.3715C34.7544 12.3715 34.942 12.4161 35.1054 12.5055C35.2688 12.5949 35.397 12.7154 35.4899 12.8671C35.5828 13.0187 35.6292 13.1875 35.6292 13.3733C35.6292 13.5061 35.6051 13.6361 35.5569 13.763C35.5099 13.8889 35.4276 14.0294 35.31 14.1846C35.1936 14.3386 35.0319 14.5267 34.825 14.749L34.0137 15.6167V15.6449H35.6927V16.033H33.414ZM39.102 12.2515L37.9379 16.5762H37.557L38.721 12.2515H39.102ZM41.0487 16.033V12.4208H41.4861V15.6449H43.1652V16.033H41.0487ZM45.4933 14.9253V13.3239H45.9095V16.033H45.4933V15.5744H45.4651C45.4016 15.712 45.3028 15.829 45.1688 15.9254C45.0347 16.0206 44.8654 16.0682 44.6608 16.0682C44.4915 16.0682 44.341 16.0312 44.2093 15.9571C44.0776 15.8819 43.9742 15.769 43.8989 15.6185C43.8236 15.4668 43.786 15.2757 43.786 15.0453V13.3239H44.2023V15.0171C44.2023 15.2146 44.2575 15.3721 44.3681 15.4897C44.4798 15.6073 44.622 15.6661 44.7949 15.6661C44.8983 15.6661 45.0036 15.6396 45.1106 15.5867C45.2188 15.5338 45.3093 15.4527 45.3822 15.3433C45.4563 15.234 45.4933 15.0947 45.4933 14.9253ZM46.6719 16.033V13.3239H47.074V13.7472H47.1093C47.1658 13.6025 47.2569 13.4903 47.3827 13.4103C47.5085 13.3292 47.6596 13.2886 47.836 13.2886C48.0147 13.2886 48.1634 13.3292 48.2822 13.4103C48.4021 13.4903 48.4956 13.6025 48.5626 13.7472H48.5909C48.6602 13.6072 48.7643 13.4961 48.903 13.4138C49.0418 13.3303 49.2082 13.2886 49.4022 13.2886C49.6444 13.2886 49.8425 13.3644 49.9965 13.5161C50.1506 13.6666 50.2276 13.9012 50.2276 14.2198V16.033H49.8113V14.2198C49.8113 14.02 49.7567 13.8771 49.6473 13.7913C49.538 13.7054 49.4092 13.6625 49.2611 13.6625C49.0706 13.6625 48.923 13.7201 48.8184 13.8354C48.7137 13.9494 48.6614 14.094 48.6614 14.2692V16.033H48.2381V14.1775C48.2381 14.0235 48.1881 13.8994 48.0882 13.8054C47.9882 13.7101 47.8595 13.6625 47.7019 13.6625C47.5938 13.6625 47.4926 13.6913 47.3986 13.7489C47.3057 13.8065 47.2304 13.8865 47.1728 13.9888C47.1164 14.0899 47.0882 14.2069 47.0882 14.3398V16.033H46.6719ZM50.9886 16.033V13.3239H51.4049V16.033H50.9886ZM51.2003 12.8724C51.1192 12.8724 51.0492 12.8447 50.9904 12.7895C50.9328 12.7342 50.904 12.6678 50.904 12.5902C50.904 12.5126 50.9328 12.4461 50.9904 12.3909C51.0492 12.3356 51.1192 12.308 51.2003 12.308C51.2814 12.308 51.3508 12.3356 51.4084 12.3909C51.4672 12.4461 51.4966 12.5126 51.4966 12.5902C51.4966 12.6678 51.4672 12.7342 51.4084 12.7895C51.3508 12.8447 51.2814 12.8724 51.2003 12.8724ZM52.5835 12.4208V16.033H52.1673V12.4208H52.5835ZM54.4817 16.0894C54.2207 16.0894 53.9955 16.0318 53.8062 15.9166C53.6181 15.8001 53.4728 15.6379 53.3706 15.4298C53.2694 15.2205 53.2189 14.9771 53.2189 14.6996C53.2189 14.4221 53.2694 14.1775 53.3706 13.9659C53.4728 13.753 53.6151 13.5873 53.7974 13.4685C53.9808 13.3486 54.1948 13.2886 54.4394 13.2886C54.5805 13.2886 54.7198 13.3121 54.8574 13.3591C54.9949 13.4062 55.1202 13.4826 55.233 13.5884C55.3459 13.6931 55.4359 13.8318 55.5029 14.0047C55.5699 14.1775 55.6034 14.3903 55.6034 14.6431V14.8195H53.5152V14.4597H55.1801C55.1801 14.3069 55.1496 14.1705 55.0884 14.0505C55.0285 13.9306 54.9426 13.8359 54.8309 13.7666C54.7204 13.6972 54.5899 13.6625 54.4394 13.6625C54.2736 13.6625 54.1301 13.7037 54.009 13.786C53.8891 13.8671 53.7968 13.9729 53.7321 14.1034C53.6674 14.234 53.6351 14.3739 53.6351 14.5232V14.7631C53.6351 14.9677 53.6704 15.1411 53.7409 15.2834C53.8127 15.4245 53.912 15.5321 54.039 15.6061C54.166 15.679 54.3136 15.7155 54.4817 15.7155C54.591 15.7155 54.6898 15.7002 54.778 15.6696C54.8674 15.6379 54.9444 15.5909 55.0091 15.5285C55.0737 15.465 55.1237 15.3863 55.159 15.2922L55.5611 15.4051C55.5188 15.5415 55.4476 15.6614 55.3477 15.7649C55.2477 15.8672 55.1243 15.9471 54.9773 16.0047C54.8303 16.0612 54.6651 16.0894 54.4817 16.0894ZM57.2596 16.0894C57.0338 16.0894 56.8345 16.0324 56.6617 15.9183C56.4888 15.8031 56.3536 15.6408 56.256 15.4315C56.1584 15.2211 56.1096 14.9724 56.1096 14.6855C56.1096 14.4009 56.1584 14.154 56.256 13.9447C56.3536 13.7354 56.4894 13.5737 56.6634 13.4597C56.8375 13.3456 57.0385 13.2886 57.2666 13.2886C57.443 13.2886 57.5823 13.318 57.6846 13.3768C57.7881 13.4344 57.8669 13.5002 57.921 13.5743C57.9762 13.6472 58.0191 13.7072 58.0497 13.7542H58.085V12.4208H58.5012V16.033H58.0991V15.6167H58.0497C58.0191 15.6661 57.9756 15.7284 57.9192 15.8037C57.8628 15.8778 57.7822 15.9442 57.6776 16.003C57.5729 16.0606 57.4336 16.0894 57.2596 16.0894ZM57.316 15.7155C57.483 15.7155 57.6241 15.672 57.7393 15.585C57.8545 15.4968 57.9421 15.3751 58.0021 15.2199C58.0621 15.0635 58.092 14.883 58.092 14.6784C58.092 14.4762 58.0627 14.2992 58.0039 14.1475C57.9451 13.9947 57.8581 13.8759 57.7428 13.7913C57.6276 13.7054 57.4853 13.6625 57.316 13.6625C57.1396 13.6625 56.9927 13.7078 56.8751 13.7983C56.7587 13.8877 56.6711 14.0094 56.6123 14.1634C56.5547 14.3163 56.5259 14.4879 56.5259 14.6784C56.5259 14.8713 56.5553 15.0464 56.614 15.204C56.674 15.3604 56.7622 15.485 56.8786 15.5779C56.9962 15.6696 57.142 15.7155 57.316 15.7155ZM61.2403 13.9306L60.8664 14.0364C60.8429 13.9741 60.8082 13.9135 60.7623 13.8548C60.7177 13.7948 60.6565 13.7454 60.5789 13.7066C60.5013 13.6678 60.4019 13.6484 60.2808 13.6484C60.115 13.6484 59.9769 13.6866 59.8664 13.763C59.757 13.8383 59.7023 13.9341 59.7023 14.0505C59.7023 14.154 59.74 14.2357 59.8152 14.2957C59.8905 14.3557 60.008 14.4056 60.168 14.4456L60.5701 14.5444C60.8123 14.6032 60.9928 14.6931 61.1116 14.8142C61.2303 14.9342 61.2897 15.0888 61.2897 15.2781C61.2897 15.4333 61.245 15.572 61.1556 15.6943C61.0675 15.8166 60.944 15.913 60.7853 15.9836C60.6265 16.0541 60.4419 16.0894 60.2315 16.0894C59.9551 16.0894 59.7264 16.0294 59.5454 15.9095C59.3643 15.7896 59.2496 15.6144 59.2014 15.3839L59.5965 15.2851C59.6341 15.4309 59.7053 15.5403 59.8099 15.6132C59.9157 15.6861 60.0539 15.7225 60.2244 15.7225C60.4184 15.7225 60.5724 15.6814 60.6865 15.5991C60.8017 15.5156 60.8593 15.4157 60.8593 15.2992C60.8593 15.2052 60.8264 15.1264 60.7606 15.0629C60.6947 14.9982 60.5936 14.95 60.4572 14.9183L60.0057 14.8125C59.7576 14.7537 59.5753 14.6625 59.4589 14.5391C59.3437 14.4144 59.2861 14.2586 59.2861 14.0717C59.2861 13.9188 59.329 13.7836 59.4148 13.666C59.5019 13.5485 59.62 13.4562 59.7694 13.3891C59.9199 13.3221 60.0904 13.2886 60.2808 13.2886C60.5489 13.2886 60.7594 13.3474 60.9122 13.465C61.0663 13.5826 61.1756 13.7378 61.2403 13.9306ZM61.9163 16.033V13.3239H63.0239C63.3155 13.3239 63.5471 13.3897 63.7188 13.5214C63.8904 13.6531 63.9763 13.8271 63.9763 14.0435C63.9763 14.2081 63.9275 14.3357 63.8299 14.4262C63.7323 14.5156 63.6071 14.5761 63.4542 14.6079C63.5542 14.622 63.6512 14.6573 63.7452 14.7137C63.8405 14.7701 63.9193 14.8477 63.9816 14.9465C64.0439 15.0441 64.0751 15.164 64.0751 15.3063C64.0751 15.4451 64.0398 15.5691 63.9692 15.6784C63.8987 15.7878 63.7976 15.8742 63.6659 15.9377C63.5342 16.0012 63.3766 16.033 63.1932 16.033H61.9163ZM62.3113 15.652H63.1932C63.3366 15.652 63.4489 15.6179 63.5301 15.5497C63.6112 15.4815 63.6518 15.3886 63.6518 15.271C63.6518 15.1311 63.6112 15.0212 63.5301 14.9412C63.4489 14.8601 63.3366 14.8195 63.1932 14.8195H62.3113V15.652ZM62.3113 14.4597H63.0239C63.1356 14.4597 63.2314 14.4444 63.3114 14.4139C63.3913 14.3821 63.4525 14.3374 63.4948 14.2798C63.5383 14.221 63.56 14.1517 63.56 14.0717C63.56 13.9576 63.5124 13.8683 63.4172 13.8036C63.3219 13.7378 63.1908 13.7048 63.0239 13.7048H62.3113V14.4597ZM65.0649 14.3045H65.841C66.1585 14.3045 66.4013 14.3851 66.5694 14.5461C66.7375 14.7072 66.8216 14.9112 66.8216 15.1582C66.8216 15.3204 66.784 15.468 66.7087 15.6008C66.6335 15.7325 66.523 15.8378 66.3772 15.9166C66.2314 15.9942 66.0526 16.033 65.841 16.033H64.7051V13.3239H65.1214V15.6449H65.841C66.0056 15.6449 66.1408 15.6014 66.2466 15.5144C66.3525 15.4274 66.4054 15.3157 66.4054 15.1793C66.4054 15.0359 66.3525 14.9189 66.2466 14.8283C66.1408 14.7378 66.0056 14.6925 65.841 14.6925H65.0649V14.3045ZM67.252 16.033V13.3239H67.6682V16.033H67.252Z" fill="#23262F"/>
<path d="M8.12919 25.6892L7.19795 24.4458H6.8646V25.6892H6.53655V22.9801H6.8646V24.1548H7.00746L8.09216 22.9801H8.4837L7.38843 24.1706L8.52074 25.6892H8.12919ZM9.57865 25.7315C9.39522 25.7315 9.23428 25.6879 9.09583 25.6006C8.95826 25.5133 8.85067 25.3911 8.77307 25.2342C8.69634 25.0772 8.65798 24.8938 8.65798 24.6839C8.65798 24.4722 8.69634 24.2875 8.77307 24.1296C8.85067 23.9718 8.95826 23.8492 9.09583 23.7619C9.23428 23.6746 9.39522 23.6309 9.57865 23.6309C9.76208 23.6309 9.92257 23.6746 10.0601 23.7619C10.1986 23.8492 10.3062 23.9718 10.3829 24.1296C10.4605 24.2875 10.4993 24.4722 10.4993 24.6839C10.4993 24.8938 10.4605 25.0772 10.3829 25.2342C10.3062 25.3911 10.1986 25.5133 10.0601 25.6006C9.92257 25.6879 9.76208 25.7315 9.57865 25.7315ZM9.57865 25.4511C9.71798 25.4511 9.83262 25.4154 9.92257 25.344C10.0125 25.2725 10.0791 25.1786 10.1223 25.0622C10.1655 24.9458 10.1871 24.8197 10.1871 24.6839C10.1871 24.5481 10.1655 24.4215 10.1223 24.3042C10.0791 24.187 10.0125 24.0922 9.92257 24.0198C9.83262 23.9475 9.71798 23.9114 9.57865 23.9114C9.43931 23.9114 9.32467 23.9475 9.23472 24.0198C9.14477 24.0922 9.07819 24.187 9.03498 24.3042C8.99177 24.4215 8.97016 24.5481 8.97016 24.6839C8.97016 24.8197 8.99177 24.9458 9.03498 25.0622C9.07819 25.1786 9.14477 25.2725 9.23472 25.344C9.32467 25.4154 9.43931 25.4511 9.57865 25.4511ZM10.7589 26.2712V25.3982H10.9282C10.9697 25.355 11.0054 25.3082 11.0354 25.258C11.0654 25.2077 11.0914 25.1482 11.1134 25.0794C11.1363 25.0097 11.1557 24.9251 11.1716 24.8254C11.1875 24.7249 11.2016 24.6036 11.214 24.4617L11.2827 23.6574H12.5738V25.3982H12.886V26.2712H12.5738V25.6892H11.0711V26.2712H10.7589ZM11.2827 25.3982H12.2616V23.9484H11.5738L11.5208 24.4617C11.4988 24.6742 11.4715 24.8598 11.4388 25.0186C11.4062 25.1773 11.3542 25.3038 11.2827 25.3982ZM14.2316 23.9484V23.6574H15.8824V23.9484H15.2157V25.6892H14.9036V23.9484H14.2316ZM17.0577 25.7315C16.8743 25.7315 16.7134 25.6879 16.5749 25.6006C16.4373 25.5133 16.3298 25.3911 16.2521 25.2342C16.1754 25.0772 16.1371 24.8938 16.1371 24.6839C16.1371 24.4722 16.1754 24.2875 16.2521 24.1296C16.3298 23.9718 16.4373 23.8492 16.5749 23.7619C16.7134 23.6746 16.8743 23.6309 17.0577 23.6309C17.2412 23.6309 17.4017 23.6746 17.5392 23.7619C17.6777 23.8492 17.7853 23.9718 17.862 24.1296C17.9396 24.2875 17.9784 24.4722 17.9784 24.6839C17.9784 24.8938 17.9396 25.0772 17.862 25.2342C17.7853 25.3911 17.6777 25.5133 17.5392 25.6006C17.4017 25.6879 17.2412 25.7315 17.0577 25.7315ZM17.0577 25.4511C17.1971 25.4511 17.3117 25.4154 17.4017 25.344C17.4916 25.2725 17.5582 25.1786 17.6014 25.0622C17.6446 24.9458 17.6662 24.8197 17.6662 24.6839C17.6662 24.5481 17.6446 24.4215 17.6014 24.3042C17.5582 24.187 17.4916 24.0922 17.4017 24.0198C17.3117 23.9475 17.1971 23.9114 17.0577 23.9114C16.9184 23.9114 16.8038 23.9475 16.7138 24.0198C16.6239 24.0922 16.5573 24.187 16.5141 24.3042C16.4709 24.4215 16.4492 24.5481 16.4492 24.6839C16.4492 24.8197 16.4709 24.9458 16.5141 25.0622C16.5573 25.1786 16.6239 25.2725 16.7138 25.344C16.8038 25.4154 16.9184 25.4511 17.0577 25.4511ZM18.4549 25.6892V23.6574H19.2856C19.5044 23.6574 19.6781 23.7068 19.8068 23.8055C19.9356 23.9043 20 24.0348 20 24.1971C20 24.3206 19.9634 24.4162 19.8902 24.4841C19.817 24.5512 19.7231 24.5966 19.6084 24.6204C19.6834 24.631 19.7561 24.6574 19.8267 24.6998C19.8981 24.7421 19.9572 24.8003 20.0039 24.8744C20.0507 24.9476 20.074 25.0375 20.074 25.1442C20.074 25.2483 20.0476 25.3413 19.9947 25.4233C19.9418 25.5053 19.8659 25.5702 19.7671 25.6178C19.6684 25.6654 19.5502 25.6892 19.4126 25.6892H18.4549ZM18.7512 25.4035H19.4126C19.5202 25.4035 19.6044 25.3779 19.6653 25.3268C19.7261 25.2756 19.7566 25.2059 19.7566 25.1178C19.7566 25.0128 19.7261 24.9304 19.6653 24.8704C19.6044 24.8096 19.5202 24.7791 19.4126 24.7791H18.7512V25.4035ZM18.7512 24.5093H19.2856C19.3694 24.5093 19.4413 24.4978 19.5013 24.4749C19.5612 24.4511 19.6071 24.4176 19.6388 24.3744C19.6715 24.3303 19.6878 24.2782 19.6878 24.2183C19.6878 24.1327 19.6521 24.0657 19.5806 24.0172C19.5092 23.9678 19.4109 23.9431 19.2856 23.9431H18.7512V24.5093ZM21.1445 25.7368C21.0158 25.7368 20.8989 25.7126 20.794 25.6641C20.689 25.6147 20.6057 25.5437 20.544 25.4511C20.4822 25.3576 20.4514 25.2447 20.4514 25.1125C20.4514 24.9961 20.4743 24.9017 20.5201 24.8294C20.566 24.7562 20.6273 24.6989 20.704 24.6574C20.7807 24.616 20.8654 24.5851 20.958 24.5648C21.0515 24.5437 21.1454 24.5269 21.2397 24.5146C21.3632 24.4987 21.4633 24.4868 21.54 24.4789C21.6176 24.47 21.6741 24.4555 21.7093 24.4352C21.7455 24.4149 21.7636 24.3796 21.7636 24.3294V24.3188C21.7636 24.1883 21.7279 24.0869 21.6564 24.0146C21.5859 23.9422 21.4787 23.9061 21.335 23.9061C21.186 23.9061 21.0691 23.9387 20.9844 24.004C20.8998 24.0692 20.8403 24.1389 20.8059 24.213L20.5096 24.1071C20.5625 23.9837 20.633 23.8876 20.7212 23.8188C20.8103 23.7491 20.9073 23.7006 21.0122 23.6733C21.1181 23.645 21.2221 23.6309 21.3244 23.6309C21.3897 23.6309 21.4646 23.6389 21.5493 23.6547C21.6348 23.6697 21.7173 23.701 21.7966 23.7487C21.8769 23.7963 21.9435 23.8682 21.9964 23.9643C22.0493 24.0604 22.0758 24.1892 22.0758 24.3505V25.6892H21.7636V25.4141H21.7477C21.7265 25.4582 21.6913 25.5053 21.6419 25.5556C21.5925 25.6059 21.5268 25.6486 21.4448 25.6839C21.3628 25.7192 21.2627 25.7368 21.1445 25.7368ZM21.1921 25.4564C21.3156 25.4564 21.4196 25.4321 21.5043 25.3836C21.5898 25.3351 21.6542 25.2725 21.6974 25.1958C21.7415 25.1191 21.7636 25.0384 21.7636 24.9537V24.668C21.7503 24.6839 21.7212 24.6984 21.6763 24.7117C21.6322 24.724 21.581 24.735 21.5228 24.7447C21.4655 24.7536 21.4095 24.7615 21.3548 24.7685C21.301 24.7747 21.2574 24.78 21.2239 24.7844C21.1427 24.795 21.0669 24.8122 20.9964 24.836C20.9267 24.8589 20.8702 24.8938 20.827 24.9405C20.7847 24.9864 20.7635 25.049 20.7635 25.1283C20.7635 25.2368 20.8037 25.3188 20.8839 25.3744C20.965 25.4291 21.0678 25.4564 21.1921 25.4564ZM22.6455 26.4511V23.6574H22.9471V23.9802H22.9842C23.0071 23.9449 23.0389 23.8999 23.0794 23.8452C23.1209 23.7897 23.18 23.7403 23.2567 23.6971C23.3343 23.653 23.4392 23.6309 23.5715 23.6309C23.7426 23.6309 23.8934 23.6737 24.0239 23.7593C24.1544 23.8448 24.2563 23.966 24.3295 24.123C24.4027 24.28 24.4393 24.4652 24.4393 24.6786C24.4393 24.8938 24.4027 25.0803 24.3295 25.2381C24.2563 25.3951 24.1549 25.5168 24.0252 25.6032C23.8956 25.6888 23.7461 25.7315 23.5768 25.7315C23.4463 25.7315 23.3418 25.7099 23.2633 25.6667C23.1848 25.6226 23.1244 25.5728 23.0821 25.5172C23.0397 25.4608 23.0071 25.4141 22.9842 25.377H22.9577V26.4511H22.6455ZM22.9524 24.6733C22.9524 24.8267 22.9749 24.9621 23.0199 25.0794C23.0649 25.1958 23.1306 25.2871 23.217 25.3532C23.3034 25.4185 23.4092 25.4511 23.5345 25.4511C23.665 25.4511 23.7739 25.4167 23.8612 25.3479C23.9494 25.2783 24.0155 25.1848 24.0596 25.0675C24.1046 24.9493 24.1271 24.8179 24.1271 24.6733C24.1271 24.5304 24.105 24.4017 24.0609 24.287C24.0177 24.1715 23.952 24.0802 23.8638 24.0132C23.7765 23.9453 23.6667 23.9114 23.5345 23.9114C23.4075 23.9114 23.3008 23.9436 23.2144 24.0079C23.1279 24.0714 23.0627 24.1605 23.0186 24.2751C22.9745 24.3889 22.9524 24.5216 22.9524 24.6733ZM25.5134 25.7368C25.3846 25.7368 25.2678 25.7126 25.1628 25.6641C25.0579 25.6147 24.9746 25.5437 24.9128 25.4511C24.8511 25.3576 24.8202 25.2447 24.8202 25.1125C24.8202 24.9961 24.8432 24.9017 24.889 24.8294C24.9349 24.7562 24.9962 24.6989 25.0729 24.6574C25.1496 24.616 25.2343 24.5851 25.3269 24.5648C25.4203 24.5437 25.5143 24.5269 25.6086 24.5146C25.7321 24.4987 25.8322 24.4868 25.9089 24.4789C25.9865 24.47 26.0429 24.4555 26.0782 24.4352C26.1144 24.4149 26.1324 24.3796 26.1324 24.3294V24.3188C26.1324 24.1883 26.0967 24.0869 26.0253 24.0146C25.9547 23.9422 25.8476 23.9061 25.7039 23.9061C25.5548 23.9061 25.438 23.9387 25.3533 24.004C25.2687 24.0692 25.2091 24.1389 25.1747 24.213L24.8784 24.1071C24.9313 23.9837 25.0019 23.8876 25.0901 23.8188C25.1791 23.7491 25.2761 23.7006 25.3811 23.6733C25.4869 23.645 25.591 23.6309 25.6933 23.6309C25.7585 23.6309 25.8335 23.6389 25.9181 23.6547C26.0037 23.6697 26.0861 23.701 26.1655 23.7487C26.2458 23.7963 26.3123 23.8682 26.3652 23.9643C26.4182 24.0604 26.4446 24.1892 26.4446 24.3505V25.6892H26.1324V25.4141H26.1166C26.0954 25.4582 26.0601 25.5053 26.0107 25.5556C25.9614 25.6059 25.8957 25.6486 25.8136 25.6839C25.7316 25.7192 25.6315 25.7368 25.5134 25.7368ZM25.561 25.4564C25.6845 25.4564 25.7885 25.4321 25.8732 25.3836C25.9587 25.3351 26.0231 25.2725 26.0663 25.1958C26.1104 25.1191 26.1324 25.0384 26.1324 24.9537V24.668C26.1192 24.6839 26.0901 24.6984 26.0451 24.7117C26.001 24.724 25.9499 24.735 25.8917 24.7447C25.8344 24.7536 25.7784 24.7615 25.7237 24.7685C25.6699 24.7747 25.6262 24.78 25.5927 24.7844C25.5116 24.795 25.4358 24.8122 25.3652 24.836C25.2955 24.8589 25.2391 24.8938 25.1959 24.9405C25.1536 24.9864 25.1324 25.049 25.1324 25.1283C25.1324 25.2368 25.1725 25.3188 25.2528 25.3744C25.3339 25.4291 25.4366 25.4564 25.561 25.4564ZM27.2419 25.7104C27.1767 25.7104 27.1207 25.687 27.0739 25.6403C27.0272 25.5935 27.0038 25.5375 27.0038 25.4723C27.0038 25.407 27.0272 25.351 27.0739 25.3043C27.1207 25.2575 27.1767 25.2342 27.2419 25.2342C27.3072 25.2342 27.3632 25.2575 27.4099 25.3043C27.4567 25.351 27.48 25.407 27.48 25.4723C27.48 25.5155 27.469 25.5552 27.447 25.5913C27.4258 25.6275 27.3971 25.6566 27.361 25.6786C27.3257 25.6998 27.286 25.7104 27.2419 25.7104ZM27.2419 24.2024C27.1767 24.2024 27.1207 24.179 27.0739 24.1323C27.0272 24.0855 27.0038 24.0295 27.0038 23.9643C27.0038 23.899 27.0272 23.843 27.0739 23.7963C27.1207 23.7496 27.1767 23.7262 27.2419 23.7262C27.3072 23.7262 27.3632 23.7496 27.4099 23.7963C27.4567 23.843 27.48 23.899 27.48 23.9643C27.48 24.0075 27.469 24.0472 27.447 24.0833C27.4258 24.1195 27.3971 24.1486 27.361 24.1706C27.3257 24.1918 27.286 24.2024 27.2419 24.2024ZM30.2004 22.9801V25.6892H29.6276V23.5238H29.6117L28.9913 23.9127V23.4047L29.662 22.9801H30.2004ZM31.884 25.7262C31.7446 25.7254 31.6101 25.702 31.4805 25.6561C31.3517 25.6103 31.2362 25.5358 31.1339 25.4326C31.0316 25.3294 30.9505 25.1927 30.8905 25.0225C30.8314 24.8523 30.8019 24.6433 30.8019 24.3955C30.8028 24.168 30.8288 23.9647 30.8799 23.7857C30.932 23.6058 31.0061 23.4532 31.1022 23.328C31.1992 23.2028 31.3151 23.1076 31.4501 23.0423C31.585 22.9762 31.7362 22.9431 31.9038 22.9431C32.0846 22.9431 32.2442 22.9784 32.3826 23.0489C32.5211 23.1186 32.6322 23.2134 32.716 23.3333C32.8006 23.4532 32.8518 23.5877 32.8694 23.7368H32.3046C32.2826 23.6424 32.2363 23.5683 32.1657 23.5145C32.0952 23.4607 32.0079 23.4338 31.9038 23.4338C31.7274 23.4338 31.5934 23.5106 31.5017 23.664C31.4108 23.8175 31.3645 24.026 31.3628 24.2897H31.3813C31.4219 24.2094 31.4765 24.1411 31.5453 24.0847C31.615 24.0273 31.6939 23.9837 31.7821 23.9537C31.8712 23.9228 31.9651 23.9074 32.0639 23.9074C32.2243 23.9074 32.3672 23.9453 32.4924 24.0212C32.6177 24.0961 32.7164 24.1993 32.7887 24.3307C32.8611 24.4621 32.8972 24.6125 32.8972 24.7818C32.8972 24.9652 32.8544 25.1283 32.7689 25.2712C32.6842 25.4141 32.5656 25.5261 32.4131 25.6072C32.2614 25.6874 32.085 25.7271 31.884 25.7262ZM31.8813 25.2765C31.9695 25.2765 32.0484 25.2553 32.1181 25.213C32.1878 25.1707 32.2424 25.1134 32.2821 25.041C32.3218 24.9687 32.3416 24.8876 32.3416 24.7976C32.3416 24.7077 32.3218 24.627 32.2821 24.5556C32.2433 24.4841 32.1895 24.4273 32.1207 24.3849C32.0519 24.3426 31.9735 24.3214 31.8853 24.3214C31.8191 24.3214 31.7578 24.3338 31.7014 24.3585C31.6458 24.3832 31.5969 24.4176 31.5546 24.4617C31.5131 24.5057 31.4805 24.5569 31.4567 24.6151C31.4329 24.6724 31.421 24.7337 31.421 24.799C31.421 24.8863 31.4408 24.9661 31.4805 25.0384C31.5211 25.1107 31.5757 25.1685 31.6445 25.2117C31.7142 25.2549 31.7931 25.2765 31.8813 25.2765ZM34.3047 25.7262C34.1071 25.7262 33.9312 25.6923 33.7769 25.6244C33.6234 25.5556 33.5022 25.4612 33.4131 25.3413C33.3249 25.2205 33.2795 25.0812 33.2769 24.9233H33.8536C33.8571 24.9895 33.8787 25.0477 33.9184 25.0979C33.959 25.1473 34.0128 25.1857 34.0798 25.213C34.1468 25.2403 34.2222 25.254 34.306 25.254C34.3933 25.254 34.4705 25.2386 34.5375 25.2077C34.6045 25.1768 34.657 25.1341 34.6949 25.0794C34.7328 25.0247 34.7518 24.9617 34.7518 24.8902C34.7518 24.8179 34.7315 24.754 34.6909 24.6984C34.6512 24.642 34.5939 24.5979 34.519 24.5662C34.4449 24.5344 34.3567 24.5185 34.2544 24.5185H34.0017V24.0979H34.2544C34.3408 24.0979 34.4171 24.0829 34.4832 24.0529C34.5503 24.0229 34.6023 23.9815 34.6393 23.9286C34.6764 23.8748 34.6949 23.8122 34.6949 23.7407C34.6949 23.6728 34.6786 23.6133 34.6459 23.5622C34.6142 23.5101 34.5692 23.4696 34.511 23.4405C34.4537 23.4114 34.3867 23.3968 34.31 23.3968C34.2324 23.3968 34.1614 23.4109 34.097 23.4391C34.0326 23.4665 33.981 23.5057 33.9422 23.5569C33.9034 23.608 33.8827 23.668 33.88 23.7368H33.3311C33.3337 23.5807 33.3783 23.4431 33.4647 23.3241C33.5511 23.205 33.6675 23.112 33.8139 23.0449C33.9612 22.977 34.1274 22.9431 34.3126 22.9431C34.4996 22.9431 34.6631 22.977 34.8034 23.0449C34.9436 23.1128 35.0525 23.2046 35.1301 23.3201C35.2086 23.4347 35.2474 23.5635 35.2465 23.7063C35.2474 23.858 35.2002 23.9846 35.105 24.086C35.0106 24.1874 34.8876 24.2518 34.7359 24.2791V24.3003C34.9352 24.3258 35.0869 24.3951 35.1909 24.508C35.2959 24.6199 35.3479 24.7602 35.347 24.9286C35.3479 25.0829 35.3034 25.2201 35.2134 25.34C35.1244 25.4599 35.0013 25.5543 34.8444 25.6231C34.6874 25.6919 34.5075 25.7262 34.3047 25.7262ZM36.9374 22.9801V25.6892H36.3646V23.5238H36.3487L35.7283 23.9127V23.4047L36.399 22.9801H36.9374ZM37.6884 25.6892L38.8114 23.4669V23.4484H37.5032V22.9801H39.404V23.455L38.2797 25.6892H37.6884ZM40.7404 22.9431C40.8797 22.9431 41.0138 22.9665 41.1425 23.0132C41.2722 23.0599 41.3877 23.1345 41.4891 23.2367C41.5914 23.339 41.6721 23.4748 41.7312 23.6442C41.7911 23.8126 41.8216 24.0194 41.8224 24.2646C41.8224 24.4947 41.7964 24.7002 41.7444 24.881C41.6932 25.0609 41.6196 25.2139 41.5235 25.34C41.4274 25.4661 41.3114 25.5622 41.1756 25.6284C41.0398 25.6936 40.8881 25.7262 40.7206 25.7262C40.5398 25.7262 40.3802 25.6914 40.2417 25.6217C40.1032 25.5512 39.9917 25.4555 39.907 25.3347C39.8233 25.213 39.7725 25.0763 39.7549 24.9246H40.3197C40.3418 25.0234 40.3881 25.1001 40.4586 25.1548C40.5292 25.2086 40.6165 25.2355 40.7206 25.2355C40.8969 25.2355 41.031 25.1588 41.1227 25.0053C41.2144 24.851 41.2607 24.6398 41.2616 24.3717H41.2431C41.2025 24.4511 41.1478 24.5194 41.079 24.5767C41.0102 24.6332 40.9313 24.6768 40.8422 24.7077C40.7541 24.7386 40.6601 24.754 40.5605 24.754C40.4009 24.754 40.2585 24.7165 40.1332 24.6416C40.008 24.5666 39.9092 24.4634 39.8369 24.332C39.7646 24.2006 39.7285 24.0507 39.7285 23.8823C39.7276 23.7006 39.7695 23.5388 39.8541 23.3968C39.9388 23.2548 40.0569 23.1437 40.2086 23.0635C40.3612 22.9823 40.5384 22.9422 40.7404 22.9431ZM40.7444 23.3928C40.6553 23.3928 40.5759 23.414 40.5063 23.4563C40.4375 23.4987 40.3828 23.5555 40.3422 23.627C40.3025 23.6984 40.2831 23.7782 40.284 23.8664C40.284 23.9555 40.3034 24.0357 40.3422 24.1071C40.3819 24.1777 40.4357 24.2341 40.5036 24.2765C40.5724 24.3179 40.6509 24.3386 40.7391 24.3386C40.8052 24.3386 40.8665 24.3263 40.9229 24.3016C40.9794 24.2769 41.0283 24.243 41.0698 24.1997C41.1121 24.1556 41.1452 24.1049 41.169 24.0476C41.1928 23.9903 41.2047 23.9295 41.2047 23.8651C41.2038 23.7795 41.1835 23.701 41.1438 23.6296C41.1042 23.5582 41.0495 23.5009 40.9798 23.4577C40.9102 23.4144 40.8317 23.3928 40.7444 23.3928ZM42.2193 25.6892V25.2765L43.1836 24.3836C43.2656 24.3042 43.3344 24.2328 43.39 24.1693C43.4464 24.1058 43.4892 24.0437 43.5183 23.9828C43.5474 23.9211 43.5619 23.8545 43.5619 23.7831C43.5619 23.7037 43.5438 23.6353 43.5077 23.578C43.4715 23.5198 43.4221 23.4753 43.3595 23.4444C43.2969 23.4127 43.2259 23.3968 43.1466 23.3968C43.0637 23.3968 42.9914 23.4136 42.9296 23.4471C42.8679 23.4806 42.8203 23.5286 42.7868 23.5913C42.7532 23.6539 42.7365 23.7284 42.7365 23.8148H42.1928C42.1928 23.6376 42.2329 23.4837 42.3132 23.3532C42.3934 23.2226 42.5059 23.1217 42.6505 23.0502C42.7951 22.9788 42.9618 22.9431 43.1505 22.9431C43.3445 22.9431 43.5134 22.9775 43.6572 23.0463C43.8018 23.1142 43.9142 23.2085 43.9945 23.3293C44.0747 23.4502 44.1148 23.5886 44.1148 23.7447C44.1148 23.847 44.0946 23.948 44.054 24.0476C44.0143 24.1473 43.9433 24.2579 43.841 24.3796C43.7387 24.5005 43.5945 24.6455 43.4085 24.8148L43.013 25.2024V25.2209H44.1506V25.6892H42.2193ZM45.5458 22.9431C45.6851 22.9431 45.8192 22.9665 45.9479 23.0132C46.0775 23.0599 46.1931 23.1345 46.2945 23.2367C46.3968 23.339 46.4775 23.4748 46.5365 23.6442C46.5965 23.8126 46.6269 24.0194 46.6278 24.2646C46.6278 24.4947 46.6018 24.7002 46.5498 24.881C46.4986 25.0609 46.425 25.2139 46.3289 25.34C46.2327 25.4661 46.1168 25.5622 45.981 25.6284C45.8452 25.6936 45.6935 25.7262 45.5259 25.7262C45.3452 25.7262 45.1855 25.6914 45.0471 25.6217C44.9086 25.5512 44.7971 25.4555 44.7124 25.3347C44.6286 25.213 44.5779 25.0763 44.5603 24.9246H45.1251C45.1472 25.0234 45.1935 25.1001 45.264 25.1548C45.3346 25.2086 45.4219 25.2355 45.5259 25.2355C45.7023 25.2355 45.8363 25.1588 45.9281 25.0053C46.0198 24.851 46.0661 24.6398 46.067 24.3717H46.0484C46.0079 24.4511 45.9532 24.5194 45.8844 24.5767C45.8156 24.6332 45.7367 24.6768 45.6476 24.7077C45.5594 24.7386 45.4655 24.754 45.3659 24.754C45.2063 24.754 45.0638 24.7165 44.9386 24.6416C44.8134 24.5666 44.7146 24.4634 44.6423 24.332C44.57 24.2006 44.5338 24.0507 44.5338 23.8823C44.533 23.7006 44.5748 23.5388 44.6595 23.3968C44.7442 23.2548 44.8623 23.1437 45.014 23.0635C45.1666 22.9823 45.3438 22.9422 45.5458 22.9431ZM45.5497 23.3928C45.4607 23.3928 45.3813 23.414 45.3116 23.4563C45.2429 23.4987 45.1882 23.5555 45.1476 23.627C45.1079 23.6984 45.0885 23.7782 45.0894 23.8664C45.0894 23.9555 45.1088 24.0357 45.1476 24.1071C45.1873 24.1777 45.2411 24.2341 45.309 24.2765C45.3778 24.3179 45.4563 24.3386 45.5445 24.3386C45.6106 24.3386 45.6719 24.3263 45.7283 24.3016C45.7848 24.2769 45.8337 24.243 45.8752 24.1997C45.9175 24.1556 45.9506 24.1049 45.9744 24.0476C45.9982 23.9903 46.0101 23.9295 46.0101 23.8651C46.0092 23.7795 45.9889 23.701 45.9492 23.6296C45.9095 23.5582 45.8549 23.5009 45.7852 23.4577C45.7155 23.4144 45.637 23.3928 45.5497 23.3928Z" fill="#4F576D"/>
<path d="M8.56307 31.3261V34.0352H8.23502V31.6171H6.86989V34.0352H6.54184V31.3261H8.56307ZM9.18247 34.7971V32.0033H9.48407V32.3261H9.52111C9.54403 32.2908 9.57578 32.2459 9.61635 32.1912C9.65779 32.1356 9.71688 32.0862 9.7936 32.043C9.87121 31.9989 9.97615 31.9769 10.1084 31.9769C10.2795 31.9769 10.4303 32.0197 10.5608 32.1052C10.6913 32.1907 10.7932 32.312 10.8664 32.469C10.9396 32.6259 10.9762 32.8111 10.9762 33.0245C10.9762 33.2397 10.9396 33.4262 10.8664 33.5841C10.7932 33.7411 10.6918 33.8628 10.5621 33.9492C10.4325 34.0347 10.283 34.0775 10.1137 34.0775C9.9832 34.0775 9.8787 34.0559 9.80022 34.0127C9.72173 33.9686 9.66132 33.9188 9.61899 33.8632C9.57666 33.8068 9.54403 33.76 9.52111 33.723H9.49465V34.7971H9.18247ZM9.48936 33.0192C9.48936 33.1727 9.51185 33.3081 9.55682 33.4253C9.6018 33.5418 9.6675 33.633 9.75392 33.6992C9.84034 33.7644 9.94616 33.7971 10.0714 33.7971C10.2019 33.7971 10.3108 33.7627 10.3981 33.6939C10.4863 33.6242 10.5524 33.5307 10.5965 33.4134C10.6415 33.2953 10.664 33.1639 10.664 33.0192C10.664 32.8764 10.642 32.7476 10.5979 32.633C10.5546 32.5175 10.489 32.4262 10.4008 32.3592C10.3135 32.2913 10.2037 32.2573 10.0714 32.2573C9.9444 32.2573 9.83769 32.2895 9.75127 32.3539C9.66485 32.4174 9.59959 32.5064 9.5555 32.6211C9.51141 32.7348 9.48936 32.8676 9.48936 33.0192ZM12.3043 34.0775C12.1085 34.0775 11.9396 34.0343 11.7976 33.9479C11.6565 33.8605 11.5476 33.7389 11.4709 33.5828C11.3951 33.4258 11.3571 33.2432 11.3571 33.0351C11.3571 32.827 11.3951 32.6436 11.4709 32.4848C11.5476 32.3252 11.6543 32.2009 11.791 32.1118C11.9286 32.0219 12.0891 31.9769 12.2725 31.9769C12.3783 31.9769 12.4828 31.9945 12.586 32.0298C12.6892 32.0651 12.7831 32.1224 12.8678 32.2018C12.9524 32.2802 13.0199 32.3843 13.0702 32.5139C13.1204 32.6436 13.1456 32.8032 13.1456 32.9928V33.1251H11.5794V32.8552H12.8281C12.8281 32.7406 12.8052 32.6383 12.7593 32.5483C12.7143 32.4584 12.65 32.3874 12.5662 32.3354C12.4833 32.2833 12.3854 32.2573 12.2725 32.2573C12.1482 32.2573 12.0406 32.2882 11.9498 32.3499C11.8598 32.4108 11.7906 32.4901 11.7421 32.588C11.6936 32.6859 11.6693 32.7908 11.6693 32.9028V33.0827C11.6693 33.2362 11.6958 33.3663 11.7487 33.473C11.8025 33.5788 11.877 33.6595 11.9722 33.715C12.0675 33.7697 12.1782 33.7971 12.3043 33.7971C12.3863 33.7971 12.4604 33.7856 12.5265 33.7627C12.5935 33.7389 12.6513 33.7036 12.6998 33.6568C12.7483 33.6092 12.7858 33.5501 12.8122 33.4796L13.1138 33.5642C13.0821 33.6665 13.0287 33.7565 12.9538 33.8341C12.8788 33.9108 12.7862 33.9708 12.676 34.014C12.5657 34.0563 12.4418 34.0775 12.3043 34.0775ZM13.4035 34.6172V33.7441H13.5728C13.6143 33.7009 13.65 33.6542 13.68 33.6039C13.71 33.5537 13.736 33.4941 13.758 33.4253C13.7809 33.3557 13.8003 33.271 13.8162 33.1714C13.8321 33.0708 13.8462 32.9496 13.8586 32.8076L13.9273 32.0033H15.2184V33.7441H15.5306V34.6172H15.2184V34.0352H13.7157V34.6172H13.4035ZM13.9273 33.7441H14.9062V32.2944H14.2184L14.1654 32.8076C14.1434 33.0201 14.1161 33.2058 14.0834 33.3645C14.0508 33.5232 13.9988 33.6498 13.9273 33.7441ZM15.765 34.0352V33.7441H15.8391C15.9 33.7441 15.9507 33.7322 15.9912 33.7084C16.0318 33.6837 16.0644 33.641 16.0891 33.5801C16.1147 33.5184 16.1341 33.4328 16.1473 33.3235C16.1614 33.2133 16.1716 33.073 16.1777 32.9028L16.2148 32.0033H17.5693V34.0352H17.2571V32.2944H16.5111L16.4793 33.0192C16.4723 33.1859 16.4573 33.3328 16.4344 33.4597C16.4123 33.5858 16.3784 33.6917 16.3325 33.7772C16.2875 33.8628 16.2276 33.9271 16.1526 33.9703C16.0777 34.0136 15.9837 34.0352 15.8709 34.0352H15.765ZM18.9675 34.0775C18.7841 34.0775 18.6231 34.0338 18.4847 33.9465C18.3471 33.8592 18.2395 33.7371 18.1619 33.5801C18.0852 33.4231 18.0469 33.2397 18.0469 33.0298C18.0469 32.8182 18.0852 32.6334 18.1619 32.4756C18.2395 32.3177 18.3471 32.1951 18.4847 32.1078C18.6231 32.0205 18.7841 31.9769 18.9675 31.9769C19.1509 31.9769 19.3114 32.0205 19.449 32.1078C19.5875 32.1951 19.6951 32.3177 19.7718 32.4756C19.8494 32.6334 19.8882 32.8182 19.8882 33.0298C19.8882 33.2397 19.8494 33.4231 19.7718 33.5801C19.6951 33.7371 19.5875 33.8592 19.449 33.9465C19.3114 34.0338 19.1509 34.0775 18.9675 34.0775ZM18.9675 33.7971C19.1069 33.7971 19.2215 33.7613 19.3114 33.6899C19.4014 33.6185 19.468 33.5246 19.5112 33.4082C19.5544 33.2917 19.576 33.1656 19.576 33.0298C19.576 32.894 19.5544 32.7675 19.5112 32.6502C19.468 32.5329 19.4014 32.4381 19.3114 32.3658C19.2215 32.2935 19.1069 32.2573 18.9675 32.2573C18.8282 32.2573 18.7135 32.2935 18.6236 32.3658C18.5336 32.4381 18.4671 32.5329 18.4238 32.6502C18.3806 32.7675 18.359 32.894 18.359 33.0298C18.359 33.1656 18.3806 33.2917 18.4238 33.4082C18.4671 33.5246 18.5336 33.6185 18.6236 33.6899C18.7135 33.7613 18.8282 33.7971 18.9675 33.7971ZM20.1541 34.0352L20.9795 33.0034L20.1646 32.0033H20.535L21.2123 32.8711H21.3816V32.0033H21.6938V32.8711H21.8578L22.5351 32.0033H22.9055L22.0959 33.0034L22.9161 34.0352H22.5404L21.8525 33.1621H21.6938V34.0352H21.3816V33.1621H21.2229L20.5297 34.0352H20.1541ZM24.1304 34.0775C23.9346 34.0775 23.7657 34.0343 23.6238 33.9479C23.4827 33.8605 23.3737 33.7389 23.297 33.5828C23.2212 33.4258 23.1833 33.2432 23.1833 33.0351C23.1833 32.827 23.2212 32.6436 23.297 32.4848C23.3737 32.3252 23.4805 32.2009 23.6171 32.1118C23.7547 32.0219 23.9152 31.9769 24.0986 31.9769C24.2045 31.9769 24.309 31.9945 24.4121 32.0298C24.5153 32.0651 24.6092 32.1224 24.6939 32.2018C24.7786 32.2802 24.846 32.3843 24.8963 32.5139C24.9466 32.6436 24.9717 32.8032 24.9717 32.9928V33.1251H23.4055V32.8552H24.6542C24.6542 32.7406 24.6313 32.6383 24.5854 32.5483C24.5405 32.4584 24.4761 32.3874 24.3923 32.3354C24.3094 32.2833 24.2115 32.2573 24.0986 32.2573C23.9743 32.2573 23.8667 32.2882 23.7759 32.3499C23.6859 32.4108 23.6167 32.4901 23.5682 32.588C23.5197 32.6859 23.4954 32.7908 23.4954 32.9028V33.0827C23.4954 33.2362 23.5219 33.3663 23.5748 33.473C23.6286 33.5788 23.7031 33.6595 23.7984 33.715C23.8936 33.7697 24.0043 33.7971 24.1304 33.7971C24.2124 33.7971 24.2865 33.7856 24.3526 33.7627C24.4196 33.7389 24.4774 33.7036 24.5259 33.6568C24.5744 33.6092 24.6119 33.5501 24.6383 33.4796L24.9399 33.5642C24.9082 33.6665 24.8548 33.7565 24.7799 33.8341C24.7049 33.9108 24.6123 33.9708 24.5021 34.014C24.3919 34.0563 24.268 34.0775 24.1304 34.0775ZM26.8064 32.8764V33.1674H25.6847V32.8764H26.8064ZM25.7587 32.0033V34.0352H25.4466V32.0033H25.7587ZM27.0445 32.0033V34.0352H26.7323V32.0033H27.0445ZM27.9268 33.5748L28.9057 32.0033H29.2655V34.0352H28.9533V32.4637L27.9797 34.0352H27.6146V32.0033H27.9268V33.5748ZM30.1494 33.5748L31.1283 32.0033H31.4881V34.0352H31.1759V32.4637L30.2023 34.0352H29.8373V32.0033H30.1494V33.5748ZM30.9219 31.3261H31.213C31.213 31.4689 31.1636 31.5858 31.0648 31.6766C30.966 31.7674 30.832 31.8129 30.6627 31.8129C30.496 31.8129 30.3633 31.7674 30.2645 31.6766C30.1666 31.5858 30.1177 31.4689 30.1177 31.3261H30.4087C30.4087 31.3949 30.4277 31.4553 30.4656 31.5073C30.5044 31.5593 30.5701 31.5853 30.6627 31.5853C30.7553 31.5853 30.8214 31.5593 30.8611 31.5073C30.9017 31.4553 30.9219 31.3949 30.9219 31.3261Z" fill="#4F576D"/>
<path d="M36.8647 33.0351C36.8647 31.2448 38.3161 29.7935 40.1064 29.7935H42.8314C44.6217 29.7935 46.0731 31.2448 46.0731 33.0351C46.0731 34.8254 44.6217 36.2768 42.8314 36.2768H40.1064C38.3161 36.2768 36.8647 34.8254 36.8647 33.0351Z" fill="#E9C401" fill-opacity="0.2"/>
<path d="M41.3237 31.8313C41.4647 31.8324 41.6036 31.8581 41.7404 31.9085C41.8772 31.9589 42.0007 32.0412 42.1108 32.1554C42.2219 32.2696 42.3104 32.424 42.3762 32.6184C42.4431 32.8118 42.4771 33.0526 42.4781 33.3407C42.4781 33.6174 42.4503 33.8638 42.3948 34.0799C42.3392 34.2949 42.2595 34.4765 42.1556 34.6246C42.0527 34.7728 41.9277 34.8855 41.7805 34.9626C41.6334 35.0398 41.4678 35.0784 41.2836 35.0784C41.0953 35.0784 40.9281 35.0413 40.782 34.9673C40.636 34.8932 40.5171 34.7908 40.4256 34.6601C40.334 34.5285 40.2769 34.3772 40.2543 34.2064H40.7249C40.7558 34.3422 40.8186 34.4523 40.9132 34.5367C41.0089 34.62 41.1324 34.6617 41.2836 34.6617C41.5151 34.6617 41.6957 34.5609 41.8253 34.3592C41.9549 34.1565 42.0203 33.8736 42.0213 33.5104H41.9966C41.9431 33.5989 41.8762 33.675 41.796 33.7388C41.7168 33.8026 41.6278 33.852 41.529 33.887C41.4302 33.922 41.3248 33.9394 41.2126 33.9394C41.0305 33.9394 40.8649 33.8947 40.7157 33.8052C40.5665 33.7157 40.4477 33.5927 40.3592 33.4363C40.2707 33.28 40.2265 33.1015 40.2265 32.9008C40.2265 32.7012 40.2717 32.5202 40.3623 32.3576C40.4538 32.195 40.5814 32.0664 40.745 31.9718C40.9096 31.8761 41.1025 31.8293 41.3237 31.8313ZM41.3253 32.2326C41.2049 32.2326 41.0964 32.2624 40.9996 32.3221C40.904 32.3807 40.8283 32.4605 40.7728 32.5613C40.7172 32.6611 40.6895 32.7722 40.6895 32.8947C40.6895 33.0171 40.7162 33.1282 40.7697 33.228C40.8242 33.3268 40.8983 33.4055 40.9919 33.4641C41.0866 33.5217 41.1946 33.5505 41.316 33.5505C41.4066 33.5505 41.4909 33.533 41.5691 33.4981C41.6473 33.4631 41.7157 33.4147 41.7744 33.353C41.833 33.2902 41.8788 33.2193 41.9117 33.14C41.9446 33.0608 41.9611 32.9775 41.9611 32.89C41.9611 32.7738 41.9333 32.6657 41.8778 32.5659C41.8232 32.4661 41.7481 32.3859 41.6524 32.3252C41.5568 32.2635 41.4477 32.2326 41.3253 32.2326Z" fill="#E9C401"/>
<path d="M126.391 23.655H130.013" stroke="#23262F" stroke-width="0.620832" stroke-linecap="round" stroke-linejoin="round"/>
<path d="M137.863 25.155L139.478 21.9592V21.9309H137.616V21.5429H139.93V21.9521L138.321 25.155H137.863ZM141.688 25.2044C141.422 25.2044 141.196 25.1321 141.009 24.9875C140.822 24.8417 140.679 24.6306 140.58 24.3543C140.481 24.0768 140.432 23.7417 140.432 23.349C140.432 22.9586 140.481 22.6253 140.58 22.3489C140.68 22.0714 140.824 21.8598 141.011 21.714C141.199 21.567 141.424 21.4935 141.688 21.4935C141.951 21.4935 142.176 21.567 142.363 21.714C142.551 21.8598 142.695 22.0714 142.794 22.3489C142.894 22.6253 142.944 22.9586 142.944 23.349C142.944 23.7417 142.894 24.0768 142.795 24.3543C142.697 24.6306 142.554 24.8417 142.367 24.9875C142.18 25.1321 141.954 25.2044 141.688 25.2044ZM141.688 24.8164C141.951 24.8164 142.156 24.6894 142.302 24.4354C142.447 24.1815 142.52 23.8193 142.52 23.349C142.52 23.0362 142.487 22.7699 142.42 22.55C142.354 22.3301 142.259 22.1626 142.134 22.0473C142.011 21.9321 141.862 21.8745 141.688 21.8745C141.427 21.8745 141.223 22.0032 141.076 22.2608C140.929 22.5171 140.855 22.8798 140.855 23.349C140.855 23.6617 140.888 23.9275 140.954 24.1462C141.02 24.3649 141.115 24.5313 141.238 24.6453C141.363 24.7594 141.513 24.8164 141.688 24.8164ZM144.792 25.2044C144.526 25.2044 144.3 25.1321 144.113 24.9875C143.926 24.8417 143.783 24.6306 143.684 24.3543C143.586 24.0768 143.536 23.7417 143.536 23.349C143.536 22.9586 143.586 22.6253 143.684 22.3489C143.784 22.0714 143.928 21.8598 144.115 21.714C144.303 21.567 144.529 21.4935 144.792 21.4935C145.055 21.4935 145.281 21.567 145.467 21.714C145.656 21.8598 145.799 22.0714 145.898 22.3489C145.998 22.6253 146.048 22.9586 146.048 23.349C146.048 23.7417 145.998 24.0768 145.9 24.3543C145.801 24.6306 145.658 24.8417 145.471 24.9875C145.284 25.1321 145.058 25.2044 144.792 25.2044ZM144.792 24.8164C145.055 24.8164 145.26 24.6894 145.406 24.4354C145.552 24.1815 145.624 23.8193 145.624 23.349C145.624 23.0362 145.591 22.7699 145.524 22.55C145.458 22.3301 145.363 22.1626 145.238 22.0473C145.115 21.9321 144.966 21.8745 144.792 21.8745C144.531 21.8745 144.327 22.0032 144.18 22.2608C144.033 22.5171 143.96 22.8798 143.96 23.349C143.96 23.6617 143.992 23.9275 144.058 24.1462C144.124 24.3649 144.219 24.5313 144.342 24.6453C144.467 24.7594 144.617 24.8164 144.792 24.8164Z" fill="#23262F"/>
<path d="M155.518 21.8442V25.4658" stroke="#23262F" stroke-width="0.620832" stroke-linecap="round" stroke-linejoin="round"/>
<path d="M153.708 23.655H157.329" stroke="#23262F" stroke-width="0.620832" stroke-linecap="round" stroke-linejoin="round"/>
<path d="M167.935 20.3954C167.935 19.0239 169.047 17.9121 170.418 17.9121H193.389C194.761 17.9121 195.872 19.0239 195.872 20.3954V26.9142C195.872 28.2857 194.761 29.3975 193.389 29.3975H170.418C169.047 29.3975 167.935 28.2857 167.935 26.9142V20.3954Z" fill="#F7FAFC"/>
<path d="M173.252 22.2665H173.616V24.2974H174.511V22.2665H174.875V24.2974H175.77V22.2665H176.134V24.637H173.252V22.2665ZM176.477 22.606V22.2665H178.403V22.606H177.625V24.637H177.261V22.606H176.477ZM178.805 24.6617C178.729 24.6617 178.664 24.6344 178.609 24.5799C178.555 24.5253 178.527 24.46 178.527 24.3839C178.527 24.3077 178.555 24.2424 178.609 24.1879C178.664 24.1333 178.729 24.1061 178.805 24.1061C178.881 24.1061 178.947 24.1333 179.001 24.1879C179.056 24.2424 179.083 24.3077 179.083 24.3839C179.083 24.4343 179.07 24.4806 179.044 24.5228C179.02 24.5649 178.986 24.5989 178.944 24.6246C178.903 24.6493 178.857 24.6617 178.805 24.6617Z" fill="#23262F"/>
<path d="M188.94 22.8787L187.747 24.2094C187.606 24.3666 187.376 24.3666 187.235 24.2094L186.042 22.8787" stroke="#23262F" stroke-width="0.310416" stroke-miterlimit="10" stroke-linecap="round" stroke-linejoin="round"/>
<rect x="205.185" y="7.35791" width="0.310416" height="32.5937" fill="#23262F" fill-opacity="0.2"/>
<path d="M221.326 22.2581L218.718 24.8656L217.725 23.3756L215.738 25.3622" stroke="#31AA27" stroke-width="0.465624" stroke-linecap="round" stroke-linejoin="round"/>
<path d="M220.084 22.2581H221.326V23.4997" stroke="#31AA27" stroke-width="0.465624" stroke-linecap="round" stroke-linejoin="round"/>
<path d="M226.957 25.3594C226.724 25.3594 226.516 25.3195 226.334 25.2395C226.153 25.1596 226.009 25.0484 225.902 24.9062C225.796 24.7627 225.739 24.5963 225.729 24.407H226.174C226.183 24.5234 226.223 24.624 226.294 24.7086C226.364 24.7921 226.456 24.8568 226.57 24.9026C226.685 24.9485 226.811 24.9714 226.95 24.9714C227.105 24.9714 227.242 24.9444 227.362 24.8903C227.482 24.8362 227.576 24.761 227.645 24.6645C227.713 24.5681 227.747 24.4564 227.747 24.3294C227.747 24.1966 227.714 24.0796 227.648 23.9784C227.582 23.8761 227.486 23.7962 227.359 23.7386C227.232 23.681 227.077 23.6522 226.893 23.6522H226.604V23.2641H226.893C227.037 23.2641 227.162 23.2383 227.271 23.1865C227.38 23.1348 227.465 23.0619 227.526 22.9678C227.589 22.8738 227.62 22.7632 227.62 22.6362C227.62 22.514 227.593 22.4076 227.539 22.317C227.485 22.2265 227.408 22.1559 227.309 22.1054C227.212 22.0548 227.097 22.0295 226.964 22.0295C226.839 22.0295 226.722 22.0525 226.611 22.0983C226.502 22.143 226.412 22.2083 226.343 22.2941C226.274 22.3787 226.236 22.481 226.23 22.601H225.807C225.814 22.4117 225.871 22.2459 225.978 22.1036C226.085 21.9602 226.225 21.8485 226.398 21.7685C226.572 21.6885 226.763 21.6486 226.971 21.6486C227.194 21.6486 227.386 21.6938 227.546 21.7844C227.706 21.8737 227.829 21.9919 227.914 22.1389C228 22.2859 228.043 22.4446 228.043 22.6151C228.043 22.8185 227.99 22.9919 227.883 23.1354C227.777 23.2788 227.633 23.3782 227.451 23.4335V23.4617C227.679 23.4993 227.857 23.5963 227.985 23.7527C228.113 23.9079 228.177 24.1001 228.177 24.3294C228.177 24.5258 228.124 24.7022 228.017 24.8585C227.911 25.0138 227.766 25.136 227.583 25.2254C227.399 25.3148 227.191 25.3594 226.957 25.3594ZM228.899 25.3101V24.9926L230.091 23.6874C230.231 23.5346 230.346 23.4017 230.437 23.2888C230.527 23.1748 230.594 23.0678 230.638 22.9678C230.682 22.8667 230.705 22.7609 230.705 22.6504C230.705 22.5234 230.674 22.4134 230.613 22.3205C230.553 22.2277 230.471 22.1559 230.366 22.1054C230.261 22.0548 230.144 22.0295 230.013 22.0295C229.875 22.0295 229.753 22.0583 229.65 22.1159C229.548 22.1724 229.468 22.2518 229.412 22.3541C229.357 22.4563 229.329 22.5763 229.329 22.7139H228.913C228.913 22.5022 228.961 22.3164 229.059 22.1565C229.157 21.9966 229.29 21.872 229.458 21.7826C229.627 21.6932 229.817 21.6486 230.027 21.6486C230.239 21.6486 230.427 21.6932 230.59 21.7826C230.753 21.872 230.882 21.9925 230.974 22.1442C231.067 22.2958 231.114 22.4646 231.114 22.6504C231.114 22.7832 231.09 22.9132 231.042 23.0401C230.994 23.166 230.912 23.3065 230.795 23.4617C230.678 23.6157 230.517 23.8038 230.31 24.0261L229.498 24.8938V24.922H231.177V25.3101H228.899ZM233.105 25.3594C232.957 25.3571 232.809 25.3289 232.661 25.2748C232.512 25.2207 232.377 25.1296 232.255 25.0014C232.133 24.8721 232.034 24.6975 231.96 24.4776C231.886 24.2565 231.849 23.979 231.849 23.6451C231.849 23.3253 231.879 23.0419 231.939 22.795C231.999 22.5469 232.086 22.3382 232.2 22.1689C232.314 21.9984 232.452 21.869 232.613 21.7808C232.775 21.6927 232.958 21.6486 233.162 21.6486C233.364 21.6486 233.544 21.6891 233.701 21.7703C233.86 21.8502 233.989 21.9619 234.089 22.1054C234.189 22.2488 234.254 22.414 234.283 22.601H233.853C233.813 22.4387 233.735 22.3041 233.62 22.1971C233.505 22.0901 233.352 22.0366 233.162 22.0366C232.882 22.0366 232.661 22.1583 232.5 22.4017C232.34 22.6451 232.26 22.9866 232.258 23.4264H232.287C232.353 23.3265 232.431 23.2412 232.521 23.1707C232.613 23.0989 232.714 23.0437 232.825 23.0049C232.935 22.9661 233.052 22.9467 233.176 22.9467C233.383 22.9467 233.572 22.9984 233.744 23.1019C233.915 23.2042 234.053 23.3459 234.156 23.5269C234.26 23.7068 234.311 23.9132 234.311 24.146C234.311 24.3694 234.261 24.574 234.162 24.7598C234.062 24.9444 233.921 25.0914 233.74 25.2007C233.56 25.3089 233.348 25.3618 233.105 25.3594ZM233.105 24.9714C233.253 24.9714 233.386 24.9344 233.504 24.8603C233.622 24.7862 233.716 24.6869 233.784 24.5622C233.853 24.4376 233.888 24.2989 233.888 24.146C233.888 23.9967 233.855 23.8609 233.788 23.7386C233.722 23.6151 233.631 23.5169 233.514 23.444C233.399 23.3711 233.267 23.3347 233.119 23.3347C233.007 23.3347 232.903 23.357 232.807 23.4017C232.711 23.4452 232.626 23.5052 232.553 23.5816C232.481 23.658 232.425 23.7456 232.384 23.8444C232.343 23.942 232.322 24.0449 232.322 24.1531C232.322 24.2965 232.355 24.4305 232.423 24.5552C232.491 24.6798 232.584 24.7804 232.701 24.8568C232.82 24.9332 232.955 24.9714 233.105 24.9714ZM235.146 25.3383C235.059 25.3383 234.984 25.3071 234.922 25.2448C234.859 25.1825 234.828 25.1078 234.828 25.0208C234.828 24.9338 234.859 24.8591 234.922 24.7968C234.984 24.7345 235.059 24.7033 235.146 24.7033C235.233 24.7033 235.307 24.7345 235.37 24.7968C235.432 24.8591 235.463 24.9338 235.463 25.0208C235.463 25.0784 235.448 25.1313 235.419 25.1795C235.391 25.2278 235.353 25.2666 235.304 25.2959C235.257 25.3242 235.204 25.3383 235.146 25.3383ZM236.243 25.3101L237.859 22.1142V22.086H235.996V21.6979H238.31V22.1071L236.702 25.3101H236.243ZM240.052 25.3594C239.81 25.3594 239.596 25.3165 239.41 25.2307C239.225 25.1437 239.081 25.0243 238.978 24.8727C238.874 24.7198 238.823 24.5458 238.824 24.3506C238.823 24.1977 238.853 24.0566 238.914 23.9273C238.975 23.7968 239.059 23.688 239.165 23.601C239.272 23.5128 239.391 23.457 239.523 23.4335V23.4123C239.35 23.3676 239.212 23.2706 239.11 23.1213C239.008 22.9708 238.957 22.7997 238.958 22.608C238.957 22.4246 239.004 22.2606 239.098 22.1159C239.192 21.9713 239.321 21.8573 239.486 21.7738C239.652 21.6903 239.84 21.6486 240.052 21.6486C240.261 21.6486 240.448 21.6903 240.613 21.7738C240.777 21.8573 240.907 21.9713 241.001 22.1159C241.096 22.2606 241.144 22.4246 241.145 22.608C241.144 22.7997 241.092 22.9708 240.988 23.1213C240.886 23.2706 240.75 23.3676 240.581 23.4123V23.4335C240.712 23.457 240.829 23.5128 240.934 23.601C241.038 23.688 241.122 23.7968 241.184 23.9273C241.247 24.0566 241.278 24.1977 241.279 24.3506C241.278 24.5458 241.225 24.7198 241.121 24.8727C241.017 25.0243 240.873 25.1437 240.689 25.2307C240.505 25.3165 240.293 25.3594 240.052 25.3594ZM240.052 24.9714C240.215 24.9714 240.356 24.945 240.475 24.8921C240.594 24.8391 240.686 24.7645 240.75 24.6681C240.815 24.5716 240.848 24.4588 240.849 24.3294C240.848 24.193 240.813 24.0725 240.743 23.9679C240.674 23.8632 240.579 23.7809 240.459 23.7209C240.341 23.661 240.205 23.631 240.052 23.631C239.898 23.631 239.76 23.661 239.639 23.7209C239.519 23.7809 239.425 23.8632 239.355 23.9679C239.287 24.0725 239.254 24.193 239.255 24.3294C239.254 24.4588 239.285 24.5716 239.348 24.6681C239.413 24.7645 239.505 24.8391 239.625 24.8921C239.745 24.945 239.887 24.9714 240.052 24.9714ZM240.052 23.2571C240.181 23.2571 240.296 23.2312 240.396 23.1795C240.497 23.1277 240.576 23.0554 240.634 22.9625C240.692 22.8696 240.721 22.7609 240.722 22.6362C240.721 22.514 240.692 22.4076 240.636 22.317C240.579 22.2253 240.501 22.1548 240.401 22.1054C240.301 22.0548 240.185 22.0295 240.052 22.0295C239.917 22.0295 239.799 22.0548 239.697 22.1054C239.596 22.1548 239.518 22.2253 239.463 22.317C239.408 22.4076 239.381 22.514 239.382 22.6362C239.381 22.7609 239.408 22.8696 239.465 22.9625C239.522 23.0554 239.602 23.1277 239.703 23.1795C239.804 23.2312 239.92 23.2571 240.052 23.2571ZM244.996 23.8426H243.162V23.4546H244.996C245.165 23.4546 245.305 23.4252 245.416 23.3664C245.526 23.3065 245.609 23.2253 245.663 23.123C245.717 23.0196 245.744 22.902 245.744 22.7703C245.744 22.6386 245.717 22.5216 245.663 22.4193C245.609 22.3158 245.526 22.2347 245.416 22.1759C245.305 22.1159 245.165 22.086 244.996 22.086H244.171V25.3101H243.733V21.6979H244.996C245.264 21.6979 245.485 21.7467 245.659 21.8443C245.833 21.9419 245.963 22.0719 246.047 22.2341C246.132 22.3964 246.174 22.5751 246.174 22.7703C246.174 22.9655 246.132 23.1442 246.047 23.3065C245.963 23.4687 245.833 23.5987 245.659 23.6962C245.485 23.7938 245.264 23.8426 244.996 23.8426ZM244.968 24.1813V24.5693H243.162V24.1813H244.968Z" fill="#23262F"/>
<path d="M266.297 22.2581L263.69 24.8656L262.697 23.3756L260.71 25.3622" stroke="#31AA27" stroke-width="0.465624" stroke-linecap="round" stroke-linejoin="round"/>
<path d="M265.056 22.2581H266.297V23.4997" stroke="#31AA27" stroke-width="0.465624" stroke-linecap="round" stroke-linejoin="round"/>
<path d="M270.707 25.3101V24.9926L271.899 23.6874C272.039 23.5346 272.154 23.4017 272.245 23.2888C272.335 23.1748 272.402 23.0678 272.446 22.9678C272.491 22.8667 272.513 22.7609 272.513 22.6504C272.513 22.5234 272.482 22.4134 272.421 22.3205C272.361 22.2277 272.279 22.1559 272.174 22.1054C272.07 22.0548 271.952 22.0295 271.822 22.0295C271.683 22.0295 271.562 22.0583 271.458 22.1159C271.356 22.1724 271.277 22.2518 271.22 22.3541C271.165 22.4563 271.137 22.5763 271.137 22.7139H270.721C270.721 22.5022 270.77 22.3164 270.867 22.1565C270.965 21.9966 271.098 21.872 271.266 21.7826C271.435 21.6932 271.625 21.6486 271.836 21.6486C272.047 21.6486 272.235 21.6932 272.398 21.7826C272.562 21.872 272.69 21.9925 272.783 22.1442C272.876 22.2958 272.922 22.4646 272.922 22.6504C272.922 22.7832 272.898 22.9132 272.85 23.0401C272.803 23.166 272.721 23.3065 272.603 23.4617C272.487 23.6157 272.325 23.8038 272.118 24.0261L271.307 24.8938V24.922H272.986V25.3101H270.707ZM273.714 25.3101V24.9926L274.906 23.6874C275.046 23.5346 275.162 23.4017 275.252 23.2888C275.343 23.1748 275.41 23.0678 275.453 22.9678C275.498 22.8667 275.52 22.7609 275.52 22.6504C275.52 22.5234 275.49 22.4134 275.428 22.3205C275.368 22.2277 275.286 22.1559 275.181 22.1054C275.077 22.0548 274.959 22.0295 274.829 22.0295C274.69 22.0295 274.569 22.0583 274.465 22.1159C274.363 22.1724 274.284 22.2518 274.227 22.3541C274.172 22.4563 274.144 22.5763 274.144 22.7139H273.728C273.728 22.5022 273.777 22.3164 273.875 22.1565C273.972 21.9966 274.105 21.872 274.273 21.7826C274.442 21.6932 274.632 21.6486 274.843 21.6486C275.055 21.6486 275.242 21.6932 275.405 21.7826C275.569 21.872 275.697 21.9925 275.79 22.1442C275.883 22.2958 275.929 22.4646 275.929 22.6504C275.929 22.7832 275.905 22.9132 275.857 23.0401C275.81 23.166 275.728 23.3065 275.61 23.4617C275.494 23.6157 275.332 23.8038 275.125 24.0261L274.314 24.8938V24.922H275.993V25.3101H273.714ZM277.921 25.3594C277.772 25.3571 277.624 25.3289 277.476 25.2748C277.328 25.2207 277.193 25.1296 277.07 25.0014C276.948 24.8721 276.85 24.6975 276.776 24.4776C276.702 24.2565 276.665 23.979 276.665 23.6451C276.665 23.3253 276.695 23.0419 276.755 22.795C276.815 22.5469 276.902 22.3382 277.016 22.1689C277.13 21.9984 277.267 21.869 277.428 21.7808C277.591 21.6927 277.774 21.6486 277.977 21.6486C278.179 21.6486 278.359 21.6891 278.517 21.7703C278.675 21.8502 278.805 21.9619 278.905 22.1054C279.005 22.2488 279.069 22.414 279.099 22.601H278.668C278.628 22.4387 278.551 22.3041 278.436 22.1971C278.32 22.0901 278.167 22.0366 277.977 22.0366C277.697 22.0366 277.477 22.1583 277.316 22.4017C277.156 22.6451 277.075 22.9866 277.074 23.4264H277.102C277.168 23.3265 277.246 23.2412 277.337 23.1707C277.428 23.0989 277.53 23.0437 277.64 23.0049C277.751 22.9661 277.868 22.9467 277.991 22.9467C278.198 22.9467 278.387 22.9984 278.559 23.1019C278.731 23.2042 278.868 23.3459 278.972 23.5269C279.075 23.7068 279.127 23.9132 279.127 24.146C279.127 24.3694 279.077 24.574 278.977 24.7598C278.877 24.9444 278.737 25.0914 278.556 25.2007C278.376 25.3089 278.164 25.3618 277.921 25.3594ZM277.921 24.9714C278.069 24.9714 278.202 24.9344 278.319 24.8603C278.438 24.7862 278.531 24.6869 278.6 24.5622C278.669 24.4376 278.704 24.2989 278.704 24.146C278.704 23.9967 278.67 23.8609 278.603 23.7386C278.537 23.6151 278.446 23.5169 278.33 23.444C278.215 23.3711 278.083 23.3347 277.935 23.3347C277.823 23.3347 277.719 23.357 277.622 23.4017C277.526 23.4452 277.441 23.5052 277.369 23.5816C277.297 23.658 277.24 23.7456 277.199 23.8444C277.158 23.942 277.137 24.0449 277.137 24.1531C277.137 24.2965 277.171 24.4305 277.238 24.5552C277.306 24.6798 277.399 24.7804 277.517 24.8568C277.635 24.9332 277.77 24.9714 277.921 24.9714ZM279.961 25.3383C279.874 25.3383 279.8 25.3071 279.737 25.2448C279.675 25.1825 279.644 25.1078 279.644 25.0208C279.644 24.9338 279.675 24.8591 279.737 24.7968C279.8 24.7345 279.874 24.7033 279.961 24.7033C280.048 24.7033 280.123 24.7345 280.185 24.7968C280.248 24.8591 280.279 24.9338 280.279 25.0208C280.279 25.0784 280.264 25.1313 280.235 25.1795C280.206 25.2278 280.168 25.2666 280.12 25.2959C280.073 25.3242 280.02 25.3383 279.961 25.3383ZM281.059 25.3101L282.674 22.1142V22.086H280.812V21.6979H283.126V22.1071L281.517 25.3101H281.059ZM284.867 25.3594C284.625 25.3594 284.411 25.3165 284.225 25.2307C284.041 25.1437 283.897 25.0243 283.793 24.8727C283.69 24.7198 283.639 24.5458 283.64 24.3506C283.639 24.1977 283.669 24.0566 283.73 23.9273C283.791 23.7968 283.874 23.688 283.98 23.601C284.087 23.5128 284.207 23.457 284.338 23.4335V23.4123C284.165 23.3676 284.028 23.2706 283.926 23.1213C283.823 22.9708 283.773 22.7997 283.774 22.608C283.773 22.4246 283.819 22.2606 283.913 22.1159C284.007 21.9713 284.137 21.8573 284.301 21.7738C284.467 21.6903 284.656 21.6486 284.867 21.6486C285.077 21.6486 285.264 21.6903 285.428 21.7738C285.593 21.8573 285.722 21.9713 285.816 22.1159C285.912 22.2606 285.96 22.4246 285.961 22.608C285.96 22.7997 285.907 22.9708 285.804 23.1213C285.702 23.2706 285.566 23.3676 285.397 23.4123V23.4335C285.527 23.457 285.645 23.5128 285.749 23.601C285.854 23.688 285.937 23.7968 286 23.9273C286.062 24.0566 286.094 24.1977 286.095 24.3506C286.094 24.5458 286.041 24.7198 285.936 24.8727C285.833 25.0243 285.689 25.1437 285.504 25.2307C285.321 25.3165 285.108 25.3594 284.867 25.3594ZM284.867 24.9714C285.031 24.9714 285.172 24.945 285.291 24.8921C285.409 24.8391 285.501 24.7645 285.566 24.6681C285.631 24.5716 285.663 24.4588 285.665 24.3294C285.663 24.193 285.628 24.0725 285.559 23.9679C285.489 23.8632 285.395 23.7809 285.275 23.7209C285.156 23.661 285.02 23.631 284.867 23.631C284.713 23.631 284.576 23.661 284.455 23.7209C284.335 23.7809 284.24 23.8632 284.171 23.9679C284.103 24.0725 284.069 24.193 284.07 24.3294C284.069 24.4588 284.1 24.5716 284.164 24.6681C284.228 24.7645 284.321 24.8391 284.441 24.8921C284.561 24.945 284.703 24.9714 284.867 24.9714ZM284.867 23.2571C284.997 23.2571 285.111 23.2312 285.211 23.1795C285.312 23.1277 285.392 23.0554 285.449 22.9625C285.507 22.8696 285.536 22.7609 285.538 22.6362C285.536 22.514 285.508 22.4076 285.451 22.317C285.395 22.2253 285.317 22.1548 285.217 22.1054C285.117 22.0548 285 22.0295 284.867 22.0295C284.732 22.0295 284.614 22.0548 284.513 22.1054C284.412 22.1548 284.334 22.2253 284.278 22.317C284.223 22.4076 284.196 22.514 284.197 22.6362C284.196 22.7609 284.224 22.8696 284.28 22.9625C284.338 23.0554 284.417 23.1277 284.518 23.1795C284.619 23.2312 284.736 23.2571 284.867 23.2571ZM289.812 23.8426H287.977V23.4546H289.812C289.981 23.4546 290.121 23.4252 290.231 23.3664C290.342 23.3065 290.424 23.2253 290.478 23.123C290.532 23.0196 290.559 22.902 290.559 22.7703C290.559 22.6386 290.532 22.5216 290.478 22.4193C290.424 22.3158 290.342 22.2347 290.231 22.1759C290.121 22.1159 289.981 22.086 289.812 22.086H288.986V25.3101H288.549V21.6979H289.812C290.08 21.6979 290.301 21.7467 290.475 21.8443C290.649 21.9419 290.778 22.0719 290.863 22.2341C290.947 22.3964 290.99 22.5751 290.99 22.7703C290.99 22.9655 290.947 23.1442 290.863 23.3065C290.778 23.4687 290.649 23.5987 290.475 23.6962C290.301 23.7938 290.08 23.8426 289.812 23.8426ZM289.783 24.1813V24.5693H287.977V24.1813H289.783Z" fill="#23262F"/>
<path d="M311.355 25.6208L308.313 22.5788L307.154 24.3171L304.836 21.9993" stroke="#F16063" stroke-width="0.465624" stroke-linecap="round" stroke-linejoin="round"/>
<path d="M309.905 25.6208H311.354V24.1722" stroke="#F16063" stroke-width="0.465624" stroke-linecap="round" stroke-linejoin="round"/>
<path d="M315.835 24.569V24.2092L317.423 21.6977H317.684V22.255H317.507L316.308 24.1528V24.181H318.445V24.569H315.835ZM317.535 25.3098V24.4597V24.2921V21.6977H317.952V25.3098H317.535ZM320.306 25.3592C320.158 25.3568 320.009 25.3286 319.861 25.2745C319.713 25.2205 319.578 25.1293 319.456 25.0012C319.333 24.8718 319.235 24.6972 319.161 24.4773C319.087 24.2563 319.05 23.9788 319.05 23.6449C319.05 23.325 319.08 23.0417 319.14 22.7947C319.2 22.5466 319.287 22.3379 319.401 22.1686C319.515 21.9981 319.653 21.8688 319.814 21.7806C319.976 21.6924 320.159 21.6483 320.362 21.6483C320.564 21.6483 320.744 21.6889 320.902 21.77C321.061 21.85 321.19 21.9617 321.29 22.1051C321.39 22.2486 321.455 22.4138 321.484 22.6007H321.054C321.014 22.4385 320.936 22.3038 320.821 22.1968C320.706 22.0898 320.553 22.0363 320.362 22.0363C320.082 22.0363 319.862 22.158 319.701 22.4014C319.541 22.6448 319.46 22.9864 319.459 23.4262H319.487C319.553 23.3262 319.631 23.241 319.722 23.1704C319.814 23.0987 319.915 23.0434 320.025 23.0046C320.136 22.9658 320.253 22.9464 320.376 22.9464C320.583 22.9464 320.773 22.9982 320.944 23.1016C321.116 23.2039 321.253 23.3456 321.357 23.5267C321.46 23.7066 321.512 23.9129 321.512 24.1458C321.512 24.3692 321.462 24.5738 321.362 24.7595C321.262 24.9441 321.122 25.0911 320.941 25.2005C320.761 25.3086 320.549 25.3616 320.306 25.3592ZM320.306 24.9712C320.454 24.9712 320.587 24.9341 320.704 24.8601C320.823 24.786 320.917 24.6866 320.985 24.562C321.054 24.4374 321.089 24.2986 321.089 24.1458C321.089 23.9964 321.055 23.8606 320.988 23.7383C320.922 23.6149 320.831 23.5167 320.715 23.4438C320.6 23.3709 320.468 23.3344 320.32 23.3344C320.208 23.3344 320.104 23.3568 320.008 23.4015C319.911 23.445 319.827 23.5049 319.754 23.5814C319.682 23.6578 319.626 23.7454 319.584 23.8442C319.543 23.9418 319.523 24.0446 319.523 24.1528C319.523 24.2963 319.556 24.4303 319.623 24.5549C319.691 24.6796 319.784 24.7801 319.902 24.8565C320.021 24.933 320.155 24.9712 320.306 24.9712ZM323.405 25.3592C323.257 25.3568 323.109 25.3286 322.961 25.2745C322.812 25.2205 322.677 25.1293 322.555 25.0012C322.433 24.8718 322.334 24.6972 322.26 24.4773C322.186 24.2563 322.149 23.9788 322.149 23.6449C322.149 23.325 322.179 23.0417 322.239 22.7947C322.299 22.5466 322.386 22.3379 322.5 22.1686C322.614 21.9981 322.752 21.8688 322.913 21.7806C323.075 21.6924 323.258 21.6483 323.462 21.6483C323.664 21.6483 323.844 21.6889 324.001 21.77C324.16 21.85 324.289 21.9617 324.389 22.1051C324.489 22.2486 324.554 22.4138 324.583 22.6007H324.153C324.113 22.4385 324.035 22.3038 323.92 22.1968C323.805 22.0898 323.652 22.0363 323.462 22.0363C323.182 22.0363 322.961 22.158 322.8 22.4014C322.64 22.6448 322.56 22.9864 322.558 23.4262H322.587C322.653 23.3262 322.731 23.241 322.821 23.1704C322.913 23.0987 323.014 23.0434 323.125 23.0046C323.235 22.9658 323.352 22.9464 323.476 22.9464C323.683 22.9464 323.872 22.9982 324.044 23.1016C324.215 23.2039 324.353 23.3456 324.456 23.5267C324.56 23.7066 324.611 23.9129 324.611 24.1458C324.611 24.3692 324.561 24.5738 324.462 24.7595C324.362 24.9441 324.221 25.0911 324.04 25.2005C323.86 25.3086 323.648 25.3616 323.405 25.3592ZM323.405 24.9712C323.553 24.9712 323.686 24.9341 323.804 24.8601C323.922 24.786 324.016 24.6866 324.084 24.562C324.153 24.4374 324.188 24.2986 324.188 24.1458C324.188 23.9964 324.155 23.8606 324.088 23.7383C324.022 23.6149 323.931 23.5167 323.814 23.4438C323.699 23.3709 323.567 23.3344 323.419 23.3344C323.307 23.3344 323.203 23.3568 323.107 23.4015C323.011 23.445 322.926 23.5049 322.853 23.5814C322.781 23.6578 322.725 23.7454 322.684 23.8442C322.643 23.9418 322.622 24.0446 322.622 24.1528C322.622 24.2963 322.655 24.4303 322.723 24.5549C322.791 24.6796 322.884 24.7801 323.001 24.8565C323.12 24.933 323.255 24.9712 323.405 24.9712ZM325.446 25.338C325.359 25.338 325.284 25.3069 325.222 25.2446C325.159 25.1822 325.128 25.1076 325.128 25.0206C325.128 24.9336 325.159 24.8589 325.222 24.7966C325.284 24.7343 325.359 24.7031 325.446 24.7031C325.533 24.7031 325.607 24.7343 325.67 24.7966C325.732 24.8589 325.763 24.9336 325.763 25.0206C325.763 25.0782 325.748 25.1311 325.719 25.1793C325.691 25.2275 325.653 25.2663 325.604 25.2957C325.557 25.3239 325.504 25.338 325.446 25.338ZM326.543 25.3098L328.159 22.1139V22.0857H326.296V21.6977H328.61V22.1069L327.002 25.3098H326.543ZM330.352 25.3592C330.11 25.3592 329.896 25.3163 329.71 25.2304C329.525 25.1434 329.381 25.0241 329.278 24.8724C329.174 24.7196 329.123 24.5455 329.124 24.3503C329.123 24.1975 329.153 24.0564 329.214 23.9271C329.275 23.7965 329.359 23.6878 329.465 23.6008C329.572 23.5126 329.691 23.4567 329.823 23.4332V23.412C329.65 23.3674 329.512 23.2704 329.41 23.121C329.308 22.9705 329.257 22.7994 329.258 22.6078C329.257 22.4244 329.304 22.2603 329.398 22.1157C329.492 21.9711 329.621 21.857 329.786 21.7735C329.952 21.6901 330.14 21.6483 330.352 21.6483C330.561 21.6483 330.748 21.6901 330.913 21.7735C331.077 21.857 331.207 21.9711 331.301 22.1157C331.396 22.2603 331.444 22.4244 331.445 22.6078C331.444 22.7994 331.392 22.9705 331.288 23.121C331.186 23.2704 331.05 23.3674 330.881 23.412V23.4332C331.012 23.4567 331.129 23.5126 331.234 23.6008C331.338 23.6878 331.422 23.7965 331.484 23.9271C331.547 24.0564 331.578 24.1975 331.579 24.3503C331.578 24.5455 331.525 24.7196 331.421 24.8724C331.317 25.0241 331.173 25.1434 330.989 25.2304C330.805 25.3163 330.593 25.3592 330.352 25.3592ZM330.352 24.9712C330.515 24.9712 330.656 24.9447 330.775 24.8918C330.894 24.8389 330.986 24.7642 331.05 24.6678C331.115 24.5714 331.148 24.4585 331.149 24.3292C331.148 24.1928 331.113 24.0723 331.043 23.9676C330.974 23.863 330.879 23.7807 330.759 23.7207C330.641 23.6607 330.505 23.6307 330.352 23.6307C330.198 23.6307 330.06 23.6607 329.939 23.7207C329.819 23.7807 329.725 23.863 329.655 23.9676C329.587 24.0723 329.554 24.1928 329.555 24.3292C329.554 24.4585 329.585 24.5714 329.648 24.6678C329.713 24.7642 329.805 24.8389 329.925 24.8918C330.045 24.9447 330.187 24.9712 330.352 24.9712ZM330.352 23.2568C330.481 23.2568 330.596 23.231 330.696 23.1792C330.797 23.1275 330.876 23.0552 330.934 22.9623C330.992 22.8694 331.021 22.7606 331.022 22.636C331.021 22.5137 330.992 22.4073 330.936 22.3168C330.879 22.2251 330.801 22.1545 330.701 22.1051C330.601 22.0546 330.485 22.0293 330.352 22.0293C330.217 22.0293 330.099 22.0546 329.997 22.1051C329.896 22.1545 329.818 22.2251 329.763 22.3168C329.708 22.4073 329.681 22.5137 329.682 22.636C329.681 22.7606 329.708 22.8694 329.765 22.9623C329.822 23.0552 329.902 23.1275 330.003 23.1792C330.104 23.231 330.22 23.2568 330.352 23.2568ZM335.296 23.8424H333.462V23.4544H335.296C335.465 23.4544 335.605 23.425 335.716 23.3662C335.826 23.3062 335.909 23.2251 335.963 23.1228C336.017 23.0193 336.044 22.9017 336.044 22.77C336.044 22.6384 336.017 22.5214 335.963 22.4191C335.909 22.3156 335.826 22.2345 335.716 22.1757C335.605 22.1157 335.465 22.0857 335.296 22.0857H334.471V25.3098H334.033V21.6977H335.296C335.564 21.6977 335.785 21.7465 335.959 21.8441C336.133 21.9417 336.263 22.0716 336.347 22.2339C336.432 22.3961 336.474 22.5749 336.474 22.77C336.474 22.9652 336.432 23.144 336.347 23.3062C336.263 23.4685 336.133 23.5984 335.959 23.696C335.785 23.7936 335.564 23.8424 335.296 23.8424ZM335.268 24.181V24.569H333.462V24.181H335.268Z" fill="#23262F"/>
<path d="M357.567 25.6208L354.525 22.5788L353.366 24.3171L351.048 21.9993" stroke="#F16063" stroke-width="0.465624" stroke-linecap="round" stroke-linejoin="round"/>
<path d="M356.118 25.6208H357.567V24.1722" stroke="#F16063" stroke-width="0.465624" stroke-linecap="round" stroke-linejoin="round"/>
<path d="M362.047 24.569V24.2092L363.634 21.6977H363.895V22.255H363.719L362.52 24.1528V24.181H364.657V24.569H362.047ZM363.747 25.3098V24.4597V24.2921V21.6977H364.164V25.3098H363.747ZM366.518 25.3592C366.37 25.3568 366.221 25.3286 366.073 25.2745C365.925 25.2205 365.79 25.1293 365.668 25.0012C365.545 24.8718 365.447 24.6972 365.373 24.4773C365.299 24.2563 365.262 23.9788 365.262 23.6449C365.262 23.325 365.292 23.0417 365.352 22.7947C365.412 22.5466 365.499 22.3379 365.613 22.1686C365.727 21.9981 365.865 21.8688 366.026 21.7806C366.188 21.6924 366.371 21.6483 366.574 21.6483C366.776 21.6483 366.956 21.6889 367.114 21.77C367.273 21.85 367.402 21.9617 367.502 22.1051C367.602 22.2486 367.666 22.4138 367.696 22.6007H367.265C367.226 22.4385 367.148 22.3038 367.033 22.1968C366.917 22.0898 366.765 22.0363 366.574 22.0363C366.294 22.0363 366.074 22.158 365.913 22.4014C365.753 22.6448 365.672 22.9864 365.671 23.4262H365.699C365.765 23.3262 365.843 23.241 365.934 23.1704C366.026 23.0987 366.127 23.0434 366.237 23.0046C366.348 22.9658 366.465 22.9464 366.588 22.9464C366.795 22.9464 366.984 22.9982 367.156 23.1016C367.328 23.2039 367.465 23.3456 367.569 23.5267C367.672 23.7066 367.724 23.9129 367.724 24.1458C367.724 24.3692 367.674 24.5738 367.574 24.7595C367.474 24.9441 367.334 25.0911 367.153 25.2005C366.973 25.3086 366.761 25.3616 366.518 25.3592ZM366.518 24.9712C366.666 24.9712 366.799 24.9341 366.916 24.8601C367.035 24.786 367.129 24.6866 367.197 24.562C367.266 24.4374 367.301 24.2986 367.301 24.1458C367.301 23.9964 367.267 23.8606 367.2 23.7383C367.134 23.6149 367.043 23.5167 366.927 23.4438C366.812 23.3709 366.68 23.3344 366.532 23.3344C366.42 23.3344 366.316 23.3568 366.22 23.4015C366.123 23.445 366.039 23.5049 365.966 23.5814C365.894 23.6578 365.837 23.7454 365.796 23.8442C365.755 23.9418 365.735 24.0446 365.735 24.1528C365.735 24.2963 365.768 24.4303 365.835 24.5549C365.903 24.6796 365.996 24.7801 366.114 24.8565C366.233 24.933 366.367 24.9712 366.518 24.9712ZM369.617 25.3592C369.469 25.3568 369.321 25.3286 369.173 25.2745C369.024 25.2205 368.889 25.1293 368.767 25.0012C368.645 24.8718 368.546 24.6972 368.472 24.4773C368.398 24.2563 368.361 23.9788 368.361 23.6449C368.361 23.325 368.391 23.0417 368.451 22.7947C368.511 22.5466 368.598 22.3379 368.712 22.1686C368.826 21.9981 368.964 21.8688 369.125 21.7806C369.287 21.6924 369.47 21.6483 369.673 21.6483C369.876 21.6483 370.056 21.6889 370.213 21.77C370.372 21.85 370.501 21.9617 370.601 22.1051C370.701 22.2486 370.766 22.4138 370.795 22.6007H370.365C370.325 22.4385 370.247 22.3038 370.132 22.1968C370.017 22.0898 369.864 22.0363 369.673 22.0363C369.394 22.0363 369.173 22.158 369.012 22.4014C368.852 22.6448 368.772 22.9864 368.77 23.4262H368.799C368.864 23.3262 368.943 23.241 369.033 23.1704C369.125 23.0987 369.226 23.0434 369.337 23.0046C369.447 22.9658 369.564 22.9464 369.688 22.9464C369.894 22.9464 370.084 22.9982 370.255 23.1016C370.427 23.2039 370.565 23.3456 370.668 23.5267C370.772 23.7066 370.823 23.9129 370.823 24.1458C370.823 24.3692 370.773 24.5738 370.673 24.7595C370.574 24.9441 370.433 25.0911 370.252 25.2005C370.072 25.3086 369.86 25.3616 369.617 25.3592ZM369.617 24.9712C369.765 24.9712 369.898 24.9341 370.016 24.8601C370.134 24.786 370.228 24.6866 370.296 24.562C370.365 24.4374 370.4 24.2986 370.4 24.1458C370.4 23.9964 370.367 23.8606 370.3 23.7383C370.234 23.6149 370.143 23.5167 370.026 23.4438C369.911 23.3709 369.779 23.3344 369.631 23.3344C369.519 23.3344 369.415 23.3568 369.319 23.4015C369.222 23.445 369.138 23.5049 369.065 23.5814C368.993 23.6578 368.937 23.7454 368.896 23.8442C368.854 23.9418 368.834 24.0446 368.834 24.1528C368.834 24.2963 368.867 24.4303 368.934 24.5549C369.003 24.6796 369.096 24.7801 369.213 24.8565C369.332 24.933 369.466 24.9712 369.617 24.9712ZM371.658 25.338C371.571 25.338 371.496 25.3069 371.434 25.2446C371.371 25.1822 371.34 25.1076 371.34 25.0206C371.34 24.9336 371.371 24.8589 371.434 24.7966C371.496 24.7343 371.571 24.7031 371.658 24.7031C371.745 24.7031 371.819 24.7343 371.882 24.7966C371.944 24.8589 371.975 24.9336 371.975 25.0206C371.975 25.0782 371.96 25.1311 371.931 25.1793C371.903 25.2275 371.865 25.2663 371.816 25.2957C371.769 25.3239 371.716 25.338 371.658 25.338ZM372.755 25.3098L374.371 22.1139V22.0857H372.508V21.6977H374.822V22.1069L373.214 25.3098H372.755ZM376.564 25.3592C376.322 25.3592 376.108 25.3163 375.922 25.2304C375.737 25.1434 375.593 25.0241 375.49 24.8724C375.386 24.7196 375.335 24.5455 375.336 24.3503C375.335 24.1975 375.365 24.0564 375.426 23.9271C375.487 23.7965 375.571 23.6878 375.677 23.6008C375.784 23.5126 375.903 23.4567 376.035 23.4332V23.412C375.862 23.3674 375.724 23.2704 375.622 23.121C375.52 22.9705 375.469 22.7994 375.47 22.6078C375.469 22.4244 375.516 22.2603 375.61 22.1157C375.704 21.9711 375.833 21.857 375.998 21.7735C376.163 21.6901 376.352 21.6483 376.564 21.6483C376.773 21.6483 376.96 21.6901 377.125 21.7735C377.289 21.857 377.419 21.9711 377.513 22.1157C377.608 22.2603 377.656 22.4244 377.657 22.6078C377.656 22.7994 377.604 22.9705 377.5 23.121C377.398 23.2704 377.262 23.3674 377.093 23.412V23.4332C377.223 23.4567 377.341 23.5126 377.446 23.6008C377.55 23.6878 377.634 23.7965 377.696 23.9271C377.758 24.0564 377.79 24.1975 377.791 24.3503C377.79 24.5455 377.737 24.7196 377.633 24.8724C377.529 25.0241 377.385 25.1434 377.201 25.2304C377.017 25.3163 376.805 25.3592 376.564 25.3592ZM376.564 24.9712C376.727 24.9712 376.868 24.9447 376.987 24.8918C377.106 24.8389 377.198 24.7642 377.262 24.6678C377.327 24.5714 377.36 24.4585 377.361 24.3292C377.36 24.1928 377.325 24.0723 377.255 23.9676C377.186 23.863 377.091 23.7807 376.971 23.7207C376.853 23.6607 376.717 23.6307 376.564 23.6307C376.41 23.6307 376.272 23.6607 376.151 23.7207C376.031 23.7807 375.937 23.863 375.867 23.9676C375.799 24.0723 375.765 24.1928 375.767 24.3292C375.765 24.4585 375.797 24.5714 375.86 24.6678C375.925 24.7642 376.017 24.8389 376.137 24.8918C376.257 24.9447 376.399 24.9712 376.564 24.9712ZM376.564 23.2568C376.693 23.2568 376.808 23.231 376.908 23.1792C377.009 23.1275 377.088 23.0552 377.146 22.9623C377.204 22.8694 377.233 22.7606 377.234 22.636C377.233 22.5137 377.204 22.4073 377.148 22.3168C377.091 22.2251 377.013 22.1545 376.913 22.1051C376.813 22.0546 376.697 22.0293 376.564 22.0293C376.429 22.0293 376.31 22.0546 376.209 22.1051C376.108 22.1545 376.03 22.2251 375.975 22.3168C375.92 22.4073 375.892 22.5137 375.894 22.636C375.892 22.7606 375.92 22.8694 375.977 22.9623C376.034 23.0552 376.114 23.1275 376.215 23.1792C376.316 23.231 376.432 23.2568 376.564 23.2568ZM381.508 23.8424H379.674V23.4544H381.508C381.677 23.4544 381.817 23.425 381.928 23.3662C382.038 23.3062 382.121 23.2251 382.175 23.1228C382.229 23.0193 382.256 22.9017 382.256 22.77C382.256 22.6384 382.229 22.5214 382.175 22.4191C382.121 22.3156 382.038 22.2345 381.928 22.1757C381.817 22.1157 381.677 22.0857 381.508 22.0857H380.683V25.3098H380.245V21.6977H381.508C381.776 21.6977 381.997 21.7465 382.171 21.8441C382.345 21.9417 382.475 22.0716 382.559 22.2339C382.644 22.3961 382.686 22.5749 382.686 22.77C382.686 22.9652 382.644 23.144 382.559 23.3062C382.475 23.4685 382.345 23.5984 382.171 23.696C381.997 23.7936 381.776 23.8424 381.508 23.8424ZM381.48 24.181V24.569H379.674V24.181H381.48Z" fill="#23262F"/>
<path d="M402.694 22.2578L400.086 24.8653L399.093 23.3753L397.106 25.362" stroke="#31AA27" stroke-width="0.465624" stroke-linecap="round" stroke-linejoin="round"/>
<path d="M401.452 22.2578H402.694V23.4995" stroke="#31AA27" stroke-width="0.465624" stroke-linecap="round" stroke-linejoin="round"/>
<path d="M407.102 25.3101V24.9926L408.295 23.6874C408.435 23.5346 408.55 23.4017 408.64 23.2888C408.731 23.1748 408.798 23.0678 408.841 22.9678C408.886 22.8667 408.908 22.7609 408.908 22.6504C408.908 22.5234 408.878 22.4134 408.817 22.3205C408.757 22.2277 408.674 22.1559 408.57 22.1054C408.465 22.0548 408.348 22.0295 408.217 22.0295C408.078 22.0295 407.957 22.0583 407.854 22.1159C407.751 22.1724 407.672 22.2518 407.616 22.3541C407.56 22.4563 407.533 22.5763 407.533 22.7139H407.117C407.117 22.5022 407.165 22.3164 407.263 22.1565C407.361 21.9966 407.493 21.872 407.662 21.7826C407.831 21.6932 408.021 21.6486 408.231 21.6486C408.443 21.6486 408.63 21.6932 408.794 21.7826C408.957 21.872 409.085 21.9925 409.178 22.1442C409.271 22.2958 409.318 22.4646 409.318 22.6504C409.318 22.7832 409.294 22.9132 409.245 23.0401C409.198 23.166 409.116 23.3065 408.998 23.4617C408.882 23.6157 408.72 23.8038 408.513 24.0261L407.702 24.8938V24.922H409.381V25.3101H407.102ZM410.11 25.3101V24.9926L411.302 23.6874C411.442 23.5346 411.557 23.4017 411.648 23.2888C411.738 23.1748 411.805 23.0678 411.849 22.9678C411.893 22.8667 411.916 22.7609 411.916 22.6504C411.916 22.5234 411.885 22.4134 411.824 22.3205C411.764 22.2277 411.682 22.1559 411.577 22.1054C411.472 22.0548 411.355 22.0295 411.224 22.0295C411.086 22.0295 410.964 22.0583 410.861 22.1159C410.759 22.1724 410.679 22.2518 410.623 22.3541C410.568 22.4563 410.54 22.5763 410.54 22.7139H410.124C410.124 22.5022 410.172 22.3164 410.27 22.1565C410.368 21.9966 410.501 21.872 410.669 21.7826C410.838 21.6932 411.028 21.6486 411.238 21.6486C411.45 21.6486 411.638 21.6932 411.801 21.7826C411.964 21.872 412.093 21.9925 412.185 22.1442C412.278 22.2958 412.325 22.4646 412.325 22.6504C412.325 22.7832 412.301 22.9132 412.253 23.0401C412.205 23.166 412.123 23.3065 412.006 23.4617C411.889 23.6157 411.728 23.8038 411.521 24.0261L410.709 24.8938V24.922H412.388V25.3101H410.11ZM414.316 25.3594C414.168 25.3571 414.02 25.3289 413.872 25.2748C413.723 25.2207 413.588 25.1296 413.466 25.0014C413.344 24.8721 413.245 24.6975 413.171 24.4776C413.097 24.2565 413.06 23.979 413.06 23.6451C413.06 23.3253 413.09 23.0419 413.15 22.795C413.21 22.5469 413.297 22.3382 413.411 22.1689C413.525 21.9984 413.663 21.869 413.824 21.7808C413.986 21.6927 414.169 21.6486 414.373 21.6486C414.575 21.6486 414.755 21.6891 414.912 21.7703C415.071 21.8502 415.2 21.9619 415.3 22.1054C415.4 22.2488 415.465 22.414 415.494 22.601H415.064C415.024 22.4387 414.946 22.3041 414.831 22.1971C414.716 22.0901 414.563 22.0366 414.373 22.0366C414.093 22.0366 413.872 22.1583 413.711 22.4017C413.551 22.6451 413.471 22.9866 413.469 23.4264H413.498C413.564 23.3265 413.642 23.2412 413.732 23.1707C413.824 23.0989 413.925 23.0437 414.036 23.0049C414.146 22.9661 414.263 22.9467 414.387 22.9467C414.594 22.9467 414.783 22.9984 414.955 23.1019C415.126 23.2042 415.264 23.3459 415.367 23.5269C415.471 23.7068 415.522 23.9132 415.522 24.146C415.522 24.3694 415.472 24.574 415.373 24.7598C415.273 24.9444 415.132 25.0914 414.951 25.2007C414.771 25.3089 414.559 25.3618 414.316 25.3594ZM414.316 24.9714C414.464 24.9714 414.597 24.9344 414.715 24.8603C414.833 24.7862 414.927 24.6869 414.995 24.5622C415.064 24.4376 415.099 24.2989 415.099 24.146C415.099 23.9967 415.066 23.8609 414.999 23.7386C414.933 23.6151 414.842 23.5169 414.725 23.444C414.61 23.3711 414.478 23.3347 414.33 23.3347C414.218 23.3347 414.114 23.357 414.018 23.4017C413.922 23.4452 413.837 23.5052 413.764 23.5816C413.692 23.658 413.636 23.7456 413.595 23.8444C413.554 23.942 413.533 24.0449 413.533 24.1531C413.533 24.2965 413.566 24.4305 413.634 24.5552C413.702 24.6798 413.795 24.7804 413.912 24.8568C414.031 24.9332 414.166 24.9714 414.316 24.9714ZM416.357 25.3383C416.27 25.3383 416.195 25.3071 416.133 25.2448C416.07 25.1825 416.039 25.1078 416.039 25.0208C416.039 24.9338 416.07 24.8591 416.133 24.7968C416.195 24.7345 416.27 24.7033 416.357 24.7033C416.444 24.7033 416.518 24.7345 416.581 24.7968C416.643 24.8591 416.674 24.9338 416.674 25.0208C416.674 25.0784 416.659 25.1313 416.63 25.1795C416.602 25.2278 416.564 25.2666 416.515 25.2959C416.468 25.3242 416.415 25.3383 416.357 25.3383ZM417.454 25.3101L419.07 22.1142V22.086H417.207V21.6979H419.521V22.1071L417.913 25.3101H417.454ZM421.263 25.3594C421.021 25.3594 420.807 25.3165 420.621 25.2307C420.436 25.1437 420.292 25.0243 420.189 24.8727C420.085 24.7198 420.034 24.5458 420.035 24.3506C420.034 24.1977 420.064 24.0566 420.125 23.9273C420.186 23.7968 420.27 23.688 420.376 23.601C420.483 23.5128 420.602 23.457 420.734 23.4335V23.4123C420.561 23.3676 420.423 23.2706 420.321 23.1213C420.219 22.9708 420.168 22.7997 420.169 22.608C420.168 22.4246 420.215 22.2606 420.309 22.1159C420.403 21.9713 420.532 21.8573 420.697 21.7738C420.863 21.6903 421.051 21.6486 421.263 21.6486C421.472 21.6486 421.659 21.6903 421.824 21.7738C421.988 21.8573 422.118 21.9713 422.212 22.1159C422.307 22.2606 422.355 22.4246 422.356 22.608C422.355 22.7997 422.303 22.9708 422.199 23.1213C422.097 23.2706 421.961 23.3676 421.792 23.4123V23.4335C421.923 23.457 422.04 23.5128 422.145 23.601C422.249 23.688 422.333 23.7968 422.395 23.9273C422.458 24.0566 422.489 24.1977 422.491 24.3506C422.489 24.5458 422.436 24.7198 422.332 24.8727C422.228 25.0243 422.084 25.1437 421.9 25.2307C421.716 25.3165 421.504 25.3594 421.263 25.3594ZM421.263 24.9714C421.426 24.9714 421.567 24.945 421.686 24.8921C421.805 24.8391 421.897 24.7645 421.961 24.6681C422.026 24.5716 422.059 24.4588 422.06 24.3294C422.059 24.193 422.024 24.0725 421.954 23.9679C421.885 23.8632 421.79 23.7809 421.67 23.7209C421.552 23.661 421.416 23.631 421.263 23.631C421.109 23.631 420.971 23.661 420.85 23.7209C420.73 23.7809 420.636 23.8632 420.566 23.9679C420.498 24.0725 420.465 24.193 420.466 24.3294C420.465 24.4588 420.496 24.5716 420.559 24.6681C420.624 24.7645 420.716 24.8391 420.836 24.8921C420.956 24.945 421.098 24.9714 421.263 24.9714ZM421.263 23.2571C421.392 23.2571 421.507 23.2312 421.607 23.1795C421.708 23.1277 421.787 23.0554 421.845 22.9625C421.903 22.8696 421.932 22.7609 421.933 22.6362C421.932 22.514 421.903 22.4076 421.847 22.317C421.79 22.2253 421.712 22.1548 421.612 22.1054C421.512 22.0548 421.396 22.0295 421.263 22.0295C421.128 22.0295 421.01 22.0548 420.908 22.1054C420.807 22.1548 420.729 22.2253 420.674 22.317C420.619 22.4076 420.592 22.514 420.593 22.6362C420.592 22.7609 420.619 22.8696 420.676 22.9625C420.733 23.0554 420.813 23.1277 420.914 23.1795C421.015 23.2312 421.131 23.2571 421.263 23.2571ZM426.207 23.8426H424.373V23.4546H426.207C426.376 23.4546 426.516 23.4252 426.627 23.3664C426.737 23.3065 426.82 23.2253 426.874 23.123C426.928 23.0196 426.955 22.902 426.955 22.7703C426.955 22.6386 426.928 22.5216 426.874 22.4193C426.82 22.3158 426.737 22.2347 426.627 22.1759C426.516 22.1159 426.376 22.086 426.207 22.086H425.382V25.3101H424.944V21.6979H426.207C426.475 21.6979 426.696 21.7467 426.87 21.8443C427.044 21.9419 427.174 22.0719 427.258 22.2341C427.343 22.3964 427.385 22.5751 427.385 22.7703C427.385 22.9655 427.343 23.1442 427.258 23.3065C427.174 23.4687 427.044 23.5987 426.87 23.6962C426.696 23.7938 426.475 23.8426 426.207 23.8426ZM426.179 24.1813V24.5693H424.373V24.1813H426.179Z" fill="#23262F"/>
<rect x="214.808" y="37.4683" width="201.77" height="2.48333" rx="1.24166" fill="#F7FAFC"/>
<rect x="214.808" y="37.4683" width="163.589" height="2.48333" rx="1.24166" fill="#4B5DFF"/>
</svg>
