<svg width="838" height="147" viewBox="0 0 838 147" fill="none" xmlns="http://www.w3.org/2000/svg">
<path d="M0 16C0 7.16345 7.16344 0 16 0H1532C1540.84 0 1548 7.16344 1548 16V131C1548 139.837 1540.84 147 1532 147H16C7.16345 147 0 139.837 0 131V16Z" fill="white"/>
<path d="M30.7727 30H29.3636C29.2803 29.5947 29.1345 29.2386 28.9261 28.9318C28.7216 28.625 28.4716 28.3674 28.1761 28.1591C27.8845 27.947 27.5606 27.7879 27.2045 27.6818C26.8485 27.5758 26.4773 27.5227 26.0909 27.5227C25.3864 27.5227 24.7481 27.7008 24.1761 28.0568C23.608 28.4129 23.1553 28.9375 22.8182 29.6307C22.4848 30.3239 22.3182 31.1742 22.3182 32.1818C22.3182 33.1894 22.4848 34.0398 22.8182 34.733C23.1553 35.4261 23.608 35.9508 24.1761 36.3068C24.7481 36.6629 25.3864 36.8409 26.0909 36.8409C26.4773 36.8409 26.8485 36.7879 27.2045 36.6818C27.5606 36.5758 27.8845 36.4186 28.1761 36.2102C28.4716 35.9981 28.7216 35.7386 28.9261 35.4318C29.1345 35.1212 29.2803 34.7652 29.3636 34.3636H30.7727C30.6667 34.9583 30.4735 35.4905 30.1932 35.9602C29.9129 36.4299 29.5644 36.8295 29.1477 37.1591C28.7311 37.4848 28.2633 37.733 27.7443 37.9034C27.2292 38.0739 26.678 38.1591 26.0909 38.1591C25.0985 38.1591 24.2159 37.9167 23.4432 37.4318C22.6705 36.947 22.0625 36.2576 21.6193 35.3636C21.1761 34.4697 20.9545 33.4091 20.9545 32.1818C20.9545 30.9545 21.1761 29.8939 21.6193 29C22.0625 28.1061 22.6705 27.4167 23.4432 26.9318C24.2159 26.447 25.0985 26.2045 26.0909 26.2045C26.678 26.2045 27.2292 26.2898 27.7443 26.4602C28.2633 26.6307 28.7311 26.8807 29.1477 27.2102C29.5644 27.536 29.9129 27.9337 30.1932 28.4034C30.4735 28.8693 30.6667 29.4015 30.7727 30ZM35.4361 38.2045C34.883 38.2045 34.3812 38.1004 33.9304 37.892C33.4796 37.6799 33.1217 37.375 32.8565 36.9773C32.5914 36.5758 32.4588 36.0909 32.4588 35.5227C32.4588 35.0227 32.5573 34.6174 32.7543 34.3068C32.9512 33.9924 33.2145 33.7462 33.544 33.5682C33.8736 33.3902 34.2372 33.2576 34.6349 33.1705C35.0365 33.0795 35.4399 33.0076 35.8452 32.9545C36.3755 32.8864 36.8054 32.8352 37.1349 32.8011C37.4683 32.7633 37.7107 32.7008 37.8622 32.6136C38.0175 32.5265 38.0952 32.375 38.0952 32.1591V32.1136C38.0952 31.553 37.9418 31.1174 37.6349 30.8068C37.3319 30.4962 36.8717 30.3409 36.2543 30.3409C35.6141 30.3409 35.1122 30.4811 34.7486 30.7614C34.3849 31.0417 34.1293 31.3409 33.9815 31.6591L32.7088 31.2045C32.9361 30.6742 33.2391 30.2614 33.6179 29.9659C34.0005 29.6667 34.4171 29.4583 34.8679 29.3409C35.3224 29.2197 35.7694 29.1591 36.2088 29.1591C36.4891 29.1591 36.8111 29.1932 37.1747 29.2614C37.5421 29.3258 37.8963 29.4602 38.2372 29.6648C38.5819 29.8693 38.8679 30.178 39.0952 30.5909C39.3224 31.0038 39.4361 31.5568 39.4361 32.25V38H38.0952V36.8182H38.027C37.9361 37.0076 37.7846 37.2102 37.5724 37.4261C37.3603 37.642 37.0781 37.8258 36.7259 37.9773C36.3736 38.1288 35.9437 38.2045 35.4361 38.2045ZM35.6406 37C36.1709 37 36.6179 36.8958 36.9815 36.6875C37.349 36.4792 37.6255 36.2102 37.8111 35.8807C38.0005 35.5511 38.0952 35.2045 38.0952 34.8409V33.6136C38.0384 33.6818 37.9134 33.7443 37.7202 33.8011C37.5308 33.8542 37.3111 33.9015 37.0611 33.9432C36.8149 33.9811 36.5743 34.0152 36.3395 34.0455C36.1084 34.072 35.9209 34.0947 35.777 34.1136C35.4285 34.1591 35.1027 34.233 34.7997 34.3352C34.5005 34.4337 34.258 34.5833 34.0724 34.7841C33.8906 34.9811 33.7997 35.25 33.7997 35.5909C33.7997 36.0568 33.9721 36.4091 34.3168 36.6477C34.6652 36.8826 35.1065 37 35.6406 37ZM46.6562 36.1818L49.7017 29.2727H50.9744L47.2017 38H46.1108L42.4062 29.2727H43.6562L46.6562 36.1818ZM43.2244 29.2727V38H41.8835V29.2727H43.2244ZM50.0881 38V29.2727H51.429V38H50.0881ZM57.429 38.1818C56.6411 38.1818 55.9498 37.9943 55.3551 37.6193C54.7642 37.2443 54.3021 36.7197 53.9688 36.0455C53.6392 35.3712 53.4744 34.5833 53.4744 33.6818C53.4744 32.7727 53.6392 31.9792 53.9688 31.3011C54.3021 30.6231 54.7642 30.0966 55.3551 29.7216C55.9498 29.3466 56.6411 29.1591 57.429 29.1591C58.2169 29.1591 58.9063 29.3466 59.4972 29.7216C60.0919 30.0966 60.554 30.6231 60.8835 31.3011C61.2169 31.9792 61.3835 32.7727 61.3835 33.6818C61.3835 34.5833 61.2169 35.3712 60.8835 36.0455C60.554 36.7197 60.0919 37.2443 59.4972 37.6193C58.9063 37.9943 58.2169 38.1818 57.429 38.1818ZM57.429 36.9773C58.0275 36.9773 58.5199 36.8239 58.9062 36.517C59.2926 36.2102 59.5786 35.8068 59.7642 35.3068C59.9498 34.8068 60.0426 34.2652 60.0426 33.6818C60.0426 33.0985 59.9498 32.5549 59.7642 32.0511C59.5786 31.5473 59.2926 31.1402 58.9062 30.8295C58.5199 30.5189 58.0275 30.3636 57.429 30.3636C56.8305 30.3636 56.3381 30.5189 55.9517 30.8295C55.5653 31.1402 55.2794 31.5473 55.0938 32.0511C54.9081 32.5549 54.8153 33.0985 54.8153 33.6818C54.8153 34.2652 54.9081 34.8068 55.0938 35.3068C55.2794 35.8068 55.5653 36.2102 55.9517 36.517C56.3381 36.8239 56.8305 36.9773 57.429 36.9773ZM63.4304 41.2727V29.2727H64.7259V30.6591H64.8849C64.9834 30.5076 65.1198 30.3144 65.294 30.0795C65.4721 29.8409 65.7259 29.6288 66.0554 29.4432C66.3887 29.2538 66.8395 29.1591 67.4077 29.1591C68.1425 29.1591 68.7902 29.3428 69.3509 29.7102C69.9115 30.0777 70.349 30.5985 70.6634 31.2727C70.9777 31.947 71.1349 32.7424 71.1349 33.6591C71.1349 34.5833 70.9777 35.3845 70.6634 36.0625C70.349 36.7367 69.9134 37.2595 69.3565 37.6307C68.7997 37.9981 68.1577 38.1818 67.4304 38.1818C66.8698 38.1818 66.4209 38.089 66.0838 37.9034C65.7467 37.714 65.4872 37.5 65.3054 37.2614C65.1236 37.0189 64.9834 36.8182 64.8849 36.6591H64.7713V41.2727H63.4304ZM64.7486 33.6364C64.7486 34.2955 64.8452 34.8769 65.0384 35.3807C65.2315 35.8807 65.5137 36.2727 65.8849 36.5568C66.2562 36.8371 66.7107 36.9773 67.2486 36.9773C67.8092 36.9773 68.277 36.8295 68.652 36.5341C69.0308 36.2348 69.3149 35.8333 69.5043 35.3295C69.6974 34.822 69.794 34.2576 69.794 33.6364C69.794 33.0227 69.6993 32.4697 69.5099 31.9773C69.3243 31.4811 69.0421 31.089 68.6634 30.8011C68.2884 30.5095 67.8168 30.3636 67.2486 30.3636C66.7031 30.3636 66.2448 30.5019 65.8736 30.7784C65.5024 31.0511 65.2221 31.4337 65.0327 31.9261C64.8433 32.4148 64.7486 32.9848 64.7486 33.6364ZM76.8395 38.1818C75.9986 38.1818 75.2732 37.9962 74.6634 37.625C74.0573 37.25 73.5895 36.7273 73.2599 36.0568C72.9342 35.3826 72.7713 34.5985 72.7713 33.7045C72.7713 32.8106 72.9342 32.0227 73.2599 31.3409C73.5895 30.6553 74.0478 30.1212 74.6349 29.7386C75.2259 29.3523 75.9152 29.1591 76.7031 29.1591C77.1577 29.1591 77.6065 29.2348 78.0497 29.3864C78.4929 29.5379 78.8963 29.7841 79.2599 30.125C79.6236 30.4621 79.9134 30.9091 80.1293 31.4659C80.3452 32.0227 80.4531 32.7083 80.4531 33.5227V34.0909H73.7259V32.9318H79.0895C79.0895 32.4394 78.991 32 78.794 31.6136C78.6009 31.2273 78.3243 30.9223 77.9645 30.6989C77.6084 30.4754 77.188 30.3636 76.7031 30.3636C76.169 30.3636 75.7069 30.4962 75.3168 30.7614C74.9304 31.0227 74.633 31.3636 74.4247 31.7841C74.2164 32.2045 74.1122 32.6553 74.1122 33.1364V33.9091C74.1122 34.5682 74.2259 35.1269 74.4531 35.5852C74.6842 36.0398 75.0043 36.3864 75.4134 36.625C75.8224 36.8598 76.2978 36.9773 76.8395 36.9773C77.1918 36.9773 77.5099 36.928 77.794 36.8295C78.0819 36.7273 78.33 36.5758 78.5384 36.375C78.7467 36.1705 78.9077 35.9167 79.0213 35.6136L80.3168 35.9773C80.1804 36.4167 79.9512 36.803 79.6293 37.1364C79.3073 37.4659 78.9096 37.7235 78.4361 37.9091C77.9626 38.0909 77.4304 38.1818 76.8395 38.1818ZM81.9474 35.7727H83.3793C83.4096 36.1667 83.5876 36.4659 83.9134 36.6705C84.2429 36.875 84.6709 36.9773 85.1974 36.9773C85.7353 36.9773 86.1955 36.8674 86.5781 36.6477C86.9607 36.4242 87.152 36.0644 87.152 35.5682C87.152 35.2765 87.08 35.0227 86.9361 34.8068C86.7921 34.5871 86.5895 34.4167 86.3281 34.2955C86.0668 34.1742 85.758 34.1136 85.402 34.1136H83.902V32.9091H85.402C85.9361 32.9091 86.33 32.7879 86.5838 32.5455C86.8414 32.303 86.9702 32 86.9702 31.6364C86.9702 31.2462 86.8319 30.9337 86.5554 30.6989C86.2789 30.4602 85.8868 30.3409 85.3793 30.3409C84.8679 30.3409 84.4418 30.4564 84.1009 30.6875C83.7599 30.9148 83.58 31.2083 83.5611 31.5682H82.152C82.1671 31.0985 82.3111 30.6837 82.5838 30.3239C82.8565 29.9602 83.2277 29.6761 83.6974 29.4716C84.1671 29.2633 84.705 29.1591 85.3111 29.1591C85.9247 29.1591 86.4569 29.267 86.9077 29.483C87.3622 29.6951 87.7126 29.9848 87.9588 30.3523C88.2088 30.7159 88.3338 31.1288 88.3338 31.5909C88.3338 32.0833 88.1955 32.4811 87.919 32.7841C87.6425 33.0871 87.2959 33.303 86.8793 33.4318V33.5227C87.2088 33.5455 87.4948 33.6515 87.7372 33.8409C87.9834 34.0265 88.1747 34.2708 88.3111 34.5739C88.4474 34.8731 88.5156 35.2045 88.5156 35.5682C88.5156 36.0985 88.3736 36.5606 88.0895 36.9545C87.8054 37.3447 87.4152 37.6477 86.919 37.8636C86.4228 38.0758 85.8565 38.1818 85.2202 38.1818C84.6027 38.1818 84.0497 38.0814 83.5611 37.8807C83.0724 37.6761 82.6842 37.3939 82.3963 37.0341C82.1122 36.6705 81.9626 36.25 81.9474 35.7727ZM91.5582 32.4318H94.0582C95.081 32.4318 95.8632 32.6913 96.4048 33.2102C96.9465 33.7292 97.2173 34.3864 97.2173 35.1818C97.2173 35.7045 97.0961 36.1799 96.8537 36.608C96.6113 37.0322 96.2552 37.3712 95.7855 37.625C95.3158 37.875 94.7401 38 94.0582 38H90.3991V29.2727H91.7401V36.75H94.0582C94.5885 36.75 95.0241 36.6098 95.3651 36.3295C95.706 36.0492 95.8764 35.6894 95.8764 35.25C95.8764 34.7879 95.706 34.411 95.3651 34.1193C95.0241 33.8277 94.5885 33.6818 94.0582 33.6818H91.5582V32.4318ZM98.6037 38V29.2727H99.9446V38H98.6037ZM107.081 26.3636H108.763L112.717 36.0227H112.854L116.808 26.3636H118.49V38H117.172V29.1591H117.058L113.422 38H112.149L108.513 29.1591H108.399V38H107.081V26.3636ZM120.679 27.6136V26.3636H129.406V27.6136H125.747V38H124.338V27.6136H120.679ZM138.422 38L134.422 32.6591H132.99V38H131.581V26.3636H132.99V31.4091H133.604L138.263 26.3636H139.945L135.24 31.4773L140.104 38H138.422ZM146.243 38V29.2727H153.107V38H151.766V30.5227H147.584V38H146.243ZM159.101 38.1818C158.313 38.1818 157.622 37.9943 157.027 37.6193C156.436 37.2443 155.974 36.7197 155.641 36.0455C155.311 35.3712 155.146 34.5833 155.146 33.6818C155.146 32.7727 155.311 31.9792 155.641 31.3011C155.974 30.6231 156.436 30.0966 157.027 29.7216C157.622 29.3466 158.313 29.1591 159.101 29.1591C159.889 29.1591 160.578 29.3466 161.169 29.7216C161.764 30.0966 162.226 30.6231 162.555 31.3011C162.889 31.9792 163.055 32.7727 163.055 33.6818C163.055 34.5833 162.889 35.3712 162.555 36.0455C162.226 36.7197 161.764 37.2443 161.169 37.6193C160.578 37.9943 159.889 38.1818 159.101 38.1818ZM159.101 36.9773C159.699 36.9773 160.192 36.8239 160.578 36.517C160.964 36.2102 161.25 35.8068 161.436 35.3068C161.622 34.8068 161.714 34.2652 161.714 33.6818C161.714 33.0985 161.622 32.5549 161.436 32.0511C161.25 31.5473 160.964 31.1402 160.578 30.8295C160.192 30.5189 159.699 30.3636 159.101 30.3636C158.502 30.3636 158.01 30.5189 157.624 30.8295C157.237 31.1402 156.951 31.5473 156.766 32.0511C156.58 32.5549 156.487 33.0985 156.487 33.6818C156.487 34.2652 156.58 34.8068 156.766 35.3068C156.951 35.8068 157.237 36.2102 157.624 36.517C158.01 36.8239 158.502 36.9773 159.101 36.9773ZM163.962 30.5227V29.2727H171.053V30.5227H168.189V38H166.848V30.5227H163.962ZM172.533 38.0909C172.252 38.0909 172.012 37.9905 171.811 37.7898C171.61 37.589 171.51 37.3485 171.51 37.0682C171.51 36.7879 171.61 36.5473 171.811 36.3466C172.012 36.1458 172.252 36.0455 172.533 36.0455C172.813 36.0455 173.054 36.1458 173.254 36.3466C173.455 36.5473 173.555 36.7879 173.555 37.0682C173.555 37.2538 173.508 37.4242 173.413 37.5795C173.322 37.7348 173.199 37.8598 173.044 37.9545C172.893 38.0455 172.722 38.0909 172.533 38.0909ZM185.848 29.2727V30.5227H181.803V38H180.462V29.2727H185.848ZM190.898 38.1818C190.11 38.1818 189.419 37.9943 188.824 37.6193C188.233 37.2443 187.771 36.7197 187.438 36.0455C187.108 35.3712 186.943 34.5833 186.943 33.6818C186.943 32.7727 187.108 31.9792 187.438 31.3011C187.771 30.6231 188.233 30.0966 188.824 29.7216C189.419 29.3466 190.11 29.1591 190.898 29.1591C191.686 29.1591 192.375 29.3466 192.966 29.7216C193.561 30.0966 194.023 30.6231 194.352 31.3011C194.686 31.9792 194.852 32.7727 194.852 33.6818C194.852 34.5833 194.686 35.3712 194.352 36.0455C194.023 36.7197 193.561 37.2443 192.966 37.6193C192.375 37.9943 191.686 38.1818 190.898 38.1818ZM190.898 36.9773C191.496 36.9773 191.989 36.8239 192.375 36.517C192.761 36.2102 193.047 35.8068 193.233 35.3068C193.419 34.8068 193.511 34.2652 193.511 33.6818C193.511 33.0985 193.419 32.5549 193.233 32.0511C193.047 31.5473 192.761 31.1402 192.375 30.8295C191.989 30.5189 191.496 30.3636 190.898 30.3636C190.299 30.3636 189.807 30.5189 189.42 30.8295C189.034 31.1402 188.748 31.5473 188.562 32.0511C188.377 32.5549 188.284 33.0985 188.284 33.6818C188.284 34.2652 188.377 34.8068 188.562 35.3068C188.748 35.8068 189.034 36.2102 189.42 36.517C189.807 36.8239 190.299 36.9773 190.898 36.9773ZM196.126 38V36.75H196.445C196.706 36.75 196.924 36.6989 197.098 36.5966C197.272 36.4905 197.412 36.3068 197.518 36.0455C197.628 35.7803 197.712 35.4129 197.768 34.9432C197.829 34.4697 197.873 33.8674 197.899 33.1364L198.058 29.2727H203.876V38H202.536V30.5227H199.331L199.195 33.6364C199.164 34.3523 199.1 34.983 199.001 35.5284C198.907 36.0701 198.761 36.5246 198.564 36.892C198.371 37.2595 198.113 37.536 197.791 37.7216C197.469 37.9072 197.066 38 196.581 38H196.126ZM209.882 38.1818C209.094 38.1818 208.403 37.9943 207.808 37.6193C207.217 37.2443 206.755 36.7197 206.422 36.0455C206.092 35.3712 205.928 34.5833 205.928 33.6818C205.928 32.7727 206.092 31.9792 206.422 31.3011C206.755 30.6231 207.217 30.0966 207.808 29.7216C208.403 29.3466 209.094 29.1591 209.882 29.1591C210.67 29.1591 211.359 29.3466 211.95 29.7216C212.545 30.0966 213.007 30.6231 213.337 31.3011C213.67 31.9792 213.837 32.7727 213.837 33.6818C213.837 34.5833 213.67 35.3712 213.337 36.0455C213.007 36.7197 212.545 37.2443 211.95 37.6193C211.359 37.9943 210.67 38.1818 209.882 38.1818ZM209.882 36.9773C210.481 36.9773 210.973 36.8239 211.359 36.517C211.746 36.2102 212.032 35.8068 212.217 35.3068C212.403 34.8068 212.496 34.2652 212.496 33.6818C212.496 33.0985 212.403 32.5549 212.217 32.0511C212.032 31.5473 211.746 31.1402 211.359 30.8295C210.973 30.5189 210.481 30.3636 209.882 30.3636C209.284 30.3636 208.791 30.5189 208.405 30.8295C208.018 31.1402 207.732 31.5473 207.547 32.0511C207.361 32.5549 207.268 33.0985 207.268 33.6818C207.268 34.2652 207.361 34.8068 207.547 35.3068C207.732 35.8068 208.018 36.2102 208.405 36.517C208.791 36.8239 209.284 36.9773 209.882 36.9773ZM215.884 38V29.2727H219.452C220.391 29.2727 221.137 29.4848 221.69 29.9091C222.243 30.3333 222.52 30.8939 222.52 31.5909C222.52 32.1212 222.363 32.5322 222.048 32.8239C221.734 33.1117 221.33 33.3068 220.838 33.4091C221.16 33.4545 221.473 33.5682 221.776 33.75C222.082 33.9318 222.336 34.1818 222.537 34.5C222.738 34.8144 222.838 35.2008 222.838 35.6591C222.838 36.1061 222.724 36.5057 222.497 36.858C222.27 37.2102 221.944 37.4886 221.52 37.6932C221.096 37.8977 220.588 38 219.997 38H215.884ZM217.156 36.7727H219.997C220.459 36.7727 220.821 36.6629 221.082 36.4432C221.344 36.2235 221.474 35.9242 221.474 35.5455C221.474 35.0947 221.344 34.7405 221.082 34.483C220.821 34.2216 220.459 34.0909 219.997 34.0909H217.156V36.7727ZM217.156 32.9318H219.452C219.812 32.9318 220.12 32.8826 220.378 32.7841C220.635 32.6818 220.832 32.5379 220.969 32.3523C221.109 32.1629 221.179 31.9394 221.179 31.6818C221.179 31.3144 221.026 31.0265 220.719 30.8182C220.412 30.6061 219.99 30.5 219.452 30.5H217.156V32.9318ZM224.868 38V29.2727H226.209V33.0682H227.095L230.232 29.2727H231.959L228.436 33.4773L232.004 38H230.277L227.413 34.3182H226.209V38H224.868ZM236.03 38.2045C235.477 38.2045 234.975 38.1004 234.524 37.892C234.073 37.6799 233.715 37.375 233.45 36.9773C233.185 36.5758 233.053 36.0909 233.053 35.5227C233.053 35.0227 233.151 34.6174 233.348 34.3068C233.545 33.9924 233.808 33.7462 234.138 33.5682C234.467 33.3902 234.831 33.2576 235.229 33.1705C235.63 33.0795 236.034 33.0076 236.439 32.9545C236.969 32.8864 237.399 32.8352 237.729 32.8011C238.062 32.7633 238.304 32.7008 238.456 32.6136C238.611 32.5265 238.689 32.375 238.689 32.1591V32.1136C238.689 31.553 238.536 31.1174 238.229 30.8068C237.926 30.4962 237.465 30.3409 236.848 30.3409C236.208 30.3409 235.706 30.4811 235.342 30.7614C234.979 31.0417 234.723 31.3409 234.575 31.6591L233.303 31.2045C233.53 30.6742 233.833 30.2614 234.212 29.9659C234.594 29.6667 235.011 29.4583 235.462 29.3409C235.916 29.2197 236.363 29.1591 236.803 29.1591C237.083 29.1591 237.405 29.1932 237.768 29.2614C238.136 29.3258 238.49 29.4602 238.831 29.6648C239.176 29.8693 239.462 30.178 239.689 30.5909C239.916 31.0038 240.03 31.5568 240.03 32.25V38H238.689V36.8182H238.621C238.53 37.0076 238.378 37.2102 238.166 37.4261C237.954 37.642 237.672 37.8258 237.32 37.9773C236.967 38.1288 236.537 38.2045 236.03 38.2045ZM236.234 37C236.765 37 237.212 36.8958 237.575 36.6875C237.943 36.4792 238.219 36.2102 238.405 35.8807C238.594 35.5511 238.689 35.2045 238.689 34.8409V33.6136C238.632 33.6818 238.507 33.7443 238.314 33.8011C238.125 33.8542 237.905 33.9015 237.655 33.9432C237.409 33.9811 237.168 34.0152 236.933 34.0455C236.702 34.072 236.515 34.0947 236.371 34.1136C236.022 34.1591 235.696 34.233 235.393 34.3352C235.094 34.4337 234.852 34.5833 234.666 34.7841C234.484 34.9811 234.393 35.25 234.393 35.5909C234.393 36.0568 234.566 36.4091 234.911 36.6477C235.259 36.8826 235.7 37 236.234 37ZM244.477 36.4091L244.386 37.0227C244.322 37.4545 244.223 37.9167 244.091 38.4091C243.962 38.9015 243.828 39.3655 243.688 39.8011C243.547 40.2367 243.432 40.5833 243.341 40.8409H242.318C242.367 40.5985 242.432 40.2784 242.511 39.8807C242.591 39.483 242.67 39.0379 242.75 38.5455C242.833 38.0568 242.902 37.5568 242.955 37.0455L243.023 36.4091H244.477ZM251.462 38V29.2727H252.803V33.0682H253.689L256.825 29.2727H258.553L255.03 33.4773L258.598 38H256.871L254.007 34.3182H252.803V38H251.462ZM260.055 41.2727V29.2727H261.351V30.6591H261.51C261.608 30.5076 261.745 30.3144 261.919 30.0795C262.097 29.8409 262.351 29.6288 262.68 29.4432C263.014 29.2538 263.464 29.1591 264.033 29.1591C264.768 29.1591 265.415 29.3428 265.976 29.7102C266.536 30.0777 266.974 30.5985 267.288 31.2727C267.603 31.947 267.76 32.7424 267.76 33.6591C267.76 34.5833 267.603 35.3845 267.288 36.0625C266.974 36.7367 266.538 37.2595 265.982 37.6307C265.425 37.9981 264.783 38.1818 264.055 38.1818C263.495 38.1818 263.046 38.089 262.709 37.9034C262.372 37.714 262.112 37.5 261.93 37.2614C261.749 37.0189 261.608 36.8182 261.51 36.6591H261.396V41.2727H260.055ZM261.374 33.6364C261.374 34.2955 261.47 34.8769 261.663 35.3807C261.857 35.8807 262.139 36.2727 262.51 36.5568C262.881 36.8371 263.336 36.9773 263.874 36.9773C264.434 36.9773 264.902 36.8295 265.277 36.5341C265.656 36.2348 265.94 35.8333 266.129 35.3295C266.322 34.822 266.419 34.2576 266.419 33.6364C266.419 33.0227 266.324 32.4697 266.135 31.9773C265.949 31.4811 265.667 31.089 265.288 30.8011C264.913 30.5095 264.442 30.3636 263.874 30.3636C263.328 30.3636 262.87 30.5019 262.499 30.7784C262.127 31.0511 261.847 31.4337 261.658 31.9261C261.468 32.4148 261.374 32.9848 261.374 33.6364ZM273.919 25.8182L270.169 39.75H268.942L272.692 25.8182H273.919ZM275.509 29.2727H276.849V36.75H280.145V29.2727H281.486V36.75H284.781V29.2727H286.122V38H275.509V29.2727ZM289.548 38.0909C289.268 38.0909 289.027 37.9905 288.827 37.7898C288.626 37.589 288.526 37.3485 288.526 37.0682C288.526 36.7879 288.626 36.5473 288.827 36.3466C289.027 36.1458 289.268 36.0455 289.548 36.0455C289.829 36.0455 290.069 36.1458 290.27 36.3466C290.471 36.5473 290.571 36.7879 290.571 37.0682C290.571 37.2538 290.524 37.4242 290.429 37.5795C290.338 37.7348 290.215 37.8598 290.06 37.9545C289.908 38.0455 289.738 38.0909 289.548 38.0909ZM301.023 38.1818C300.235 38.1818 299.544 37.9943 298.949 37.6193C298.358 37.2443 297.896 36.7197 297.562 36.0455C297.233 35.3712 297.068 34.5833 297.068 33.6818C297.068 32.7727 297.233 31.9792 297.562 31.3011C297.896 30.6231 298.358 30.0966 298.949 29.7216C299.544 29.3466 300.235 29.1591 301.023 29.1591C301.811 29.1591 302.5 29.3466 303.091 29.7216C303.686 30.0966 304.148 30.6231 304.477 31.3011C304.811 31.9792 304.977 32.7727 304.977 33.6818C304.977 34.5833 304.811 35.3712 304.477 36.0455C304.148 36.7197 303.686 37.2443 303.091 37.6193C302.5 37.9943 301.811 38.1818 301.023 38.1818ZM301.023 36.9773C301.621 36.9773 302.114 36.8239 302.5 36.517C302.886 36.2102 303.172 35.8068 303.358 35.3068C303.544 34.8068 303.636 34.2652 303.636 33.6818C303.636 33.0985 303.544 32.5549 303.358 32.0511C303.172 31.5473 302.886 31.1402 302.5 30.8295C302.114 30.5189 301.621 30.3636 301.023 30.3636C300.424 30.3636 299.932 30.5189 299.545 30.8295C299.159 31.1402 298.873 31.5473 298.688 32.0511C298.502 32.5549 298.409 33.0985 298.409 33.6818C298.409 34.2652 298.502 34.8068 298.688 35.3068C298.873 35.8068 299.159 36.2102 299.545 36.517C299.932 36.8239 300.424 36.9773 301.023 36.9773ZM307.024 38V29.2727H308.365V33.0682H309.251L312.388 29.2727H314.115L310.592 33.4773L314.161 38H312.433L309.57 34.3182H308.365V38H307.024ZM318.804 38.1818C317.986 38.1818 317.281 37.9886 316.69 37.6023C316.099 37.2159 315.645 36.6837 315.327 36.0057C315.009 35.3277 314.849 34.553 314.849 33.6818C314.849 32.7955 315.012 32.0133 315.338 31.3352C315.668 30.6534 316.126 30.1212 316.713 29.7386C317.304 29.3523 317.993 29.1591 318.781 29.1591C319.395 29.1591 319.948 29.2727 320.44 29.5C320.933 29.7273 321.336 30.0455 321.651 30.4545C321.965 30.8636 322.16 31.3409 322.236 31.8864H320.895C320.793 31.4886 320.565 31.1364 320.213 30.8295C319.865 30.5189 319.395 30.3636 318.804 30.3636C318.281 30.3636 317.823 30.5 317.429 30.7727C317.039 31.0417 316.734 31.4223 316.514 31.9148C316.298 32.4034 316.19 32.9773 316.19 33.6364C316.19 34.3106 316.296 34.8977 316.509 35.3977C316.724 35.8977 317.027 36.286 317.418 36.5625C317.812 36.839 318.274 36.9773 318.804 36.9773C319.152 36.9773 319.469 36.9167 319.753 36.7955C320.037 36.6742 320.277 36.5 320.474 36.2727C320.671 36.0455 320.812 35.7727 320.895 35.4545H322.236C322.16 35.9697 321.973 36.4337 321.673 36.8466C321.378 37.2557 320.986 37.5814 320.497 37.8239C320.012 38.0625 319.448 38.1818 318.804 38.1818ZM325.537 36.0227L329.741 29.2727H331.287V38H329.946V31.25L325.764 38H324.196V29.2727H325.537V36.0227ZM332.811 40.5V36.75H333.538C333.716 36.5644 333.87 36.3636 333.999 36.1477C334.127 35.9318 334.239 35.6761 334.334 35.3807C334.432 35.0814 334.516 34.7178 334.584 34.2898C334.652 33.858 334.713 33.3371 334.766 32.7273L335.061 29.2727H340.607V36.75H341.947V40.5H340.607V38H334.152V40.5H332.811ZM335.061 36.75H339.266V30.5227H336.311L336.084 32.7273C335.989 33.6402 335.872 34.4375 335.732 35.1193C335.591 35.8011 335.368 36.3447 335.061 36.75ZM345.068 36.0227L349.273 29.2727H350.818V38H349.477V31.25L345.295 38H343.727V29.2727H345.068V36.0227ZM353.274 41.2727V29.2727H354.57V30.6591H354.729C354.827 30.5076 354.964 30.3144 355.138 30.0795C355.316 29.8409 355.57 29.6288 355.899 29.4432C356.232 29.2538 356.683 29.1591 357.251 29.1591C357.986 29.1591 358.634 29.3428 359.195 29.7102C359.755 30.0777 360.193 30.5985 360.507 31.2727C360.821 31.947 360.979 32.7424 360.979 33.6591C360.979 34.5833 360.821 35.3845 360.507 36.0625C360.193 36.7367 359.757 37.2595 359.2 37.6307C358.643 37.9981 358.001 38.1818 357.274 38.1818C356.714 38.1818 356.265 38.089 355.928 37.9034C355.59 37.714 355.331 37.5 355.149 37.2614C354.967 37.0189 354.827 36.8182 354.729 36.6591H354.615V41.2727H353.274ZM354.592 33.6364C354.592 34.2955 354.689 34.8769 354.882 35.3807C355.075 35.8807 355.357 36.2727 355.729 36.5568C356.1 36.8371 356.554 36.9773 357.092 36.9773C357.653 36.9773 358.121 36.8295 358.496 36.5341C358.875 36.2348 359.159 35.8333 359.348 35.3295C359.541 34.822 359.638 34.2576 359.638 33.6364C359.638 33.0227 359.543 32.4697 359.354 31.9773C359.168 31.4811 358.886 31.089 358.507 30.8011C358.132 30.5095 357.661 30.3636 357.092 30.3636C356.547 30.3636 356.089 30.5019 355.717 30.7784C355.346 31.0511 355.066 31.4337 354.876 31.9261C354.687 32.4148 354.592 32.9848 354.592 33.6364ZM364.001 38.0909C363.721 38.0909 363.481 37.9905 363.28 37.7898C363.079 37.589 362.979 37.3485 362.979 37.0682C362.979 36.7879 363.079 36.5473 363.28 36.3466C363.481 36.1458 363.721 36.0455 364.001 36.0455C364.282 36.0455 364.522 36.1458 364.723 36.3466C364.924 36.5473 365.024 36.7879 365.024 37.0682C365.024 37.2538 364.977 37.4242 364.882 37.5795C364.791 37.7348 364.668 37.8598 364.513 37.9545C364.361 38.0455 364.191 38.0909 364.001 38.0909ZM25.1364 62.1591C24.3864 62.1591 23.7178 62.0303 23.1307 61.7727C22.5473 61.5152 22.0833 61.1572 21.7386 60.6989C21.3977 60.2367 21.2121 59.7008 21.1818 59.0909H22.6136C22.6439 59.4659 22.7727 59.7898 23 60.0625C23.2273 60.3314 23.5246 60.5398 23.892 60.6875C24.2595 60.8352 24.6667 60.9091 25.1136 60.9091C25.6136 60.9091 26.0568 60.822 26.4432 60.6477C26.8295 60.4735 27.1326 60.2311 27.3523 59.9205C27.572 59.6098 27.6818 59.25 27.6818 58.8409C27.6818 58.4129 27.5758 58.036 27.3636 57.7102C27.1515 57.3807 26.8409 57.1231 26.4318 56.9375C26.0227 56.7519 25.5227 56.6591 24.9318 56.6591H24V55.4091H24.9318C25.3939 55.4091 25.7992 55.3258 26.1477 55.1591C26.5 54.9924 26.7746 54.7576 26.9716 54.4545C27.1723 54.1515 27.2727 53.7955 27.2727 53.3864C27.2727 52.9924 27.1856 52.6496 27.0114 52.358C26.8371 52.0663 26.5909 51.839 26.2727 51.6761C25.9583 51.5133 25.5871 51.4318 25.1591 51.4318C24.7576 51.4318 24.3788 51.5057 24.0227 51.6534C23.6705 51.7973 23.3826 52.0076 23.1591 52.2841C22.9356 52.5568 22.8144 52.8864 22.7955 53.2727H21.4318C21.4545 52.6629 21.6383 52.1288 21.983 51.6705C22.3277 51.2083 22.7784 50.8485 23.3352 50.5909C23.8958 50.3333 24.5114 50.2045 25.1818 50.2045C25.9015 50.2045 26.5189 50.3504 27.0341 50.642C27.5492 50.9299 27.9451 51.3106 28.2216 51.7841C28.4981 52.2576 28.6364 52.7689 28.6364 53.3182C28.6364 53.9735 28.464 54.5322 28.1193 54.9943C27.7784 55.4564 27.3144 55.7765 26.7273 55.9545V56.0455C27.4621 56.1667 28.036 56.4792 28.4489 56.983C28.8617 57.483 29.0682 58.1023 29.0682 58.8409C29.0682 59.4735 28.8958 60.0417 28.5511 60.5455C28.2102 61.0455 27.7443 61.4394 27.1534 61.7273C26.5625 62.0152 25.8902 62.1591 25.1364 62.1591ZM32.0327 62.0909C31.7524 62.0909 31.5118 61.9905 31.3111 61.7898C31.1103 61.589 31.0099 61.3485 31.0099 61.0682C31.0099 60.7879 31.1103 60.5473 31.3111 60.3466C31.5118 60.1458 31.7524 60.0455 32.0327 60.0455C32.313 60.0455 32.5535 60.1458 32.7543 60.3466C32.955 60.5473 33.0554 60.7879 33.0554 61.0682C33.0554 61.2538 33.008 61.4242 32.9134 61.5795C32.8224 61.7348 32.6993 61.8598 32.544 61.9545C32.3925 62.0455 32.2221 62.0909 32.0327 62.0909ZM38.8409 62.1591C38.1742 62.1591 37.5739 62.0265 37.0398 61.7614C36.5057 61.4962 36.0777 61.1326 35.7557 60.6705C35.4337 60.2083 35.2576 59.6818 35.2273 59.0909H36.5909C36.6439 59.6174 36.8826 60.053 37.3068 60.3977C37.7348 60.7386 38.2462 60.9091 38.8409 60.9091C39.3182 60.9091 39.7424 60.7973 40.1136 60.5739C40.4886 60.3504 40.7822 60.0436 40.9943 59.6534C41.2102 59.2595 41.3182 58.8144 41.3182 58.3182C41.3182 57.8106 41.2064 57.358 40.983 56.9602C40.7633 56.5587 40.4602 56.2424 40.0739 56.0114C39.6875 55.7803 39.2462 55.6629 38.75 55.6591C38.3939 55.6553 38.0284 55.7102 37.6534 55.8239C37.2784 55.9337 36.9697 56.0758 36.7273 56.25L35.4091 56.0909L36.1136 50.3636H42.1591V51.6136H37.2955L36.8864 55.0455H36.9545C37.1932 54.8561 37.4924 54.6989 37.8523 54.5739C38.2121 54.4489 38.5871 54.3864 38.9773 54.3864C39.6894 54.3864 40.3239 54.5568 40.8807 54.8977C41.4413 55.2348 41.8807 55.697 42.1989 56.2841C42.5208 56.8712 42.6818 57.5417 42.6818 58.2955C42.6818 59.0379 42.5152 59.7008 42.1818 60.2841C41.8523 60.8636 41.3977 61.322 40.8182 61.6591C40.2386 61.9924 39.5795 62.1591 38.8409 62.1591ZM45.9616 53.2727L48.0526 56.8409L50.1435 53.2727H51.6889L48.8707 57.6364L51.6889 62H50.1435L48.0526 58.6136L45.9616 62H44.4162L47.1889 57.6364L44.4162 53.2727H45.9616ZM57.2159 62.1591C56.5492 62.1591 55.9489 62.0265 55.4148 61.7614C54.8807 61.4962 54.4527 61.1326 54.1307 60.6705C53.8087 60.2083 53.6326 59.6818 53.6023 59.0909H54.9659C55.0189 59.6174 55.2576 60.053 55.6818 60.3977C56.1098 60.7386 56.6212 60.9091 57.2159 60.9091C57.6932 60.9091 58.1174 60.7973 58.4886 60.5739C58.8636 60.3504 59.1572 60.0436 59.3693 59.6534C59.5852 59.2595 59.6932 58.8144 59.6932 58.3182C59.6932 57.8106 59.5814 57.358 59.358 56.9602C59.1383 56.5587 58.8352 56.2424 58.4489 56.0114C58.0625 55.7803 57.6212 55.6629 57.125 55.6591C56.7689 55.6553 56.4034 55.7102 56.0284 55.8239C55.6534 55.9337 55.3447 56.0758 55.1023 56.25L53.7841 56.0909L54.4886 50.3636H60.5341V51.6136H55.6705L55.2614 55.0455H55.3295C55.5682 54.8561 55.8674 54.6989 56.2273 54.5739C56.5871 54.4489 56.9621 54.3864 57.3523 54.3864C58.0644 54.3864 58.6989 54.5568 59.2557 54.8977C59.8163 55.2348 60.2557 55.697 60.5739 56.2841C60.8958 56.8712 61.0568 57.5417 61.0568 58.2955C61.0568 59.0379 60.8902 59.7008 60.5568 60.2841C60.2273 60.8636 59.7727 61.322 59.1932 61.6591C58.6136 61.9924 57.9545 62.1591 57.2159 62.1591ZM67.4048 50.3636V62H65.9957V51.8409H65.9276L63.0866 53.7273V52.2955L65.9957 50.3636H67.4048ZM72.0866 60.4091L71.9957 61.0227C71.9313 61.4545 71.8329 61.9167 71.7003 62.4091C71.5715 62.9015 71.437 63.3655 71.2969 63.8011C71.1567 64.2367 71.0412 64.5833 70.9503 64.8409H69.9276C69.9768 64.5985 70.0412 64.2784 70.1207 63.8807C70.2003 63.483 70.2798 63.0379 70.3594 62.5455C70.4427 62.0568 70.5109 61.5568 70.5639 61.0455L70.6321 60.4091H72.0866ZM78.7756 59.6136V58.4545L83.8892 50.3636H84.7301V52.1591H84.1619L80.2983 58.2727V58.3636H87.1847V59.6136H78.7756ZM84.2528 62V59.2614V58.7216V50.3636H85.5938V62H84.2528ZM93.1094 62.1591C92.2533 62.1591 91.5241 61.9261 90.9219 61.4602C90.3196 60.9905 89.8594 60.3106 89.5412 59.4205C89.223 58.5265 89.0639 57.447 89.0639 56.1818C89.0639 54.9242 89.223 53.8504 89.5412 52.9602C89.8632 52.0663 90.3253 51.3845 90.9276 50.9148C91.5336 50.4413 92.2609 50.2045 93.1094 50.2045C93.9579 50.2045 94.6832 50.4413 95.2855 50.9148C95.8916 51.3845 96.3537 52.0663 96.6719 52.9602C96.9938 53.8504 97.1548 54.9242 97.1548 56.1818C97.1548 57.447 96.9957 58.5265 96.6776 59.4205C96.3594 60.3106 95.8991 60.9905 95.2969 61.4602C94.6946 61.9261 93.9654 62.1591 93.1094 62.1591ZM93.1094 60.9091C93.9579 60.9091 94.617 60.5 95.0866 59.6818C95.5563 58.8636 95.7912 57.697 95.7912 56.1818C95.7912 55.1742 95.6832 54.3163 95.4673 53.608C95.2552 52.8996 94.9484 52.3598 94.5469 51.9886C94.1491 51.6174 93.67 51.4318 93.1094 51.4318C92.2685 51.4318 91.6113 51.8466 91.1378 52.6761C90.6643 53.5019 90.4276 54.6705 90.4276 56.1818C90.4276 57.1894 90.5336 58.0455 90.7457 58.75C90.9579 59.4545 91.2628 59.9905 91.6605 60.358C92.062 60.7254 92.545 60.9091 93.1094 60.9091ZM103.109 62.1591C102.253 62.1591 101.524 61.9261 100.922 61.4602C100.32 60.9905 99.8594 60.3106 99.5412 59.4205C99.223 58.5265 99.0639 57.447 99.0639 56.1818C99.0639 54.9242 99.223 53.8504 99.5412 52.9602C99.8632 52.0663 100.325 51.3845 100.928 50.9148C101.534 50.4413 102.261 50.2045 103.109 50.2045C103.958 50.2045 104.683 50.4413 105.286 50.9148C105.892 51.3845 106.354 52.0663 106.672 52.9602C106.994 53.8504 107.155 54.9242 107.155 56.1818C107.155 57.447 106.996 58.5265 106.678 59.4205C106.359 60.3106 105.899 60.9905 105.297 61.4602C104.695 61.9261 103.965 62.1591 103.109 62.1591ZM103.109 60.9091C103.958 60.9091 104.617 60.5 105.087 59.6818C105.556 58.8636 105.791 57.697 105.791 56.1818C105.791 55.1742 105.683 54.3163 105.467 53.608C105.255 52.8996 104.948 52.3598 104.547 51.9886C104.149 51.6174 103.67 51.4318 103.109 51.4318C102.268 51.4318 101.611 51.8466 101.138 52.6761C100.664 53.5019 100.428 54.6705 100.428 56.1818C100.428 57.1894 100.534 58.0455 100.746 58.75C100.958 59.4545 101.263 59.9905 101.661 60.358C102.062 60.7254 102.545 60.9091 103.109 60.9091ZM113.837 53.2727H115.178V60.75H118.473V53.2727H119.814V60.75H123.109V53.2727H124.45V62H113.837V53.2727ZM125.712 54.5227V53.2727H132.803V54.5227H129.939V62H128.598V54.5227H125.712ZM134.283 62.0909C134.002 62.0909 133.762 61.9905 133.561 61.7898C133.36 61.589 133.26 61.3485 133.26 61.0682C133.26 60.7879 133.36 60.5473 133.561 60.3466C133.762 60.1458 134.002 60.0455 134.283 60.0455C134.563 60.0455 134.804 60.1458 135.004 60.3466C135.205 60.5473 135.305 60.7879 135.305 61.0682C135.305 61.2538 135.258 61.4242 135.163 61.5795C135.072 61.7348 134.949 61.8598 134.794 61.9545C134.643 62.0455 134.472 62.0909 134.283 62.0909ZM145.893 50.2045C146.371 50.2083 146.848 50.2992 147.325 50.4773C147.803 50.6553 148.238 50.9508 148.632 51.3636C149.026 51.7727 149.342 52.3314 149.581 53.0398C149.82 53.7481 149.939 54.6364 149.939 55.7045C149.939 56.7386 149.84 57.6572 149.643 58.4602C149.45 59.2595 149.17 59.9337 148.803 60.483C148.439 61.0322 147.996 61.4489 147.473 61.733C146.954 62.017 146.367 62.1591 145.712 62.1591C145.06 62.1591 144.479 62.0303 143.967 61.7727C143.46 61.5114 143.043 61.1496 142.717 60.6875C142.395 60.2216 142.189 59.6818 142.098 59.0682H143.484C143.609 59.6023 143.857 60.0436 144.229 60.392C144.604 60.7367 145.098 60.9091 145.712 60.9091C146.609 60.9091 147.318 60.517 147.837 59.733C148.359 58.9489 148.621 57.8409 148.621 56.4091H148.53C148.318 56.7273 148.066 57.0019 147.774 57.233C147.482 57.464 147.159 57.642 146.803 57.767C146.446 57.892 146.068 57.9545 145.666 57.9545C145 57.9545 144.388 57.7898 143.831 57.4602C143.278 57.1269 142.835 56.6705 142.501 56.0909C142.172 55.5076 142.007 54.8409 142.007 54.0909C142.007 53.3788 142.166 52.7273 142.484 52.1364C142.806 51.5417 143.257 51.0682 143.837 50.7159C144.42 50.3636 145.106 50.1932 145.893 50.2045ZM145.893 51.4545C145.416 51.4545 144.986 51.5739 144.604 51.8125C144.225 52.0473 143.924 52.3655 143.7 52.767C143.481 53.1648 143.371 53.6061 143.371 54.0909C143.371 54.5758 143.477 55.017 143.689 55.4148C143.905 55.8087 144.198 56.1231 144.57 56.358C144.945 56.589 145.371 56.7045 145.848 56.7045C146.208 56.7045 146.543 56.6345 146.854 56.4943C147.164 56.3504 147.435 56.1553 147.666 55.9091C147.901 55.6591 148.085 55.3769 148.217 55.0625C148.35 54.7443 148.416 54.4129 148.416 54.0682C148.416 53.6136 148.306 53.1875 148.087 52.7898C147.871 52.392 147.571 52.0701 147.189 51.8239C146.81 51.5777 146.378 51.4545 145.893 51.4545ZM155.969 62.1591C155.113 62.1591 154.384 61.9261 153.781 61.4602C153.179 60.9905 152.719 60.3106 152.401 59.4205C152.082 58.5265 151.923 57.447 151.923 56.1818C151.923 54.9242 152.082 53.8504 152.401 52.9602C152.723 52.0663 153.185 51.3845 153.787 50.9148C154.393 50.4413 155.12 50.2045 155.969 50.2045C156.817 50.2045 157.543 50.4413 158.145 50.9148C158.751 51.3845 159.213 52.0663 159.531 52.9602C159.853 53.8504 160.014 54.9242 160.014 56.1818C160.014 57.447 159.855 58.5265 159.537 59.4205C159.219 60.3106 158.759 60.9905 158.156 61.4602C157.554 61.9261 156.825 62.1591 155.969 62.1591ZM155.969 60.9091C156.817 60.9091 157.476 60.5 157.946 59.6818C158.416 58.8636 158.651 57.697 158.651 56.1818C158.651 55.1742 158.543 54.3163 158.327 53.608C158.115 52.8996 157.808 52.3598 157.406 51.9886C157.009 51.6174 156.529 51.4318 155.969 51.4318C155.128 51.4318 154.471 51.8466 153.997 52.6761C153.524 53.5019 153.287 54.6705 153.287 56.1818C153.287 57.1894 153.393 58.0455 153.605 58.75C153.817 59.4545 154.122 59.9905 154.52 60.358C154.921 60.7254 155.404 60.9091 155.969 60.9091ZM162.224 62L167.429 51.7045V51.6136H161.429V50.3636H168.884V51.6818L163.702 62H162.224ZM174.55 50.2045C175.027 50.2083 175.504 50.2992 175.982 50.4773C176.459 50.6553 176.894 50.9508 177.288 51.3636C177.682 51.7727 177.999 52.3314 178.237 53.0398C178.476 53.7481 178.595 54.6364 178.595 55.7045C178.595 56.7386 178.497 57.6572 178.3 58.4602C178.107 59.2595 177.826 59.9337 177.459 60.483C177.095 61.0322 176.652 61.4489 176.129 61.733C175.61 62.017 175.023 62.1591 174.368 62.1591C173.716 62.1591 173.135 62.0303 172.624 61.7727C172.116 61.5114 171.699 61.1496 171.374 60.6875C171.052 60.2216 170.845 59.6818 170.754 59.0682H172.141C172.266 59.6023 172.514 60.0436 172.885 60.392C173.26 60.7367 173.754 60.9091 174.368 60.9091C175.266 60.9091 175.974 60.517 176.493 59.733C177.016 58.9489 177.277 57.8409 177.277 56.4091H177.186C176.974 56.7273 176.722 57.0019 176.43 57.233C176.139 57.464 175.815 57.642 175.459 57.767C175.103 57.892 174.724 57.9545 174.322 57.9545C173.656 57.9545 173.044 57.7898 172.487 57.4602C171.934 57.1269 171.491 56.6705 171.158 56.0909C170.828 55.5076 170.663 54.8409 170.663 54.0909C170.663 53.3788 170.822 52.7273 171.141 52.1364C171.463 51.5417 171.913 51.0682 172.493 50.7159C173.076 50.3636 173.762 50.1932 174.55 50.2045ZM174.55 51.4545C174.072 51.4545 173.643 51.5739 173.26 51.8125C172.881 52.0473 172.58 52.3655 172.357 52.767C172.137 53.1648 172.027 53.6061 172.027 54.0909C172.027 54.5758 172.133 55.017 172.345 55.4148C172.561 55.8087 172.855 56.1231 173.226 56.358C173.601 56.589 174.027 56.7045 174.504 56.7045C174.864 56.7045 175.199 56.6345 175.51 56.4943C175.821 56.3504 176.091 56.1553 176.322 55.9091C176.557 55.6591 176.741 55.3769 176.874 55.0625C177.006 54.7443 177.072 54.4129 177.072 54.0682C177.072 53.6136 176.963 53.1875 176.743 52.7898C176.527 52.392 176.228 52.0701 175.845 51.8239C175.466 51.5777 175.035 51.4545 174.55 51.4545ZM184.625 62.1591C183.769 62.1591 183.04 61.9261 182.438 61.4602C181.835 60.9905 181.375 60.3106 181.057 59.4205C180.739 58.5265 180.58 57.447 180.58 56.1818C180.58 54.9242 180.739 53.8504 181.057 52.9602C181.379 52.0663 181.841 51.3845 182.443 50.9148C183.049 50.4413 183.777 50.2045 184.625 50.2045C185.473 50.2045 186.199 50.4413 186.801 50.9148C187.407 51.3845 187.869 52.0663 188.188 52.9602C188.509 53.8504 188.67 54.9242 188.67 56.1818C188.67 57.447 188.511 58.5265 188.193 59.4205C187.875 60.3106 187.415 60.9905 186.812 61.4602C186.21 61.9261 185.481 62.1591 184.625 62.1591ZM184.625 60.9091C185.473 60.9091 186.133 60.5 186.602 59.6818C187.072 58.8636 187.307 57.697 187.307 56.1818C187.307 55.1742 187.199 54.3163 186.983 53.608C186.771 52.8996 186.464 52.3598 186.062 51.9886C185.665 51.6174 185.186 51.4318 184.625 51.4318C183.784 51.4318 183.127 51.8466 182.653 52.6761C182.18 53.5019 181.943 54.6705 181.943 56.1818C181.943 57.1894 182.049 58.0455 182.261 58.75C182.473 59.4545 182.778 59.9905 183.176 60.358C183.578 60.7254 184.061 60.9091 184.625 60.9091ZM194.466 62.1591C193.799 62.1591 193.199 62.0265 192.665 61.7614C192.131 61.4962 191.703 61.1326 191.381 60.6705C191.059 60.2083 190.883 59.6818 190.852 59.0909H192.216C192.269 59.6174 192.508 60.053 192.932 60.3977C193.36 60.7386 193.871 60.9091 194.466 60.9091C194.943 60.9091 195.367 60.7973 195.739 60.5739C196.114 60.3504 196.407 60.0436 196.619 59.6534C196.835 59.2595 196.943 58.8144 196.943 58.3182C196.943 57.8106 196.831 57.358 196.608 56.9602C196.388 56.5587 196.085 56.2424 195.699 56.0114C195.313 55.7803 194.871 55.6629 194.375 55.6591C194.019 55.6553 193.653 55.7102 193.278 55.8239C192.903 55.9337 192.595 56.0758 192.352 56.25L191.034 56.0909L191.739 50.3636H197.784V51.6136H192.92L192.511 55.0455H192.58C192.818 54.8561 193.117 54.6989 193.477 54.5739C193.837 54.4489 194.212 54.3864 194.602 54.3864C195.314 54.3864 195.949 54.5568 196.506 54.8977C197.066 55.2348 197.506 55.697 197.824 56.2841C198.146 56.8712 198.307 57.5417 198.307 58.2955C198.307 59.0379 198.14 59.7008 197.807 60.2841C197.477 60.8636 197.023 61.322 196.443 61.6591C195.864 61.9924 195.205 62.1591 194.466 62.1591ZM204.2 62.1591C203.534 62.1591 202.933 62.0265 202.399 61.7614C201.865 61.4962 201.437 61.1326 201.115 60.6705C200.793 60.2083 200.617 59.6818 200.587 59.0909H201.95C202.003 59.6174 202.242 60.053 202.666 60.3977C203.094 60.7386 203.606 60.9091 204.2 60.9091C204.678 60.9091 205.102 60.7973 205.473 60.5739C205.848 60.3504 206.142 60.0436 206.354 59.6534C206.57 59.2595 206.678 58.8144 206.678 58.3182C206.678 57.8106 206.566 57.358 206.342 56.9602C206.123 56.5587 205.82 56.2424 205.433 56.0114C205.047 55.7803 204.606 55.6629 204.109 55.6591C203.753 55.6553 203.388 55.7102 203.013 55.8239C202.638 55.9337 202.329 56.0758 202.087 56.25L200.768 56.0909L201.473 50.3636H207.518V51.6136H202.655L202.246 55.0455H202.314C202.553 54.8561 202.852 54.6989 203.212 54.5739C203.571 54.4489 203.946 54.3864 204.337 54.3864C205.049 54.3864 205.683 54.5568 206.24 54.8977C206.801 55.2348 207.24 55.697 207.558 56.2841C207.88 56.8712 208.041 57.5417 208.041 58.2955C208.041 59.0379 207.875 59.7008 207.541 60.2841C207.212 60.8636 206.757 61.322 206.178 61.6591C205.598 61.9924 204.939 62.1591 204.2 62.1591ZM214.389 50.3636V62H212.98V51.8409H212.912L210.071 53.7273V52.2955L212.98 50.3636H214.389ZM221.372 62.1591C220.705 62.1591 220.105 62.0265 219.571 61.7614C219.037 61.4962 218.609 61.1326 218.287 60.6705C217.965 60.2083 217.789 59.6818 217.759 59.0909H219.122C219.175 59.6174 219.414 60.053 219.838 60.3977C220.266 60.7386 220.777 60.9091 221.372 60.9091C221.849 60.9091 222.274 60.7973 222.645 60.5739C223.02 60.3504 223.313 60.0436 223.526 59.6534C223.741 59.2595 223.849 58.8144 223.849 58.3182C223.849 57.8106 223.738 57.358 223.514 56.9602C223.295 56.5587 222.991 56.2424 222.605 56.0114C222.219 55.7803 221.777 55.6629 221.281 55.6591C220.925 55.6553 220.56 55.7102 220.185 55.8239C219.81 55.9337 219.501 56.0758 219.259 56.25L217.94 56.0909L218.645 50.3636H224.69V51.6136H219.827L219.418 55.0455H219.486C219.724 54.8561 220.024 54.6989 220.384 54.5739C220.743 54.4489 221.118 54.3864 221.509 54.3864C222.221 54.3864 222.855 54.5568 223.412 54.8977C223.973 55.2348 224.412 55.697 224.73 56.2841C225.052 56.8712 225.213 57.5417 225.213 58.2955C225.213 59.0379 225.046 59.7008 224.713 60.2841C224.384 60.8636 223.929 61.322 223.349 61.6591C222.77 61.9924 222.111 62.1591 221.372 62.1591Z" fill="#23262F"/>
<path d="M26.1875 93L23.1875 88.9943H22.1136V93H21.0568V84.2727H22.1136V88.0568H22.5739L26.0682 84.2727H27.3295L23.8011 88.108L27.4489 93H26.1875ZM30.8569 93.1364C30.266 93.1364 29.7475 92.9957 29.3015 92.7145C28.8583 92.4332 28.5117 92.0398 28.2617 91.5341C28.0146 91.0284 27.891 90.4375 27.891 89.7614C27.891 89.0795 28.0146 88.4844 28.2617 87.9759C28.5117 87.4673 28.8583 87.0724 29.3015 86.7912C29.7475 86.5099 30.266 86.3693 30.8569 86.3693C31.4478 86.3693 31.9648 86.5099 32.408 86.7912C32.854 87.0724 33.2006 87.4673 33.4478 87.9759C33.6978 88.4844 33.8228 89.0795 33.8228 89.7614C33.8228 90.4375 33.6978 91.0284 33.4478 91.5341C33.2006 92.0398 32.854 92.4332 32.408 92.7145C31.9648 92.9957 31.4478 93.1364 30.8569 93.1364ZM30.8569 92.233C31.3058 92.233 31.6751 92.1179 31.9648 91.8878C32.2546 91.6577 32.4691 91.3551 32.6083 90.9801C32.7475 90.6051 32.8171 90.1989 32.8171 89.7614C32.8171 89.3239 32.7475 88.9162 32.6083 88.5384C32.4691 88.1605 32.2546 87.8551 31.9648 87.6222C31.6751 87.3892 31.3058 87.2727 30.8569 87.2727C30.408 87.2727 30.0387 87.3892 29.7489 87.6222C29.4592 87.8551 29.2447 88.1605 29.1055 88.5384C28.9663 88.9162 28.8967 89.3239 28.8967 89.7614C28.8967 90.1989 28.9663 90.6051 29.1055 90.9801C29.2447 91.3551 29.4592 91.6577 29.7489 91.8878C30.0387 92.1179 30.408 92.233 30.8569 92.233ZM34.6591 94.875V92.0625H35.2045C35.3381 91.9233 35.4531 91.7727 35.5497 91.6108C35.6463 91.4489 35.7301 91.2571 35.8011 91.0355C35.875 90.8111 35.9375 90.5384 35.9886 90.2173C36.0398 89.8935 36.0852 89.5028 36.125 89.0455L36.3466 86.4545H40.5057V92.0625H41.5114V94.875H40.5057V93H35.6648V94.875H34.6591ZM36.3466 92.0625H39.5V87.392H37.2841L37.1136 89.0455C37.0426 89.7301 36.9545 90.3281 36.8494 90.8395C36.7443 91.3509 36.5767 91.7585 36.3466 92.0625ZM45.8462 87.392V86.4545H51.1644V87.392H49.0167V93H48.011V87.392H45.8462ZM54.9506 93.1364C54.3597 93.1364 53.8413 92.9957 53.3952 92.7145C52.9521 92.4332 52.6055 92.0398 52.3555 91.5341C52.1083 91.0284 51.9847 90.4375 51.9847 89.7614C51.9847 89.0795 52.1083 88.4844 52.3555 87.9759C52.6055 87.4673 52.9521 87.0724 53.3952 86.7912C53.8413 86.5099 54.3597 86.3693 54.9506 86.3693C55.5415 86.3693 56.0586 86.5099 56.5018 86.7912C56.9478 87.0724 57.2944 87.4673 57.5415 87.9759C57.7915 88.4844 57.9165 89.0795 57.9165 89.7614C57.9165 90.4375 57.7915 91.0284 57.5415 91.5341C57.2944 92.0398 56.9478 92.4332 56.5018 92.7145C56.0586 92.9957 55.5415 93.1364 54.9506 93.1364ZM54.9506 92.233C55.3995 92.233 55.7688 92.1179 56.0586 91.8878C56.3484 91.6577 56.5629 91.3551 56.7021 90.9801C56.8413 90.6051 56.9109 90.1989 56.9109 89.7614C56.9109 89.3239 56.8413 88.9162 56.7021 88.5384C56.5629 88.1605 56.3484 87.8551 56.0586 87.6222C55.7688 87.3892 55.3995 87.2727 54.9506 87.2727C54.5018 87.2727 54.1325 87.3892 53.8427 87.6222C53.5529 87.8551 53.3384 88.1605 53.1992 88.5384C53.06 88.9162 52.9904 89.3239 52.9904 89.7614C52.9904 90.1989 53.06 90.6051 53.1992 90.9801C53.3384 91.3551 53.5529 91.6577 53.8427 91.8878C54.1325 92.1179 54.5018 92.233 54.9506 92.233ZM59.4517 93V86.4545H62.1278C62.8324 86.4545 63.392 86.6136 63.8068 86.9318C64.2216 87.25 64.429 87.6705 64.429 88.1932C64.429 88.5909 64.3111 88.8991 64.0753 89.1179C63.8395 89.3338 63.5369 89.4801 63.1676 89.5568C63.4091 89.5909 63.6435 89.6761 63.8707 89.8125C64.1009 89.9489 64.2912 90.1364 64.4418 90.375C64.5923 90.6108 64.6676 90.9006 64.6676 91.2443C64.6676 91.5795 64.5824 91.8793 64.4119 92.1435C64.2415 92.4077 63.9972 92.6165 63.679 92.7699C63.3608 92.9233 62.9801 93 62.5369 93H59.4517ZM60.4062 92.0795H62.5369C62.8835 92.0795 63.1548 91.9972 63.3509 91.8324C63.5469 91.6676 63.6449 91.4432 63.6449 91.1591C63.6449 90.821 63.5469 90.5554 63.3509 90.3622C63.1548 90.1662 62.8835 90.0682 62.5369 90.0682H60.4062V92.0795ZM60.4062 89.1989H62.1278C62.3977 89.1989 62.6293 89.1619 62.8224 89.0881C63.0156 89.0114 63.1634 88.9034 63.2656 88.7642C63.3707 88.6222 63.4233 88.4545 63.4233 88.2614C63.4233 87.9858 63.3082 87.7699 63.0781 87.6136C62.848 87.4545 62.5313 87.375 62.1278 87.375H60.4062V89.1989ZM68.1161 93.1534C67.7013 93.1534 67.3249 93.0753 66.9869 92.919C66.6488 92.7599 66.3803 92.5312 66.1815 92.233C65.9826 91.9318 65.8832 91.5682 65.8832 91.142C65.8832 90.767 65.957 90.4631 66.1048 90.2301C66.2525 89.9943 66.4499 89.8097 66.6971 89.6761C66.9442 89.5426 67.217 89.4432 67.5153 89.3778C67.8164 89.3097 68.119 89.2557 68.4229 89.2159C68.8207 89.1648 69.1431 89.1264 69.3903 89.1009C69.6403 89.0724 69.8221 89.0256 69.9357 88.9602C70.0522 88.8949 70.1104 88.7812 70.1104 88.6193V88.5852C70.1104 88.1648 69.9954 87.8381 69.7653 87.6051C69.538 87.3722 69.1928 87.2557 68.7298 87.2557C68.2496 87.2557 67.8732 87.3608 67.6005 87.571C67.3278 87.7812 67.136 88.0057 67.0252 88.2443L66.0707 87.9034C66.2411 87.5057 66.4684 87.196 66.7525 86.9744C67.0394 86.75 67.3519 86.5937 67.69 86.5057C68.0309 86.4148 68.3661 86.3693 68.6957 86.3693C68.9059 86.3693 69.1474 86.3949 69.4201 86.446C69.6957 86.4943 69.9613 86.5952 70.217 86.7486C70.4755 86.902 70.69 87.1335 70.8604 87.4432C71.0309 87.7528 71.1161 88.1676 71.1161 88.6875V93H70.1104V92.1136H70.0593C69.9911 92.2557 69.8775 92.4077 69.7184 92.5696C69.5593 92.7315 69.3477 92.8693 69.0835 92.983C68.8192 93.0966 68.4968 93.1534 68.1161 93.1534ZM68.2695 92.25C68.6673 92.25 69.0025 92.1719 69.2752 92.0156C69.5508 91.8594 69.7582 91.6577 69.8974 91.4105C70.0394 91.1634 70.1104 90.9034 70.1104 90.6307V89.7102C70.0678 89.7614 69.9741 89.8082 69.8292 89.8509C69.6871 89.8906 69.5224 89.9261 69.3349 89.9574C69.1502 89.9858 68.9698 90.0114 68.7937 90.0341C68.6204 90.054 68.4798 90.071 68.3718 90.0852C68.1104 90.1193 67.8661 90.1747 67.6388 90.2514C67.4144 90.3253 67.2326 90.4375 67.0934 90.5881C66.957 90.7358 66.8888 90.9375 66.8888 91.1932C66.8888 91.5426 67.0181 91.8068 67.2766 91.9858C67.538 92.1619 67.869 92.25 68.2695 92.25ZM72.9517 95.4545V86.4545H73.9233V87.4943H74.0426C74.1165 87.3807 74.2188 87.2358 74.3494 87.0597C74.483 86.8807 74.6733 86.7216 74.9205 86.5824C75.1705 86.4403 75.5085 86.3693 75.9347 86.3693C76.4858 86.3693 76.9716 86.5071 77.392 86.7827C77.8125 87.0582 78.1406 87.4489 78.3764 87.9545C78.6122 88.4602 78.7301 89.0568 78.7301 89.7443C78.7301 90.4375 78.6122 91.0384 78.3764 91.5469C78.1406 92.0526 77.8139 92.4446 77.3963 92.723C76.9787 92.9986 76.4972 93.1364 75.9517 93.1364C75.5313 93.1364 75.1946 93.0668 74.9418 92.9276C74.6889 92.7855 74.4943 92.625 74.358 92.446C74.2216 92.2642 74.1165 92.1136 74.0426 91.9943H73.9574V95.4545H72.9517ZM73.9403 89.7273C73.9403 90.2216 74.0128 90.6577 74.1577 91.0355C74.3026 91.4105 74.5142 91.7045 74.7926 91.9176C75.071 92.1278 75.4119 92.233 75.8153 92.233C76.2358 92.233 76.5866 92.1222 76.8679 91.9006C77.152 91.6761 77.3651 91.375 77.5071 90.9972C77.652 90.6165 77.7244 90.1932 77.7244 89.7273C77.7244 89.267 77.6534 88.8523 77.5114 88.483C77.3722 88.1108 77.1605 87.8168 76.8764 87.6009C76.5952 87.3821 76.2415 87.2727 75.8153 87.2727C75.4063 87.2727 75.0625 87.3764 74.7841 87.5838C74.5057 87.7884 74.2955 88.0753 74.1534 88.4446C74.0114 88.8111 73.9403 89.2386 73.9403 89.7273ZM82.1903 93.1534C81.7756 93.1534 81.3991 93.0753 81.0611 92.919C80.723 92.7599 80.4545 92.5312 80.2557 92.233C80.0568 91.9318 79.9574 91.5682 79.9574 91.142C79.9574 90.767 80.0313 90.4631 80.179 90.2301C80.3267 89.9943 80.5241 89.8097 80.7713 89.6761C81.0185 89.5426 81.2912 89.4432 81.5895 89.3778C81.8906 89.3097 82.1932 89.2557 82.4972 89.2159C82.8949 89.1648 83.2173 89.1264 83.4645 89.1009C83.7145 89.0724 83.8963 89.0256 84.0099 88.9602C84.1264 88.8949 84.1847 88.7812 84.1847 88.6193V88.5852C84.1847 88.1648 84.0696 87.8381 83.8395 87.6051C83.6122 87.3722 83.267 87.2557 82.804 87.2557C82.3239 87.2557 81.9474 87.3608 81.6747 87.571C81.402 87.7812 81.2102 88.0057 81.0994 88.2443L80.1449 87.9034C80.3153 87.5057 80.5426 87.196 80.8267 86.9744C81.1136 86.75 81.4261 86.5937 81.7642 86.5057C82.1051 86.4148 82.4403 86.3693 82.7699 86.3693C82.9801 86.3693 83.2216 86.3949 83.4943 86.446C83.7699 86.4943 84.0355 86.5952 84.2912 86.7486C84.5497 86.902 84.7642 87.1335 84.9347 87.4432C85.1051 87.7528 85.1903 88.1676 85.1903 88.6875V93H84.1847V92.1136H84.1335C84.0653 92.2557 83.9517 92.4077 83.7926 92.5696C83.6335 92.7315 83.4219 92.8693 83.1577 92.983C82.8935 93.0966 82.571 93.1534 82.1903 93.1534ZM82.3438 92.25C82.7415 92.25 83.0767 92.1719 83.3494 92.0156C83.625 91.8594 83.8324 91.6577 83.9716 91.4105C84.1136 91.1634 84.1847 90.9034 84.1847 90.6307V89.7102C84.142 89.7614 84.0483 89.8082 83.9034 89.8509C83.7614 89.8906 83.5966 89.9261 83.4091 89.9574C83.2244 89.9858 83.044 90.0114 82.8679 90.0341C82.6946 90.054 82.554 90.071 82.446 90.0852C82.1847 90.1193 81.9403 90.1747 81.7131 90.2514C81.4886 90.3253 81.3068 90.4375 81.1676 90.5881C81.0313 90.7358 80.9631 90.9375 80.9631 91.1932C80.9631 91.5426 81.0923 91.8068 81.3509 91.9858C81.6122 92.1619 81.9432 92.25 82.3438 92.25ZM87.7589 93.0682C87.5487 93.0682 87.3683 92.9929 87.2177 92.8423C87.0671 92.6918 86.9918 92.5114 86.9918 92.3011C86.9918 92.0909 87.0671 91.9105 87.2177 91.7599C87.3683 91.6094 87.5487 91.5341 87.7589 91.5341C87.9691 91.5341 88.1495 91.6094 88.3001 91.7599C88.4506 91.9105 88.5259 92.0909 88.5259 92.3011C88.5259 92.4403 88.4904 92.5682 88.4194 92.6847C88.3512 92.8011 88.2589 92.8949 88.1424 92.9659C88.0288 93.0341 87.9009 93.0682 87.7589 93.0682ZM87.7589 88.2102C87.5487 88.2102 87.3683 88.1349 87.2177 87.9844C87.0671 87.8338 86.9918 87.6534 86.9918 87.4432C86.9918 87.233 87.0671 87.0526 87.2177 86.902C87.3683 86.7514 87.5487 86.6761 87.7589 86.6761C87.9691 86.6761 88.1495 86.7514 88.3001 86.902C88.4506 87.0526 88.5259 87.233 88.5259 87.4432C88.5259 87.5824 88.4904 87.7102 88.4194 87.8267C88.3512 87.9432 88.2589 88.0369 88.1424 88.108C88.0288 88.1761 87.9009 88.2102 87.7589 88.2102ZM97.2894 84.2727V93H95.4442V86.0241H95.3931L93.3945 87.277V85.6406L95.555 84.2727H97.2894ZM102.713 93.1193C102.264 93.1165 101.831 93.0412 101.413 92.8935C100.999 92.7457 100.626 92.5057 100.297 92.1733C99.9673 91.8409 99.706 91.4006 99.5128 90.8523C99.3224 90.304 99.2273 89.6307 99.2273 88.8324C99.2301 88.0994 99.3139 87.4446 99.4787 86.8679C99.6463 86.2884 99.8849 85.7969 100.195 85.3935C100.507 84.9901 100.881 84.6832 101.315 84.473C101.75 84.2599 102.237 84.1534 102.777 84.1534C103.359 84.1534 103.874 84.267 104.32 84.4943C104.766 84.7187 105.124 85.0241 105.393 85.4105C105.666 85.7969 105.831 86.2301 105.888 86.7102H104.068C103.997 86.4062 103.848 86.1676 103.621 85.9943C103.393 85.821 103.112 85.7344 102.777 85.7344C102.209 85.7344 101.777 85.9815 101.482 86.4759C101.189 86.9702 101.04 87.642 101.034 88.4915H101.094C101.224 88.233 101.401 88.0128 101.622 87.831C101.847 87.6463 102.101 87.5057 102.385 87.4091C102.672 87.3097 102.974 87.2599 103.293 87.2599C103.81 87.2599 104.27 87.3821 104.673 87.6264C105.077 87.8679 105.395 88.2003 105.628 88.6236C105.861 89.0469 105.977 89.5312 105.977 90.0767C105.977 90.6676 105.839 91.1932 105.564 91.6534C105.291 92.1136 104.909 92.4744 104.418 92.7358C103.929 92.9943 103.361 93.1222 102.713 93.1193ZM102.705 91.6705C102.989 91.6705 103.243 91.6023 103.467 91.4659C103.692 91.3295 103.868 91.1449 103.996 90.9119C104.124 90.679 104.188 90.4176 104.188 90.1278C104.188 89.8381 104.124 89.5781 103.996 89.348C103.871 89.1179 103.697 88.9347 103.476 88.7983C103.254 88.6619 103.001 88.5938 102.717 88.5938C102.504 88.5938 102.307 88.6335 102.125 88.7131C101.946 88.7926 101.788 88.9034 101.652 89.0455C101.518 89.1875 101.413 89.3523 101.337 89.5398C101.26 89.7244 101.222 89.9219 101.222 90.1321C101.222 90.4134 101.286 90.6705 101.413 90.9034C101.544 91.1364 101.72 91.3224 101.942 91.4616C102.166 91.6009 102.42 91.6705 102.705 91.6705ZM110.511 93.1193C109.875 93.1193 109.308 93.0099 108.811 92.7912C108.317 92.5696 107.926 92.2656 107.639 91.8793C107.355 91.4901 107.209 91.0412 107.2 90.5327H109.058C109.07 90.7457 109.139 90.9332 109.267 91.0952C109.398 91.2543 109.571 91.3778 109.787 91.4659C110.003 91.554 110.246 91.598 110.516 91.598C110.797 91.598 111.045 91.5483 111.261 91.4489C111.477 91.3494 111.646 91.2116 111.768 91.0355C111.891 90.8594 111.952 90.6562 111.952 90.4261C111.952 90.1932 111.886 89.9872 111.756 89.8082C111.628 89.6264 111.443 89.4844 111.202 89.3821C110.963 89.2798 110.679 89.2287 110.349 89.2287H109.536V87.8736H110.349C110.628 87.8736 110.874 87.8253 111.087 87.7287C111.303 87.6321 111.47 87.4986 111.589 87.3281C111.709 87.1548 111.768 86.9531 111.768 86.723C111.768 86.5043 111.716 86.3125 111.611 86.1477C111.509 85.9801 111.364 85.8494 111.176 85.7557C110.991 85.6619 110.776 85.6151 110.528 85.6151C110.278 85.6151 110.05 85.6605 109.842 85.7514C109.635 85.8395 109.469 85.9659 109.344 86.1307C109.219 86.2955 109.152 86.4886 109.143 86.7102H107.375C107.384 86.2074 107.527 85.7642 107.805 85.3807C108.084 84.9972 108.459 84.6974 108.93 84.4815C109.405 84.2628 109.94 84.1534 110.537 84.1534C111.139 84.1534 111.666 84.2628 112.118 84.4815C112.57 84.7003 112.92 84.9957 113.17 85.3679C113.423 85.7372 113.548 86.152 113.545 86.6122C113.548 87.1009 113.396 87.5085 113.089 87.8352C112.786 88.1619 112.389 88.3693 111.901 88.4574V88.5256C112.543 88.608 113.031 88.831 113.366 89.1946C113.705 89.5554 113.872 90.0071 113.869 90.5497C113.872 91.0469 113.729 91.4886 113.439 91.875C113.152 92.2614 112.756 92.5653 112.25 92.7869C111.744 93.0085 111.165 93.1193 110.511 93.1193ZM118.993 84.2727V93H117.147V86.0241H117.096L115.098 87.277V85.6406L117.258 84.2727H118.993ZM121.412 93L125.03 85.8409V85.7812H120.815V84.2727H126.939V85.8026L123.317 93H121.412ZM131.244 84.1534C131.693 84.1534 132.125 84.2287 132.539 84.3793C132.957 84.5298 133.329 84.7699 133.656 85.0994C133.985 85.429 134.245 85.8665 134.436 86.4119C134.629 86.9545 134.727 87.6207 134.73 88.4105C134.73 89.152 134.646 89.8139 134.478 90.3963C134.314 90.9759 134.076 91.4688 133.767 91.875C133.457 92.2812 133.083 92.5909 132.646 92.804C132.208 93.0142 131.72 93.1193 131.18 93.1193C130.598 93.1193 130.083 93.0071 129.637 92.7827C129.191 92.5554 128.832 92.2472 128.559 91.858C128.289 91.4659 128.126 91.0256 128.069 90.5369H129.889C129.96 90.8551 130.109 91.1023 130.336 91.2784C130.564 91.4517 130.845 91.5384 131.18 91.5384C131.748 91.5384 132.18 91.2912 132.475 90.7969C132.771 90.2997 132.92 89.6193 132.923 88.7557H132.863C132.733 89.0114 132.556 89.2315 132.335 89.4162C132.113 89.598 131.859 89.7386 131.572 89.8381C131.288 89.9375 130.985 89.9872 130.664 89.9872C130.15 89.9872 129.691 89.8665 129.288 89.625C128.885 89.3835 128.566 89.0511 128.333 88.6278C128.1 88.2045 127.984 87.7216 127.984 87.179C127.981 86.5938 128.116 86.0724 128.389 85.6151C128.662 85.1577 129.042 84.7997 129.531 84.5412C130.022 84.2798 130.593 84.1506 131.244 84.1534ZM131.257 85.6023C130.97 85.6023 130.714 85.6705 130.49 85.8068C130.268 85.9432 130.092 86.1264 129.961 86.3565C129.833 86.5866 129.771 86.8437 129.774 87.1278C129.774 87.4148 129.836 87.6733 129.961 87.9034C130.089 88.1307 130.262 88.3125 130.481 88.4489C130.703 88.5824 130.956 88.6491 131.24 88.6491C131.453 88.6491 131.65 88.6094 131.832 88.5298C132.014 88.4503 132.172 88.3409 132.305 88.2017C132.441 88.0597 132.548 87.8963 132.625 87.7116C132.701 87.527 132.74 87.331 132.74 87.1236C132.737 86.848 132.672 86.5952 132.544 86.3651C132.416 86.1349 132.24 85.9503 132.015 85.8111C131.791 85.6719 131.538 85.6023 131.257 85.6023ZM136.008 93V91.6705L139.115 88.794C139.379 88.5384 139.6 88.3082 139.779 88.1037C139.961 87.8991 140.099 87.6989 140.193 87.5028C140.287 87.304 140.333 87.0895 140.333 86.8594C140.333 86.6037 140.275 86.3835 140.159 86.1989C140.042 86.0114 139.883 85.8679 139.681 85.7685C139.48 85.6662 139.251 85.6151 138.995 85.6151C138.728 85.6151 138.495 85.669 138.297 85.777C138.098 85.8849 137.944 86.0398 137.836 86.2415C137.728 86.4432 137.674 86.6832 137.674 86.9616H135.923C135.923 86.3906 136.052 85.8949 136.311 85.4744C136.569 85.054 136.931 84.7287 137.397 84.4986C137.863 84.2685 138.4 84.1534 139.008 84.1534C139.633 84.1534 140.177 84.2642 140.64 84.4858C141.106 84.7045 141.468 85.0085 141.727 85.3977C141.985 85.7869 142.115 86.233 142.115 86.7358C142.115 87.0653 142.049 87.3906 141.919 87.7116C141.791 88.0327 141.562 88.3892 141.233 88.7812C140.903 89.1705 140.439 89.6378 139.839 90.1832L138.565 91.4318V91.4915H142.23V93H136.008ZM146.724 84.1534C147.173 84.1534 147.605 84.2287 148.02 84.3793C148.438 84.5298 148.81 84.7699 149.136 85.0994C149.466 85.429 149.726 85.8665 149.916 86.4119C150.109 86.9545 150.207 87.6207 150.21 88.4105C150.21 89.152 150.126 89.8139 149.959 90.3963C149.794 90.9759 149.557 91.4688 149.247 91.875C148.938 92.2812 148.564 92.5909 148.126 92.804C147.689 93.0142 147.2 93.1193 146.661 93.1193C146.078 93.1193 145.564 93.0071 145.118 92.7827C144.672 92.5554 144.313 92.2472 144.04 91.858C143.77 91.4659 143.607 91.0256 143.55 90.5369H145.369C145.44 90.8551 145.589 91.1023 145.817 91.2784C146.044 91.4517 146.325 91.5384 146.661 91.5384C147.229 91.5384 147.661 91.2912 147.956 90.7969C148.251 90.2997 148.401 89.6193 148.403 88.7557H148.344C148.213 89.0114 148.037 89.2315 147.815 89.4162C147.594 89.598 147.339 89.7386 147.053 89.8381C146.768 89.9375 146.466 89.9872 146.145 89.9872C145.631 89.9872 145.172 89.8665 144.768 89.625C144.365 89.3835 144.047 89.0511 143.814 88.6278C143.581 88.2045 143.464 87.7216 143.464 87.179C143.462 86.5938 143.597 86.0724 143.869 85.6151C144.142 85.1577 144.523 84.7997 145.011 84.5412C145.503 84.2798 146.074 84.1506 146.724 84.1534ZM146.737 85.6023C146.45 85.6023 146.195 85.6705 145.97 85.8068C145.749 85.9432 145.572 86.1264 145.442 86.3565C145.314 86.5866 145.251 86.8437 145.254 87.1278C145.254 87.4148 145.317 87.6733 145.442 87.9034C145.57 88.1307 145.743 88.3125 145.962 88.4489C146.183 88.5824 146.436 88.6491 146.72 88.6491C146.933 88.6491 147.131 88.6094 147.312 88.5298C147.494 88.4503 147.652 88.3409 147.786 88.2017C147.922 88.0597 148.028 87.8963 148.105 87.7116C148.182 87.527 148.22 87.331 148.22 87.1236C148.217 86.848 148.152 86.5952 148.024 86.3651C147.896 86.1349 147.72 85.9503 147.496 85.8111C147.271 85.6719 147.018 85.6023 146.737 85.6023Z" fill="#4F576D"/>
<path d="M27.5852 111.273V120H26.5284V112.21H22.1307V120H21.0739V111.273H27.5852ZM29.5806 122.455V113.455H30.5522V114.494H30.6715C30.7454 114.381 30.8477 114.236 30.9783 114.06C31.1119 113.881 31.3022 113.722 31.5494 113.582C31.7994 113.44 32.1374 113.369 32.5636 113.369C33.1147 113.369 33.6005 113.507 34.021 113.783C34.4414 114.058 34.7695 114.449 35.0053 114.955C35.2411 115.46 35.359 116.057 35.359 116.744C35.359 117.438 35.2411 118.038 35.0053 118.547C34.7695 119.053 34.4428 119.445 34.0252 119.723C33.6076 119.999 33.1261 120.136 32.5806 120.136C32.1602 120.136 31.8235 120.067 31.5707 119.928C31.3178 119.786 31.1232 119.625 30.9869 119.446C30.8505 119.264 30.7454 119.114 30.6715 118.994H30.5863V122.455H29.5806ZM30.5692 116.727C30.5692 117.222 30.6417 117.658 30.7866 118.036C30.9315 118.411 31.1431 118.705 31.4215 118.918C31.6999 119.128 32.0408 119.233 32.4442 119.233C32.8647 119.233 33.2156 119.122 33.4968 118.901C33.7809 118.676 33.994 118.375 34.136 117.997C34.2809 117.616 34.3533 117.193 34.3533 116.727C34.3533 116.267 34.2823 115.852 34.1403 115.483C34.0011 115.111 33.7894 114.817 33.5053 114.601C33.2241 114.382 32.8704 114.273 32.4442 114.273C32.0352 114.273 31.6914 114.376 31.413 114.584C31.1346 114.788 30.9244 115.075 30.7823 115.445C30.6403 115.811 30.5692 116.239 30.5692 116.727ZM39.6374 120.136C39.0067 120.136 38.4627 119.997 38.0053 119.719C37.5508 119.438 37.1999 119.045 36.9528 118.543C36.7085 118.037 36.5863 117.449 36.5863 116.778C36.5863 116.108 36.7085 115.517 36.9528 115.006C37.1999 114.491 37.5437 114.091 37.984 113.804C38.4272 113.514 38.9442 113.369 39.5352 113.369C39.8761 113.369 40.2127 113.426 40.5451 113.54C40.8775 113.653 41.18 113.838 41.4528 114.094C41.7255 114.347 41.9428 114.682 42.1048 115.099C42.2667 115.517 42.3477 116.031 42.3477 116.642V117.068H37.3022V116.199H41.3249C41.3249 115.83 41.2511 115.5 41.1033 115.21C40.9585 114.92 40.7511 114.692 40.4812 114.524C40.2141 114.357 39.8988 114.273 39.5352 114.273C39.1346 114.273 38.788 114.372 38.4954 114.571C38.2056 114.767 37.9826 115.023 37.8263 115.338C37.6701 115.653 37.592 115.991 37.592 116.352V116.932C37.592 117.426 37.6772 117.845 37.8477 118.189C38.021 118.53 38.261 118.79 38.5678 118.969C38.8746 119.145 39.2312 119.233 39.6374 119.233C39.9016 119.233 40.1403 119.196 40.3533 119.122C40.5692 119.045 40.7553 118.932 40.9116 118.781C41.0678 118.628 41.1886 118.437 41.2738 118.21L42.2454 118.483C42.1431 118.812 41.9712 119.102 41.7298 119.352C41.4883 119.599 41.19 119.793 40.8349 119.932C40.4798 120.068 40.0806 120.136 39.6374 120.136ZM43.1786 121.875V119.062H43.7241C43.8576 118.923 43.9727 118.773 44.0692 118.611C44.1658 118.449 44.2496 118.257 44.3207 118.036C44.3945 117.811 44.457 117.538 44.5082 117.217C44.5593 116.893 44.6048 116.503 44.6445 116.045L44.8661 113.455H49.0252V119.062H50.0309V121.875H49.0252V120H44.1843V121.875H43.1786ZM44.8661 119.062H48.0195V114.392H45.8036L45.6332 116.045C45.5621 116.73 45.4741 117.328 45.369 117.839C45.2638 118.351 45.0962 118.759 44.8661 119.062ZM50.7862 120V119.062H51.0249C51.2209 119.062 51.3842 119.024 51.5149 118.947C51.6456 118.868 51.7507 118.73 51.8303 118.534C51.9126 118.335 51.9751 118.06 52.0178 117.707C52.0632 117.352 52.0959 116.901 52.1158 116.352L52.2351 113.455H56.5987V120H55.593V114.392H53.1896L53.0874 116.727C53.0646 117.264 53.0163 117.737 52.9425 118.146C52.8714 118.553 52.7621 118.893 52.6143 119.169C52.4695 119.445 52.2763 119.652 52.0348 119.791C51.7933 119.93 51.4908 120 51.1271 120H50.7862ZM61.103 120.136C60.5121 120.136 59.9936 119.996 59.5476 119.714C59.1044 119.433 58.7578 119.04 58.5078 118.534C58.2607 118.028 58.1371 117.437 58.1371 116.761C58.1371 116.08 58.2607 115.484 58.5078 114.976C58.7578 114.467 59.1044 114.072 59.5476 113.791C59.9936 113.51 60.5121 113.369 61.103 113.369C61.6939 113.369 62.2109 113.51 62.6541 113.791C63.1001 114.072 63.4467 114.467 63.6939 114.976C63.9439 115.484 64.0689 116.08 64.0689 116.761C64.0689 117.437 63.9439 118.028 63.6939 118.534C63.4467 119.04 63.1001 119.433 62.6541 119.714C62.2109 119.996 61.6939 120.136 61.103 120.136ZM61.103 119.233C61.5518 119.233 61.9212 119.118 62.2109 118.888C62.5007 118.658 62.7152 118.355 62.8544 117.98C62.9936 117.605 63.0632 117.199 63.0632 116.761C63.0632 116.324 62.9936 115.916 62.8544 115.538C62.7152 115.161 62.5007 114.855 62.2109 114.622C61.9212 114.389 61.5518 114.273 61.103 114.273C60.6541 114.273 60.2848 114.389 59.995 114.622C59.7053 114.855 59.4908 115.161 59.3516 115.538C59.2124 115.916 59.1428 116.324 59.1428 116.761C59.1428 117.199 59.2124 117.605 59.3516 117.98C59.4908 118.355 59.7053 118.658 59.995 118.888C60.2848 119.118 60.6541 119.233 61.103 119.233ZM64.9254 120L67.5845 116.676L64.9595 113.455H66.1527L68.3345 116.25H68.88V113.455H69.8857V116.25H70.4141L72.5959 113.455H73.7891L71.1811 116.676L73.8232 120H72.6129L70.397 117.188H69.8857V120H68.88V117.188H68.3686L66.1357 120H64.9254ZM77.7351 120.136C77.1044 120.136 76.5604 119.997 76.103 119.719C75.6484 119.438 75.2976 119.045 75.0504 118.543C74.8061 118.037 74.6839 117.449 74.6839 116.778C74.6839 116.108 74.8061 115.517 75.0504 115.006C75.2976 114.491 75.6413 114.091 76.0817 113.804C76.5249 113.514 77.0419 113.369 77.6328 113.369C77.9737 113.369 78.3104 113.426 78.6428 113.54C78.9751 113.653 79.2777 113.838 79.5504 114.094C79.8232 114.347 80.0405 114.682 80.2024 115.099C80.3643 115.517 80.4453 116.031 80.4453 116.642V117.068H75.3999V116.199H79.4226C79.4226 115.83 79.3487 115.5 79.201 115.21C79.0561 114.92 78.8487 114.692 78.5788 114.524C78.3118 114.357 77.9964 114.273 77.6328 114.273C77.2322 114.273 76.8857 114.372 76.593 114.571C76.3033 114.767 76.0803 115.023 75.924 115.338C75.7678 115.653 75.6896 115.991 75.6896 116.352V116.932C75.6896 117.426 75.7749 117.845 75.9453 118.189C76.1186 118.53 76.3587 118.79 76.6655 118.969C76.9723 119.145 77.3288 119.233 77.7351 119.233C77.9993 119.233 78.2379 119.196 78.451 119.122C78.6669 119.045 78.853 118.932 79.0092 118.781C79.1655 118.628 79.2862 118.437 79.3714 118.21L80.343 118.483C80.2408 118.812 80.0689 119.102 79.8274 119.352C79.5859 119.599 79.2876 119.793 78.9325 119.932C78.5774 120.068 78.1783 120.136 77.7351 120.136ZM86.3558 116.267V117.205H82.7422V116.267H86.3558ZM82.9808 113.455V120H81.9751V113.455H82.9808ZM87.1229 113.455V120H86.1172V113.455H87.1229ZM89.9652 118.517L93.1186 113.455H94.2777V120H93.272V114.938L90.1357 120H88.9595V113.455H89.9652V118.517ZM97.1254 118.517L100.279 113.455H101.438V120H100.432V114.938L97.2958 120H96.1197V113.455H97.1254V118.517ZM99.614 111.273H100.551C100.551 111.733 100.392 112.109 100.074 112.402C99.756 112.695 99.3242 112.841 98.7788 112.841C98.2418 112.841 97.8143 112.695 97.4961 112.402C97.1808 112.109 97.0231 111.733 97.0231 111.273H97.9606C97.9606 111.494 98.0217 111.689 98.1438 111.857C98.2688 112.024 98.4805 112.108 98.7788 112.108C99.0771 112.108 99.2901 112.024 99.418 111.857C99.5487 111.689 99.614 111.494 99.614 111.273Z" fill="#4F576D"/>
<path d="M118 116C118 109.925 122.925 105 129 105H152C158.075 105 163 109.925 163 116V116C163 122.075 158.075 127 152 127H129C122.925 127 118 122.075 118 116V116Z" fill="#31AA27" fill-opacity="0.2"/>
<path d="M128.979 121V119.886L132.425 116.317C132.793 115.929 133.096 115.589 133.335 115.298C133.576 115.003 133.757 114.723 133.876 114.457C133.996 114.192 134.055 113.911 134.055 113.612C134.055 113.274 133.976 112.982 133.817 112.737C133.658 112.489 133.441 112.298 133.165 112.165C132.89 112.03 132.58 111.962 132.236 111.962C131.871 111.962 131.553 112.036 131.281 112.185C131.009 112.335 130.801 112.545 130.655 112.817C130.509 113.089 130.436 113.407 130.436 113.771H128.969C128.969 113.152 129.112 112.61 129.397 112.146C129.682 111.682 130.073 111.322 130.57 111.067C131.067 110.808 131.633 110.679 132.266 110.679C132.905 110.679 133.469 110.807 133.956 111.062C134.446 111.314 134.829 111.658 135.104 112.096C135.379 112.53 135.517 113.021 135.517 113.567C135.517 113.945 135.446 114.315 135.303 114.676C135.164 115.037 134.92 115.44 134.572 115.884C134.224 116.325 133.741 116.86 133.121 117.49L131.097 119.608V119.683H135.681V121H128.979ZM141.11 121.139C140.427 121.139 139.817 121.022 139.281 120.786C138.747 120.551 138.324 120.224 138.013 119.807C137.705 119.386 137.539 118.899 137.516 118.345H139.077C139.097 118.647 139.198 118.909 139.38 119.131C139.566 119.349 139.808 119.518 140.106 119.638C140.404 119.757 140.736 119.817 141.1 119.817C141.501 119.817 141.856 119.747 142.164 119.608C142.476 119.469 142.719 119.275 142.895 119.026C143.071 118.774 143.158 118.484 143.158 118.156C143.158 117.815 143.071 117.515 142.895 117.256C142.723 116.995 142.469 116.789 142.134 116.64C141.803 116.491 141.402 116.416 140.931 116.416H140.071V115.163H140.931C141.309 115.163 141.64 115.095 141.925 114.96C142.214 114.824 142.439 114.635 142.602 114.393C142.764 114.147 142.845 113.861 142.845 113.533C142.845 113.218 142.774 112.944 142.631 112.712C142.492 112.477 142.293 112.293 142.035 112.161C141.78 112.028 141.478 111.962 141.13 111.962C140.799 111.962 140.489 112.023 140.2 112.146C139.915 112.265 139.683 112.437 139.504 112.663C139.325 112.885 139.229 113.152 139.216 113.463H137.729C137.746 112.913 137.908 112.429 138.217 112.011C138.528 111.594 138.939 111.267 139.45 111.032C139.96 110.797 140.527 110.679 141.15 110.679C141.803 110.679 142.366 110.807 142.84 111.062C143.317 111.314 143.685 111.65 143.944 112.071C144.206 112.492 144.335 112.953 144.332 113.453C144.335 114.023 144.176 114.507 143.854 114.905C143.536 115.303 143.112 115.569 142.582 115.705V115.785C143.258 115.888 143.781 116.156 144.153 116.59C144.527 117.024 144.713 117.563 144.71 118.206C144.713 118.766 144.557 119.268 144.242 119.712C143.931 120.156 143.505 120.506 142.964 120.761C142.424 121.013 141.806 121.139 141.11 121.139ZM150.452 110.818V121H148.911V112.359H148.851L146.415 113.95V112.479L148.955 110.818H150.452Z" fill="#31AA27"/>
<path d="M407.167 73.5H418.833" stroke="#23262F" stroke-width="2" stroke-linecap="round" stroke-linejoin="round"/>
<path d="M453.733 67.8636V79.5H452.324V69.3409H452.256L449.415 71.2273V69.7955L452.324 67.8636H453.733ZM457.08 79.5V78.4773L460.92 74.2727C461.371 73.7803 461.742 73.3523 462.034 72.9886C462.326 72.6212 462.542 72.2765 462.682 71.9545C462.826 71.6288 462.898 71.2879 462.898 70.9318C462.898 70.5227 462.799 70.1686 462.602 69.8693C462.409 69.5701 462.144 69.339 461.807 69.1761C461.47 69.0133 461.091 68.9318 460.67 68.9318C460.223 68.9318 459.833 69.0246 459.5 69.2102C459.17 69.392 458.915 69.6477 458.733 69.9773C458.555 70.3068 458.466 70.6932 458.466 71.1364H457.125C457.125 70.4545 457.282 69.8561 457.597 69.3409C457.911 68.8258 458.339 68.4242 458.881 68.1364C459.426 67.8485 460.038 67.7045 460.716 67.7045C461.398 67.7045 462.002 67.8485 462.528 68.1364C463.055 68.4242 463.468 68.8125 463.767 69.3011C464.066 69.7898 464.216 70.3333 464.216 70.9318C464.216 71.3598 464.138 71.7784 463.983 72.1875C463.831 72.5928 463.566 73.0455 463.188 73.5455C462.812 74.0417 462.292 74.6477 461.625 75.3636L459.011 78.1591V78.25H464.42V79.5H457.08Z" fill="#23262F"/>
<path d="M501 67.6667V79.3334" stroke="#23262F" stroke-width="2" stroke-linecap="round" stroke-linejoin="round"/>
<path d="M495.167 73.5H506.833" stroke="#23262F" stroke-width="2" stroke-linecap="round" stroke-linejoin="round"/>
<path d="M541 63C541 58.5817 544.582 55 549 55H623C627.418 55 631 58.5817 631 63V84C631 88.4183 627.418 92 623 92H549C544.582 92 541 88.4183 541 84V63Z" fill="#F7FAFC"/>
<path d="M558.129 70.3636H559.302V76.9062H562.185V70.3636H563.359V76.9062H566.242V70.3636H567.415V78H558.129V70.3636ZM568.519 71.4574V70.3636H574.724V71.4574H572.218V78H571.045V71.4574H568.519ZM576.019 78.0795C575.774 78.0795 575.563 77.9917 575.387 77.8161C575.212 77.6404 575.124 77.4299 575.124 77.1847C575.124 76.9394 575.212 76.7289 575.387 76.5533C575.563 76.3776 575.774 76.2898 576.019 76.2898C576.264 76.2898 576.475 76.3776 576.65 76.5533C576.826 76.7289 576.914 76.9394 576.914 77.1847C576.914 77.3471 576.872 77.4962 576.789 77.6321C576.71 77.768 576.602 77.8774 576.466 77.9602C576.334 78.0398 576.185 78.0795 576.019 78.0795Z" fill="#23262F"/>
<path d="M608.667 71L604.825 75.287C604.371 75.7932 603.629 75.7932 603.175 75.287L599.333 71" stroke="#23262F" stroke-miterlimit="10" stroke-linecap="round" stroke-linejoin="round"/>
<rect x="661" y="20" width="1" height="105" fill="#23262F" fill-opacity="0.2"/>
<path d="M713 70L704.6 78.4L701.4 73.6L695 80" stroke="#31AA27" stroke-width="1.5" stroke-linecap="round" stroke-linejoin="round"/>
<path d="M709 70H713V74" stroke="#31AA27" stroke-width="1.5" stroke-linecap="round" stroke-linejoin="round"/>
<path d="M731.136 81.1591C730.386 81.1591 729.718 81.0303 729.131 80.7727C728.547 80.5152 728.083 80.1572 727.739 79.6989C727.398 79.2367 727.212 78.7008 727.182 78.0909H728.614C728.644 78.4659 728.773 78.7898 729 79.0625C729.227 79.3314 729.525 79.5398 729.892 79.6875C730.259 79.8352 730.667 79.9091 731.114 79.9091C731.614 79.9091 732.057 79.822 732.443 79.6477C732.83 79.4735 733.133 79.2311 733.352 78.9205C733.572 78.6098 733.682 78.25 733.682 77.8409C733.682 77.4129 733.576 77.036 733.364 76.7102C733.152 76.3807 732.841 76.1231 732.432 75.9375C732.023 75.7519 731.523 75.6591 730.932 75.6591H730V74.4091H730.932C731.394 74.4091 731.799 74.3258 732.148 74.1591C732.5 73.9924 732.775 73.7576 732.972 73.4545C733.172 73.1515 733.273 72.7955 733.273 72.3864C733.273 71.9924 733.186 71.6496 733.011 71.358C732.837 71.0663 732.591 70.839 732.273 70.6761C731.958 70.5133 731.587 70.4318 731.159 70.4318C730.758 70.4318 730.379 70.5057 730.023 70.6534C729.67 70.7973 729.383 71.0076 729.159 71.2841C728.936 71.5568 728.814 71.8864 728.795 72.2727H727.432C727.455 71.6629 727.638 71.1288 727.983 70.6705C728.328 70.2083 728.778 69.8485 729.335 69.5909C729.896 69.3333 730.511 69.2045 731.182 69.2045C731.902 69.2045 732.519 69.3504 733.034 69.642C733.549 69.9299 733.945 70.3106 734.222 70.7841C734.498 71.2576 734.636 71.7689 734.636 72.3182C734.636 72.9735 734.464 73.5322 734.119 73.9943C733.778 74.4564 733.314 74.7765 732.727 74.9545V75.0455C733.462 75.1667 734.036 75.4792 734.449 75.983C734.862 76.483 735.068 77.1023 735.068 77.8409C735.068 78.4735 734.896 79.0417 734.551 79.5455C734.21 80.0455 733.744 80.4394 733.153 80.7273C732.563 81.0152 731.89 81.1591 731.136 81.1591ZM737.392 81V79.9773L741.233 75.7727C741.684 75.2803 742.055 74.8523 742.347 74.4886C742.638 74.1212 742.854 73.7765 742.994 73.4545C743.138 73.1288 743.21 72.7879 743.21 72.4318C743.21 72.0227 743.112 71.6686 742.915 71.3693C742.722 71.0701 742.456 70.839 742.119 70.6761C741.782 70.5133 741.403 70.4318 740.983 70.4318C740.536 70.4318 740.146 70.5246 739.812 70.7102C739.483 70.892 739.227 71.1477 739.045 71.4773C738.867 71.8068 738.778 72.1932 738.778 72.6364H737.438C737.438 71.9545 737.595 71.3561 737.909 70.8409C738.223 70.3258 738.652 69.9242 739.193 69.6364C739.739 69.3485 740.35 69.2045 741.028 69.2045C741.71 69.2045 742.314 69.3485 742.841 69.6364C743.367 69.9242 743.78 70.3125 744.08 70.8011C744.379 71.2898 744.528 71.8333 744.528 72.4318C744.528 72.8598 744.451 73.2784 744.295 73.6875C744.144 74.0928 743.879 74.5455 743.5 75.0455C743.125 75.5417 742.604 76.1477 741.938 76.8636L739.324 79.6591V79.75H744.733V81H737.392ZM750.943 81.1591C750.466 81.1515 749.989 81.0606 749.511 80.8864C749.034 80.7121 748.598 80.4186 748.205 80.0057C747.811 79.589 747.494 79.0265 747.256 78.3182C747.017 77.6061 746.898 76.7121 746.898 75.6364C746.898 74.6061 746.994 73.6932 747.188 72.8977C747.381 72.0985 747.661 71.4261 748.028 70.8807C748.396 70.3314 748.839 69.9148 749.358 69.6307C749.881 69.3466 750.47 69.2045 751.125 69.2045C751.777 69.2045 752.356 69.3352 752.864 69.5966C753.375 69.8542 753.792 70.214 754.114 70.6761C754.436 71.1383 754.644 71.6705 754.739 72.2727H753.352C753.223 71.75 752.973 71.3163 752.602 70.9716C752.231 70.6269 751.739 70.4545 751.125 70.4545C750.223 70.4545 749.513 70.8466 748.994 71.6307C748.479 72.4148 748.22 73.5152 748.216 74.9318H748.307C748.519 74.6098 748.771 74.3352 749.062 74.108C749.358 73.8769 749.684 73.6989 750.04 73.5739C750.396 73.4489 750.773 73.3864 751.17 73.3864C751.837 73.3864 752.447 73.553 753 73.8864C753.553 74.2159 753.996 74.6723 754.33 75.2557C754.663 75.8352 754.83 76.5 754.83 77.25C754.83 77.9697 754.669 78.6288 754.347 79.2273C754.025 79.822 753.572 80.2955 752.989 80.6477C752.409 80.9962 751.727 81.1667 750.943 81.1591ZM750.943 79.9091C751.42 79.9091 751.848 79.7898 752.227 79.5511C752.61 79.3125 752.911 78.9924 753.131 78.5909C753.354 78.1894 753.466 77.7424 753.466 77.25C753.466 76.7689 753.358 76.3314 753.142 75.9375C752.93 75.5398 752.636 75.2235 752.261 74.9886C751.89 74.7538 751.466 74.6364 750.989 74.6364C750.629 74.6364 750.294 74.7083 749.983 74.8523C749.672 74.9924 749.4 75.1856 749.165 75.4318C748.934 75.678 748.752 75.9602 748.619 76.2784C748.487 76.5928 748.42 76.9242 748.42 77.2727C748.42 77.7348 748.528 78.1667 748.744 78.5682C748.964 78.9697 749.263 79.2936 749.642 79.5398C750.025 79.786 750.458 79.9091 750.943 79.9091ZM757.517 81.0909C757.237 81.0909 756.996 80.9905 756.795 80.7898C756.595 80.589 756.494 80.3485 756.494 80.0682C756.494 79.7879 756.595 79.5473 756.795 79.3466C756.996 79.1458 757.237 79.0455 757.517 79.0455C757.797 79.0455 758.038 79.1458 758.239 79.3466C758.439 79.5473 758.54 79.7879 758.54 80.0682C758.54 80.2538 758.492 80.4242 758.398 80.5795C758.307 80.7348 758.184 80.8598 758.028 80.9545C757.877 81.0455 757.706 81.0909 757.517 81.0909ZM761.053 81L766.257 70.7045V70.6136H760.257V69.3636H767.712V70.6818L762.53 81H761.053ZM773.322 81.1591C772.542 81.1591 771.853 81.0208 771.254 80.7443C770.66 80.464 770.196 80.0795 769.862 79.5909C769.529 79.0985 769.364 78.5379 769.368 77.9091C769.364 77.4167 769.461 76.9621 769.658 76.5455C769.855 76.125 770.124 75.7746 770.464 75.4943C770.809 75.2102 771.194 75.0303 771.618 74.9545V74.8864C771.061 74.7424 770.618 74.4299 770.288 73.9489C769.959 73.464 769.796 72.9129 769.8 72.2955C769.796 71.7045 769.946 71.1761 770.249 70.7102C770.552 70.2443 770.968 69.8769 771.499 69.608C772.033 69.339 772.641 69.2045 773.322 69.2045C773.997 69.2045 774.599 69.339 775.129 69.608C775.66 69.8769 776.076 70.2443 776.379 70.7102C776.686 71.1761 776.841 71.7045 776.845 72.2955C776.841 72.9129 776.673 73.464 776.339 73.9489C776.01 74.4299 775.572 74.7424 775.027 74.8864V74.9545C775.447 75.0303 775.826 75.2102 776.163 75.4943C776.5 75.7746 776.769 76.125 776.97 76.5455C777.171 76.9621 777.273 77.4167 777.277 77.9091C777.273 78.5379 777.103 79.0985 776.766 79.5909C776.432 80.0795 775.968 80.464 775.374 80.7443C774.783 81.0208 774.099 81.1591 773.322 81.1591ZM773.322 79.9091C773.849 79.9091 774.304 79.8239 774.686 79.6534C775.069 79.483 775.364 79.2424 775.572 78.9318C775.781 78.6212 775.887 78.2576 775.891 77.8409C775.887 77.4015 775.773 77.0133 775.55 76.6761C775.326 76.339 775.021 76.0739 774.635 75.8807C774.252 75.6875 773.815 75.5909 773.322 75.5909C772.826 75.5909 772.383 75.6875 771.993 75.8807C771.607 76.0739 771.302 76.339 771.078 76.6761C770.858 77.0133 770.75 77.4015 770.754 77.8409C770.75 78.2576 770.851 78.6212 771.055 78.9318C771.264 79.2424 771.561 79.483 771.947 79.6534C772.334 79.8239 772.792 79.9091 773.322 79.9091ZM773.322 74.3864C773.739 74.3864 774.108 74.303 774.43 74.1364C774.756 73.9697 775.012 73.7367 775.197 73.4375C775.383 73.1383 775.478 72.7879 775.482 72.3864C775.478 71.9924 775.385 71.6496 775.203 71.358C775.021 71.0625 774.769 70.8352 774.447 70.6761C774.125 70.5133 773.75 70.4318 773.322 70.4318C772.887 70.4318 772.506 70.5133 772.18 70.6761C771.855 70.8352 771.603 71.0625 771.425 71.358C771.247 71.6496 771.16 71.9924 771.163 72.3864C771.16 72.7879 771.249 73.1383 771.43 73.4375C771.616 73.7367 771.872 73.9697 772.197 74.1364C772.523 74.303 772.898 74.3864 773.322 74.3864ZM789.25 76.2727H783.341V75.0227H789.25C789.795 75.0227 790.246 74.928 790.602 74.7386C790.958 74.5455 791.223 74.2841 791.398 73.9545C791.572 73.6212 791.659 73.2424 791.659 72.8182C791.659 72.3939 791.572 72.017 791.398 71.6875C791.223 71.3542 790.958 71.0928 790.602 70.9034C790.246 70.7102 789.795 70.6136 789.25 70.6136H786.591V81H785.182V69.3636H789.25C790.114 69.3636 790.826 69.5208 791.386 69.8352C791.947 70.1496 792.364 70.5682 792.636 71.0909C792.909 71.6136 793.045 72.1894 793.045 72.8182C793.045 73.447 792.909 74.0227 792.636 74.5455C792.364 75.0682 791.947 75.4867 791.386 75.8011C790.826 76.1155 790.114 76.2727 789.25 76.2727ZM789.159 77.3636V78.6136H783.341V77.3636H789.159Z" fill="#23262F"/>
<path d="M855 70L846.6 78.4L843.4 73.6L837 80" stroke="#31AA27" stroke-width="1.5" stroke-linecap="round" stroke-linejoin="round"/>
<rect x="692" y="119" width="650" height="8" rx="4" fill="#F7FAFC"/>
<rect x="692" y="119" width="89" height="8" rx="4" fill="#4B5DFF"/>
</svg>
