<svg width="909" height="147" viewBox="0 0 909 147" fill="none" xmlns="http://www.w3.org/2000/svg">
<path d="M0 16C0 7.16345 7.16344 0 16 0H1532C1540.84 0 1548 7.16344 1548 16V131C1548 139.837 1540.84 147 1532 147H16C7.16345 147 0 139.837 0 131V16Z" fill="white"/>
<path d="M21.4091 50V38.3636H22.8182V48.75H28.2273V50H21.4091ZM31.0909 38.3636L34.0909 43.2045H34.1818L37.1818 38.3636H38.8409L35.1818 44.1818L38.8409 50H37.1818L34.1818 45.25H34.0909L31.0909 50H29.4318L33.1818 44.1818L29.4318 38.3636H31.0909ZM40.6747 38.3636H42.3565L46.3111 48.0227H46.4474L50.402 38.3636H52.0838V50H50.7656V41.1591H50.652L47.0156 50H45.7429L42.1065 41.1591H41.9929V50H40.6747V38.3636ZM54.9091 50V38.3636H56.3182V48.75H61.7273V50H54.9091ZM67.9148 44.3864V45.6364H62.8239V44.3864H67.9148ZM70.456 50V38.3636H74.3878C75.3007 38.3636 76.0469 38.5284 76.6264 38.858C77.2098 39.1837 77.6416 39.625 77.9219 40.1818C78.2022 40.7386 78.3423 41.3598 78.3423 42.0455C78.3423 42.7311 78.2022 43.3542 77.9219 43.9148C77.6454 44.4754 77.2173 44.9223 76.6378 45.2557C76.0582 45.5852 75.3158 45.75 74.4105 45.75H71.5923V44.5H74.3651C74.9901 44.5 75.492 44.392 75.8707 44.1761C76.2495 43.9602 76.5241 43.6686 76.6946 43.3011C76.8688 42.9299 76.956 42.5114 76.956 42.0455C76.956 41.5795 76.8688 41.1629 76.6946 40.7955C76.5241 40.428 76.2476 40.1402 75.8651 39.9318C75.4825 39.7197 74.9749 39.6136 74.3423 39.6136H71.8651V50H70.456ZM82.7259 50L79.544 38.3636H80.9759L83.4077 47.8409H83.5213L85.9986 38.3636H87.5895L90.0668 47.8409H90.1804L92.6122 38.3636H94.044L90.8622 50H89.4077L86.8395 40.7273H86.7486L84.1804 50H82.7259ZM105.027 38.3636V50H103.663L97.3224 40.8636H97.2088V50H95.7997V38.3636H97.1634L103.527 47.5227H103.641V38.3636H105.027ZM107.642 50V48.9773L111.483 44.7727C111.934 44.2803 112.305 43.8523 112.597 43.4886C112.888 43.1212 113.104 42.7765 113.244 42.4545C113.388 42.1288 113.46 41.7879 113.46 41.4318C113.46 41.0227 113.362 40.6686 113.165 40.3693C112.972 40.0701 112.706 39.839 112.369 39.6761C112.032 39.5133 111.653 39.4318 111.233 39.4318C110.786 39.4318 110.396 39.5246 110.062 39.7102C109.733 39.892 109.477 40.1477 109.295 40.4773C109.117 40.8068 109.028 41.1932 109.028 41.6364H107.688C107.688 40.9545 107.845 40.3561 108.159 39.8409C108.473 39.3258 108.902 38.9242 109.443 38.6364C109.989 38.3485 110.6 38.2045 111.278 38.2045C111.96 38.2045 112.564 38.3485 113.091 38.6364C113.617 38.9242 114.03 39.3125 114.33 39.8011C114.629 40.2898 114.778 40.8333 114.778 41.4318C114.778 41.8598 114.701 42.2784 114.545 42.6875C114.394 43.0928 114.129 43.5455 113.75 44.0455C113.375 44.5417 112.854 45.1477 112.188 45.8636L109.574 48.6591V48.75H114.983V50H107.642ZM125.966 37.8182L122.216 51.75H120.989L124.739 37.8182H125.966ZM132.237 50V38.3636H133.646V48.75H139.055V50H132.237ZM146.555 46.4318V41.2727H147.896V50H146.555V48.5227H146.464C146.26 48.9659 145.942 49.3428 145.51 49.6534C145.078 49.9602 144.533 50.1136 143.874 50.1136C143.328 50.1136 142.843 49.9943 142.419 49.7557C141.995 49.5133 141.661 49.1496 141.419 48.6648C141.177 48.1761 141.055 47.5606 141.055 46.8182V41.2727H142.396V46.7273C142.396 47.3636 142.574 47.8712 142.93 48.25C143.29 48.6288 143.749 48.8182 144.305 48.8182C144.639 48.8182 144.978 48.733 145.322 48.5625C145.671 48.392 145.963 48.1307 146.197 47.7784C146.436 47.4261 146.555 46.9773 146.555 46.4318ZM150.352 50V41.2727H151.648V42.6364H151.761C151.943 42.1705 152.237 41.8087 152.642 41.5511C153.047 41.2898 153.534 41.1591 154.102 41.1591C154.678 41.1591 155.157 41.2898 155.54 41.5511C155.926 41.8087 156.227 42.1705 156.443 42.6364H156.534C156.758 42.1856 157.093 41.8277 157.54 41.5625C157.987 41.2936 158.523 41.1591 159.148 41.1591C159.928 41.1591 160.566 41.4034 161.062 41.892C161.559 42.3769 161.807 43.1326 161.807 44.1591V50H160.466V44.1591C160.466 43.5152 160.29 43.0549 159.938 42.7784C159.585 42.5019 159.17 42.3636 158.693 42.3636C158.08 42.3636 157.604 42.5492 157.267 42.9205C156.93 43.2879 156.761 43.7538 156.761 44.3182V50H155.398V44.0227C155.398 43.5265 155.237 43.1269 154.915 42.8239C154.593 42.517 154.178 42.3636 153.67 42.3636C153.322 42.3636 152.996 42.4564 152.693 42.642C152.394 42.8277 152.152 43.0852 151.966 43.4148C151.784 43.7405 151.693 44.1174 151.693 44.5455V50H150.352ZM164.259 50V41.2727H165.599V50H164.259ZM164.94 39.8182C164.679 39.8182 164.454 39.7292 164.264 39.5511C164.079 39.3731 163.986 39.1591 163.986 38.9091C163.986 38.6591 164.079 38.4451 164.264 38.267C164.454 38.089 164.679 38 164.94 38C165.202 38 165.425 38.089 165.611 38.267C165.8 38.4451 165.895 38.6591 165.895 38.9091C165.895 39.1591 165.8 39.3731 165.611 39.5511C165.425 39.7292 165.202 39.8182 164.94 39.8182ZM169.396 38.3636V50H168.055V38.3636H169.396ZM175.511 50.1818C174.67 50.1818 173.945 49.9962 173.335 49.625C172.729 49.25 172.261 48.7273 171.932 48.0568C171.606 47.3826 171.443 46.5985 171.443 45.7045C171.443 44.8106 171.606 44.0227 171.932 43.3409C172.261 42.6553 172.72 42.1212 173.307 41.7386C173.898 41.3523 174.587 41.1591 175.375 41.1591C175.83 41.1591 176.278 41.2348 176.722 41.3864C177.165 41.5379 177.568 41.7841 177.932 42.125C178.295 42.4621 178.585 42.9091 178.801 43.4659C179.017 44.0227 179.125 44.7083 179.125 45.5227V46.0909H172.398V44.9318H177.761C177.761 44.4394 177.663 44 177.466 43.6136C177.273 43.2273 176.996 42.9223 176.636 42.6989C176.28 42.4754 175.86 42.3636 175.375 42.3636C174.841 42.3636 174.379 42.4962 173.989 42.7614C173.602 43.0227 173.305 43.3636 173.097 43.7841C172.888 44.2045 172.784 44.6553 172.784 45.1364V45.9091C172.784 46.5682 172.898 47.1269 173.125 47.5852C173.356 48.0398 173.676 48.3864 174.085 48.625C174.494 48.8598 174.97 48.9773 175.511 48.9773C175.864 48.9773 176.182 48.928 176.466 48.8295C176.754 48.7273 177.002 48.5758 177.21 48.375C177.419 48.1705 177.58 47.9167 177.693 47.6136L178.989 47.9773C178.852 48.4167 178.623 48.803 178.301 49.1364C177.979 49.4659 177.581 49.7235 177.108 49.9091C176.634 50.0909 176.102 50.1818 175.511 50.1818ZM184.46 50.1818C183.733 50.1818 183.091 49.9981 182.534 49.6307C181.977 49.2595 181.542 48.7367 181.227 48.0625C180.913 47.3845 180.756 46.5833 180.756 45.6591C180.756 44.7424 180.913 43.947 181.227 43.2727C181.542 42.5985 181.979 42.0777 182.54 41.7102C183.1 41.3428 183.748 41.1591 184.483 41.1591C185.051 41.1591 185.5 41.2538 185.83 41.4432C186.163 41.6288 186.417 41.8409 186.591 42.0795C186.769 42.3144 186.907 42.5076 187.006 42.6591H187.119V38.3636H188.46V50H187.165V48.6591H187.006C186.907 48.8182 186.767 49.0189 186.585 49.2614C186.403 49.5 186.144 49.714 185.807 49.9034C185.47 50.089 185.021 50.1818 184.46 50.1818ZM184.642 48.9773C185.18 48.9773 185.634 48.8371 186.006 48.5568C186.377 48.2727 186.659 47.8807 186.852 47.3807C187.045 46.8769 187.142 46.2955 187.142 45.6364C187.142 44.9848 187.047 44.4148 186.858 43.9261C186.669 43.4337 186.388 43.0511 186.017 42.7784C185.646 42.5019 185.188 42.3636 184.642 42.3636C184.074 42.3636 183.6 42.5095 183.222 42.8011C182.847 43.089 182.564 43.4811 182.375 43.9773C182.189 44.4697 182.097 45.0227 182.097 45.6364C182.097 46.2576 182.191 46.822 182.381 47.3295C182.574 47.8333 182.858 48.2348 183.233 48.5341C183.612 48.8295 184.081 48.9773 184.642 48.9773ZM197.284 43.2273L196.08 43.5682C196.004 43.3674 195.892 43.1723 195.744 42.983C195.6 42.7898 195.403 42.6307 195.153 42.5057C194.903 42.3807 194.583 42.3182 194.193 42.3182C193.659 42.3182 193.214 42.4413 192.858 42.6875C192.506 42.9299 192.33 43.2386 192.33 43.6136C192.33 43.947 192.451 44.2102 192.693 44.4034C192.936 44.5966 193.314 44.7576 193.83 44.8864L195.125 45.2045C195.905 45.3939 196.487 45.6837 196.869 46.0739C197.252 46.4602 197.443 46.9583 197.443 47.5682C197.443 48.0682 197.299 48.5152 197.011 48.9091C196.727 49.303 196.33 49.6136 195.818 49.8409C195.307 50.0682 194.712 50.1818 194.034 50.1818C193.144 50.1818 192.407 49.9886 191.824 49.6023C191.241 49.2159 190.871 48.6515 190.716 47.9091L191.989 47.5909C192.11 48.0606 192.339 48.4129 192.676 48.6477C193.017 48.8826 193.462 49 194.011 49C194.636 49 195.133 48.8674 195.5 48.6023C195.871 48.3333 196.057 48.0114 196.057 47.6364C196.057 47.3333 195.951 47.0795 195.739 46.875C195.527 46.6667 195.201 46.5114 194.761 46.4091L193.307 46.0682C192.508 45.8788 191.92 45.5852 191.545 45.1875C191.174 44.786 190.989 44.2841 190.989 43.6818C190.989 43.1894 191.127 42.7538 191.403 42.375C191.684 41.9962 192.064 41.6989 192.545 41.483C193.03 41.267 193.58 41.1591 194.193 41.1591C195.057 41.1591 195.735 41.3485 196.227 41.7273C196.723 42.1061 197.076 42.6061 197.284 43.2273ZM199.462 50V41.2727H203.03C203.969 41.2727 204.715 41.4848 205.268 41.9091C205.821 42.3333 206.098 42.8939 206.098 43.5909C206.098 44.1212 205.941 44.5322 205.626 44.8239C205.312 45.1117 204.909 45.3068 204.416 45.4091C204.738 45.4545 205.051 45.5682 205.354 45.75C205.661 45.9318 205.914 46.1818 206.115 46.5C206.316 46.8144 206.416 47.2008 206.416 47.6591C206.416 48.1061 206.303 48.5057 206.075 48.858C205.848 49.2102 205.522 49.4886 205.098 49.6932C204.674 49.8977 204.166 50 203.575 50H199.462ZM200.734 48.7727H203.575C204.037 48.7727 204.399 48.6629 204.661 48.4432C204.922 48.2235 205.053 47.9242 205.053 47.5455C205.053 47.0947 204.922 46.7405 204.661 46.483C204.399 46.2216 204.037 46.0909 203.575 46.0909H200.734V48.7727ZM200.734 44.9318H203.03C203.39 44.9318 203.698 44.8826 203.956 44.7841C204.214 44.6818 204.411 44.5379 204.547 44.3523C204.687 44.1629 204.757 43.9394 204.757 43.6818C204.757 43.3144 204.604 43.0265 204.297 42.8182C203.99 42.6061 203.568 42.5 203.03 42.5H200.734V44.9318ZM209.605 44.4318H212.105C213.128 44.4318 213.91 44.6913 214.452 45.2102C214.993 45.7292 215.264 46.3864 215.264 47.1818C215.264 47.7045 215.143 48.1799 214.901 48.608C214.658 49.0322 214.302 49.3712 213.832 49.625C213.363 49.875 212.787 50 212.105 50H208.446V41.2727H209.787V48.75H212.105C212.635 48.75 213.071 48.6098 213.412 48.3295C213.753 48.0492 213.923 47.6894 213.923 47.25C213.923 46.7879 213.753 46.411 213.412 46.1193C213.071 45.8277 212.635 45.6818 212.105 45.6818H209.605V44.4318ZM216.651 50V41.2727H217.991V50H216.651Z" fill="#23262F"/>
<path d="M26.1875 81L23.1875 76.9943H22.1136V81H21.0568V72.2727H22.1136V76.0568H22.5739L26.0682 72.2727H27.3295L23.8011 76.108L27.4489 81H26.1875ZM30.8569 81.1364C30.266 81.1364 29.7475 80.9957 29.3015 80.7145C28.8583 80.4332 28.5117 80.0398 28.2617 79.5341C28.0146 79.0284 27.891 78.4375 27.891 77.7614C27.891 77.0795 28.0146 76.4844 28.2617 75.9759C28.5117 75.4673 28.8583 75.0724 29.3015 74.7912C29.7475 74.5099 30.266 74.3693 30.8569 74.3693C31.4478 74.3693 31.9648 74.5099 32.408 74.7912C32.854 75.0724 33.2006 75.4673 33.4478 75.9759C33.6978 76.4844 33.8228 77.0795 33.8228 77.7614C33.8228 78.4375 33.6978 79.0284 33.4478 79.5341C33.2006 80.0398 32.854 80.4332 32.408 80.7145C31.9648 80.9957 31.4478 81.1364 30.8569 81.1364ZM30.8569 80.233C31.3058 80.233 31.6751 80.1179 31.9648 79.8878C32.2546 79.6577 32.4691 79.3551 32.6083 78.9801C32.7475 78.6051 32.8171 78.1989 32.8171 77.7614C32.8171 77.3239 32.7475 76.9162 32.6083 76.5384C32.4691 76.1605 32.2546 75.8551 31.9648 75.6222C31.6751 75.3892 31.3058 75.2727 30.8569 75.2727C30.408 75.2727 30.0387 75.3892 29.7489 75.6222C29.4592 75.8551 29.2447 76.1605 29.1055 76.5384C28.9663 76.9162 28.8967 77.3239 28.8967 77.7614C28.8967 78.1989 28.9663 78.6051 29.1055 78.9801C29.2447 79.3551 29.4592 79.6577 29.7489 79.8878C30.0387 80.1179 30.408 80.233 30.8569 80.233ZM34.6591 82.875V80.0625H35.2045C35.3381 79.9233 35.4531 79.7727 35.5497 79.6108C35.6463 79.4489 35.7301 79.2571 35.8011 79.0355C35.875 78.8111 35.9375 78.5384 35.9886 78.2173C36.0398 77.8935 36.0852 77.5028 36.125 77.0455L36.3466 74.4545H40.5057V80.0625H41.5114V82.875H40.5057V81H35.6648V82.875H34.6591ZM36.3466 80.0625H39.5V75.392H37.2841L37.1136 77.0455C37.0426 77.7301 36.9545 78.3281 36.8494 78.8395C36.7443 79.3509 36.5767 79.7585 36.3466 80.0625ZM45.8462 75.392V74.4545H51.1644V75.392H49.0167V81H48.011V75.392H45.8462ZM54.9506 81.1364C54.3597 81.1364 53.8413 80.9957 53.3952 80.7145C52.9521 80.4332 52.6055 80.0398 52.3555 79.5341C52.1083 79.0284 51.9847 78.4375 51.9847 77.7614C51.9847 77.0795 52.1083 76.4844 52.3555 75.9759C52.6055 75.4673 52.9521 75.0724 53.3952 74.7912C53.8413 74.5099 54.3597 74.3693 54.9506 74.3693C55.5415 74.3693 56.0586 74.5099 56.5018 74.7912C56.9478 75.0724 57.2944 75.4673 57.5415 75.9759C57.7915 76.4844 57.9165 77.0795 57.9165 77.7614C57.9165 78.4375 57.7915 79.0284 57.5415 79.5341C57.2944 80.0398 56.9478 80.4332 56.5018 80.7145C56.0586 80.9957 55.5415 81.1364 54.9506 81.1364ZM54.9506 80.233C55.3995 80.233 55.7688 80.1179 56.0586 79.8878C56.3484 79.6577 56.5629 79.3551 56.7021 78.9801C56.8413 78.6051 56.9109 78.1989 56.9109 77.7614C56.9109 77.3239 56.8413 76.9162 56.7021 76.5384C56.5629 76.1605 56.3484 75.8551 56.0586 75.6222C55.7688 75.3892 55.3995 75.2727 54.9506 75.2727C54.5018 75.2727 54.1325 75.3892 53.8427 75.6222C53.5529 75.8551 53.3384 76.1605 53.1992 76.5384C53.06 76.9162 52.9904 77.3239 52.9904 77.7614C52.9904 78.1989 53.06 78.6051 53.1992 78.9801C53.3384 79.3551 53.5529 79.6577 53.8427 79.8878C54.1325 80.1179 54.5018 80.233 54.9506 80.233ZM59.4517 81V74.4545H62.1278C62.8324 74.4545 63.392 74.6136 63.8068 74.9318C64.2216 75.25 64.429 75.6705 64.429 76.1932C64.429 76.5909 64.3111 76.8991 64.0753 77.1179C63.8395 77.3338 63.5369 77.4801 63.1676 77.5568C63.4091 77.5909 63.6435 77.6761 63.8707 77.8125C64.1009 77.9489 64.2912 78.1364 64.4418 78.375C64.5923 78.6108 64.6676 78.9006 64.6676 79.2443C64.6676 79.5795 64.5824 79.8793 64.4119 80.1435C64.2415 80.4077 63.9972 80.6165 63.679 80.7699C63.3608 80.9233 62.9801 81 62.5369 81H59.4517ZM60.4062 80.0795H62.5369C62.8835 80.0795 63.1548 79.9972 63.3509 79.8324C63.5469 79.6676 63.6449 79.4432 63.6449 79.1591C63.6449 78.821 63.5469 78.5554 63.3509 78.3622C63.1548 78.1662 62.8835 78.0682 62.5369 78.0682H60.4062V80.0795ZM60.4062 77.1989H62.1278C62.3977 77.1989 62.6293 77.1619 62.8224 77.0881C63.0156 77.0114 63.1634 76.9034 63.2656 76.7642C63.3707 76.6222 63.4233 76.4545 63.4233 76.2614C63.4233 75.9858 63.3082 75.7699 63.0781 75.6136C62.848 75.4545 62.5313 75.375 62.1278 75.375H60.4062V77.1989ZM68.1161 81.1534C67.7013 81.1534 67.3249 81.0753 66.9869 80.919C66.6488 80.7599 66.3803 80.5312 66.1815 80.233C65.9826 79.9318 65.8832 79.5682 65.8832 79.142C65.8832 78.767 65.957 78.4631 66.1048 78.2301C66.2525 77.9943 66.4499 77.8097 66.6971 77.6761C66.9442 77.5426 67.217 77.4432 67.5153 77.3778C67.8164 77.3097 68.119 77.2557 68.4229 77.2159C68.8207 77.1648 69.1431 77.1264 69.3903 77.1009C69.6403 77.0724 69.8221 77.0256 69.9357 76.9602C70.0522 76.8949 70.1104 76.7812 70.1104 76.6193V76.5852C70.1104 76.1648 69.9954 75.8381 69.7653 75.6051C69.538 75.3722 69.1928 75.2557 68.7298 75.2557C68.2496 75.2557 67.8732 75.3608 67.6005 75.571C67.3278 75.7812 67.136 76.0057 67.0252 76.2443L66.0707 75.9034C66.2411 75.5057 66.4684 75.196 66.7525 74.9744C67.0394 74.75 67.3519 74.5937 67.69 74.5057C68.0309 74.4148 68.3661 74.3693 68.6957 74.3693C68.9059 74.3693 69.1474 74.3949 69.4201 74.446C69.6957 74.4943 69.9613 74.5952 70.217 74.7486C70.4755 74.902 70.69 75.1335 70.8604 75.4432C71.0309 75.7528 71.1161 76.1676 71.1161 76.6875V81H70.1104V80.1136H70.0593C69.9911 80.2557 69.8775 80.4077 69.7184 80.5696C69.5593 80.7315 69.3477 80.8693 69.0835 80.983C68.8192 81.0966 68.4968 81.1534 68.1161 81.1534ZM68.2695 80.25C68.6673 80.25 69.0025 80.1719 69.2752 80.0156C69.5508 79.8594 69.7582 79.6577 69.8974 79.4105C70.0394 79.1634 70.1104 78.9034 70.1104 78.6307V77.7102C70.0678 77.7614 69.9741 77.8082 69.8292 77.8509C69.6871 77.8906 69.5224 77.9261 69.3349 77.9574C69.1502 77.9858 68.9698 78.0114 68.7937 78.0341C68.6204 78.054 68.4798 78.071 68.3718 78.0852C68.1104 78.1193 67.8661 78.1747 67.6388 78.2514C67.4144 78.3253 67.2326 78.4375 67.0934 78.5881C66.957 78.7358 66.8888 78.9375 66.8888 79.1932C66.8888 79.5426 67.0181 79.8068 67.2766 79.9858C67.538 80.1619 67.869 80.25 68.2695 80.25ZM72.9517 83.4545V74.4545H73.9233V75.4943H74.0426C74.1165 75.3807 74.2188 75.2358 74.3494 75.0597C74.483 74.8807 74.6733 74.7216 74.9205 74.5824C75.1705 74.4403 75.5085 74.3693 75.9347 74.3693C76.4858 74.3693 76.9716 74.5071 77.392 74.7827C77.8125 75.0582 78.1406 75.4489 78.3764 75.9545C78.6122 76.4602 78.7301 77.0568 78.7301 77.7443C78.7301 78.4375 78.6122 79.0384 78.3764 79.5469C78.1406 80.0526 77.8139 80.4446 77.3963 80.723C76.9787 80.9986 76.4972 81.1364 75.9517 81.1364C75.5313 81.1364 75.1946 81.0668 74.9418 80.9276C74.6889 80.7855 74.4943 80.625 74.358 80.446C74.2216 80.2642 74.1165 80.1136 74.0426 79.9943H73.9574V83.4545H72.9517ZM73.9403 77.7273C73.9403 78.2216 74.0128 78.6577 74.1577 79.0355C74.3026 79.4105 74.5142 79.7045 74.7926 79.9176C75.071 80.1278 75.4119 80.233 75.8153 80.233C76.2358 80.233 76.5866 80.1222 76.8679 79.9006C77.152 79.6761 77.3651 79.375 77.5071 78.9972C77.652 78.6165 77.7244 78.1932 77.7244 77.7273C77.7244 77.267 77.6534 76.8523 77.5114 76.483C77.3722 76.1108 77.1605 75.8168 76.8764 75.6009C76.5952 75.3821 76.2415 75.2727 75.8153 75.2727C75.4063 75.2727 75.0625 75.3764 74.7841 75.5838C74.5057 75.7884 74.2955 76.0753 74.1534 76.4446C74.0114 76.8111 73.9403 77.2386 73.9403 77.7273ZM82.1903 81.1534C81.7756 81.1534 81.3991 81.0753 81.0611 80.919C80.723 80.7599 80.4545 80.5312 80.2557 80.233C80.0568 79.9318 79.9574 79.5682 79.9574 79.142C79.9574 78.767 80.0313 78.4631 80.179 78.2301C80.3267 77.9943 80.5241 77.8097 80.7713 77.6761C81.0185 77.5426 81.2912 77.4432 81.5895 77.3778C81.8906 77.3097 82.1932 77.2557 82.4972 77.2159C82.8949 77.1648 83.2173 77.1264 83.4645 77.1009C83.7145 77.0724 83.8963 77.0256 84.0099 76.9602C84.1264 76.8949 84.1847 76.7812 84.1847 76.6193V76.5852C84.1847 76.1648 84.0696 75.8381 83.8395 75.6051C83.6122 75.3722 83.267 75.2557 82.804 75.2557C82.3239 75.2557 81.9474 75.3608 81.6747 75.571C81.402 75.7812 81.2102 76.0057 81.0994 76.2443L80.1449 75.9034C80.3153 75.5057 80.5426 75.196 80.8267 74.9744C81.1136 74.75 81.4261 74.5937 81.7642 74.5057C82.1051 74.4148 82.4403 74.3693 82.7699 74.3693C82.9801 74.3693 83.2216 74.3949 83.4943 74.446C83.7699 74.4943 84.0355 74.5952 84.2912 74.7486C84.5497 74.902 84.7642 75.1335 84.9347 75.4432C85.1051 75.7528 85.1903 76.1676 85.1903 76.6875V81H84.1847V80.1136H84.1335C84.0653 80.2557 83.9517 80.4077 83.7926 80.5696C83.6335 80.7315 83.4219 80.8693 83.1577 80.983C82.8935 81.0966 82.571 81.1534 82.1903 81.1534ZM82.3438 80.25C82.7415 80.25 83.0767 80.1719 83.3494 80.0156C83.625 79.8594 83.8324 79.6577 83.9716 79.4105C84.1136 79.1634 84.1847 78.9034 84.1847 78.6307V77.7102C84.142 77.7614 84.0483 77.8082 83.9034 77.8509C83.7614 77.8906 83.5966 77.9261 83.4091 77.9574C83.2244 77.9858 83.044 78.0114 82.8679 78.0341C82.6946 78.054 82.554 78.071 82.446 78.0852C82.1847 78.1193 81.9403 78.1747 81.7131 78.2514C81.4886 78.3253 81.3068 78.4375 81.1676 78.5881C81.0313 78.7358 80.9631 78.9375 80.9631 79.1932C80.9631 79.5426 81.0923 79.8068 81.3509 79.9858C81.6122 80.1619 81.9432 80.25 82.3438 80.25ZM87.7589 81.0682C87.5487 81.0682 87.3683 80.9929 87.2177 80.8423C87.0671 80.6918 86.9918 80.5114 86.9918 80.3011C86.9918 80.0909 87.0671 79.9105 87.2177 79.7599C87.3683 79.6094 87.5487 79.5341 87.7589 79.5341C87.9691 79.5341 88.1495 79.6094 88.3001 79.7599C88.4506 79.9105 88.5259 80.0909 88.5259 80.3011C88.5259 80.4403 88.4904 80.5682 88.4194 80.6847C88.3512 80.8011 88.2589 80.8949 88.1424 80.9659C88.0288 81.0341 87.9009 81.0682 87.7589 81.0682ZM87.7589 76.2102C87.5487 76.2102 87.3683 76.1349 87.2177 75.9844C87.0671 75.8338 86.9918 75.6534 86.9918 75.4432C86.9918 75.233 87.0671 75.0526 87.2177 74.902C87.3683 74.7514 87.5487 74.6761 87.7589 74.6761C87.9691 74.6761 88.1495 74.7514 88.3001 74.902C88.4506 75.0526 88.5259 75.233 88.5259 75.4432C88.5259 75.5824 88.4904 75.7102 88.4194 75.8267C88.3512 75.9432 88.2589 76.0369 88.1424 76.108C88.0288 76.1761 87.9009 76.2102 87.7589 76.2102ZM97.2894 72.2727V81H95.4442V74.0241H95.3931L93.3945 75.277V73.6406L95.555 72.2727H97.2894ZM102.713 81.1193C102.264 81.1165 101.831 81.0412 101.413 80.8935C100.999 80.7457 100.626 80.5057 100.297 80.1733C99.9673 79.8409 99.706 79.4006 99.5128 78.8523C99.3224 78.304 99.2273 77.6307 99.2273 76.8324C99.2301 76.0994 99.3139 75.4446 99.4787 74.8679C99.6463 74.2884 99.8849 73.7969 100.195 73.3935C100.507 72.9901 100.881 72.6832 101.315 72.473C101.75 72.2599 102.237 72.1534 102.777 72.1534C103.359 72.1534 103.874 72.267 104.32 72.4943C104.766 72.7187 105.124 73.0241 105.393 73.4105C105.666 73.7969 105.831 74.2301 105.888 74.7102H104.068C103.997 74.4062 103.848 74.1676 103.621 73.9943C103.393 73.821 103.112 73.7344 102.777 73.7344C102.209 73.7344 101.777 73.9815 101.482 74.4759C101.189 74.9702 101.04 75.642 101.034 76.4915H101.094C101.224 76.233 101.401 76.0128 101.622 75.831C101.847 75.6463 102.101 75.5057 102.385 75.4091C102.672 75.3097 102.974 75.2599 103.293 75.2599C103.81 75.2599 104.27 75.3821 104.673 75.6264C105.077 75.8679 105.395 76.2003 105.628 76.6236C105.861 77.0469 105.977 77.5312 105.977 78.0767C105.977 78.6676 105.839 79.1932 105.564 79.6534C105.291 80.1136 104.909 80.4744 104.418 80.7358C103.929 80.9943 103.361 81.1222 102.713 81.1193ZM102.705 79.6705C102.989 79.6705 103.243 79.6023 103.467 79.4659C103.692 79.3295 103.868 79.1449 103.996 78.9119C104.124 78.679 104.188 78.4176 104.188 78.1278C104.188 77.8381 104.124 77.5781 103.996 77.348C103.871 77.1179 103.697 76.9347 103.476 76.7983C103.254 76.6619 103.001 76.5938 102.717 76.5938C102.504 76.5938 102.307 76.6335 102.125 76.7131C101.946 76.7926 101.788 76.9034 101.652 77.0455C101.518 77.1875 101.413 77.3523 101.337 77.5398C101.26 77.7244 101.222 77.9219 101.222 78.1321C101.222 78.4134 101.286 78.6705 101.413 78.9034C101.544 79.1364 101.72 79.3224 101.942 79.4616C102.166 79.6009 102.42 79.6705 102.705 79.6705ZM110.511 81.1193C109.875 81.1193 109.308 81.0099 108.811 80.7912C108.317 80.5696 107.926 80.2656 107.639 79.8793C107.355 79.4901 107.209 79.0412 107.2 78.5327H109.058C109.07 78.7457 109.139 78.9332 109.267 79.0952C109.398 79.2543 109.571 79.3778 109.787 79.4659C110.003 79.554 110.246 79.598 110.516 79.598C110.797 79.598 111.045 79.5483 111.261 79.4489C111.477 79.3494 111.646 79.2116 111.768 79.0355C111.891 78.8594 111.952 78.6562 111.952 78.4261C111.952 78.1932 111.886 77.9872 111.756 77.8082C111.628 77.6264 111.443 77.4844 111.202 77.3821C110.963 77.2798 110.679 77.2287 110.349 77.2287H109.536V75.8736H110.349C110.628 75.8736 110.874 75.8253 111.087 75.7287C111.303 75.6321 111.47 75.4986 111.589 75.3281C111.709 75.1548 111.768 74.9531 111.768 74.723C111.768 74.5043 111.716 74.3125 111.611 74.1477C111.509 73.9801 111.364 73.8494 111.176 73.7557C110.991 73.6619 110.776 73.6151 110.528 73.6151C110.278 73.6151 110.05 73.6605 109.842 73.7514C109.635 73.8395 109.469 73.9659 109.344 74.1307C109.219 74.2955 109.152 74.4886 109.143 74.7102H107.375C107.384 74.2074 107.527 73.7642 107.805 73.3807C108.084 72.9972 108.459 72.6974 108.93 72.4815C109.405 72.2628 109.94 72.1534 110.537 72.1534C111.139 72.1534 111.666 72.2628 112.118 72.4815C112.57 72.7003 112.92 72.9957 113.17 73.3679C113.423 73.7372 113.548 74.152 113.545 74.6122C113.548 75.1009 113.396 75.5085 113.089 75.8352C112.786 76.1619 112.389 76.3693 111.901 76.4574V76.5256C112.543 76.608 113.031 76.831 113.366 77.1946C113.705 77.5554 113.872 78.0071 113.869 78.5497C113.872 79.0469 113.729 79.4886 113.439 79.875C113.152 80.2614 112.756 80.5653 112.25 80.7869C111.744 81.0085 111.165 81.1193 110.511 81.1193ZM118.993 72.2727V81H117.147V74.0241H117.096L115.098 75.277V73.6406L117.258 72.2727H118.993ZM121.412 81L125.03 73.8409V73.7812H120.815V72.2727H126.939V73.8026L123.317 81H121.412ZM131.244 72.1534C131.693 72.1534 132.125 72.2287 132.539 72.3793C132.957 72.5298 133.329 72.7699 133.656 73.0994C133.985 73.429 134.245 73.8665 134.436 74.4119C134.629 74.9545 134.727 75.6207 134.73 76.4105C134.73 77.152 134.646 77.8139 134.478 78.3963C134.314 78.9759 134.076 79.4688 133.767 79.875C133.457 80.2812 133.083 80.5909 132.646 80.804C132.208 81.0142 131.72 81.1193 131.18 81.1193C130.598 81.1193 130.083 81.0071 129.637 80.7827C129.191 80.5554 128.832 80.2472 128.559 79.858C128.289 79.4659 128.126 79.0256 128.069 78.5369H129.889C129.96 78.8551 130.109 79.1023 130.336 79.2784C130.564 79.4517 130.845 79.5384 131.18 79.5384C131.748 79.5384 132.18 79.2912 132.475 78.7969C132.771 78.2997 132.92 77.6193 132.923 76.7557H132.863C132.733 77.0114 132.556 77.2315 132.335 77.4162C132.113 77.598 131.859 77.7386 131.572 77.8381C131.288 77.9375 130.985 77.9872 130.664 77.9872C130.15 77.9872 129.691 77.8665 129.288 77.625C128.885 77.3835 128.566 77.0511 128.333 76.6278C128.1 76.2045 127.984 75.7216 127.984 75.179C127.981 74.5938 128.116 74.0724 128.389 73.6151C128.662 73.1577 129.042 72.7997 129.531 72.5412C130.022 72.2798 130.593 72.1506 131.244 72.1534ZM131.257 73.6023C130.97 73.6023 130.714 73.6705 130.49 73.8068C130.268 73.9432 130.092 74.1264 129.961 74.3565C129.833 74.5866 129.771 74.8437 129.774 75.1278C129.774 75.4148 129.836 75.6733 129.961 75.9034C130.089 76.1307 130.262 76.3125 130.481 76.4489C130.703 76.5824 130.956 76.6491 131.24 76.6491C131.453 76.6491 131.65 76.6094 131.832 76.5298C132.014 76.4503 132.172 76.3409 132.305 76.2017C132.441 76.0597 132.548 75.8963 132.625 75.7116C132.701 75.527 132.74 75.331 132.74 75.1236C132.737 74.848 132.672 74.5952 132.544 74.3651C132.416 74.1349 132.24 73.9503 132.015 73.8111C131.791 73.6719 131.538 73.6023 131.257 73.6023ZM136.008 81V79.6705L139.115 76.794C139.379 76.5384 139.6 76.3082 139.779 76.1037C139.961 75.8991 140.099 75.6989 140.193 75.5028C140.287 75.304 140.333 75.0895 140.333 74.8594C140.333 74.6037 140.275 74.3835 140.159 74.1989C140.042 74.0114 139.883 73.8679 139.681 73.7685C139.48 73.6662 139.251 73.6151 138.995 73.6151C138.728 73.6151 138.495 73.669 138.297 73.777C138.098 73.8849 137.944 74.0398 137.836 74.2415C137.728 74.4432 137.674 74.6832 137.674 74.9616H135.923C135.923 74.3906 136.052 73.8949 136.311 73.4744C136.569 73.054 136.931 72.7287 137.397 72.4986C137.863 72.2685 138.4 72.1534 139.008 72.1534C139.633 72.1534 140.177 72.2642 140.64 72.4858C141.106 72.7045 141.468 73.0085 141.727 73.3977C141.985 73.7869 142.115 74.233 142.115 74.7358C142.115 75.0653 142.049 75.3906 141.919 75.7116C141.791 76.0327 141.562 76.3892 141.233 76.7812C140.903 77.1705 140.439 77.6378 139.839 78.1832L138.565 79.4318V79.4915H142.23V81H136.008ZM146.724 72.1534C147.173 72.1534 147.605 72.2287 148.02 72.3793C148.438 72.5298 148.81 72.7699 149.136 73.0994C149.466 73.429 149.726 73.8665 149.916 74.4119C150.109 74.9545 150.207 75.6207 150.21 76.4105C150.21 77.152 150.126 77.8139 149.959 78.3963C149.794 78.9759 149.557 79.4688 149.247 79.875C148.938 80.2812 148.564 80.5909 148.126 80.804C147.689 81.0142 147.2 81.1193 146.661 81.1193C146.078 81.1193 145.564 81.0071 145.118 80.7827C144.672 80.5554 144.313 80.2472 144.04 79.858C143.77 79.4659 143.607 79.0256 143.55 78.5369H145.369C145.44 78.8551 145.589 79.1023 145.817 79.2784C146.044 79.4517 146.325 79.5384 146.661 79.5384C147.229 79.5384 147.661 79.2912 147.956 78.7969C148.251 78.2997 148.401 77.6193 148.403 76.7557H148.344C148.213 77.0114 148.037 77.2315 147.815 77.4162C147.594 77.598 147.339 77.7386 147.053 77.8381C146.768 77.9375 146.466 77.9872 146.145 77.9872C145.631 77.9872 145.172 77.8665 144.768 77.625C144.365 77.3835 144.047 77.0511 143.814 76.6278C143.581 76.2045 143.464 75.7216 143.464 75.179C143.462 74.5938 143.597 74.0724 143.869 73.6151C144.142 73.1577 144.523 72.7997 145.011 72.5412C145.503 72.2798 146.074 72.1506 146.724 72.1534ZM146.737 73.6023C146.45 73.6023 146.195 73.6705 145.97 73.8068C145.749 73.9432 145.572 74.1264 145.442 74.3565C145.314 74.5866 145.251 74.8437 145.254 75.1278C145.254 75.4148 145.317 75.6733 145.442 75.9034C145.57 76.1307 145.743 76.3125 145.962 76.4489C146.183 76.5824 146.436 76.6491 146.72 76.6491C146.933 76.6491 147.131 76.6094 147.312 76.5298C147.494 76.4503 147.652 76.3409 147.786 76.2017C147.922 76.0597 148.028 75.8963 148.105 75.7116C148.182 75.527 148.22 75.331 148.22 75.1236C148.217 74.848 148.152 74.5952 148.024 74.3651C147.896 74.1349 147.72 73.9503 147.496 73.8111C147.271 73.6719 147.018 73.6023 146.737 73.6023Z" fill="#4F576D"/>
<path d="M27.5852 99.2727V108H26.5284V100.21H22.1307V108H21.0739V99.2727H27.5852ZM29.5806 110.455V101.455H30.5522V102.494H30.6715C30.7454 102.381 30.8477 102.236 30.9783 102.06C31.1119 101.881 31.3022 101.722 31.5494 101.582C31.7994 101.44 32.1374 101.369 32.5636 101.369C33.1147 101.369 33.6005 101.507 34.021 101.783C34.4414 102.058 34.7695 102.449 35.0053 102.955C35.2411 103.46 35.359 104.057 35.359 104.744C35.359 105.438 35.2411 106.038 35.0053 106.547C34.7695 107.053 34.4428 107.445 34.0252 107.723C33.6076 107.999 33.1261 108.136 32.5806 108.136C32.1602 108.136 31.8235 108.067 31.5707 107.928C31.3178 107.786 31.1232 107.625 30.9869 107.446C30.8505 107.264 30.7454 107.114 30.6715 106.994H30.5863V110.455H29.5806ZM30.5692 104.727C30.5692 105.222 30.6417 105.658 30.7866 106.036C30.9315 106.411 31.1431 106.705 31.4215 106.918C31.6999 107.128 32.0408 107.233 32.4442 107.233C32.8647 107.233 33.2156 107.122 33.4968 106.901C33.7809 106.676 33.994 106.375 34.136 105.997C34.2809 105.616 34.3533 105.193 34.3533 104.727C34.3533 104.267 34.2823 103.852 34.1403 103.483C34.0011 103.111 33.7894 102.817 33.5053 102.601C33.2241 102.382 32.8704 102.273 32.4442 102.273C32.0352 102.273 31.6914 102.376 31.413 102.584C31.1346 102.788 30.9244 103.075 30.7823 103.445C30.6403 103.811 30.5692 104.239 30.5692 104.727ZM39.6374 108.136C39.0067 108.136 38.4627 107.997 38.0053 107.719C37.5508 107.438 37.1999 107.045 36.9528 106.543C36.7085 106.037 36.5863 105.449 36.5863 104.778C36.5863 104.108 36.7085 103.517 36.9528 103.006C37.1999 102.491 37.5437 102.091 37.984 101.804C38.4272 101.514 38.9442 101.369 39.5352 101.369C39.8761 101.369 40.2127 101.426 40.5451 101.54C40.8775 101.653 41.18 101.838 41.4528 102.094C41.7255 102.347 41.9428 102.682 42.1048 103.099C42.2667 103.517 42.3477 104.031 42.3477 104.642V105.068H37.3022V104.199H41.3249C41.3249 103.83 41.2511 103.5 41.1033 103.21C40.9585 102.92 40.7511 102.692 40.4812 102.524C40.2141 102.357 39.8988 102.273 39.5352 102.273C39.1346 102.273 38.788 102.372 38.4954 102.571C38.2056 102.767 37.9826 103.023 37.8263 103.338C37.6701 103.653 37.592 103.991 37.592 104.352V104.932C37.592 105.426 37.6772 105.845 37.8477 106.189C38.021 106.53 38.261 106.79 38.5678 106.969C38.8746 107.145 39.2312 107.233 39.6374 107.233C39.9016 107.233 40.1403 107.196 40.3533 107.122C40.5692 107.045 40.7553 106.932 40.9116 106.781C41.0678 106.628 41.1886 106.437 41.2738 106.21L42.2454 106.483C42.1431 106.812 41.9712 107.102 41.7298 107.352C41.4883 107.599 41.19 107.793 40.8349 107.932C40.4798 108.068 40.0806 108.136 39.6374 108.136ZM43.1786 109.875V107.062H43.7241C43.8576 106.923 43.9727 106.773 44.0692 106.611C44.1658 106.449 44.2496 106.257 44.3207 106.036C44.3945 105.811 44.457 105.538 44.5082 105.217C44.5593 104.893 44.6048 104.503 44.6445 104.045L44.8661 101.455H49.0252V107.062H50.0309V109.875H49.0252V108H44.1843V109.875H43.1786ZM44.8661 107.062H48.0195V102.392H45.8036L45.6332 104.045C45.5621 104.73 45.4741 105.328 45.369 105.839C45.2638 106.351 45.0962 106.759 44.8661 107.062ZM50.7862 108V107.062H51.0249C51.2209 107.062 51.3842 107.024 51.5149 106.947C51.6456 106.868 51.7507 106.73 51.8303 106.534C51.9126 106.335 51.9751 106.06 52.0178 105.707C52.0632 105.352 52.0959 104.901 52.1158 104.352L52.2351 101.455H56.5987V108H55.593V102.392H53.1896L53.0874 104.727C53.0646 105.264 53.0163 105.737 52.9425 106.146C52.8714 106.553 52.7621 106.893 52.6143 107.169C52.4695 107.445 52.2763 107.652 52.0348 107.791C51.7933 107.93 51.4908 108 51.1271 108H50.7862ZM61.103 108.136C60.5121 108.136 59.9936 107.996 59.5476 107.714C59.1044 107.433 58.7578 107.04 58.5078 106.534C58.2607 106.028 58.1371 105.437 58.1371 104.761C58.1371 104.08 58.2607 103.484 58.5078 102.976C58.7578 102.467 59.1044 102.072 59.5476 101.791C59.9936 101.51 60.5121 101.369 61.103 101.369C61.6939 101.369 62.2109 101.51 62.6541 101.791C63.1001 102.072 63.4467 102.467 63.6939 102.976C63.9439 103.484 64.0689 104.08 64.0689 104.761C64.0689 105.437 63.9439 106.028 63.6939 106.534C63.4467 107.04 63.1001 107.433 62.6541 107.714C62.2109 107.996 61.6939 108.136 61.103 108.136ZM61.103 107.233C61.5518 107.233 61.9212 107.118 62.2109 106.888C62.5007 106.658 62.7152 106.355 62.8544 105.98C62.9936 105.605 63.0632 105.199 63.0632 104.761C63.0632 104.324 62.9936 103.916 62.8544 103.538C62.7152 103.161 62.5007 102.855 62.2109 102.622C61.9212 102.389 61.5518 102.273 61.103 102.273C60.6541 102.273 60.2848 102.389 59.995 102.622C59.7053 102.855 59.4908 103.161 59.3516 103.538C59.2124 103.916 59.1428 104.324 59.1428 104.761C59.1428 105.199 59.2124 105.605 59.3516 105.98C59.4908 106.355 59.7053 106.658 59.995 106.888C60.2848 107.118 60.6541 107.233 61.103 107.233ZM64.9254 108L67.5845 104.676L64.9595 101.455H66.1527L68.3345 104.25H68.88V101.455H69.8857V104.25H70.4141L72.5959 101.455H73.7891L71.1811 104.676L73.8232 108H72.6129L70.397 105.188H69.8857V108H68.88V105.188H68.3686L66.1357 108H64.9254ZM77.7351 108.136C77.1044 108.136 76.5604 107.997 76.103 107.719C75.6484 107.438 75.2976 107.045 75.0504 106.543C74.8061 106.037 74.6839 105.449 74.6839 104.778C74.6839 104.108 74.8061 103.517 75.0504 103.006C75.2976 102.491 75.6413 102.091 76.0817 101.804C76.5249 101.514 77.0419 101.369 77.6328 101.369C77.9737 101.369 78.3104 101.426 78.6428 101.54C78.9751 101.653 79.2777 101.838 79.5504 102.094C79.8232 102.347 80.0405 102.682 80.2024 103.099C80.3643 103.517 80.4453 104.031 80.4453 104.642V105.068H75.3999V104.199H79.4226C79.4226 103.83 79.3487 103.5 79.201 103.21C79.0561 102.92 78.8487 102.692 78.5788 102.524C78.3118 102.357 77.9964 102.273 77.6328 102.273C77.2322 102.273 76.8857 102.372 76.593 102.571C76.3033 102.767 76.0803 103.023 75.924 103.338C75.7678 103.653 75.6896 103.991 75.6896 104.352V104.932C75.6896 105.426 75.7749 105.845 75.9453 106.189C76.1186 106.53 76.3587 106.79 76.6655 106.969C76.9723 107.145 77.3288 107.233 77.7351 107.233C77.9993 107.233 78.2379 107.196 78.451 107.122C78.6669 107.045 78.853 106.932 79.0092 106.781C79.1655 106.628 79.2862 106.437 79.3714 106.21L80.343 106.483C80.2408 106.812 80.0689 107.102 79.8274 107.352C79.5859 107.599 79.2876 107.793 78.9325 107.932C78.5774 108.068 78.1783 108.136 77.7351 108.136ZM86.3558 104.267V105.205H82.7422V104.267H86.3558ZM82.9808 101.455V108H81.9751V101.455H82.9808ZM87.1229 101.455V108H86.1172V101.455H87.1229ZM89.9652 106.517L93.1186 101.455H94.2777V108H93.272V102.938L90.1357 108H88.9595V101.455H89.9652V106.517ZM97.1254 106.517L100.279 101.455H101.438V108H100.432V102.938L97.2958 108H96.1197V101.455H97.1254V106.517ZM99.614 99.2727H100.551C100.551 99.733 100.392 100.109 100.074 100.402C99.756 100.695 99.3242 100.841 98.7788 100.841C98.2418 100.841 97.8143 100.695 97.4961 100.402C97.1808 100.109 97.0231 99.733 97.0231 99.2727H97.9606C97.9606 99.4943 98.0217 99.6889 98.1438 99.8565C98.2688 100.024 98.4805 100.108 98.7788 100.108C99.0771 100.108 99.2901 100.024 99.418 99.8565C99.5487 99.6889 99.614 99.4943 99.614 99.2727Z" fill="#4F576D"/>
<path d="M118 104C118 97.9249 122.925 93 129 93H136C142.075 93 147 97.9249 147 104C147 110.075 142.075 115 136 115H129C122.925 115 118 110.075 118 104Z" fill="#E9C401" fill-opacity="0.2"/>
<path d="M132.365 98.679C132.819 98.6823 133.267 98.7652 133.707 98.9276C134.148 99.09 134.546 99.3551 134.901 99.723C135.259 100.091 135.544 100.588 135.756 101.214C135.971 101.838 136.08 102.613 136.084 103.541C136.084 104.433 135.994 105.227 135.815 105.923C135.636 106.615 135.379 107.2 135.045 107.678C134.713 108.155 134.311 108.518 133.837 108.766C133.363 109.015 132.829 109.139 132.236 109.139C131.629 109.139 131.091 109.02 130.62 108.781C130.149 108.543 129.767 108.213 129.472 107.792C129.177 107.368 128.993 106.88 128.92 106.33H130.436C130.536 106.768 130.738 107.122 131.043 107.394C131.351 107.663 131.749 107.797 132.236 107.797C132.982 107.797 133.563 107.472 133.981 106.822C134.398 106.17 134.609 105.258 134.612 104.088H134.533C134.36 104.373 134.145 104.618 133.886 104.824C133.631 105.029 133.344 105.188 133.026 105.301C132.708 105.414 132.368 105.47 132.007 105.47C131.42 105.47 130.887 105.326 130.406 105.038C129.926 104.749 129.543 104.353 129.258 103.849C128.973 103.346 128.83 102.771 128.83 102.124C128.83 101.481 128.976 100.898 129.268 100.374C129.563 99.8506 129.974 99.4363 130.501 99.1314C131.031 98.8232 131.652 98.6723 132.365 98.679ZM132.37 99.9716C131.982 99.9716 131.633 100.068 131.321 100.26C131.013 100.449 130.769 100.706 130.59 101.031C130.411 101.352 130.322 101.71 130.322 102.104C130.322 102.499 130.408 102.857 130.58 103.178C130.756 103.496 130.995 103.75 131.296 103.939C131.601 104.125 131.949 104.217 132.34 104.217C132.632 104.217 132.904 104.161 133.156 104.048C133.407 103.936 133.628 103.78 133.817 103.581C134.006 103.379 134.153 103.15 134.259 102.895C134.365 102.64 134.418 102.371 134.418 102.089C134.418 101.715 134.329 101.367 134.15 101.045C133.974 100.724 133.732 100.465 133.424 100.27C133.116 100.071 132.764 99.9716 132.37 99.9716Z" fill="#E9C401"/>
<path d="M407.167 73.5H418.833" stroke="#23262F" stroke-width="2" stroke-linecap="round" stroke-linejoin="round"/>
<path d="M444.123 79.5L449.327 69.2045V69.1136H443.327V67.8636H450.782V69.1818L445.6 79.5H444.123ZM456.445 79.6591C455.589 79.6591 454.86 79.4261 454.258 78.9602C453.656 78.4905 453.195 77.8106 452.877 76.9205C452.559 76.0265 452.4 74.947 452.4 73.6818C452.4 72.4242 452.559 71.3504 452.877 70.4602C453.199 69.5663 453.661 68.8845 454.263 68.4148C454.87 67.9413 455.597 67.7045 456.445 67.7045C457.294 67.7045 458.019 67.9413 458.621 68.4148C459.228 68.8845 459.69 69.5663 460.008 70.4602C460.33 71.3504 460.491 72.4242 460.491 73.6818C460.491 74.947 460.332 76.0265 460.013 76.9205C459.695 77.8106 459.235 78.4905 458.633 78.9602C458.031 79.4261 457.301 79.6591 456.445 79.6591ZM456.445 78.4091C457.294 78.4091 457.953 78 458.423 77.1818C458.892 76.3636 459.127 75.197 459.127 73.6818C459.127 72.6742 459.019 71.8163 458.803 71.108C458.591 70.3996 458.284 69.8598 457.883 69.4886C457.485 69.1174 457.006 68.9318 456.445 68.9318C455.604 68.9318 454.947 69.3466 454.474 70.1761C454 71.0019 453.763 72.1705 453.763 73.6818C453.763 74.6894 453.87 75.5455 454.082 76.25C454.294 76.9545 454.599 77.4905 454.996 77.858C455.398 78.2254 455.881 78.4091 456.445 78.4091ZM466.445 79.6591C465.589 79.6591 464.86 79.4261 464.258 78.9602C463.656 78.4905 463.195 77.8106 462.877 76.9205C462.559 76.0265 462.4 74.947 462.4 73.6818C462.4 72.4242 462.559 71.3504 462.877 70.4602C463.199 69.5663 463.661 68.8845 464.263 68.4148C464.87 67.9413 465.597 67.7045 466.445 67.7045C467.294 67.7045 468.019 67.9413 468.621 68.4148C469.228 68.8845 469.69 69.5663 470.008 70.4602C470.33 71.3504 470.491 72.4242 470.491 73.6818C470.491 74.947 470.332 76.0265 470.013 76.9205C469.695 77.8106 469.235 78.4905 468.633 78.9602C468.031 79.4261 467.301 79.6591 466.445 79.6591ZM466.445 78.4091C467.294 78.4091 467.953 78 468.423 77.1818C468.892 76.3636 469.127 75.197 469.127 73.6818C469.127 72.6742 469.019 71.8163 468.803 71.108C468.591 70.3996 468.284 69.8598 467.883 69.4886C467.485 69.1174 467.006 68.9318 466.445 68.9318C465.604 68.9318 464.947 69.3466 464.474 70.1761C464 71.0019 463.763 72.1705 463.763 73.6818C463.763 74.6894 463.87 75.5455 464.082 76.25C464.294 76.9545 464.599 77.4905 464.996 77.858C465.398 78.2254 465.881 78.4091 466.445 78.4091Z" fill="#23262F"/>
<path d="M501 67.6667V79.3334" stroke="#23262F" stroke-width="2" stroke-linecap="round" stroke-linejoin="round"/>
<path d="M495.167 73.5H506.833" stroke="#23262F" stroke-width="2" stroke-linecap="round" stroke-linejoin="round"/>
<path d="M541 63C541 58.5817 544.582 55 549 55H623C627.418 55 631 58.5817 631 63V84C631 88.4183 627.418 92 623 92H549C544.582 92 541 88.4183 541 84V63Z" fill="#F7FAFC"/>
<path d="M558.129 70.3636H559.302V76.9062H562.185V70.3636H563.359V76.9062H566.242V70.3636H567.415V78H558.129V70.3636ZM568.519 71.4574V70.3636H574.724V71.4574H572.218V78H571.045V71.4574H568.519ZM576.019 78.0795C575.774 78.0795 575.563 77.9917 575.387 77.8161C575.212 77.6404 575.124 77.4299 575.124 77.1847C575.124 76.9394 575.212 76.7289 575.387 76.5533C575.563 76.3776 575.774 76.2898 576.019 76.2898C576.264 76.2898 576.475 76.3776 576.65 76.5533C576.826 76.7289 576.914 76.9394 576.914 77.1847C576.914 77.3471 576.872 77.4962 576.789 77.6321C576.71 77.768 576.602 77.8774 576.466 77.9602C576.334 78.0398 576.185 78.0795 576.019 78.0795Z" fill="#23262F"/>
<path d="M608.667 71L604.825 75.287C604.371 75.7932 603.629 75.7932 603.175 75.287L599.333 71" stroke="#23262F" stroke-miterlimit="10" stroke-linecap="round" stroke-linejoin="round"/>
<rect x="661" y="21" width="1" height="105" fill="#23262F" fill-opacity="0.2"/>
<path d="M713 69L704.6 77.4L701.4 72.6L695 79" stroke="#31AA27" stroke-width="1.5" stroke-linecap="round" stroke-linejoin="round"/>
<path d="M709 69H713V73" stroke="#31AA27" stroke-width="1.5" stroke-linecap="round" stroke-linejoin="round"/>
<path d="M731.136 80.1591C730.386 80.1591 729.718 80.0303 729.131 79.7727C728.547 79.5152 728.083 79.1572 727.739 78.6989C727.398 78.2367 727.212 77.7008 727.182 77.0909H728.614C728.644 77.4659 728.773 77.7898 729 78.0625C729.227 78.3314 729.525 78.5398 729.892 78.6875C730.259 78.8352 730.667 78.9091 731.114 78.9091C731.614 78.9091 732.057 78.822 732.443 78.6477C732.83 78.4735 733.133 78.2311 733.352 77.9205C733.572 77.6098 733.682 77.25 733.682 76.8409C733.682 76.4129 733.576 76.036 733.364 75.7102C733.152 75.3807 732.841 75.1231 732.432 74.9375C732.023 74.7519 731.523 74.6591 730.932 74.6591H730V73.4091H730.932C731.394 73.4091 731.799 73.3258 732.148 73.1591C732.5 72.9924 732.775 72.7576 732.972 72.4545C733.172 72.1515 733.273 71.7955 733.273 71.3864C733.273 70.9924 733.186 70.6496 733.011 70.358C732.837 70.0663 732.591 69.839 732.273 69.6761C731.958 69.5133 731.587 69.4318 731.159 69.4318C730.758 69.4318 730.379 69.5057 730.023 69.6534C729.67 69.7973 729.383 70.0076 729.159 70.2841C728.936 70.5568 728.814 70.8864 728.795 71.2727H727.432C727.455 70.6629 727.638 70.1288 727.983 69.6705C728.328 69.2083 728.778 68.8485 729.335 68.5909C729.896 68.3333 730.511 68.2045 731.182 68.2045C731.902 68.2045 732.519 68.3504 733.034 68.642C733.549 68.9299 733.945 69.3106 734.222 69.7841C734.498 70.2576 734.636 70.7689 734.636 71.3182C734.636 71.9735 734.464 72.5322 734.119 72.9943C733.778 73.4564 733.314 73.7765 732.727 73.9545V74.0455C733.462 74.1667 734.036 74.4792 734.449 74.983C734.862 75.483 735.068 76.1023 735.068 76.8409C735.068 77.4735 734.896 78.0417 734.551 78.5455C734.21 79.0455 733.744 79.4394 733.153 79.7273C732.563 80.0152 731.89 80.1591 731.136 80.1591ZM737.392 80V78.9773L741.233 74.7727C741.684 74.2803 742.055 73.8523 742.347 73.4886C742.638 73.1212 742.854 72.7765 742.994 72.4545C743.138 72.1288 743.21 71.7879 743.21 71.4318C743.21 71.0227 743.112 70.6686 742.915 70.3693C742.722 70.0701 742.456 69.839 742.119 69.6761C741.782 69.5133 741.403 69.4318 740.983 69.4318C740.536 69.4318 740.146 69.5246 739.812 69.7102C739.483 69.892 739.227 70.1477 739.045 70.4773C738.867 70.8068 738.778 71.1932 738.778 71.6364H737.438C737.438 70.9545 737.595 70.3561 737.909 69.8409C738.223 69.3258 738.652 68.9242 739.193 68.6364C739.739 68.3485 740.35 68.2045 741.028 68.2045C741.71 68.2045 742.314 68.3485 742.841 68.6364C743.367 68.9242 743.78 69.3125 744.08 69.8011C744.379 70.2898 744.528 70.8333 744.528 71.4318C744.528 71.8598 744.451 72.2784 744.295 72.6875C744.144 73.0928 743.879 73.5455 743.5 74.0455C743.125 74.5417 742.604 75.1477 741.938 75.8636L739.324 78.6591V78.75H744.733V80H737.392ZM750.943 80.1591C750.466 80.1515 749.989 80.0606 749.511 79.8864C749.034 79.7121 748.598 79.4186 748.205 79.0057C747.811 78.589 747.494 78.0265 747.256 77.3182C747.017 76.6061 746.898 75.7121 746.898 74.6364C746.898 73.6061 746.994 72.6932 747.188 71.8977C747.381 71.0985 747.661 70.4261 748.028 69.8807C748.396 69.3314 748.839 68.9148 749.358 68.6307C749.881 68.3466 750.47 68.2045 751.125 68.2045C751.777 68.2045 752.356 68.3352 752.864 68.5966C753.375 68.8542 753.792 69.214 754.114 69.6761C754.436 70.1383 754.644 70.6705 754.739 71.2727H753.352C753.223 70.75 752.973 70.3163 752.602 69.9716C752.231 69.6269 751.739 69.4545 751.125 69.4545C750.223 69.4545 749.513 69.8466 748.994 70.6307C748.479 71.4148 748.22 72.5152 748.216 73.9318H748.307C748.519 73.6098 748.771 73.3352 749.062 73.108C749.358 72.8769 749.684 72.6989 750.04 72.5739C750.396 72.4489 750.773 72.3864 751.17 72.3864C751.837 72.3864 752.447 72.553 753 72.8864C753.553 73.2159 753.996 73.6723 754.33 74.2557C754.663 74.8352 754.83 75.5 754.83 76.25C754.83 76.9697 754.669 77.6288 754.347 78.2273C754.025 78.822 753.572 79.2955 752.989 79.6477C752.409 79.9962 751.727 80.1667 750.943 80.1591ZM750.943 78.9091C751.42 78.9091 751.848 78.7898 752.227 78.5511C752.61 78.3125 752.911 77.9924 753.131 77.5909C753.354 77.1894 753.466 76.7424 753.466 76.25C753.466 75.7689 753.358 75.3314 753.142 74.9375C752.93 74.5398 752.636 74.2235 752.261 73.9886C751.89 73.7538 751.466 73.6364 750.989 73.6364C750.629 73.6364 750.294 73.7083 749.983 73.8523C749.672 73.9924 749.4 74.1856 749.165 74.4318C748.934 74.678 748.752 74.9602 748.619 75.2784C748.487 75.5928 748.42 75.9242 748.42 76.2727C748.42 76.7348 748.528 77.1667 748.744 77.5682C748.964 77.9697 749.263 78.2936 749.642 78.5398C750.025 78.786 750.458 78.9091 750.943 78.9091ZM757.517 80.0909C757.237 80.0909 756.996 79.9905 756.795 79.7898C756.595 79.589 756.494 79.3485 756.494 79.0682C756.494 78.7879 756.595 78.5473 756.795 78.3466C756.996 78.1458 757.237 78.0455 757.517 78.0455C757.797 78.0455 758.038 78.1458 758.239 78.3466C758.439 78.5473 758.54 78.7879 758.54 79.0682C758.54 79.2538 758.492 79.4242 758.398 79.5795C758.307 79.7348 758.184 79.8598 758.028 79.9545C757.877 80.0455 757.706 80.0909 757.517 80.0909ZM761.053 80L766.257 69.7045V69.6136H760.257V68.3636H767.712V69.6818L762.53 80H761.053ZM773.322 80.1591C772.542 80.1591 771.853 80.0208 771.254 79.7443C770.66 79.464 770.196 79.0795 769.862 78.5909C769.529 78.0985 769.364 77.5379 769.368 76.9091C769.364 76.4167 769.461 75.9621 769.658 75.5455C769.855 75.125 770.124 74.7746 770.464 74.4943C770.809 74.2102 771.194 74.0303 771.618 73.9545V73.8864C771.061 73.7424 770.618 73.4299 770.288 72.9489C769.959 72.464 769.796 71.9129 769.8 71.2955C769.796 70.7045 769.946 70.1761 770.249 69.7102C770.552 69.2443 770.968 68.8769 771.499 68.608C772.033 68.339 772.641 68.2045 773.322 68.2045C773.997 68.2045 774.599 68.339 775.129 68.608C775.66 68.8769 776.076 69.2443 776.379 69.7102C776.686 70.1761 776.841 70.7045 776.845 71.2955C776.841 71.9129 776.673 72.464 776.339 72.9489C776.01 73.4299 775.572 73.7424 775.027 73.8864V73.9545C775.447 74.0303 775.826 74.2102 776.163 74.4943C776.5 74.7746 776.769 75.125 776.97 75.5455C777.171 75.9621 777.273 76.4167 777.277 76.9091C777.273 77.5379 777.103 78.0985 776.766 78.5909C776.432 79.0795 775.968 79.464 775.374 79.7443C774.783 80.0208 774.099 80.1591 773.322 80.1591ZM773.322 78.9091C773.849 78.9091 774.304 78.8239 774.686 78.6534C775.069 78.483 775.364 78.2424 775.572 77.9318C775.781 77.6212 775.887 77.2576 775.891 76.8409C775.887 76.4015 775.773 76.0133 775.55 75.6761C775.326 75.339 775.021 75.0739 774.635 74.8807C774.252 74.6875 773.815 74.5909 773.322 74.5909C772.826 74.5909 772.383 74.6875 771.993 74.8807C771.607 75.0739 771.302 75.339 771.078 75.6761C770.858 76.0133 770.75 76.4015 770.754 76.8409C770.75 77.2576 770.851 77.6212 771.055 77.9318C771.264 78.2424 771.561 78.483 771.947 78.6534C772.334 78.8239 772.792 78.9091 773.322 78.9091ZM773.322 73.3864C773.739 73.3864 774.108 73.303 774.43 73.1364C774.756 72.9697 775.012 72.7367 775.197 72.4375C775.383 72.1383 775.478 71.7879 775.482 71.3864C775.478 70.9924 775.385 70.6496 775.203 70.358C775.021 70.0625 774.769 69.8352 774.447 69.6761C774.125 69.5133 773.75 69.4318 773.322 69.4318C772.887 69.4318 772.506 69.5133 772.18 69.6761C771.855 69.8352 771.603 70.0625 771.425 70.358C771.247 70.6496 771.16 70.9924 771.163 71.3864C771.16 71.7879 771.249 72.1383 771.43 72.4375C771.616 72.7367 771.872 72.9697 772.197 73.1364C772.523 73.303 772.898 73.3864 773.322 73.3864ZM789.25 75.2727H783.341V74.0227H789.25C789.795 74.0227 790.246 73.928 790.602 73.7386C790.958 73.5455 791.223 73.2841 791.398 72.9545C791.572 72.6212 791.659 72.2424 791.659 71.8182C791.659 71.3939 791.572 71.017 791.398 70.6875C791.223 70.3542 790.958 70.0928 790.602 69.9034C790.246 69.7102 789.795 69.6136 789.25 69.6136H786.591V80H785.182V68.3636H789.25C790.114 68.3636 790.826 68.5208 791.386 68.8352C791.947 69.1496 792.364 69.5682 792.636 70.0909C792.909 70.6136 793.045 71.1894 793.045 71.8182C793.045 72.447 792.909 73.0227 792.636 73.5455C792.364 74.0682 791.947 74.4867 791.386 74.8011C790.826 75.1155 790.114 75.2727 789.25 75.2727ZM789.159 76.3636V77.6136H783.341V76.3636H789.159Z" fill="#23262F"/>
<path d="M855 69L846.6 77.4L843.4 72.6L837 79" stroke="#31AA27" stroke-width="1.5" stroke-linecap="round" stroke-linejoin="round"/>
<path d="M851 69H855V73" stroke="#31AA27" stroke-width="1.5" stroke-linecap="round" stroke-linejoin="round"/>
<path d="M869.205 80V78.9773L873.045 74.7727C873.496 74.2803 873.867 73.8523 874.159 73.4886C874.451 73.1212 874.667 72.7765 874.807 72.4545C874.951 72.1288 875.023 71.7879 875.023 71.4318C875.023 71.0227 874.924 70.6686 874.727 70.3693C874.534 70.0701 874.269 69.839 873.932 69.6761C873.595 69.5133 873.216 69.4318 872.795 69.4318C872.348 69.4318 871.958 69.5246 871.625 69.7102C871.295 69.892 871.04 70.1477 870.858 70.4773C870.68 70.8068 870.591 71.1932 870.591 71.6364H869.25C869.25 70.9545 869.407 70.3561 869.722 69.8409C870.036 69.3258 870.464 68.9242 871.006 68.6364C871.551 68.3485 872.163 68.2045 872.841 68.2045C873.523 68.2045 874.127 68.3485 874.653 68.6364C875.18 68.9242 875.593 69.3125 875.892 69.8011C876.191 70.2898 876.341 70.8333 876.341 71.4318C876.341 71.8598 876.263 72.2784 876.108 72.6875C875.956 73.0928 875.691 73.5455 875.312 74.0455C874.938 74.5417 874.417 75.1477 873.75 75.8636L871.136 78.6591V78.75H876.545V80H869.205ZM878.892 80V78.9773L882.733 74.7727C883.184 74.2803 883.555 73.8523 883.847 73.4886C884.138 73.1212 884.354 72.7765 884.494 72.4545C884.638 72.1288 884.71 71.7879 884.71 71.4318C884.71 71.0227 884.612 70.6686 884.415 70.3693C884.222 70.0701 883.956 69.839 883.619 69.6761C883.282 69.5133 882.903 69.4318 882.483 69.4318C882.036 69.4318 881.646 69.5246 881.312 69.7102C880.983 69.892 880.727 70.1477 880.545 70.4773C880.367 70.8068 880.278 71.1932 880.278 71.6364H878.938C878.938 70.9545 879.095 70.3561 879.409 69.8409C879.723 69.3258 880.152 68.9242 880.693 68.6364C881.239 68.3485 881.85 68.2045 882.528 68.2045C883.21 68.2045 883.814 68.3485 884.341 68.6364C884.867 68.9242 885.28 69.3125 885.58 69.8011C885.879 70.2898 886.028 70.8333 886.028 71.4318C886.028 71.8598 885.951 72.2784 885.795 72.6875C885.644 73.0928 885.379 73.5455 885 74.0455C884.625 74.5417 884.104 75.1477 883.438 75.8636L880.824 78.6591V78.75H886.233V80H878.892ZM892.443 80.1591C891.966 80.1515 891.489 80.0606 891.011 79.8864C890.534 79.7121 890.098 79.4186 889.705 79.0057C889.311 78.589 888.994 78.0265 888.756 77.3182C888.517 76.6061 888.398 75.7121 888.398 74.6364C888.398 73.6061 888.494 72.6932 888.688 71.8977C888.881 71.0985 889.161 70.4261 889.528 69.8807C889.896 69.3314 890.339 68.9148 890.858 68.6307C891.381 68.3466 891.97 68.2045 892.625 68.2045C893.277 68.2045 893.856 68.3352 894.364 68.5966C894.875 68.8542 895.292 69.214 895.614 69.6761C895.936 70.1383 896.144 70.6705 896.239 71.2727H894.852C894.723 70.75 894.473 70.3163 894.102 69.9716C893.731 69.6269 893.239 69.4545 892.625 69.4545C891.723 69.4545 891.013 69.8466 890.494 70.6307C889.979 71.4148 889.72 72.5152 889.716 73.9318H889.807C890.019 73.6098 890.271 73.3352 890.562 73.108C890.858 72.8769 891.184 72.6989 891.54 72.5739C891.896 72.4489 892.273 72.3864 892.67 72.3864C893.337 72.3864 893.947 72.553 894.5 72.8864C895.053 73.2159 895.496 73.6723 895.83 74.2557C896.163 74.8352 896.33 75.5 896.33 76.25C896.33 76.9697 896.169 77.6288 895.847 78.2273C895.525 78.822 895.072 79.2955 894.489 79.6477C893.909 79.9962 893.227 80.1667 892.443 80.1591ZM892.443 78.9091C892.92 78.9091 893.348 78.7898 893.727 78.5511C894.11 78.3125 894.411 77.9924 894.631 77.5909C894.854 77.1894 894.966 76.7424 894.966 76.25C894.966 75.7689 894.858 75.3314 894.642 74.9375C894.43 74.5398 894.136 74.2235 893.761 73.9886C893.39 73.7538 892.966 73.6364 892.489 73.6364C892.129 73.6364 891.794 73.7083 891.483 73.8523C891.172 73.9924 890.9 74.1856 890.665 74.4318C890.434 74.678 890.252 74.9602 890.119 75.2784C889.987 75.5928 889.92 75.9242 889.92 76.2727C889.92 76.7348 890.028 77.1667 890.244 77.5682C890.464 77.9697 890.763 78.2936 891.142 78.5398C891.525 78.786 891.958 78.9091 892.443 78.9091ZM899.017 80.0909C898.737 80.0909 898.496 79.9905 898.295 79.7898C898.095 79.589 897.994 79.3485 897.994 79.0682C897.994 78.7879 898.095 78.5473 898.295 78.3466C898.496 78.1458 898.737 78.0455 899.017 78.0455C899.297 78.0455 899.538 78.1458 899.739 78.3466C899.939 78.5473 900.04 78.7879 900.04 79.0682C900.04 79.2538 899.992 79.4242 899.898 79.5795C899.807 79.7348 899.684 79.8598 899.528 79.9545C899.377 80.0455 899.206 80.0909 899.017 80.0909ZM902.553 80L907.757 69.7045V69.6136H901.757V68.3636H909.212V69.6818L904.03 80H902.553ZM914.822 80.1591C914.042 80.1591 913.353 80.0208 912.754 79.7443C912.16 79.464 911.696 79.0795 911.362 78.5909C911.029 78.0985 910.864 77.5379 910.868 76.9091C910.864 76.4167 910.961 75.9621 911.158 75.5455C911.355 75.125 911.624 74.7746 911.964 74.4943C912.309 74.2102 912.694 74.0303 913.118 73.9545V73.8864C912.561 73.7424 912.118 73.4299 911.788 72.9489C911.459 72.464 911.296 71.9129 911.3 71.2955C911.296 70.7045 911.446 70.1761 911.749 69.7102C912.052 69.2443 912.468 68.8769 912.999 68.608C913.533 68.339 914.141 68.2045 914.822 68.2045C915.497 68.2045 916.099 68.339 916.629 68.608C917.16 68.8769 917.576 69.2443 917.879 69.7102C918.186 70.1761 918.341 70.7045 918.345 71.2955C918.341 71.9129 918.173 72.464 917.839 72.9489C917.51 73.4299 917.072 73.7424 916.527 73.8864V73.9545C916.947 74.0303 917.326 74.2102 917.663 74.4943C918 74.7746 918.269 75.125 918.47 75.5455C918.671 75.9621 918.773 76.4167 918.777 76.9091C918.773 77.5379 918.603 78.0985 918.266 78.5909C917.932 79.0795 917.468 79.464 916.874 79.7443C916.283 80.0208 915.599 80.1591 914.822 80.1591ZM914.822 78.9091C915.349 78.9091 915.804 78.8239 916.186 78.6534C916.569 78.483 916.864 78.2424 917.072 77.9318C917.281 77.6212 917.387 77.2576 917.391 76.8409C917.387 76.4015 917.273 76.0133 917.05 75.6761C916.826 75.339 916.521 75.0739 916.135 74.8807C915.752 74.6875 915.315 74.5909 914.822 74.5909C914.326 74.5909 913.883 74.6875 913.493 74.8807C913.107 75.0739 912.802 75.339 912.578 75.6761C912.358 76.0133 912.25 76.4015 912.254 76.8409C912.25 77.2576 912.351 77.6212 912.555 77.9318C912.764 78.2424 913.061 78.483 913.447 78.6534C913.834 78.8239 914.292 78.9091 914.822 78.9091ZM914.822 73.3864C915.239 73.3864 915.608 73.303 915.93 73.1364C916.256 72.9697 916.512 72.7367 916.697 72.4375C916.883 72.1383 916.978 71.7879 916.982 71.3864C916.978 70.9924 916.885 70.6496 916.703 70.358C916.521 70.0625 916.269 69.8352 915.947 69.6761C915.625 69.5133 915.25 69.4318 914.822 69.4318C914.387 69.4318 914.006 69.5133 913.68 69.6761C913.355 69.8352 913.103 70.0625 912.925 70.358C912.747 70.6496 912.66 70.9924 912.663 71.3864C912.66 71.7879 912.749 72.1383 912.93 72.4375C913.116 72.7367 913.372 72.9697 913.697 73.1364C914.023 73.303 914.398 73.3864 914.822 73.3864ZM930.75 75.2727H924.841V74.0227H930.75C931.295 74.0227 931.746 73.928 932.102 73.7386C932.458 73.5455 932.723 73.2841 932.898 72.9545C933.072 72.6212 933.159 72.2424 933.159 71.8182C933.159 71.3939 933.072 71.017 932.898 70.6875C932.723 70.3542 932.458 70.0928 932.102 69.9034C931.746 69.7102 931.295 69.6136 930.75 69.6136H928.091V80H926.682V68.3636H930.75C931.614 68.3636 932.326 68.5208 932.886 68.8352C933.447 69.1496 933.864 69.5682 934.136 70.0909C934.409 70.6136 934.545 71.1894 934.545 71.8182C934.545 72.447 934.409 73.0227 934.136 73.5455C933.864 74.0682 933.447 74.4867 932.886 74.8011C932.326 75.1155 931.614 75.2727 930.75 75.2727ZM930.659 76.3636V77.6136H924.841V76.3636H930.659Z" fill="#23262F"/>
<rect x="692" y="118" width="650" height="8" rx="4" fill="#F7FAFC"/>
<rect x="692" y="118" width="527" height="8" rx="4" fill="#4B5DFF"/>
</svg>
