<svg width="300" height="312" viewBox="0 0 300 312" fill="none" xmlns="http://www.w3.org/2000/svg">
<path d="M0 8C0 3.58172 3.58172 0 8 0H292C296.418 0 300 3.58172 300 8V304C300 308.418 296.418 312 292 312H7.99999C3.58171 312 0 308.418 0 304V8Z" fill="white"/>
<path d="M30.1136 36.3636V48H28.7045V37.6136H22.8409V48H21.4318V36.3636H30.1136ZM34.1151 46.0227L38.3196 39.2727H39.8651V48H38.5241V41.25L34.3423 48H32.7741V39.2727H34.1151V46.0227ZM41.5483 48V46.75H41.8665C42.1278 46.75 42.3456 46.6989 42.5199 46.5966C42.6941 46.4905 42.8343 46.3068 42.9403 46.0455C43.0502 45.7803 43.1335 45.4129 43.1903 44.9432C43.2509 44.4697 43.2945 43.8674 43.321 43.1364L43.4801 39.2727H49.2983V48H47.9574V40.5227H44.7528L44.6165 43.6364C44.5862 44.3523 44.5218 44.983 44.4233 45.5284C44.3286 46.0701 44.1828 46.5246 43.9858 46.892C43.7926 47.2595 43.535 47.536 43.2131 47.7216C42.8911 47.9072 42.4877 48 42.0028 48H41.5483ZM55.304 48.1818C54.5161 48.1818 53.8248 47.9943 53.2301 47.6193C52.6392 47.2443 52.1771 46.7197 51.8438 46.0455C51.5142 45.3712 51.3494 44.5833 51.3494 43.6818C51.3494 42.7727 51.5142 41.9792 51.8438 41.3011C52.1771 40.6231 52.6392 40.0966 53.2301 39.7216C53.8248 39.3466 54.5161 39.1591 55.304 39.1591C56.0919 39.1591 56.7813 39.3466 57.3722 39.7216C57.9669 40.0966 58.429 40.6231 58.7585 41.3011C59.0919 41.9792 59.2585 42.7727 59.2585 43.6818C59.2585 44.5833 59.0919 45.3712 58.7585 46.0455C58.429 46.7197 57.9669 47.2443 57.3722 47.6193C56.7813 47.9943 56.0919 48.1818 55.304 48.1818ZM55.304 46.9773C55.9025 46.9773 56.3949 46.8239 56.7812 46.517C57.1676 46.2102 57.4536 45.8068 57.6392 45.3068C57.8248 44.8068 57.9176 44.2652 57.9176 43.6818C57.9176 43.0985 57.8248 42.5549 57.6392 42.0511C57.4536 41.5473 57.1676 41.1402 56.7812 40.8295C56.3949 40.5189 55.9025 40.3636 55.304 40.3636C54.7055 40.3636 54.2131 40.5189 53.8267 40.8295C53.4403 41.1402 53.1544 41.5473 52.9688 42.0511C52.7831 42.5549 52.6903 43.0985 52.6903 43.6818C52.6903 44.2652 52.7831 44.8068 52.9688 45.3068C53.1544 45.8068 53.4403 46.2102 53.8267 46.517C54.2131 46.8239 54.7055 46.9773 55.304 46.9773ZM66.0781 46.1818L69.1236 39.2727H70.3963L66.6236 48H65.5327L61.8281 39.2727H63.0781L66.0781 46.1818ZM62.6463 39.2727V48H61.3054V39.2727H62.6463ZM69.5099 48V39.2727H70.8509V48H69.5099ZM75.8736 48.2045C75.3205 48.2045 74.8187 48.1004 74.3679 47.892C73.9171 47.6799 73.5592 47.375 73.294 46.9773C73.0289 46.5758 72.8963 46.0909 72.8963 45.5227C72.8963 45.0227 72.9948 44.6174 73.1918 44.3068C73.3887 43.9924 73.652 43.7462 73.9815 43.5682C74.3111 43.3902 74.6747 43.2576 75.0724 43.1705C75.474 43.0795 75.8774 43.0076 76.2827 42.9545C76.813 42.8864 77.2429 42.8352 77.5724 42.8011C77.9058 42.7633 78.1482 42.7008 78.2997 42.6136C78.455 42.5265 78.5327 42.375 78.5327 42.1591V42.1136C78.5327 41.553 78.3793 41.1174 78.0724 40.8068C77.7694 40.4962 77.3092 40.3409 76.6918 40.3409C76.0516 40.3409 75.5497 40.4811 75.1861 40.7614C74.8224 41.0417 74.5668 41.3409 74.419 41.6591L73.1463 41.2045C73.3736 40.6742 73.6766 40.2614 74.0554 39.9659C74.438 39.6667 74.8546 39.4583 75.3054 39.3409C75.7599 39.2197 76.2069 39.1591 76.6463 39.1591C76.9266 39.1591 77.2486 39.1932 77.6122 39.2614C77.9796 39.3258 78.3338 39.4602 78.6747 39.6648C79.0194 39.8693 79.3054 40.178 79.5327 40.5909C79.7599 41.0038 79.8736 41.5568 79.8736 42.25V48H78.5327V46.8182H78.4645C78.3736 47.0076 78.2221 47.2102 78.0099 47.4261C77.7978 47.642 77.5156 47.8258 77.1634 47.9773C76.8111 48.1288 76.3812 48.2045 75.8736 48.2045ZM76.0781 47C76.6084 47 77.0554 46.8958 77.419 46.6875C77.7865 46.4792 78.063 46.2102 78.2486 45.8807C78.438 45.5511 78.5327 45.2045 78.5327 44.8409V43.6136C78.4759 43.6818 78.3509 43.7443 78.1577 43.8011C77.9683 43.8542 77.7486 43.9015 77.4986 43.9432C77.2524 43.9811 77.0118 44.0152 76.777 44.0455C76.5459 44.072 76.3584 44.0947 76.2145 44.1136C75.866 44.1591 75.5402 44.233 75.2372 44.3352C74.938 44.4337 74.6955 44.5833 74.5099 44.7841C74.3281 44.9811 74.2372 45.25 74.2372 45.5909C74.2372 46.0568 74.4096 46.4091 74.7543 46.6477C75.1027 46.8826 75.544 47 76.0781 47ZM81.1335 40.5227V39.2727H88.2244V40.5227H85.3608V48H84.0199V40.5227H81.1335ZM93.3864 48.1818C92.5455 48.1818 91.8201 47.9962 91.2102 47.625C90.6042 47.25 90.1364 46.7273 89.8068 46.0568C89.4811 45.3826 89.3182 44.5985 89.3182 43.7045C89.3182 42.8106 89.4811 42.0227 89.8068 41.3409C90.1364 40.6553 90.5947 40.1212 91.1818 39.7386C91.7727 39.3523 92.4621 39.1591 93.25 39.1591C93.7045 39.1591 94.1534 39.2348 94.5966 39.3864C95.0398 39.5379 95.4432 39.7841 95.8068 40.125C96.1705 40.4621 96.4602 40.9091 96.6761 41.4659C96.892 42.0227 97 42.7083 97 43.5227V44.0909H90.2727V42.9318H95.6364C95.6364 42.4394 95.5379 42 95.3409 41.6136C95.1477 41.2273 94.8712 40.9223 94.5114 40.6989C94.1553 40.4754 93.7348 40.3636 93.25 40.3636C92.7159 40.3636 92.2538 40.4962 91.8636 40.7614C91.4773 41.0227 91.1799 41.3636 90.9716 41.7841C90.7633 42.2045 90.6591 42.6553 90.6591 43.1364V43.9091C90.6591 44.5682 90.7727 45.1269 91 45.5852C91.2311 46.0398 91.5511 46.3864 91.9602 46.625C92.3693 46.8598 92.8447 46.9773 93.3864 46.9773C93.7386 46.9773 94.0568 46.928 94.3409 46.8295C94.6288 46.7273 94.8769 46.5758 95.0852 46.375C95.2936 46.1705 95.4545 45.9167 95.5682 45.6136L96.8636 45.9773C96.7273 46.4167 96.4981 46.803 96.1761 47.1364C95.8542 47.4659 95.4564 47.7235 94.983 47.9091C94.5095 48.0909 93.9773 48.1818 93.3864 48.1818ZM99.0398 51.2727V39.2727H100.335V40.6591H100.494C100.593 40.5076 100.729 40.3144 100.903 40.0795C101.081 39.8409 101.335 39.6288 101.665 39.4432C101.998 39.2538 102.449 39.1591 103.017 39.1591C103.752 39.1591 104.4 39.3428 104.96 39.7102C105.521 40.0777 105.958 40.5985 106.273 41.2727C106.587 41.947 106.744 42.7424 106.744 43.6591C106.744 44.5833 106.587 45.3845 106.273 46.0625C105.958 46.7367 105.523 47.2595 104.966 47.6307C104.409 47.9981 103.767 48.1818 103.04 48.1818C102.479 48.1818 102.03 48.089 101.693 47.9034C101.356 47.714 101.097 47.5 100.915 47.2614C100.733 47.0189 100.593 46.8182 100.494 46.6591H100.381V51.2727H99.0398ZM100.358 43.6364C100.358 44.2955 100.455 44.8769 100.648 45.3807C100.841 45.8807 101.123 46.2727 101.494 46.5568C101.866 46.8371 102.32 46.9773 102.858 46.9773C103.419 46.9773 103.886 46.8295 104.261 46.5341C104.64 46.2348 104.924 45.8333 105.114 45.3295C105.307 44.822 105.403 44.2576 105.403 43.6364C105.403 43.0227 105.309 42.4697 105.119 41.9773C104.934 41.4811 104.652 41.089 104.273 40.8011C103.898 40.5095 103.426 40.3636 102.858 40.3636C102.313 40.3636 101.854 40.5019 101.483 40.7784C101.112 41.0511 100.831 41.4337 100.642 41.9261C100.453 42.4148 100.358 42.9848 100.358 43.6364ZM110.131 46.0227L114.335 39.2727H115.881V48H114.54V41.25L110.358 48H108.79V39.2727H110.131V46.0227ZM120.905 48.2045C120.352 48.2045 119.85 48.1004 119.399 47.892C118.948 47.6799 118.59 47.375 118.325 46.9773C118.06 46.5758 117.928 46.0909 117.928 45.5227C117.928 45.0227 118.026 44.6174 118.223 44.3068C118.42 43.9924 118.683 43.7462 119.013 43.5682C119.342 43.3902 119.706 43.2576 120.104 43.1705C120.505 43.0795 120.909 43.0076 121.314 42.9545C121.844 42.8864 122.274 42.8352 122.604 42.8011C122.937 42.7633 123.179 42.7008 123.331 42.6136C123.486 42.5265 123.564 42.375 123.564 42.1591V42.1136C123.564 41.553 123.411 41.1174 123.104 40.8068C122.801 40.4962 122.34 40.3409 121.723 40.3409C121.083 40.3409 120.581 40.4811 120.217 40.7614C119.854 41.0417 119.598 41.3409 119.45 41.6591L118.178 41.2045C118.405 40.6742 118.708 40.2614 119.087 39.9659C119.469 39.6667 119.886 39.4583 120.337 39.3409C120.791 39.2197 121.238 39.1591 121.678 39.1591C121.958 39.1591 122.28 39.1932 122.643 39.2614C123.011 39.3258 123.365 39.4602 123.706 39.6648C124.051 39.8693 124.337 40.178 124.564 40.5909C124.791 41.0038 124.905 41.5568 124.905 42.25V48H123.564V46.8182H123.496C123.405 47.0076 123.253 47.2102 123.041 47.4261C122.829 47.642 122.547 47.8258 122.195 47.9773C121.842 48.1288 121.412 48.2045 120.905 48.2045ZM121.109 47C121.64 47 122.087 46.8958 122.45 46.6875C122.818 46.4792 123.094 46.2102 123.28 45.8807C123.469 45.5511 123.564 45.2045 123.564 44.8409V43.6136C123.507 43.6818 123.382 43.7443 123.189 43.8011C123 43.8542 122.78 43.9015 122.53 43.9432C122.284 43.9811 122.043 44.0152 121.808 44.0455C121.577 44.072 121.39 44.0947 121.246 44.1136C120.897 44.1591 120.571 44.233 120.268 44.3352C119.969 44.4337 119.727 44.5833 119.541 44.7841C119.359 44.9811 119.268 45.25 119.268 45.5909C119.268 46.0568 119.441 46.4091 119.786 46.6477C120.134 46.8826 120.575 47 121.109 47ZM126.58 48V46.75H126.898C127.159 46.75 127.377 46.6989 127.551 46.5966C127.725 46.4905 127.866 46.3068 127.972 46.0455C128.081 45.7803 128.165 45.4129 128.222 44.9432C128.282 44.4697 128.326 43.8674 128.352 43.1364L128.511 39.2727H134.33V48H132.989V40.5227H129.784L129.648 43.6364C129.617 44.3523 129.553 44.983 129.455 45.5284C129.36 46.0701 129.214 46.5246 129.017 46.892C128.824 47.2595 128.566 47.536 128.244 47.7216C127.922 47.9072 127.519 48 127.034 48H126.58ZM137.949 42.4318H140.449C141.472 42.4318 142.254 42.6913 142.795 43.2102C143.337 43.7292 143.608 44.3864 143.608 45.1818C143.608 45.7045 143.487 46.1799 143.244 46.608C143.002 47.0322 142.646 47.3712 142.176 47.625C141.706 47.875 141.131 48 140.449 48H136.79V39.2727H138.131V46.75H140.449C140.979 46.75 141.415 46.6098 141.756 46.3295C142.097 46.0492 142.267 45.6894 142.267 45.25C142.267 44.7879 142.097 44.411 141.756 44.1193C141.415 43.8277 140.979 43.6818 140.449 43.6818H137.949V42.4318ZM144.994 48V39.2727H146.335V48H144.994ZM163.29 42.1818C163.29 43.4091 163.068 44.4697 162.625 45.3636C162.182 46.2576 161.574 46.947 160.801 47.4318C160.028 47.9167 159.146 48.1591 158.153 48.1591C157.161 48.1591 156.278 47.9167 155.506 47.4318C154.733 46.947 154.125 46.2576 153.682 45.3636C153.239 44.4697 153.017 43.4091 153.017 42.1818C153.017 40.9545 153.239 39.8939 153.682 39C154.125 38.1061 154.733 37.4167 155.506 36.9318C156.278 36.447 157.161 36.2045 158.153 36.2045C159.146 36.2045 160.028 36.447 160.801 36.9318C161.574 37.4167 162.182 38.1061 162.625 39C163.068 39.8939 163.29 40.9545 163.29 42.1818ZM161.926 42.1818C161.926 41.1742 161.758 40.3239 161.42 39.6307C161.087 38.9375 160.634 38.4129 160.062 38.0568C159.494 37.7008 158.858 37.5227 158.153 37.5227C157.449 37.5227 156.811 37.7008 156.239 38.0568C155.67 38.4129 155.218 38.9375 154.881 39.6307C154.547 40.3239 154.381 41.1742 154.381 42.1818C154.381 43.1894 154.547 44.0398 154.881 44.733C155.218 45.4261 155.67 45.9508 156.239 46.3068C156.811 46.6629 157.449 46.8409 158.153 46.8409C158.858 46.8409 159.494 46.6629 160.062 46.3068C160.634 45.9508 161.087 45.4261 161.42 44.733C161.758 44.0398 161.926 43.1894 161.926 42.1818ZM165.477 51.2727V39.2727H166.773V40.6591H166.932C167.03 40.5076 167.167 40.3144 167.341 40.0795C167.519 39.8409 167.773 39.6288 168.102 39.4432C168.436 39.2538 168.886 39.1591 169.455 39.1591C170.189 39.1591 170.837 39.3428 171.398 39.7102C171.958 40.0777 172.396 40.5985 172.71 41.2727C173.025 41.947 173.182 42.7424 173.182 43.6591C173.182 44.5833 173.025 45.3845 172.71 46.0625C172.396 46.7367 171.96 47.2595 171.403 47.6307C170.847 47.9981 170.205 48.1818 169.477 48.1818C168.917 48.1818 168.468 48.089 168.131 47.9034C167.794 47.714 167.534 47.5 167.352 47.2614C167.17 47.0189 167.03 46.8182 166.932 46.6591H166.818V51.2727H165.477ZM166.795 43.6364C166.795 44.2955 166.892 44.8769 167.085 45.3807C167.278 45.8807 167.561 46.2727 167.932 46.5568C168.303 46.8371 168.758 46.9773 169.295 46.9773C169.856 46.9773 170.324 46.8295 170.699 46.5341C171.078 46.2348 171.362 45.8333 171.551 45.3295C171.744 44.822 171.841 44.2576 171.841 43.6364C171.841 43.0227 171.746 42.4697 171.557 41.9773C171.371 41.4811 171.089 41.089 170.71 40.8011C170.335 40.5095 169.864 40.3636 169.295 40.3636C168.75 40.3636 168.292 40.5019 167.92 40.7784C167.549 41.0511 167.269 41.4337 167.08 41.9261C166.89 42.4148 166.795 42.9848 166.795 43.6364ZM178.886 48.1818C178.045 48.1818 177.32 47.9962 176.71 47.625C176.104 47.25 175.636 46.7273 175.307 46.0568C174.981 45.3826 174.818 44.5985 174.818 43.7045C174.818 42.8106 174.981 42.0227 175.307 41.3409C175.636 40.6553 176.095 40.1212 176.682 39.7386C177.273 39.3523 177.962 39.1591 178.75 39.1591C179.205 39.1591 179.653 39.2348 180.097 39.3864C180.54 39.5379 180.943 39.7841 181.307 40.125C181.67 40.4621 181.96 40.9091 182.176 41.4659C182.392 42.0227 182.5 42.7083 182.5 43.5227V44.0909H175.773V42.9318H181.136C181.136 42.4394 181.038 42 180.841 41.6136C180.648 41.2273 180.371 40.9223 180.011 40.6989C179.655 40.4754 179.235 40.3636 178.75 40.3636C178.216 40.3636 177.754 40.4962 177.364 40.7614C176.977 41.0227 176.68 41.3636 176.472 41.7841C176.263 42.2045 176.159 42.6553 176.159 43.1364V43.9091C176.159 44.5682 176.273 45.1269 176.5 45.5852C176.731 46.0398 177.051 46.3864 177.46 46.625C177.869 46.8598 178.345 46.9773 178.886 46.9773C179.239 46.9773 179.557 46.928 179.841 46.8295C180.129 46.7273 180.377 46.5758 180.585 46.375C180.794 46.1705 180.955 45.9167 181.068 45.6136L182.364 45.9773C182.227 46.4167 181.998 46.803 181.676 47.1364C181.354 47.4659 180.956 47.7235 180.483 47.9091C180.009 48.0909 179.477 48.1818 178.886 48.1818ZM185.305 39.2727L187.396 42.8409L189.487 39.2727H191.033L188.214 43.6364L191.033 48H189.487L187.396 44.6136L185.305 48H183.76L186.533 43.6364L183.76 39.2727H185.305ZM201.355 48.1591C200.605 48.1591 199.937 48.0303 199.349 47.7727C198.766 47.5152 198.302 47.1572 197.957 46.6989C197.616 46.2367 197.431 45.7008 197.401 45.0909H198.832C198.863 45.4659 198.991 45.7898 199.219 46.0625C199.446 46.3314 199.743 46.5398 200.111 46.6875C200.478 46.8352 200.885 46.9091 201.332 46.9091C201.832 46.9091 202.276 46.822 202.662 46.6477C203.048 46.4735 203.351 46.2311 203.571 45.9205C203.791 45.6098 203.901 45.25 203.901 44.8409C203.901 44.4129 203.795 44.036 203.582 43.7102C203.37 43.3807 203.06 43.1231 202.651 42.9375C202.241 42.7519 201.741 42.6591 201.151 42.6591H200.219V41.4091H201.151C201.613 41.4091 202.018 41.3258 202.366 41.1591C202.719 40.9924 202.993 40.7576 203.19 40.4545C203.391 40.1515 203.491 39.7955 203.491 39.3864C203.491 38.9924 203.404 38.6496 203.23 38.358C203.056 38.0663 202.81 37.839 202.491 37.6761C202.177 37.5133 201.806 37.4318 201.378 37.4318C200.976 37.4318 200.598 37.5057 200.241 37.6534C199.889 37.7973 199.601 38.0076 199.378 38.2841C199.154 38.5568 199.033 38.8864 199.014 39.2727H197.651C197.673 38.6629 197.857 38.1288 198.202 37.6705C198.546 37.2083 198.997 36.8485 199.554 36.5909C200.115 36.3333 200.73 36.2045 201.401 36.2045C202.12 36.2045 202.738 36.3504 203.253 36.642C203.768 36.9299 204.164 37.3106 204.44 37.7841C204.717 38.2576 204.855 38.7689 204.855 39.3182C204.855 39.9735 204.683 40.5322 204.338 40.9943C203.997 41.4564 203.533 41.7765 202.946 41.9545V42.0455C203.681 42.1667 204.255 42.4792 204.668 42.983C205.08 43.483 205.287 44.1023 205.287 44.8409C205.287 45.4735 205.115 46.0417 204.77 46.5455C204.429 47.0455 203.963 47.4394 203.372 47.7273C202.781 48.0152 202.109 48.1591 201.355 48.1591ZM211.406 48.1591C210.55 48.1591 209.821 47.9261 209.219 47.4602C208.616 46.9905 208.156 46.3106 207.838 45.4205C207.52 44.5265 207.361 43.447 207.361 42.1818C207.361 40.9242 207.52 39.8504 207.838 38.9602C208.16 38.0663 208.622 37.3845 209.224 36.9148C209.83 36.4413 210.558 36.2045 211.406 36.2045C212.255 36.2045 212.98 36.4413 213.582 36.9148C214.188 37.3845 214.651 38.0663 214.969 38.9602C215.291 39.8504 215.452 40.9242 215.452 42.1818C215.452 43.447 215.293 44.5265 214.974 45.4205C214.656 46.3106 214.196 46.9905 213.594 47.4602C212.991 47.9261 212.262 48.1591 211.406 48.1591ZM211.406 46.9091C212.255 46.9091 212.914 46.5 213.384 45.6818C213.853 44.8636 214.088 43.697 214.088 42.1818C214.088 41.1742 213.98 40.3163 213.764 39.608C213.552 38.8996 213.245 38.3598 212.844 37.9886C212.446 37.6174 211.967 37.4318 211.406 37.4318C210.565 37.4318 209.908 37.8466 209.435 38.6761C208.961 39.5019 208.724 40.6705 208.724 42.1818C208.724 43.1894 208.83 44.0455 209.043 44.75C209.255 45.4545 209.56 45.9905 209.957 46.358C210.359 46.7254 210.842 46.9091 211.406 46.9091ZM222.406 46.1818L225.452 39.2727H226.724L222.952 48H221.861L218.156 39.2727H219.406L222.406 46.1818ZM218.974 39.2727V48H217.634V39.2727H218.974ZM225.838 48V39.2727H227.179V48H225.838ZM234.406 46.1818L237.452 39.2727H238.724L234.952 48H233.861L230.156 39.2727H231.406L234.406 46.1818ZM230.974 39.2727V48H229.634V39.2727H230.974ZM237.838 48V39.2727H239.179V48H237.838Z" fill="#23262F"/>
<path d="M26.1875 79L23.1875 74.9943H22.1136V79H21.0568V70.2727H22.1136V74.0568H22.5739L26.0682 70.2727H27.3295L23.8011 74.108L27.4489 79H26.1875ZM30.8569 79.1364C30.266 79.1364 29.7475 78.9957 29.3015 78.7145C28.8583 78.4332 28.5117 78.0398 28.2617 77.5341C28.0146 77.0284 27.891 76.4375 27.891 75.7614C27.891 75.0795 28.0146 74.4844 28.2617 73.9759C28.5117 73.4673 28.8583 73.0724 29.3015 72.7912C29.7475 72.5099 30.266 72.3693 30.8569 72.3693C31.4478 72.3693 31.9648 72.5099 32.408 72.7912C32.854 73.0724 33.2006 73.4673 33.4478 73.9759C33.6978 74.4844 33.8228 75.0795 33.8228 75.7614C33.8228 76.4375 33.6978 77.0284 33.4478 77.5341C33.2006 78.0398 32.854 78.4332 32.408 78.7145C31.9648 78.9957 31.4478 79.1364 30.8569 79.1364ZM30.8569 78.233C31.3058 78.233 31.6751 78.1179 31.9648 77.8878C32.2546 77.6577 32.4691 77.3551 32.6083 76.9801C32.7475 76.6051 32.8171 76.1989 32.8171 75.7614C32.8171 75.3239 32.7475 74.9162 32.6083 74.5384C32.4691 74.1605 32.2546 73.8551 31.9648 73.6222C31.6751 73.3892 31.3058 73.2727 30.8569 73.2727C30.408 73.2727 30.0387 73.3892 29.7489 73.6222C29.4592 73.8551 29.2447 74.1605 29.1055 74.5384C28.9663 74.9162 28.8967 75.3239 28.8967 75.7614C28.8967 76.1989 28.9663 76.6051 29.1055 76.9801C29.2447 77.3551 29.4592 77.6577 29.7489 77.8878C30.0387 78.1179 30.408 78.233 30.8569 78.233ZM34.6591 80.875V78.0625H35.2045C35.3381 77.9233 35.4531 77.7727 35.5497 77.6108C35.6463 77.4489 35.7301 77.2571 35.8011 77.0355C35.875 76.8111 35.9375 76.5384 35.9886 76.2173C36.0398 75.8935 36.0852 75.5028 36.125 75.0455L36.3466 72.4545H40.5057V78.0625H41.5114V80.875H40.5057V79H35.6648V80.875H34.6591ZM36.3466 78.0625H39.5V73.392H37.2841L37.1136 75.0455C37.0426 75.7301 36.9545 76.3281 36.8494 76.8395C36.7443 77.3509 36.5767 77.7585 36.3466 78.0625ZM45.8462 73.392V72.4545H51.1644V73.392H49.0167V79H48.011V73.392H45.8462ZM54.9506 79.1364C54.3597 79.1364 53.8413 78.9957 53.3952 78.7145C52.9521 78.4332 52.6055 78.0398 52.3555 77.5341C52.1083 77.0284 51.9847 76.4375 51.9847 75.7614C51.9847 75.0795 52.1083 74.4844 52.3555 73.9759C52.6055 73.4673 52.9521 73.0724 53.3952 72.7912C53.8413 72.5099 54.3597 72.3693 54.9506 72.3693C55.5415 72.3693 56.0586 72.5099 56.5018 72.7912C56.9478 73.0724 57.2944 73.4673 57.5415 73.9759C57.7915 74.4844 57.9165 75.0795 57.9165 75.7614C57.9165 76.4375 57.7915 77.0284 57.5415 77.5341C57.2944 78.0398 56.9478 78.4332 56.5018 78.7145C56.0586 78.9957 55.5415 79.1364 54.9506 79.1364ZM54.9506 78.233C55.3995 78.233 55.7688 78.1179 56.0586 77.8878C56.3484 77.6577 56.5629 77.3551 56.7021 76.9801C56.8413 76.6051 56.9109 76.1989 56.9109 75.7614C56.9109 75.3239 56.8413 74.9162 56.7021 74.5384C56.5629 74.1605 56.3484 73.8551 56.0586 73.6222C55.7688 73.3892 55.3995 73.2727 54.9506 73.2727C54.5018 73.2727 54.1325 73.3892 53.8427 73.6222C53.5529 73.8551 53.3384 74.1605 53.1992 74.5384C53.06 74.9162 52.9904 75.3239 52.9904 75.7614C52.9904 76.1989 53.06 76.6051 53.1992 76.9801C53.3384 77.3551 53.5529 77.6577 53.8427 77.8878C54.1325 78.1179 54.5018 78.233 54.9506 78.233ZM59.4517 79V72.4545H62.1278C62.8324 72.4545 63.392 72.6136 63.8068 72.9318C64.2216 73.25 64.429 73.6705 64.429 74.1932C64.429 74.5909 64.3111 74.8991 64.0753 75.1179C63.8395 75.3338 63.5369 75.4801 63.1676 75.5568C63.4091 75.5909 63.6435 75.6761 63.8707 75.8125C64.1009 75.9489 64.2912 76.1364 64.4418 76.375C64.5923 76.6108 64.6676 76.9006 64.6676 77.2443C64.6676 77.5795 64.5824 77.8793 64.4119 78.1435C64.2415 78.4077 63.9972 78.6165 63.679 78.7699C63.3608 78.9233 62.9801 79 62.5369 79H59.4517ZM60.4062 78.0795H62.5369C62.8835 78.0795 63.1548 77.9972 63.3509 77.8324C63.5469 77.6676 63.6449 77.4432 63.6449 77.1591C63.6449 76.821 63.5469 76.5554 63.3509 76.3622C63.1548 76.1662 62.8835 76.0682 62.5369 76.0682H60.4062V78.0795ZM60.4062 75.1989H62.1278C62.3977 75.1989 62.6293 75.1619 62.8224 75.0881C63.0156 75.0114 63.1634 74.9034 63.2656 74.7642C63.3707 74.6222 63.4233 74.4545 63.4233 74.2614C63.4233 73.9858 63.3082 73.7699 63.0781 73.6136C62.848 73.4545 62.5313 73.375 62.1278 73.375H60.4062V75.1989ZM68.1161 79.1534C67.7013 79.1534 67.3249 79.0753 66.9869 78.919C66.6488 78.7599 66.3803 78.5312 66.1815 78.233C65.9826 77.9318 65.8832 77.5682 65.8832 77.142C65.8832 76.767 65.957 76.4631 66.1048 76.2301C66.2525 75.9943 66.4499 75.8097 66.6971 75.6761C66.9442 75.5426 67.217 75.4432 67.5153 75.3778C67.8164 75.3097 68.119 75.2557 68.4229 75.2159C68.8207 75.1648 69.1431 75.1264 69.3903 75.1009C69.6403 75.0724 69.8221 75.0256 69.9357 74.9602C70.0522 74.8949 70.1104 74.7812 70.1104 74.6193V74.5852C70.1104 74.1648 69.9954 73.8381 69.7653 73.6051C69.538 73.3722 69.1928 73.2557 68.7298 73.2557C68.2496 73.2557 67.8732 73.3608 67.6005 73.571C67.3278 73.7812 67.136 74.0057 67.0252 74.2443L66.0707 73.9034C66.2411 73.5057 66.4684 73.196 66.7525 72.9744C67.0394 72.75 67.3519 72.5937 67.69 72.5057C68.0309 72.4148 68.3661 72.3693 68.6957 72.3693C68.9059 72.3693 69.1474 72.3949 69.4201 72.446C69.6957 72.4943 69.9613 72.5952 70.217 72.7486C70.4755 72.902 70.69 73.1335 70.8604 73.4432C71.0309 73.7528 71.1161 74.1676 71.1161 74.6875V79H70.1104V78.1136H70.0593C69.9911 78.2557 69.8775 78.4077 69.7184 78.5696C69.5593 78.7315 69.3477 78.8693 69.0835 78.983C68.8192 79.0966 68.4968 79.1534 68.1161 79.1534ZM68.2695 78.25C68.6673 78.25 69.0025 78.1719 69.2752 78.0156C69.5508 77.8594 69.7582 77.6577 69.8974 77.4105C70.0394 77.1634 70.1104 76.9034 70.1104 76.6307V75.7102C70.0678 75.7614 69.9741 75.8082 69.8292 75.8509C69.6871 75.8906 69.5224 75.9261 69.3349 75.9574C69.1502 75.9858 68.9698 76.0114 68.7937 76.0341C68.6204 76.054 68.4798 76.071 68.3718 76.0852C68.1104 76.1193 67.8661 76.1747 67.6388 76.2514C67.4144 76.3253 67.2326 76.4375 67.0934 76.5881C66.957 76.7358 66.8888 76.9375 66.8888 77.1932C66.8888 77.5426 67.0181 77.8068 67.2766 77.9858C67.538 78.1619 67.869 78.25 68.2695 78.25ZM72.9517 81.4545V72.4545H73.9233V73.4943H74.0426C74.1165 73.3807 74.2188 73.2358 74.3494 73.0597C74.483 72.8807 74.6733 72.7216 74.9205 72.5824C75.1705 72.4403 75.5085 72.3693 75.9347 72.3693C76.4858 72.3693 76.9716 72.5071 77.392 72.7827C77.8125 73.0582 78.1406 73.4489 78.3764 73.9545C78.6122 74.4602 78.7301 75.0568 78.7301 75.7443C78.7301 76.4375 78.6122 77.0384 78.3764 77.5469C78.1406 78.0526 77.8139 78.4446 77.3963 78.723C76.9787 78.9986 76.4972 79.1364 75.9517 79.1364C75.5313 79.1364 75.1946 79.0668 74.9418 78.9276C74.6889 78.7855 74.4943 78.625 74.358 78.446C74.2216 78.2642 74.1165 78.1136 74.0426 77.9943H73.9574V81.4545H72.9517ZM73.9403 75.7273C73.9403 76.2216 74.0128 76.6577 74.1577 77.0355C74.3026 77.4105 74.5142 77.7045 74.7926 77.9176C75.071 78.1278 75.4119 78.233 75.8153 78.233C76.2358 78.233 76.5866 78.1222 76.8679 77.9006C77.152 77.6761 77.3651 77.375 77.5071 76.9972C77.652 76.6165 77.7244 76.1932 77.7244 75.7273C77.7244 75.267 77.6534 74.8523 77.5114 74.483C77.3722 74.1108 77.1605 73.8168 76.8764 73.6009C76.5952 73.3821 76.2415 73.2727 75.8153 73.2727C75.4063 73.2727 75.0625 73.3764 74.7841 73.5838C74.5057 73.7884 74.2955 74.0753 74.1534 74.4446C74.0114 74.8111 73.9403 75.2386 73.9403 75.7273ZM82.1903 79.1534C81.7756 79.1534 81.3991 79.0753 81.0611 78.919C80.723 78.7599 80.4545 78.5312 80.2557 78.233C80.0568 77.9318 79.9574 77.5682 79.9574 77.142C79.9574 76.767 80.0313 76.4631 80.179 76.2301C80.3267 75.9943 80.5241 75.8097 80.7713 75.6761C81.0185 75.5426 81.2912 75.4432 81.5895 75.3778C81.8906 75.3097 82.1932 75.2557 82.4972 75.2159C82.8949 75.1648 83.2173 75.1264 83.4645 75.1009C83.7145 75.0724 83.8963 75.0256 84.0099 74.9602C84.1264 74.8949 84.1847 74.7812 84.1847 74.6193V74.5852C84.1847 74.1648 84.0696 73.8381 83.8395 73.6051C83.6122 73.3722 83.267 73.2557 82.804 73.2557C82.3239 73.2557 81.9474 73.3608 81.6747 73.571C81.402 73.7812 81.2102 74.0057 81.0994 74.2443L80.1449 73.9034C80.3153 73.5057 80.5426 73.196 80.8267 72.9744C81.1136 72.75 81.4261 72.5937 81.7642 72.5057C82.1051 72.4148 82.4403 72.3693 82.7699 72.3693C82.9801 72.3693 83.2216 72.3949 83.4943 72.446C83.7699 72.4943 84.0355 72.5952 84.2912 72.7486C84.5497 72.902 84.7642 73.1335 84.9347 73.4432C85.1051 73.7528 85.1903 74.1676 85.1903 74.6875V79H84.1847V78.1136H84.1335C84.0653 78.2557 83.9517 78.4077 83.7926 78.5696C83.6335 78.7315 83.4219 78.8693 83.1577 78.983C82.8935 79.0966 82.571 79.1534 82.1903 79.1534ZM82.3438 78.25C82.7415 78.25 83.0767 78.1719 83.3494 78.0156C83.625 77.8594 83.8324 77.6577 83.9716 77.4105C84.1136 77.1634 84.1847 76.9034 84.1847 76.6307V75.7102C84.142 75.7614 84.0483 75.8082 83.9034 75.8509C83.7614 75.8906 83.5966 75.9261 83.4091 75.9574C83.2244 75.9858 83.044 76.0114 82.8679 76.0341C82.6946 76.054 82.554 76.071 82.446 76.0852C82.1847 76.1193 81.9403 76.1747 81.7131 76.2514C81.4886 76.3253 81.3068 76.4375 81.1676 76.5881C81.0313 76.7358 80.9631 76.9375 80.9631 77.1932C80.9631 77.5426 81.0923 77.8068 81.3509 77.9858C81.6122 78.1619 81.9432 78.25 82.3438 78.25ZM87.7589 79.0682C87.5487 79.0682 87.3683 78.9929 87.2177 78.8423C87.0671 78.6918 86.9918 78.5114 86.9918 78.3011C86.9918 78.0909 87.0671 77.9105 87.2177 77.7599C87.3683 77.6094 87.5487 77.5341 87.7589 77.5341C87.9691 77.5341 88.1495 77.6094 88.3001 77.7599C88.4506 77.9105 88.5259 78.0909 88.5259 78.3011C88.5259 78.4403 88.4904 78.5682 88.4194 78.6847C88.3512 78.8011 88.2589 78.8949 88.1424 78.9659C88.0288 79.0341 87.9009 79.0682 87.7589 79.0682ZM87.7589 74.2102C87.5487 74.2102 87.3683 74.1349 87.2177 73.9844C87.0671 73.8338 86.9918 73.6534 86.9918 73.4432C86.9918 73.233 87.0671 73.0526 87.2177 72.902C87.3683 72.7514 87.5487 72.6761 87.7589 72.6761C87.9691 72.6761 88.1495 72.7514 88.3001 72.902C88.4506 73.0526 88.5259 73.233 88.5259 73.4432C88.5259 73.5824 88.4904 73.7102 88.4194 73.8267C88.3512 73.9432 88.2589 74.0369 88.1424 74.108C88.0288 74.1761 87.9009 74.2102 87.7589 74.2102Z" fill="#4F576D"/>
<path d="M221.508 70.2727V79H219.663V72.0241H219.612L217.613 73.277V71.6406L219.774 70.2727H221.508ZM226.932 79.1193C226.483 79.1165 226.05 79.0412 225.632 78.8935C225.217 78.7457 224.845 78.5057 224.516 78.1733C224.186 77.8409 223.925 77.4006 223.732 76.8523C223.541 76.304 223.446 75.6307 223.446 74.8324C223.449 74.0994 223.533 73.4446 223.697 72.8679C223.865 72.2884 224.104 71.7969 224.413 71.3935C224.726 70.9901 225.099 70.6832 225.534 70.473C225.969 70.2599 226.456 70.1534 226.996 70.1534C227.578 70.1534 228.092 70.267 228.538 70.4943C228.984 70.7187 229.342 71.0241 229.612 71.4105C229.885 71.7969 230.05 72.2301 230.107 72.7102H228.287C228.216 72.4062 228.067 72.1676 227.839 71.9943C227.612 71.821 227.331 71.7344 226.996 71.7344C226.428 71.7344 225.996 71.9815 225.7 72.4759C225.408 72.9702 225.259 73.642 225.253 74.4915H225.312C225.443 74.233 225.619 74.0128 225.841 73.831C226.065 73.6463 226.32 73.5057 226.604 73.4091C226.891 73.3097 227.193 73.2599 227.511 73.2599C228.028 73.2599 228.489 73.3821 228.892 73.6264C229.295 73.8679 229.614 74.2003 229.847 74.6236C230.08 75.0469 230.196 75.5312 230.196 76.0767C230.196 76.6676 230.058 77.1932 229.783 77.6534C229.51 78.1136 229.128 78.4744 228.636 78.7358C228.148 78.9943 227.58 79.1222 226.932 79.1193ZM226.923 77.6705C227.207 77.6705 227.462 77.6023 227.686 77.4659C227.911 77.3295 228.087 77.1449 228.214 76.9119C228.342 76.679 228.406 76.4176 228.406 76.1278C228.406 75.8381 228.342 75.5781 228.214 75.348C228.089 75.1179 227.916 74.9347 227.695 74.7983C227.473 74.6619 227.22 74.5938 226.936 74.5938C226.723 74.5938 226.526 74.6335 226.344 74.7131C226.165 74.7926 226.007 74.9034 225.871 75.0455C225.737 75.1875 225.632 75.3523 225.555 75.5398C225.479 75.7244 225.44 75.9219 225.44 76.1321C225.44 76.4134 225.504 76.6705 225.632 76.9034C225.763 77.1364 225.939 77.3224 226.161 77.4616C226.385 77.6009 226.639 77.6705 226.923 77.6705ZM234.73 79.1193C234.094 79.1193 233.527 79.0099 233.03 78.7912C232.536 78.5696 232.145 78.2656 231.858 77.8793C231.574 77.4901 231.428 77.0412 231.419 76.5327H233.277C233.288 76.7457 233.358 76.9332 233.486 77.0952C233.616 77.2543 233.79 77.3778 234.006 77.4659C234.222 77.554 234.464 77.598 234.734 77.598C235.016 77.598 235.264 77.5483 235.48 77.4489C235.696 77.3494 235.865 77.2116 235.987 77.0355C236.109 76.8594 236.17 76.6562 236.17 76.4261C236.17 76.1932 236.105 75.9872 235.974 75.8082C235.847 75.6264 235.662 75.4844 235.42 75.3821C235.182 75.2798 234.898 75.2287 234.568 75.2287H233.754V73.8736H234.568C234.847 73.8736 235.092 73.8253 235.305 73.7287C235.521 73.6321 235.689 73.4986 235.808 73.3281C235.928 73.1548 235.987 72.9531 235.987 72.723C235.987 72.5043 235.935 72.3125 235.83 72.1477C235.727 71.9801 235.582 71.8494 235.395 71.7557C235.21 71.6619 234.994 71.6151 234.747 71.6151C234.497 71.6151 234.268 71.6605 234.061 71.7514C233.854 71.8395 233.688 71.9659 233.562 72.1307C233.438 72.2955 233.371 72.4886 233.362 72.7102H231.594C231.602 72.2074 231.746 71.7642 232.024 71.3807C232.303 70.9972 232.678 70.6974 233.149 70.4815C233.624 70.2628 234.159 70.1534 234.756 70.1534C235.358 70.1534 235.885 70.2628 236.337 70.4815C236.788 70.7003 237.139 70.9957 237.389 71.3679C237.642 71.7372 237.767 72.152 237.764 72.6122C237.767 73.1009 237.615 73.5085 237.308 73.8352C237.004 74.1619 236.608 74.3693 236.119 74.4574V74.5256C236.761 74.608 237.25 74.831 237.585 75.1946C237.923 75.5554 238.091 76.0071 238.088 76.5497C238.091 77.0469 237.947 77.4886 237.658 77.875C237.371 78.2614 236.974 78.5653 236.469 78.7869C235.963 79.0085 235.384 79.1193 234.73 79.1193ZM243.211 70.2727V79H241.366V72.0241H241.315L239.316 73.277V71.6406L241.477 70.2727H243.211ZM245.631 79L249.249 71.8409V71.7812H245.034V70.2727H251.158V71.8026L247.536 79H245.631ZM255.463 70.1534C255.912 70.1534 256.343 70.2287 256.758 70.3793C257.176 70.5298 257.548 70.7699 257.875 71.0994C258.204 71.429 258.464 71.8665 258.654 72.4119C258.848 72.9545 258.946 73.6207 258.949 74.4105C258.949 75.152 258.865 75.8139 258.697 76.3963C258.532 76.9759 258.295 77.4688 257.985 77.875C257.676 78.2812 257.302 78.5909 256.865 78.804C256.427 79.0142 255.939 79.1193 255.399 79.1193C254.816 79.1193 254.302 79.0071 253.856 78.7827C253.41 78.5554 253.051 78.2472 252.778 77.858C252.508 77.4659 252.345 77.0256 252.288 76.5369H254.108C254.179 76.8551 254.328 77.1023 254.555 77.2784C254.782 77.4517 255.064 77.5384 255.399 77.5384C255.967 77.5384 256.399 77.2912 256.694 76.7969C256.99 76.2997 257.139 75.6193 257.142 74.7557H257.082C256.951 75.0114 256.775 75.2315 256.554 75.4162C256.332 75.598 256.078 75.7386 255.791 75.8381C255.507 75.9375 255.204 75.9872 254.883 75.9872C254.369 75.9872 253.91 75.8665 253.507 75.625C253.103 75.3835 252.785 75.0511 252.552 74.6278C252.319 74.2045 252.203 73.7216 252.203 73.179C252.2 72.5938 252.335 72.0724 252.608 71.6151C252.88 71.1577 253.261 70.7997 253.75 70.5412C254.241 70.2798 254.812 70.1506 255.463 70.1534ZM255.475 71.6023C255.189 71.6023 254.933 71.6705 254.708 71.8068C254.487 71.9432 254.311 72.1264 254.18 72.3565C254.052 72.5866 253.99 72.8437 253.993 73.1278C253.993 73.4148 254.055 73.6733 254.18 73.9034C254.308 74.1307 254.481 74.3125 254.7 74.4489C254.922 74.5824 255.174 74.6491 255.458 74.6491C255.672 74.6491 255.869 74.6094 256.051 74.5298C256.233 74.4503 256.39 74.3409 256.524 74.2017C256.66 74.0597 256.767 73.8963 256.843 73.7116C256.92 73.527 256.958 73.331 256.958 73.1236C256.956 72.848 256.89 72.5952 256.762 72.3651C256.635 72.1349 256.458 71.9503 256.234 71.8111C256.01 71.6719 255.757 71.6023 255.475 71.6023ZM260.227 79V77.6705L263.333 74.794C263.598 74.5384 263.819 74.3082 263.998 74.1037C264.18 73.8991 264.318 73.6989 264.412 73.5028C264.505 73.304 264.552 73.0895 264.552 72.8594C264.552 72.6037 264.494 72.3835 264.377 72.1989C264.261 72.0114 264.102 71.8679 263.9 71.7685C263.699 71.6662 263.47 71.6151 263.214 71.6151C262.947 71.6151 262.714 71.669 262.515 71.777C262.316 71.8849 262.163 72.0398 262.055 72.2415C261.947 72.4432 261.893 72.6832 261.893 72.9616H260.142C260.142 72.3906 260.271 71.8949 260.529 71.4744C260.788 71.054 261.15 70.7287 261.616 70.4986C262.082 70.2685 262.619 70.1534 263.227 70.1534C263.852 70.1534 264.396 70.2642 264.859 70.4858C265.325 70.7045 265.687 71.0085 265.946 71.3977C266.204 71.7869 266.333 72.233 266.333 72.7358C266.333 73.0653 266.268 73.3906 266.137 73.7116C266.01 74.0327 265.781 74.3892 265.451 74.7812C265.122 75.1705 264.657 75.6378 264.058 76.1832L262.784 77.4318V77.4915H266.449V79H260.227ZM270.943 70.1534C271.392 70.1534 271.824 70.2287 272.239 70.3793C272.656 70.5298 273.028 70.7699 273.355 71.0994C273.685 71.429 273.945 71.8665 274.135 72.4119C274.328 72.9545 274.426 73.6207 274.429 74.4105C274.429 75.152 274.345 75.8139 274.178 76.3963C274.013 76.9759 273.776 77.4688 273.466 77.875C273.156 78.2812 272.783 78.5909 272.345 78.804C271.908 79.0142 271.419 79.1193 270.879 79.1193C270.297 79.1193 269.783 79.0071 269.337 78.7827C268.891 78.5554 268.531 78.2472 268.259 77.858C267.989 77.4659 267.825 77.0256 267.768 76.5369H269.588C269.659 76.8551 269.808 77.1023 270.036 77.2784C270.263 77.4517 270.544 77.5384 270.879 77.5384C271.447 77.5384 271.879 77.2912 272.175 76.7969C272.47 76.2997 272.619 75.6193 272.622 74.7557H272.562C272.432 75.0114 272.256 75.2315 272.034 75.4162C271.813 75.598 271.558 75.7386 271.271 75.8381C270.987 75.9375 270.685 75.9872 270.364 75.9872C269.849 75.9872 269.391 75.8665 268.987 75.625C268.584 75.3835 268.266 75.0511 268.033 74.6278C267.8 74.2045 267.683 73.7216 267.683 73.179C267.68 72.5938 267.815 72.0724 268.088 71.6151C268.361 71.1577 268.741 70.7997 269.23 70.5412C269.722 70.2798 270.293 70.1506 270.943 70.1534ZM270.956 71.6023C270.669 71.6023 270.413 71.6705 270.189 71.8068C269.967 71.9432 269.791 72.1264 269.661 72.3565C269.533 72.5866 269.47 72.8437 269.473 73.1278C269.473 73.4148 269.536 73.6733 269.661 73.9034C269.788 74.1307 269.962 74.3125 270.18 74.4489C270.402 74.5824 270.655 74.6491 270.939 74.6491C271.152 74.6491 271.349 74.6094 271.531 74.5298C271.713 74.4503 271.871 74.3409 272.004 74.2017C272.141 74.0597 272.247 73.8963 272.324 73.7116C272.401 73.527 272.439 73.331 272.439 73.1236C272.436 72.848 272.371 72.5952 272.243 72.3651C272.115 72.1349 271.939 71.9503 271.714 71.8111C271.49 71.6719 271.237 71.6023 270.956 71.6023Z" fill="#4F576D"/>
<path d="M27.5852 100.273V109H26.5284V101.21H22.1307V109H21.0739V100.273H27.5852ZM29.5806 111.455V102.455H30.5522V103.494H30.6715C30.7454 103.381 30.8477 103.236 30.9783 103.06C31.1119 102.881 31.3022 102.722 31.5494 102.582C31.7994 102.44 32.1374 102.369 32.5636 102.369C33.1147 102.369 33.6005 102.507 34.021 102.783C34.4414 103.058 34.7695 103.449 35.0053 103.955C35.2411 104.46 35.359 105.057 35.359 105.744C35.359 106.438 35.2411 107.038 35.0053 107.547C34.7695 108.053 34.4428 108.445 34.0252 108.723C33.6076 108.999 33.1261 109.136 32.5806 109.136C32.1602 109.136 31.8235 109.067 31.5707 108.928C31.3178 108.786 31.1232 108.625 30.9869 108.446C30.8505 108.264 30.7454 108.114 30.6715 107.994H30.5863V111.455H29.5806ZM30.5692 105.727C30.5692 106.222 30.6417 106.658 30.7866 107.036C30.9315 107.411 31.1431 107.705 31.4215 107.918C31.6999 108.128 32.0408 108.233 32.4442 108.233C32.8647 108.233 33.2156 108.122 33.4968 107.901C33.7809 107.676 33.994 107.375 34.136 106.997C34.2809 106.616 34.3533 106.193 34.3533 105.727C34.3533 105.267 34.2823 104.852 34.1403 104.483C34.0011 104.111 33.7894 103.817 33.5053 103.601C33.2241 103.382 32.8704 103.273 32.4442 103.273C32.0352 103.273 31.6914 103.376 31.413 103.584C31.1346 103.788 30.9244 104.075 30.7823 104.445C30.6403 104.811 30.5692 105.239 30.5692 105.727ZM39.6374 109.136C39.0067 109.136 38.4627 108.997 38.0053 108.719C37.5508 108.438 37.1999 108.045 36.9528 107.543C36.7085 107.037 36.5863 106.449 36.5863 105.778C36.5863 105.108 36.7085 104.517 36.9528 104.006C37.1999 103.491 37.5437 103.091 37.984 102.804C38.4272 102.514 38.9442 102.369 39.5352 102.369C39.8761 102.369 40.2127 102.426 40.5451 102.54C40.8775 102.653 41.18 102.838 41.4528 103.094C41.7255 103.347 41.9428 103.682 42.1048 104.099C42.2667 104.517 42.3477 105.031 42.3477 105.642V106.068H37.3022V105.199H41.3249C41.3249 104.83 41.2511 104.5 41.1033 104.21C40.9585 103.92 40.7511 103.692 40.4812 103.524C40.2141 103.357 39.8988 103.273 39.5352 103.273C39.1346 103.273 38.788 103.372 38.4954 103.571C38.2056 103.767 37.9826 104.023 37.8263 104.338C37.6701 104.653 37.592 104.991 37.592 105.352V105.932C37.592 106.426 37.6772 106.845 37.8477 107.189C38.021 107.53 38.261 107.79 38.5678 107.969C38.8746 108.145 39.2312 108.233 39.6374 108.233C39.9016 108.233 40.1403 108.196 40.3533 108.122C40.5692 108.045 40.7553 107.932 40.9116 107.781C41.0678 107.628 41.1886 107.437 41.2738 107.21L42.2454 107.483C42.1431 107.812 41.9712 108.102 41.7298 108.352C41.4883 108.599 41.19 108.793 40.8349 108.932C40.4798 109.068 40.0806 109.136 39.6374 109.136ZM43.1786 110.875V108.062H43.7241C43.8576 107.923 43.9727 107.773 44.0692 107.611C44.1658 107.449 44.2496 107.257 44.3207 107.036C44.3945 106.811 44.457 106.538 44.5082 106.217C44.5593 105.893 44.6048 105.503 44.6445 105.045L44.8661 102.455H49.0252V108.062H50.0309V110.875H49.0252V109H44.1843V110.875H43.1786ZM44.8661 108.062H48.0195V103.392H45.8036L45.6332 105.045C45.5621 105.73 45.4741 106.328 45.369 106.839C45.2638 107.351 45.0962 107.759 44.8661 108.062ZM50.7862 109V108.062H51.0249C51.2209 108.062 51.3842 108.024 51.5149 107.947C51.6456 107.868 51.7507 107.73 51.8303 107.534C51.9126 107.335 51.9751 107.06 52.0178 106.707C52.0632 106.352 52.0959 105.901 52.1158 105.352L52.2351 102.455H56.5987V109H55.593V103.392H53.1896L53.0874 105.727C53.0646 106.264 53.0163 106.737 52.9425 107.146C52.8714 107.553 52.7621 107.893 52.6143 108.169C52.4695 108.445 52.2763 108.652 52.0348 108.791C51.7933 108.93 51.4908 109 51.1271 109H50.7862ZM61.103 109.136C60.5121 109.136 59.9936 108.996 59.5476 108.714C59.1044 108.433 58.7578 108.04 58.5078 107.534C58.2607 107.028 58.1371 106.437 58.1371 105.761C58.1371 105.08 58.2607 104.484 58.5078 103.976C58.7578 103.467 59.1044 103.072 59.5476 102.791C59.9936 102.51 60.5121 102.369 61.103 102.369C61.6939 102.369 62.2109 102.51 62.6541 102.791C63.1001 103.072 63.4467 103.467 63.6939 103.976C63.9439 104.484 64.0689 105.08 64.0689 105.761C64.0689 106.437 63.9439 107.028 63.6939 107.534C63.4467 108.04 63.1001 108.433 62.6541 108.714C62.2109 108.996 61.6939 109.136 61.103 109.136ZM61.103 108.233C61.5518 108.233 61.9212 108.118 62.2109 107.888C62.5007 107.658 62.7152 107.355 62.8544 106.98C62.9936 106.605 63.0632 106.199 63.0632 105.761C63.0632 105.324 62.9936 104.916 62.8544 104.538C62.7152 104.161 62.5007 103.855 62.2109 103.622C61.9212 103.389 61.5518 103.273 61.103 103.273C60.6541 103.273 60.2848 103.389 59.995 103.622C59.7053 103.855 59.4908 104.161 59.3516 104.538C59.2124 104.916 59.1428 105.324 59.1428 105.761C59.1428 106.199 59.2124 106.605 59.3516 106.98C59.4908 107.355 59.7053 107.658 59.995 107.888C60.2848 108.118 60.6541 108.233 61.103 108.233ZM64.9254 109L67.5845 105.676L64.9595 102.455H66.1527L68.3345 105.25H68.88V102.455H69.8857V105.25H70.4141L72.5959 102.455H73.7891L71.1811 105.676L73.8232 109H72.6129L70.397 106.188H69.8857V109H68.88V106.188H68.3686L66.1357 109H64.9254ZM77.7351 109.136C77.1044 109.136 76.5604 108.997 76.103 108.719C75.6484 108.438 75.2976 108.045 75.0504 107.543C74.8061 107.037 74.6839 106.449 74.6839 105.778C74.6839 105.108 74.8061 104.517 75.0504 104.006C75.2976 103.491 75.6413 103.091 76.0817 102.804C76.5249 102.514 77.0419 102.369 77.6328 102.369C77.9737 102.369 78.3104 102.426 78.6428 102.54C78.9751 102.653 79.2777 102.838 79.5504 103.094C79.8232 103.347 80.0405 103.682 80.2024 104.099C80.3643 104.517 80.4453 105.031 80.4453 105.642V106.068H75.3999V105.199H79.4226C79.4226 104.83 79.3487 104.5 79.201 104.21C79.0561 103.92 78.8487 103.692 78.5788 103.524C78.3118 103.357 77.9964 103.273 77.6328 103.273C77.2322 103.273 76.8857 103.372 76.593 103.571C76.3033 103.767 76.0803 104.023 75.924 104.338C75.7678 104.653 75.6896 104.991 75.6896 105.352V105.932C75.6896 106.426 75.7749 106.845 75.9453 107.189C76.1186 107.53 76.3587 107.79 76.6655 107.969C76.9723 108.145 77.3288 108.233 77.7351 108.233C77.9993 108.233 78.2379 108.196 78.451 108.122C78.6669 108.045 78.853 107.932 79.0092 107.781C79.1655 107.628 79.2862 107.437 79.3714 107.21L80.343 107.483C80.2408 107.812 80.0689 108.102 79.8274 108.352C79.5859 108.599 79.2876 108.793 78.9325 108.932C78.5774 109.068 78.1783 109.136 77.7351 109.136ZM86.3558 105.267V106.205H82.7422V105.267H86.3558ZM82.9808 102.455V109H81.9751V102.455H82.9808ZM87.1229 102.455V109H86.1172V102.455H87.1229ZM89.9652 107.517L93.1186 102.455H94.2777V109H93.272V103.938L90.1357 109H88.9595V102.455H89.9652V107.517ZM97.1254 107.517L100.279 102.455H101.438V109H100.432V103.938L97.2958 109H96.1197V102.455H97.1254V107.517ZM99.614 100.273H100.551C100.551 100.733 100.392 101.109 100.074 101.402C99.756 101.695 99.3242 101.841 98.7788 101.841C98.2418 101.841 97.8143 101.695 97.4961 101.402C97.1808 101.109 97.0231 100.733 97.0231 100.273H97.9606C97.9606 100.494 98.0217 100.689 98.1438 100.857C98.2688 101.024 98.4805 101.108 98.7788 101.108C99.0771 101.108 99.2901 101.024 99.418 100.857C99.5487 100.689 99.614 100.494 99.614 100.273ZM104.013 109.068C103.803 109.068 103.622 108.993 103.472 108.842C103.321 108.692 103.246 108.511 103.246 108.301C103.246 108.091 103.321 107.911 103.472 107.76C103.622 107.609 103.803 107.534 104.013 107.534C104.223 107.534 104.403 107.609 104.554 107.76C104.705 107.911 104.78 108.091 104.78 108.301C104.78 108.44 104.744 108.568 104.673 108.685C104.605 108.801 104.513 108.895 104.396 108.966C104.283 109.034 104.155 109.068 104.013 109.068ZM104.013 104.21C103.803 104.21 103.622 104.135 103.472 103.984C103.321 103.834 103.246 103.653 103.246 103.443C103.246 103.233 103.321 103.053 103.472 102.902C103.622 102.751 103.803 102.676 104.013 102.676C104.223 102.676 104.403 102.751 104.554 102.902C104.705 103.053 104.78 103.233 104.78 103.443C104.78 103.582 104.744 103.71 104.673 103.827C104.605 103.943 104.513 104.037 104.396 104.108C104.283 104.176 104.155 104.21 104.013 104.21Z" fill="#4F576D"/>
<path d="M235 105C235 100.029 239.029 96 244 96H271C275.971 96 280 100.029 280 105V105C280 109.971 275.971 114 271 114H244C239.029 114 235 109.971 235 105V105Z" fill="#31AA27" fill-opacity="0.2"/>
<path d="M245.979 110V108.886L249.425 105.317C249.793 104.929 250.096 104.589 250.335 104.298C250.576 104.003 250.757 103.723 250.876 103.457C250.996 103.192 251.055 102.911 251.055 102.612C251.055 102.274 250.976 101.982 250.817 101.737C250.658 101.489 250.441 101.298 250.165 101.165C249.89 101.03 249.58 100.962 249.236 100.962C248.871 100.962 248.553 101.036 248.281 101.185C248.009 101.335 247.801 101.545 247.655 101.817C247.509 102.089 247.436 102.407 247.436 102.771H245.969C245.969 102.152 246.112 101.61 246.397 101.146C246.682 100.682 247.073 100.322 247.57 100.067C248.067 99.8082 248.633 99.679 249.266 99.679C249.905 99.679 250.469 99.8066 250.956 100.062C251.446 100.314 251.829 100.658 252.104 101.096C252.379 101.53 252.517 102.021 252.517 102.567C252.517 102.945 252.446 103.315 252.303 103.676C252.164 104.037 251.92 104.44 251.572 104.884C251.224 105.325 250.741 105.86 250.121 106.49L248.097 108.608V108.683H252.681V110H245.979ZM258.11 110.139C257.427 110.139 256.817 110.022 256.281 109.786C255.747 109.551 255.324 109.224 255.013 108.807C254.705 108.386 254.539 107.899 254.516 107.345H256.077C256.097 107.647 256.198 107.909 256.38 108.131C256.566 108.349 256.808 108.518 257.106 108.638C257.404 108.757 257.736 108.817 258.1 108.817C258.501 108.817 258.856 108.747 259.164 108.608C259.476 108.469 259.719 108.275 259.895 108.026C260.071 107.774 260.158 107.484 260.158 107.156C260.158 106.815 260.071 106.515 259.895 106.256C259.723 105.995 259.469 105.789 259.134 105.64C258.803 105.491 258.402 105.416 257.931 105.416H257.071V104.163H257.931C258.309 104.163 258.64 104.095 258.925 103.96C259.214 103.824 259.439 103.635 259.602 103.393C259.764 103.147 259.845 102.861 259.845 102.533C259.845 102.218 259.774 101.944 259.631 101.712C259.492 101.477 259.293 101.293 259.035 101.161C258.78 101.028 258.478 100.962 258.13 100.962C257.799 100.962 257.489 101.023 257.2 101.146C256.915 101.265 256.683 101.437 256.504 101.663C256.325 101.885 256.229 102.152 256.216 102.463H254.729C254.746 101.913 254.908 101.429 255.217 101.011C255.528 100.594 255.939 100.267 256.45 100.032C256.96 99.7966 257.527 99.679 258.15 99.679C258.803 99.679 259.366 99.8066 259.84 100.062C260.317 100.314 260.685 100.65 260.944 101.071C261.206 101.492 261.335 101.953 261.332 102.453C261.335 103.023 261.176 103.507 260.854 103.905C260.536 104.303 260.112 104.569 259.582 104.705V104.785C260.258 104.888 260.781 105.156 261.153 105.59C261.527 106.024 261.713 106.563 261.71 107.206C261.713 107.766 261.557 108.268 261.242 108.712C260.931 109.156 260.505 109.506 259.964 109.761C259.424 110.013 258.806 110.139 258.11 110.139ZM267.452 99.8182V110H265.911V101.359H265.851L263.415 102.95V101.479L265.955 99.8182H267.452Z" fill="#31AA27"/>
<path d="M28.25 147L24.25 141.659H22.8182V147H21.4091V135.364H22.8182V140.409H23.4318L28.0909 135.364H29.7727L25.0682 140.477L29.9318 147H28.25ZM34.4759 147.182C33.688 147.182 32.9967 146.994 32.402 146.619C31.8111 146.244 31.349 145.72 31.0156 145.045C30.6861 144.371 30.5213 143.583 30.5213 142.682C30.5213 141.773 30.6861 140.979 31.0156 140.301C31.349 139.623 31.8111 139.097 32.402 138.722C32.9967 138.347 33.688 138.159 34.4759 138.159C35.2637 138.159 35.9531 138.347 36.544 138.722C37.1387 139.097 37.6009 139.623 37.9304 140.301C38.2637 140.979 38.4304 141.773 38.4304 142.682C38.4304 143.583 38.2637 144.371 37.9304 145.045C37.6009 145.72 37.1387 146.244 36.544 146.619C35.9531 146.994 35.2637 147.182 34.4759 147.182ZM34.4759 145.977C35.0743 145.977 35.5668 145.824 35.9531 145.517C36.3395 145.21 36.6255 144.807 36.8111 144.307C36.9967 143.807 37.0895 143.265 37.0895 142.682C37.0895 142.098 36.9967 141.555 36.8111 141.051C36.6255 140.547 36.3395 140.14 35.9531 139.83C35.5668 139.519 35.0743 139.364 34.4759 139.364C33.8774 139.364 33.3849 139.519 32.9986 139.83C32.6122 140.14 32.3262 140.547 32.1406 141.051C31.955 141.555 31.8622 142.098 31.8622 142.682C31.8622 143.265 31.955 143.807 32.1406 144.307C32.3262 144.807 32.6122 145.21 32.9986 145.517C33.3849 145.824 33.8774 145.977 34.4759 145.977ZM39.7045 147V145.75H40.0227C40.2841 145.75 40.5019 145.699 40.6761 145.597C40.8504 145.491 40.9905 145.307 41.0966 145.045C41.2064 144.78 41.2898 144.413 41.3466 143.943C41.4072 143.47 41.4508 142.867 41.4773 142.136L41.6364 138.273H47.4545V147H46.1136V139.523H42.9091L42.7727 142.636C42.7424 143.352 42.678 143.983 42.5795 144.528C42.4848 145.07 42.339 145.525 42.142 145.892C41.9489 146.259 41.6913 146.536 41.3693 146.722C41.0473 146.907 40.6439 147 40.1591 147H39.7045ZM51.2557 145.023L55.4602 138.273H57.0057V147H55.6648V140.25L51.483 147H49.9148V138.273H51.2557V145.023ZM66.1889 138.273V147H64.848V138.273H66.1889ZM65.6662 142.432V143.682C65.3632 143.795 65.062 143.896 64.7628 143.983C64.4635 144.066 64.1491 144.133 63.8196 144.182C63.4901 144.227 63.1283 144.25 62.7344 144.25C61.7457 144.25 60.9522 143.983 60.3537 143.449C59.759 142.915 59.4616 142.114 59.4616 141.045V138.25H60.8026V141.045C60.8026 141.492 60.8878 141.86 61.0582 142.148C61.2287 142.436 61.4598 142.65 61.7514 142.79C62.0431 142.93 62.3707 143 62.7344 143C63.3026 143 63.8158 142.949 64.2741 142.847C64.7363 142.741 65.2003 142.602 65.6662 142.432ZM72.3082 147.182C71.4673 147.182 70.742 146.996 70.1321 146.625C69.526 146.25 69.0582 145.727 68.7287 145.057C68.4029 144.383 68.2401 143.598 68.2401 142.705C68.2401 141.811 68.4029 141.023 68.7287 140.341C69.0582 139.655 69.5166 139.121 70.1037 138.739C70.6946 138.352 71.384 138.159 72.1719 138.159C72.6264 138.159 73.0753 138.235 73.5185 138.386C73.9616 138.538 74.3651 138.784 74.7287 139.125C75.0923 139.462 75.3821 139.909 75.598 140.466C75.8139 141.023 75.9219 141.708 75.9219 142.523V143.091H69.1946V141.932H74.5582C74.5582 141.439 74.4598 141 74.2628 140.614C74.0696 140.227 73.7931 139.922 73.4332 139.699C73.0772 139.475 72.6567 139.364 72.1719 139.364C71.6378 139.364 71.1757 139.496 70.7855 139.761C70.3991 140.023 70.1018 140.364 69.8935 140.784C69.6851 141.205 69.581 141.655 69.581 142.136V142.909C69.581 143.568 69.6946 144.127 69.9219 144.585C70.1529 145.04 70.473 145.386 70.8821 145.625C71.2912 145.86 71.7666 145.977 72.3082 145.977C72.6605 145.977 72.9787 145.928 73.2628 145.83C73.5507 145.727 73.7988 145.576 74.0071 145.375C74.2154 145.17 74.3764 144.917 74.4901 144.614L75.7855 144.977C75.6491 145.417 75.42 145.803 75.098 146.136C74.776 146.466 74.3783 146.723 73.9048 146.909C73.4313 147.091 72.8991 147.182 72.3082 147.182ZM81.5071 147.182C80.6889 147.182 79.9844 146.989 79.3935 146.602C78.8026 146.216 78.348 145.684 78.0298 145.006C77.7116 144.328 77.5526 143.553 77.5526 142.682C77.5526 141.795 77.7154 141.013 78.0412 140.335C78.3707 139.653 78.8291 139.121 79.4162 138.739C80.0071 138.352 80.6965 138.159 81.4844 138.159C82.098 138.159 82.651 138.273 83.1435 138.5C83.6359 138.727 84.0393 139.045 84.3537 139.455C84.6681 139.864 84.8632 140.341 84.9389 140.886H83.598C83.4957 140.489 83.2685 140.136 82.9162 139.83C82.5677 139.519 82.098 139.364 81.5071 139.364C80.9844 139.364 80.526 139.5 80.1321 139.773C79.742 140.042 79.437 140.422 79.2173 140.915C79.0014 141.403 78.8935 141.977 78.8935 142.636C78.8935 143.311 78.9995 143.898 79.2116 144.398C79.4276 144.898 79.7306 145.286 80.1207 145.562C80.5147 145.839 80.9768 145.977 81.5071 145.977C81.8556 145.977 82.1719 145.917 82.456 145.795C82.7401 145.674 82.9806 145.5 83.1776 145.273C83.3745 145.045 83.5147 144.773 83.598 144.455H84.9389C84.8632 144.97 84.6757 145.434 84.3764 145.847C84.081 146.256 83.6889 146.581 83.2003 146.824C82.7154 147.062 82.151 147.182 81.5071 147.182ZM86.2116 139.523V138.273H93.3026V139.523H90.4389V147H89.098V139.523H86.2116ZM95.2585 147V138.273H98.8267C99.7661 138.273 100.512 138.485 101.065 138.909C101.618 139.333 101.895 139.894 101.895 140.591C101.895 141.121 101.738 141.532 101.423 141.824C101.109 142.112 100.705 142.307 100.213 142.409C100.535 142.455 100.848 142.568 101.151 142.75C101.457 142.932 101.711 143.182 101.912 143.5C102.113 143.814 102.213 144.201 102.213 144.659C102.213 145.106 102.099 145.506 101.872 145.858C101.645 146.21 101.319 146.489 100.895 146.693C100.471 146.898 99.9631 147 99.3722 147H95.2585ZM96.5312 145.773H99.3722C99.8343 145.773 100.196 145.663 100.457 145.443C100.719 145.223 100.849 144.924 100.849 144.545C100.849 144.095 100.719 143.741 100.457 143.483C100.196 143.222 99.8343 143.091 99.3722 143.091H96.5312V145.773ZM96.5312 141.932H98.8267C99.1866 141.932 99.4953 141.883 99.7528 141.784C100.01 141.682 100.207 141.538 100.344 141.352C100.484 141.163 100.554 140.939 100.554 140.682C100.554 140.314 100.401 140.027 100.094 139.818C99.7869 139.606 99.3646 139.5 98.8267 139.5H96.5312V141.932ZM107.788 147.182C107 147.182 106.309 146.994 105.714 146.619C105.124 146.244 104.661 145.72 104.328 145.045C103.999 144.371 103.834 143.583 103.834 142.682C103.834 141.773 103.999 140.979 104.328 140.301C104.661 139.623 105.124 139.097 105.714 138.722C106.309 138.347 107 138.159 107.788 138.159C108.576 138.159 109.266 138.347 109.857 138.722C110.451 139.097 110.913 139.623 111.243 140.301C111.576 140.979 111.743 141.773 111.743 142.682C111.743 143.583 111.576 144.371 111.243 145.045C110.913 145.72 110.451 146.244 109.857 146.619C109.266 146.994 108.576 147.182 107.788 147.182ZM107.788 145.977C108.387 145.977 108.879 145.824 109.266 145.517C109.652 145.21 109.938 144.807 110.124 144.307C110.309 143.807 110.402 143.265 110.402 142.682C110.402 142.098 110.309 141.555 110.124 141.051C109.938 140.547 109.652 140.14 109.266 139.83C108.879 139.519 108.387 139.364 107.788 139.364C107.19 139.364 106.697 139.519 106.311 139.83C105.925 140.14 105.639 140.547 105.453 141.051C105.268 141.555 105.175 142.098 105.175 142.682C105.175 143.265 105.268 143.807 105.453 144.307C105.639 144.807 105.925 145.21 106.311 145.517C106.697 145.824 107.19 145.977 107.788 145.977ZM114.767 147.091C114.487 147.091 114.246 146.991 114.045 146.79C113.845 146.589 113.744 146.348 113.744 146.068C113.744 145.788 113.845 145.547 114.045 145.347C114.246 145.146 114.487 145.045 114.767 145.045C115.047 145.045 115.288 145.146 115.489 145.347C115.689 145.547 115.79 145.788 115.79 146.068C115.79 146.254 115.742 146.424 115.648 146.58C115.557 146.735 115.434 146.86 115.278 146.955C115.127 147.045 114.956 147.091 114.767 147.091ZM114.767 140.614C114.487 140.614 114.246 140.513 114.045 140.312C113.845 140.112 113.744 139.871 113.744 139.591C113.744 139.311 113.845 139.07 114.045 138.869C114.246 138.669 114.487 138.568 114.767 138.568C115.047 138.568 115.288 138.669 115.489 138.869C115.689 139.07 115.79 139.311 115.79 139.591C115.79 139.777 115.742 139.947 115.648 140.102C115.557 140.258 115.434 140.383 115.278 140.477C115.127 140.568 114.956 140.614 114.767 140.614Z" fill="#23262F"/>
<path d="M176.167 141H187.833" stroke="#23262F" stroke-width="2" stroke-linecap="round" stroke-linejoin="round"/>
<path d="M222.733 135.364V147H221.324V136.841H221.256L218.415 138.727V137.295L221.324 135.364H222.733ZM226.08 147V145.977L229.92 141.773C230.371 141.28 230.742 140.852 231.034 140.489C231.326 140.121 231.542 139.777 231.682 139.455C231.826 139.129 231.898 138.788 231.898 138.432C231.898 138.023 231.799 137.669 231.602 137.369C231.409 137.07 231.144 136.839 230.807 136.676C230.47 136.513 230.091 136.432 229.67 136.432C229.223 136.432 228.833 136.525 228.5 136.71C228.17 136.892 227.915 137.148 227.733 137.477C227.555 137.807 227.466 138.193 227.466 138.636H226.125C226.125 137.955 226.282 137.356 226.597 136.841C226.911 136.326 227.339 135.924 227.881 135.636C228.426 135.348 229.038 135.205 229.716 135.205C230.398 135.205 231.002 135.348 231.528 135.636C232.055 135.924 232.468 136.312 232.767 136.801C233.066 137.29 233.216 137.833 233.216 138.432C233.216 138.86 233.138 139.278 232.983 139.688C232.831 140.093 232.566 140.545 232.188 141.045C231.812 141.542 231.292 142.148 230.625 142.864L228.011 145.659V145.75H233.42V147H226.08Z" fill="#23262F"/>
<path d="M270 135.167V146.833" stroke="#23262F" stroke-width="2" stroke-linecap="round" stroke-linejoin="round"/>
<path d="M264.167 141H275.833" stroke="#23262F" stroke-width="2" stroke-linecap="round" stroke-linejoin="round"/>
<path d="M21.4091 180.364H22.7955V189.523H22.9091L29.2727 180.364H30.6364V192H29.2273V182.864H29.1136L22.7727 192H21.4091V180.364ZM32.7287 189.773H34.1605C34.1908 190.167 34.3688 190.466 34.6946 190.67C35.0241 190.875 35.4522 190.977 35.9787 190.977C36.5166 190.977 36.9768 190.867 37.3594 190.648C37.742 190.424 37.9332 190.064 37.9332 189.568C37.9332 189.277 37.8613 189.023 37.7173 188.807C37.5734 188.587 37.3707 188.417 37.1094 188.295C36.848 188.174 36.5393 188.114 36.1832 188.114H34.6832V186.909H36.1832C36.7173 186.909 37.1113 186.788 37.3651 186.545C37.6226 186.303 37.7514 186 37.7514 185.636C37.7514 185.246 37.6132 184.934 37.3366 184.699C37.0601 184.46 36.6681 184.341 36.1605 184.341C35.6491 184.341 35.223 184.456 34.8821 184.688C34.5412 184.915 34.3613 185.208 34.3423 185.568H32.9332C32.9484 185.098 33.0923 184.684 33.3651 184.324C33.6378 183.96 34.009 183.676 34.4787 183.472C34.9484 183.263 35.4863 183.159 36.0923 183.159C36.706 183.159 37.2382 183.267 37.6889 183.483C38.1435 183.695 38.4938 183.985 38.7401 184.352C38.9901 184.716 39.1151 185.129 39.1151 185.591C39.1151 186.083 38.9768 186.481 38.7003 186.784C38.4238 187.087 38.0772 187.303 37.6605 187.432V187.523C37.9901 187.545 38.276 187.652 38.5185 187.841C38.7647 188.027 38.956 188.271 39.0923 188.574C39.2287 188.873 39.2969 189.205 39.2969 189.568C39.2969 190.098 39.1548 190.561 38.8707 190.955C38.5866 191.345 38.1965 191.648 37.7003 191.864C37.2041 192.076 36.6378 192.182 36.0014 192.182C35.384 192.182 34.831 192.081 34.3423 191.881C33.8537 191.676 33.4654 191.394 33.1776 191.034C32.8935 190.67 32.7438 190.25 32.7287 189.773ZM45.9531 190.182L48.9986 183.273H50.2713L46.4986 192H45.4077L41.7031 183.273H42.9531L45.9531 190.182ZM42.5213 183.273V192H41.1804V183.273H42.5213ZM49.3849 192V183.273H50.7259V192H49.3849ZM56.8395 192.182C55.9986 192.182 55.2732 191.996 54.6634 191.625C54.0573 191.25 53.5895 190.727 53.2599 190.057C52.9342 189.383 52.7713 188.598 52.7713 187.705C52.7713 186.811 52.9342 186.023 53.2599 185.341C53.5895 184.655 54.0478 184.121 54.6349 183.739C55.2259 183.352 55.9152 183.159 56.7031 183.159C57.1577 183.159 57.6065 183.235 58.0497 183.386C58.4929 183.538 58.8963 183.784 59.2599 184.125C59.6236 184.462 59.9134 184.909 60.1293 185.466C60.3452 186.023 60.4531 186.708 60.4531 187.523V188.091H53.7259V186.932H59.0895C59.0895 186.439 58.991 186 58.794 185.614C58.6009 185.227 58.3243 184.922 57.9645 184.699C57.6084 184.475 57.188 184.364 56.7031 184.364C56.169 184.364 55.7069 184.496 55.3168 184.761C54.9304 185.023 54.633 185.364 54.4247 185.784C54.2164 186.205 54.1122 186.655 54.1122 187.136V187.909C54.1122 188.568 54.2259 189.127 54.4531 189.585C54.6842 190.04 55.0043 190.386 55.4134 190.625C55.8224 190.86 56.2978 190.977 56.8395 190.977C57.1918 190.977 57.5099 190.928 57.794 190.83C58.0819 190.727 58.33 190.576 58.5384 190.375C58.7467 190.17 58.9077 189.917 59.0213 189.614L60.3168 189.977C60.1804 190.417 59.9512 190.803 59.6293 191.136C59.3073 191.466 58.9096 191.723 58.4361 191.909C57.9626 192.091 57.4304 192.182 56.8395 192.182ZM62.4929 195.273V183.273H63.7884V184.659H63.9474C64.0459 184.508 64.1823 184.314 64.3565 184.08C64.5346 183.841 64.7884 183.629 65.1179 183.443C65.4512 183.254 65.902 183.159 66.4702 183.159C67.205 183.159 67.8527 183.343 68.4134 183.71C68.974 184.078 69.4115 184.598 69.7259 185.273C70.0402 185.947 70.1974 186.742 70.1974 187.659C70.1974 188.583 70.0402 189.384 69.7259 190.062C69.4115 190.737 68.9759 191.259 68.419 191.631C67.8622 191.998 67.2202 192.182 66.4929 192.182C65.9323 192.182 65.4834 192.089 65.1463 191.903C64.8092 191.714 64.5497 191.5 64.3679 191.261C64.1861 191.019 64.0459 190.818 63.9474 190.659H63.8338V195.273H62.4929ZM63.8111 187.636C63.8111 188.295 63.9077 188.877 64.1009 189.381C64.294 189.881 64.5762 190.273 64.9474 190.557C65.3187 190.837 65.7732 190.977 66.3111 190.977C66.8717 190.977 67.3395 190.83 67.7145 190.534C68.0933 190.235 68.3774 189.833 68.5668 189.33C68.7599 188.822 68.8565 188.258 68.8565 187.636C68.8565 187.023 68.7618 186.47 68.5724 185.977C68.3868 185.481 68.1046 185.089 67.7259 184.801C67.3509 184.509 66.8793 184.364 66.3111 184.364C65.7656 184.364 65.3073 184.502 64.9361 184.778C64.5649 185.051 64.2846 185.434 64.0952 185.926C63.9058 186.415 63.8111 186.985 63.8111 187.636ZM75.902 192.182C75.0611 192.182 74.3357 191.996 73.7259 191.625C73.1198 191.25 72.652 190.727 72.3224 190.057C71.9967 189.383 71.8338 188.598 71.8338 187.705C71.8338 186.811 71.9967 186.023 72.3224 185.341C72.652 184.655 73.1103 184.121 73.6974 183.739C74.2884 183.352 74.9777 183.159 75.7656 183.159C76.2202 183.159 76.669 183.235 77.1122 183.386C77.5554 183.538 77.9588 183.784 78.3224 184.125C78.6861 184.462 78.9759 184.909 79.1918 185.466C79.4077 186.023 79.5156 186.708 79.5156 187.523V188.091H72.7884V186.932H78.152C78.152 186.439 78.0535 186 77.8565 185.614C77.6634 185.227 77.3868 184.922 77.027 184.699C76.6709 184.475 76.2505 184.364 75.7656 184.364C75.2315 184.364 74.7694 184.496 74.3793 184.761C73.9929 185.023 73.6955 185.364 73.4872 185.784C73.2789 186.205 73.1747 186.655 73.1747 187.136V187.909C73.1747 188.568 73.2884 189.127 73.5156 189.585C73.7467 190.04 74.0668 190.386 74.4759 190.625C74.8849 190.86 75.3603 190.977 75.902 190.977C76.2543 190.977 76.5724 190.928 76.8565 190.83C77.1444 190.727 77.3925 190.576 77.6009 190.375C77.8092 190.17 77.9702 189.917 78.0838 189.614L79.3793 189.977C79.2429 190.417 79.0137 190.803 78.6918 191.136C78.3698 191.466 77.9721 191.723 77.4986 191.909C77.0251 192.091 76.4929 192.182 75.902 192.182ZM87.3963 187.023V188.273H82.5781V187.023H87.3963ZM82.8963 183.273V192H81.5554V183.273H82.8963ZM88.419 183.273V192H87.0781V183.273H88.419ZM92.2088 190.023L96.4134 183.273H97.9588V192H96.6179V185.25L92.4361 192H90.8679V183.273H92.2088V190.023ZM104.074 192.182C103.233 192.182 102.508 191.996 101.898 191.625C101.292 191.25 100.824 190.727 100.494 190.057C100.169 189.383 100.006 188.598 100.006 187.705C100.006 186.811 100.169 186.023 100.494 185.341C100.824 184.655 101.282 184.121 101.869 183.739C102.46 183.352 103.15 183.159 103.938 183.159C104.392 183.159 104.841 183.235 105.284 183.386C105.727 183.538 106.131 183.784 106.494 184.125C106.858 184.462 107.148 184.909 107.364 185.466C107.58 186.023 107.688 186.708 107.688 187.523V188.091H100.96V186.932H106.324C106.324 186.439 106.225 186 106.028 185.614C105.835 185.227 105.559 184.922 105.199 184.699C104.843 184.475 104.422 184.364 103.938 184.364C103.403 184.364 102.941 184.496 102.551 184.761C102.165 185.023 101.867 185.364 101.659 185.784C101.451 186.205 101.347 186.655 101.347 187.136V187.909C101.347 188.568 101.46 189.127 101.688 189.585C101.919 190.04 102.239 190.386 102.648 190.625C103.057 190.86 103.532 190.977 104.074 190.977C104.426 190.977 104.744 190.928 105.028 190.83C105.316 190.727 105.564 190.576 105.773 190.375C105.981 190.17 106.142 189.917 106.256 189.614L107.551 189.977C107.415 190.417 107.186 190.803 106.864 191.136C106.542 191.466 106.144 191.723 105.67 191.909C105.197 192.091 104.665 192.182 104.074 192.182ZM110.705 192.091C110.424 192.091 110.184 191.991 109.983 191.79C109.782 191.589 109.682 191.348 109.682 191.068C109.682 190.788 109.782 190.547 109.983 190.347C110.184 190.146 110.424 190.045 110.705 190.045C110.985 190.045 111.225 190.146 111.426 190.347C111.627 190.547 111.727 190.788 111.727 191.068C111.727 191.254 111.68 191.424 111.585 191.58C111.494 191.735 111.371 191.86 111.216 191.955C111.064 192.045 110.894 192.091 110.705 192.091ZM110.705 185.614C110.424 185.614 110.184 185.513 109.983 185.312C109.782 185.112 109.682 184.871 109.682 184.591C109.682 184.311 109.782 184.07 109.983 183.869C110.184 183.669 110.424 183.568 110.705 183.568C110.985 183.568 111.225 183.669 111.426 183.869C111.627 184.07 111.727 184.311 111.727 184.591C111.727 184.777 111.68 184.947 111.585 185.102C111.494 185.258 111.371 185.383 111.216 185.477C111.064 185.568 110.894 185.614 110.705 185.614Z" fill="#23262F"/>
<path d="M190 176C190 171.582 193.582 168 198 168H272C276.418 168 280 171.582 280 176V196C280 200.418 276.418 204 272 204H198C193.582 204 190 200.418 190 196V176Z" fill="#F7FAFC"/>
<path d="M207.129 183.364H208.302V189.906H211.185V183.364H212.359V189.906H215.242V183.364H216.415V191H207.129V183.364ZM217.519 184.457V183.364H223.724V184.457H221.218V191H220.045V184.457H217.519ZM225.019 191.08C224.774 191.08 224.563 190.992 224.387 190.816C224.212 190.64 224.124 190.43 224.124 190.185C224.124 189.939 224.212 189.729 224.387 189.553C224.563 189.378 224.774 189.29 225.019 189.29C225.264 189.29 225.475 189.378 225.65 189.553C225.826 189.729 225.914 189.939 225.914 190.185C225.914 190.347 225.872 190.496 225.789 190.632C225.71 190.768 225.602 190.877 225.466 190.96C225.334 191.04 225.185 191.08 225.019 191.08Z" fill="#23262F"/>
<path d="M257.667 184L253.825 188.287C253.371 188.793 252.629 188.793 252.175 188.287L248.333 184" stroke="#23262F" stroke-miterlimit="10" stroke-linecap="round" stroke-linejoin="round"/>
<rect x="280" y="219" width="1" height="260" transform="rotate(90 280 219)" fill="#23262F" fill-opacity="0.2"/>
<g clip-path="url(#clip0_119_2530)">
<path d="M41 242L32.6 250.4L29.4 245.6L23 252" stroke="#31AA27" stroke-width="1.5" stroke-linecap="round" stroke-linejoin="round"/>
<path d="M37 242H41V246" stroke="#31AA27" stroke-width="1.5" stroke-linecap="round" stroke-linejoin="round"/>
<path d="M59.1364 253.159C58.3864 253.159 57.7178 253.03 57.1307 252.773C56.5473 252.515 56.0833 252.157 55.7386 251.699C55.3977 251.237 55.2121 250.701 55.1818 250.091H56.6136C56.6439 250.466 56.7727 250.79 57 251.062C57.2273 251.331 57.5246 251.54 57.892 251.688C58.2595 251.835 58.6667 251.909 59.1136 251.909C59.6136 251.909 60.0568 251.822 60.4432 251.648C60.8295 251.473 61.1326 251.231 61.3523 250.92C61.572 250.61 61.6818 250.25 61.6818 249.841C61.6818 249.413 61.5758 249.036 61.3636 248.71C61.1515 248.381 60.8409 248.123 60.4318 247.938C60.0227 247.752 59.5227 247.659 58.9318 247.659H58V246.409H58.9318C59.3939 246.409 59.7992 246.326 60.1477 246.159C60.5 245.992 60.7746 245.758 60.9716 245.455C61.1723 245.152 61.2727 244.795 61.2727 244.386C61.2727 243.992 61.1856 243.65 61.0114 243.358C60.8371 243.066 60.5909 242.839 60.2727 242.676C59.9583 242.513 59.5871 242.432 59.1591 242.432C58.7576 242.432 58.3788 242.506 58.0227 242.653C57.6705 242.797 57.3826 243.008 57.1591 243.284C56.9356 243.557 56.8144 243.886 56.7955 244.273H55.4318C55.4545 243.663 55.6383 243.129 55.983 242.67C56.3277 242.208 56.7784 241.848 57.3352 241.591C57.8958 241.333 58.5114 241.205 59.1818 241.205C59.9015 241.205 60.5189 241.35 61.0341 241.642C61.5492 241.93 61.9451 242.311 62.2216 242.784C62.4981 243.258 62.6364 243.769 62.6364 244.318C62.6364 244.973 62.464 245.532 62.1193 245.994C61.7784 246.456 61.3144 246.777 60.7273 246.955V247.045C61.4621 247.167 62.036 247.479 62.4489 247.983C62.8617 248.483 63.0682 249.102 63.0682 249.841C63.0682 250.473 62.8958 251.042 62.5511 251.545C62.2102 252.045 61.7443 252.439 61.1534 252.727C60.5625 253.015 59.8902 253.159 59.1364 253.159ZM65.392 253V251.977L69.233 247.773C69.6837 247.28 70.0549 246.852 70.3466 246.489C70.6383 246.121 70.8542 245.777 70.9943 245.455C71.1383 245.129 71.2102 244.788 71.2102 244.432C71.2102 244.023 71.1117 243.669 70.9148 243.369C70.7216 243.07 70.4564 242.839 70.1193 242.676C69.7822 242.513 69.4034 242.432 68.983 242.432C68.536 242.432 68.1458 242.525 67.8125 242.71C67.483 242.892 67.2273 243.148 67.0455 243.477C66.8674 243.807 66.7784 244.193 66.7784 244.636H65.4375C65.4375 243.955 65.5947 243.356 65.9091 242.841C66.2235 242.326 66.6515 241.924 67.1932 241.636C67.7386 241.348 68.3504 241.205 69.0284 241.205C69.7102 241.205 70.3144 241.348 70.8409 241.636C71.3674 241.924 71.7803 242.312 72.0795 242.801C72.3788 243.29 72.5284 243.833 72.5284 244.432C72.5284 244.86 72.4508 245.278 72.2955 245.688C72.1439 246.093 71.8788 246.545 71.5 247.045C71.125 247.542 70.6042 248.148 69.9375 248.864L67.3239 251.659V251.75H72.733V253H65.392ZM78.9432 253.159C78.4659 253.152 77.9886 253.061 77.5114 252.886C77.0341 252.712 76.5985 252.419 76.2045 252.006C75.8106 251.589 75.4943 251.027 75.2557 250.318C75.017 249.606 74.8977 248.712 74.8977 247.636C74.8977 246.606 74.9943 245.693 75.1875 244.898C75.3807 244.098 75.661 243.426 76.0284 242.881C76.3958 242.331 76.839 241.915 77.358 241.631C77.8807 241.347 78.4697 241.205 79.125 241.205C79.7765 241.205 80.3561 241.335 80.8636 241.597C81.375 241.854 81.7917 242.214 82.1136 242.676C82.4356 243.138 82.6439 243.67 82.7386 244.273H81.3523C81.2235 243.75 80.9735 243.316 80.6023 242.972C80.2311 242.627 79.7386 242.455 79.125 242.455C78.2235 242.455 77.5133 242.847 76.9943 243.631C76.4792 244.415 76.2197 245.515 76.2159 246.932H76.3068C76.5189 246.61 76.7708 246.335 77.0625 246.108C77.358 245.877 77.6837 245.699 78.0398 245.574C78.3958 245.449 78.7727 245.386 79.1705 245.386C79.8371 245.386 80.447 245.553 81 245.886C81.553 246.216 81.9962 246.672 82.3295 247.256C82.6629 247.835 82.8295 248.5 82.8295 249.25C82.8295 249.97 82.6686 250.629 82.3466 251.227C82.0246 251.822 81.572 252.295 80.9886 252.648C80.4091 252.996 79.7273 253.167 78.9432 253.159ZM78.9432 251.909C79.4205 251.909 79.8485 251.79 80.2273 251.551C80.6098 251.312 80.911 250.992 81.1307 250.591C81.3542 250.189 81.4659 249.742 81.4659 249.25C81.4659 248.769 81.358 248.331 81.142 247.938C80.9299 247.54 80.6364 247.223 80.2614 246.989C79.8902 246.754 79.4659 246.636 78.9886 246.636C78.6288 246.636 78.2936 246.708 77.983 246.852C77.6723 246.992 77.3996 247.186 77.1648 247.432C76.9337 247.678 76.7519 247.96 76.6193 248.278C76.4867 248.593 76.4205 248.924 76.4205 249.273C76.4205 249.735 76.5284 250.167 76.7443 250.568C76.964 250.97 77.2633 251.294 77.642 251.54C78.0246 251.786 78.4583 251.909 78.9432 251.909ZM85.517 253.091C85.2367 253.091 84.9962 252.991 84.7955 252.79C84.5947 252.589 84.4943 252.348 84.4943 252.068C84.4943 251.788 84.5947 251.547 84.7955 251.347C84.9962 251.146 85.2367 251.045 85.517 251.045C85.7973 251.045 86.0379 251.146 86.2386 251.347C86.4394 251.547 86.5398 251.788 86.5398 252.068C86.5398 252.254 86.4924 252.424 86.3977 252.58C86.3068 252.735 86.1837 252.86 86.0284 252.955C85.8769 253.045 85.7064 253.091 85.517 253.091ZM89.0526 253L94.2571 242.705V242.614H88.2571V241.364H95.7116V242.682L90.5298 253H89.0526ZM101.322 253.159C100.542 253.159 99.8527 253.021 99.2543 252.744C98.6596 252.464 98.1955 252.08 97.8622 251.591C97.5289 251.098 97.3641 250.538 97.3679 249.909C97.3641 249.417 97.4607 248.962 97.6577 248.545C97.8546 248.125 98.1236 247.775 98.4645 247.494C98.8092 247.21 99.1937 247.03 99.6179 246.955V246.886C99.0611 246.742 98.6179 246.43 98.2884 245.949C97.9588 245.464 97.7959 244.913 97.7997 244.295C97.7959 243.705 97.9455 243.176 98.2486 242.71C98.5516 242.244 98.9683 241.877 99.4986 241.608C100.033 241.339 100.641 241.205 101.322 241.205C101.997 241.205 102.599 241.339 103.129 241.608C103.66 241.877 104.076 242.244 104.379 242.71C104.686 243.176 104.841 243.705 104.845 244.295C104.841 244.913 104.673 245.464 104.339 245.949C104.01 246.43 103.572 246.742 103.027 246.886V246.955C103.447 247.03 103.826 247.21 104.163 247.494C104.5 247.775 104.769 248.125 104.97 248.545C105.171 248.962 105.273 249.417 105.277 249.909C105.273 250.538 105.103 251.098 104.766 251.591C104.432 252.08 103.968 252.464 103.374 252.744C102.783 253.021 102.099 253.159 101.322 253.159ZM101.322 251.909C101.849 251.909 102.304 251.824 102.686 251.653C103.069 251.483 103.364 251.242 103.572 250.932C103.781 250.621 103.887 250.258 103.891 249.841C103.887 249.402 103.773 249.013 103.55 248.676C103.326 248.339 103.021 248.074 102.635 247.881C102.252 247.687 101.815 247.591 101.322 247.591C100.826 247.591 100.383 247.687 99.9929 247.881C99.6065 248.074 99.3016 248.339 99.0781 248.676C98.8584 249.013 98.7505 249.402 98.7543 249.841C98.7505 250.258 98.8509 250.621 99.0554 250.932C99.2637 251.242 99.5611 251.483 99.9474 251.653C100.334 251.824 100.792 251.909 101.322 251.909ZM101.322 246.386C101.739 246.386 102.108 246.303 102.43 246.136C102.756 245.97 103.012 245.737 103.197 245.438C103.383 245.138 103.478 244.788 103.482 244.386C103.478 243.992 103.385 243.65 103.203 243.358C103.021 243.062 102.769 242.835 102.447 242.676C102.125 242.513 101.75 242.432 101.322 242.432C100.887 242.432 100.506 242.513 100.18 242.676C99.8546 242.835 99.6027 243.062 99.4247 243.358C99.2467 243.65 99.1596 243.992 99.1634 244.386C99.1596 244.788 99.2486 245.138 99.4304 245.438C99.616 245.737 99.8717 245.97 100.197 246.136C100.523 246.303 100.898 246.386 101.322 246.386ZM117.25 248.273H111.341V247.023H117.25C117.795 247.023 118.246 246.928 118.602 246.739C118.958 246.545 119.223 246.284 119.398 245.955C119.572 245.621 119.659 245.242 119.659 244.818C119.659 244.394 119.572 244.017 119.398 243.688C119.223 243.354 118.958 243.093 118.602 242.903C118.246 242.71 117.795 242.614 117.25 242.614H114.591V253H113.182V241.364H117.25C118.114 241.364 118.826 241.521 119.386 241.835C119.947 242.15 120.364 242.568 120.636 243.091C120.909 243.614 121.045 244.189 121.045 244.818C121.045 245.447 120.909 246.023 120.636 246.545C120.364 247.068 119.947 247.487 119.386 247.801C118.826 248.116 118.114 248.273 117.25 248.273ZM117.159 249.364V250.614H111.341V249.364H117.159Z" fill="#23262F"/>
<path d="M158 242L149.6 250.4L146.4 245.6L140 252" stroke="#31AA27" stroke-width="1.5" stroke-linecap="round" stroke-linejoin="round"/>
<path d="M154 242H158V246" stroke="#31AA27" stroke-width="1.5" stroke-linecap="round" stroke-linejoin="round"/>
<path d="M172.205 253V251.977L176.045 247.773C176.496 247.28 176.867 246.852 177.159 246.489C177.451 246.121 177.667 245.777 177.807 245.455C177.951 245.129 178.023 244.788 178.023 244.432C178.023 244.023 177.924 243.669 177.727 243.369C177.534 243.07 177.269 242.839 176.932 242.676C176.595 242.513 176.216 242.432 175.795 242.432C175.348 242.432 174.958 242.525 174.625 242.71C174.295 242.892 174.04 243.148 173.858 243.477C173.68 243.807 173.591 244.193 173.591 244.636H172.25C172.25 243.955 172.407 243.356 172.722 242.841C173.036 242.326 173.464 241.924 174.006 241.636C174.551 241.348 175.163 241.205 175.841 241.205C176.523 241.205 177.127 241.348 177.653 241.636C178.18 241.924 178.593 242.312 178.892 242.801C179.191 243.29 179.341 243.833 179.341 244.432C179.341 244.86 179.263 245.278 179.108 245.688C178.956 246.093 178.691 246.545 178.312 247.045C177.938 247.542 177.417 248.148 176.75 248.864L174.136 251.659V251.75H179.545V253H172.205ZM181.892 253V251.977L185.733 247.773C186.184 247.28 186.555 246.852 186.847 246.489C187.138 246.121 187.354 245.777 187.494 245.455C187.638 245.129 187.71 244.788 187.71 244.432C187.71 244.023 187.612 243.669 187.415 243.369C187.222 243.07 186.956 242.839 186.619 242.676C186.282 242.513 185.903 242.432 185.483 242.432C185.036 242.432 184.646 242.525 184.312 242.71C183.983 242.892 183.727 243.148 183.545 243.477C183.367 243.807 183.278 244.193 183.278 244.636H181.938C181.938 243.955 182.095 243.356 182.409 242.841C182.723 242.326 183.152 241.924 183.693 241.636C184.239 241.348 184.85 241.205 185.528 241.205C186.21 241.205 186.814 241.348 187.341 241.636C187.867 241.924 188.28 242.312 188.58 242.801C188.879 243.29 189.028 243.833 189.028 244.432C189.028 244.86 188.951 245.278 188.795 245.688C188.644 246.093 188.379 246.545 188 247.045C187.625 247.542 187.104 248.148 186.438 248.864L183.824 251.659V251.75H189.233V253H181.892ZM195.443 253.159C194.966 253.152 194.489 253.061 194.011 252.886C193.534 252.712 193.098 252.419 192.705 252.006C192.311 251.589 191.994 251.027 191.756 250.318C191.517 249.606 191.398 248.712 191.398 247.636C191.398 246.606 191.494 245.693 191.688 244.898C191.881 244.098 192.161 243.426 192.528 242.881C192.896 242.331 193.339 241.915 193.858 241.631C194.381 241.347 194.97 241.205 195.625 241.205C196.277 241.205 196.856 241.335 197.364 241.597C197.875 241.854 198.292 242.214 198.614 242.676C198.936 243.138 199.144 243.67 199.239 244.273H197.852C197.723 243.75 197.473 243.316 197.102 242.972C196.731 242.627 196.239 242.455 195.625 242.455C194.723 242.455 194.013 242.847 193.494 243.631C192.979 244.415 192.72 245.515 192.716 246.932H192.807C193.019 246.61 193.271 246.335 193.562 246.108C193.858 245.877 194.184 245.699 194.54 245.574C194.896 245.449 195.273 245.386 195.67 245.386C196.337 245.386 196.947 245.553 197.5 245.886C198.053 246.216 198.496 246.672 198.83 247.256C199.163 247.835 199.33 248.5 199.33 249.25C199.33 249.97 199.169 250.629 198.847 251.227C198.525 251.822 198.072 252.295 197.489 252.648C196.909 252.996 196.227 253.167 195.443 253.159ZM195.443 251.909C195.92 251.909 196.348 251.79 196.727 251.551C197.11 251.312 197.411 250.992 197.631 250.591C197.854 250.189 197.966 249.742 197.966 249.25C197.966 248.769 197.858 248.331 197.642 247.938C197.43 247.54 197.136 247.223 196.761 246.989C196.39 246.754 195.966 246.636 195.489 246.636C195.129 246.636 194.794 246.708 194.483 246.852C194.172 246.992 193.9 247.186 193.665 247.432C193.434 247.678 193.252 247.96 193.119 248.278C192.987 248.593 192.92 248.924 192.92 249.273C192.92 249.735 193.028 250.167 193.244 250.568C193.464 250.97 193.763 251.294 194.142 251.54C194.525 251.786 194.958 251.909 195.443 251.909ZM202.017 253.091C201.737 253.091 201.496 252.991 201.295 252.79C201.095 252.589 200.994 252.348 200.994 252.068C200.994 251.788 201.095 251.547 201.295 251.347C201.496 251.146 201.737 251.045 202.017 251.045C202.297 251.045 202.538 251.146 202.739 251.347C202.939 251.547 203.04 251.788 203.04 252.068C203.04 252.254 202.992 252.424 202.898 252.58C202.807 252.735 202.684 252.86 202.528 252.955C202.377 253.045 202.206 253.091 202.017 253.091ZM205.553 253L210.757 242.705V242.614H204.757V241.364H212.212V242.682L207.03 253H205.553ZM217.822 253.159C217.042 253.159 216.353 253.021 215.754 252.744C215.16 252.464 214.696 252.08 214.362 251.591C214.029 251.098 213.864 250.538 213.868 249.909C213.864 249.417 213.961 248.962 214.158 248.545C214.355 248.125 214.624 247.775 214.964 247.494C215.309 247.21 215.694 247.03 216.118 246.955V246.886C215.561 246.742 215.118 246.43 214.788 245.949C214.459 245.464 214.296 244.913 214.3 244.295C214.296 243.705 214.446 243.176 214.749 242.71C215.052 242.244 215.468 241.877 215.999 241.608C216.533 241.339 217.141 241.205 217.822 241.205C218.497 241.205 219.099 241.339 219.629 241.608C220.16 241.877 220.576 242.244 220.879 242.71C221.186 243.176 221.341 243.705 221.345 244.295C221.341 244.913 221.173 245.464 220.839 245.949C220.51 246.43 220.072 246.742 219.527 246.886V246.955C219.947 247.03 220.326 247.21 220.663 247.494C221 247.775 221.269 248.125 221.47 248.545C221.671 248.962 221.773 249.417 221.777 249.909C221.773 250.538 221.603 251.098 221.266 251.591C220.932 252.08 220.468 252.464 219.874 252.744C219.283 253.021 218.599 253.159 217.822 253.159ZM217.822 251.909C218.349 251.909 218.804 251.824 219.186 251.653C219.569 251.483 219.864 251.242 220.072 250.932C220.281 250.621 220.387 250.258 220.391 249.841C220.387 249.402 220.273 249.013 220.05 248.676C219.826 248.339 219.521 248.074 219.135 247.881C218.752 247.687 218.315 247.591 217.822 247.591C217.326 247.591 216.883 247.687 216.493 247.881C216.107 248.074 215.802 248.339 215.578 248.676C215.358 249.013 215.25 249.402 215.254 249.841C215.25 250.258 215.351 250.621 215.555 250.932C215.764 251.242 216.061 251.483 216.447 251.653C216.834 251.824 217.292 251.909 217.822 251.909ZM217.822 246.386C218.239 246.386 218.608 246.303 218.93 246.136C219.256 245.97 219.512 245.737 219.697 245.438C219.883 245.138 219.978 244.788 219.982 244.386C219.978 243.992 219.885 243.65 219.703 243.358C219.521 243.062 219.269 242.835 218.947 242.676C218.625 242.513 218.25 242.432 217.822 242.432C217.387 242.432 217.006 242.513 216.68 242.676C216.355 242.835 216.103 243.062 215.925 243.358C215.747 243.65 215.66 243.992 215.663 244.386C215.66 244.788 215.749 245.138 215.93 245.438C216.116 245.737 216.372 245.97 216.697 246.136C217.023 246.303 217.398 246.386 217.822 246.386ZM233.75 248.273H227.841V247.023H233.75C234.295 247.023 234.746 246.928 235.102 246.739C235.458 246.545 235.723 246.284 235.898 245.955C236.072 245.621 236.159 245.242 236.159 244.818C236.159 244.394 236.072 244.017 235.898 243.688C235.723 243.354 235.458 243.093 235.102 242.903C234.746 242.71 234.295 242.614 233.75 242.614H231.091V253H229.682V241.364H233.75C234.614 241.364 235.326 241.521 235.886 241.835C236.447 242.15 236.864 242.568 237.136 243.091C237.409 243.614 237.545 244.189 237.545 244.818C237.545 245.447 237.409 246.023 237.136 246.545C236.864 247.068 236.447 247.487 235.886 247.801C235.326 248.116 234.614 248.273 233.75 248.273ZM233.659 249.364V250.614H227.841V249.364H233.659Z" fill="#4B5DFF"/>
<path d="M275 252L266.6 243.6L263.4 248.4L257 242" stroke="#F16063" stroke-width="1.5" stroke-linecap="round" stroke-linejoin="round"/>
<path d="M271 252H275V248" stroke="#F16063" stroke-width="1.5" stroke-linecap="round" stroke-linejoin="round"/>
</g>
<rect x="20" y="274" width="260" height="8" rx="4" fill="#F7FAFC"/>
<rect x="20" y="274" width="89" height="8" rx="4" fill="#4B5DFF"/>
<defs>
<clipPath id="clip0_119_2530">
<rect width="260" height="24" fill="white" transform="translate(20 235)"/>
</clipPath>
</defs>
</svg>
