<svg width="300" height="244" viewBox="0 0 300 244" fill="none" xmlns="http://www.w3.org/2000/svg">
<path d="M0 12C0 5.37258 5.37258 0 12 0H288C294.627 0 300 5.37258 300 12V232C300 238.627 294.627 244 288 244H12C5.37259 244 0 238.627 0 232V12Z" fill="white"/>
<path d="M31.7045 28.1818C31.7045 29.4508 31.464 30.5303 30.983 31.4205C30.5057 32.3106 29.8542 32.9905 29.0284 33.4602C28.2064 33.9261 27.2822 34.1591 26.2557 34.1591C25.2216 34.1591 24.2936 33.9242 23.4716 33.4545C22.6496 32.9848 22 32.3049 21.5227 31.4148C21.0455 30.5246 20.8068 29.447 20.8068 28.1818C20.8068 26.9129 21.0455 25.8333 21.5227 24.9432C22 24.053 22.6496 23.375 23.4716 22.9091C24.2936 22.4394 25.2216 22.2045 26.2557 22.2045C27.2822 22.2045 28.2064 22.4394 29.0284 22.9091C29.8542 23.375 30.5057 24.053 30.983 24.9432C31.464 25.8333 31.7045 26.9129 31.7045 28.1818ZM29.2102 28.1818C29.2102 27.3598 29.0871 26.6667 28.8409 26.1023C28.5985 25.5379 28.2557 25.1098 27.8125 24.8182C27.3693 24.5265 26.8504 24.3807 26.2557 24.3807C25.661 24.3807 25.142 24.5265 24.6989 24.8182C24.2557 25.1098 23.911 25.5379 23.6648 26.1023C23.4223 26.6667 23.3011 27.3598 23.3011 28.1818C23.3011 29.0038 23.4223 29.697 23.6648 30.2614C23.911 30.8258 24.2557 31.2538 24.6989 31.5455C25.142 31.8371 25.661 31.983 26.2557 31.983C26.8504 31.983 27.3693 31.8371 27.8125 31.5455C28.2557 31.2538 28.5985 30.8258 28.8409 30.2614C29.0871 29.697 29.2102 29.0038 29.2102 28.1818ZM44.2202 28.1818C44.2202 29.4508 43.9796 30.5303 43.4986 31.4205C43.0213 32.3106 42.3698 32.9905 41.544 33.4602C40.7221 33.9261 39.7978 34.1591 38.7713 34.1591C37.7372 34.1591 36.8092 33.9242 35.9872 33.4545C35.1652 32.9848 34.5156 32.3049 34.0384 31.4148C33.5611 30.5246 33.3224 29.447 33.3224 28.1818C33.3224 26.9129 33.5611 25.8333 34.0384 24.9432C34.5156 24.053 35.1652 23.375 35.9872 22.9091C36.8092 22.4394 37.7372 22.2045 38.7713 22.2045C39.7978 22.2045 40.7221 22.4394 41.544 22.9091C42.3698 23.375 43.0213 24.053 43.4986 24.9432C43.9796 25.8333 44.2202 26.9129 44.2202 28.1818ZM41.7259 28.1818C41.7259 27.3598 41.6027 26.6667 41.3565 26.1023C41.1141 25.5379 40.7713 25.1098 40.3281 24.8182C39.8849 24.5265 39.366 24.3807 38.7713 24.3807C38.1766 24.3807 37.6577 24.5265 37.2145 24.8182C36.7713 25.1098 36.4266 25.5379 36.1804 26.1023C35.938 26.6667 35.8168 27.3598 35.8168 28.1818C35.8168 29.0038 35.938 29.697 36.1804 30.2614C36.4266 30.8258 36.7713 31.2538 37.2145 31.5455C37.6577 31.8371 38.1766 31.983 38.7713 31.983C39.366 31.983 39.8849 31.8371 40.3281 31.5455C40.7713 31.2538 41.1141 30.8258 41.3565 30.2614C41.6027 29.697 41.7259 29.0038 41.7259 28.1818ZM56.7358 28.1818C56.7358 29.4508 56.4953 30.5303 56.0142 31.4205C55.5369 32.3106 54.8854 32.9905 54.0597 33.4602C53.2377 33.9261 52.3134 34.1591 51.2869 34.1591C50.2528 34.1591 49.3248 33.9242 48.5028 33.4545C47.6809 32.9848 47.0313 32.3049 46.554 31.4148C46.0767 30.5246 45.8381 29.447 45.8381 28.1818C45.8381 26.9129 46.0767 25.8333 46.554 24.9432C47.0313 24.053 47.6809 23.375 48.5028 22.9091C49.3248 22.4394 50.2528 22.2045 51.2869 22.2045C52.3134 22.2045 53.2377 22.4394 54.0597 22.9091C54.8854 23.375 55.5369 24.053 56.0142 24.9432C56.4953 25.8333 56.7358 26.9129 56.7358 28.1818ZM54.2415 28.1818C54.2415 27.3598 54.1184 26.6667 53.8722 26.1023C53.6297 25.5379 53.2869 25.1098 52.8438 24.8182C52.4006 24.5265 51.8816 24.3807 51.2869 24.3807C50.6922 24.3807 50.1733 24.5265 49.7301 24.8182C49.2869 25.1098 48.9422 25.5379 48.696 26.1023C48.4536 26.6667 48.3324 27.3598 48.3324 28.1818C48.3324 29.0038 48.4536 29.697 48.696 30.2614C48.9422 30.8258 49.2869 31.2538 49.7301 31.5455C50.1733 31.8371 50.6922 31.983 51.2869 31.983C51.8816 31.983 52.4006 31.8371 52.8438 31.5455C53.2869 31.2538 53.6297 30.8258 53.8722 30.2614C54.1184 29.697 54.2415 29.0038 54.2415 28.1818ZM62.1307 26V24.7727C62.1307 24.4242 62.1989 24.0682 62.3352 23.7045C62.4716 23.3409 62.6515 22.9981 62.875 22.6761C63.0985 22.3542 63.3409 22.0852 63.6023 21.8693L64.6705 22.5C64.4583 22.8333 64.2841 23.1818 64.1477 23.5455C64.0152 23.9091 63.9489 24.3144 63.9489 24.7614V26H62.1307ZM65 26V24.7727C65 24.4242 65.0682 24.0682 65.2045 23.7045C65.3409 23.3409 65.5208 22.9981 65.7443 22.6761C65.9678 22.3542 66.2102 22.0852 66.4716 21.8693L67.5398 22.5C67.3277 22.8333 67.1534 23.1818 67.017 23.5455C66.8845 23.9091 66.8182 24.3144 66.8182 24.7614V26H65ZM69.0114 34V22.3636H73.6023C74.4848 22.3636 75.2367 22.5322 75.858 22.8693C76.4792 23.2027 76.9527 23.6667 77.2784 24.2614C77.608 24.8523 77.7727 25.5341 77.7727 26.3068C77.7727 27.0795 77.6061 27.7614 77.2727 28.3523C76.9394 28.9432 76.4564 29.4034 75.8239 29.733C75.1951 30.0625 74.4337 30.2273 73.5398 30.2273H70.6136V28.2557H73.142C73.6155 28.2557 74.0057 28.1742 74.3125 28.0114C74.6231 27.8447 74.8542 27.6155 75.0057 27.3239C75.161 27.0284 75.2386 26.6894 75.2386 26.3068C75.2386 25.9205 75.161 25.5833 75.0057 25.2955C74.8542 25.0038 74.6231 24.7784 74.3125 24.6193C74.0019 24.4564 73.608 24.375 73.1307 24.375H71.4716V34H69.0114ZM80.6264 34.1591V32.1591H81.2571C81.5715 32.1591 81.8253 32.1212 82.0185 32.0455C82.2116 31.9659 82.3651 31.8504 82.4787 31.6989C82.5961 31.5436 82.6946 31.3504 82.7741 31.1193L82.9162 30.7386L78.6889 22.3636H81.2344L83.973 28.0909L86.2628 22.3636H88.7741L84.7628 31.7159C84.5696 32.1477 84.3404 32.5492 84.0753 32.9205C83.8139 33.2917 83.4787 33.5909 83.0696 33.8182C82.6605 34.0455 82.1378 34.1591 81.5014 34.1591H80.6264ZM99.669 26.4375H97.1804C97.1349 26.1155 97.0421 25.8295 96.902 25.5795C96.7618 25.3258 96.5819 25.1098 96.3622 24.9318C96.1425 24.7538 95.8887 24.6174 95.6009 24.5227C95.3168 24.428 95.008 24.3807 94.6747 24.3807C94.0724 24.3807 93.5478 24.5303 93.1009 24.8295C92.6539 25.125 92.3073 25.5568 92.0611 26.125C91.8149 26.6894 91.6918 27.375 91.6918 28.1818C91.6918 29.0114 91.8149 29.7083 92.0611 30.2727C92.3111 30.8371 92.6596 31.2633 93.1065 31.5511C93.5535 31.839 94.0705 31.983 94.6577 31.983C94.9872 31.983 95.2921 31.9394 95.5724 31.8523C95.8565 31.7652 96.1084 31.6383 96.3281 31.4716C96.5478 31.3011 96.7296 31.0947 96.8736 30.8523C97.0213 30.6098 97.1236 30.3333 97.1804 30.0227L99.669 30.0341C99.6046 30.5682 99.4437 31.0833 99.1861 31.5795C98.9323 32.072 98.5895 32.5133 98.1577 32.9034C97.7296 33.2898 97.2183 33.5966 96.6236 33.8239C96.0327 34.0473 95.3641 34.1591 94.6179 34.1591C93.58 34.1591 92.652 33.9242 91.8338 33.4545C91.0194 32.9848 90.3755 32.3049 89.902 31.4148C89.4323 30.5246 89.1974 29.447 89.1974 28.1818C89.1974 26.9129 89.4361 25.8333 89.9134 24.9432C90.3906 24.053 91.0384 23.375 91.8565 22.9091C92.6747 22.4394 93.5952 22.2045 94.6179 22.2045C95.2921 22.2045 95.9171 22.2992 96.4929 22.4886C97.0724 22.678 97.5857 22.9545 98.0327 23.3182C98.4796 23.678 98.8433 24.1193 99.1236 24.642C99.4077 25.1648 99.5895 25.7633 99.669 26.4375ZM100.803 36.8068V32.0398H101.592C101.861 31.8466 102.107 31.5739 102.331 31.2216C102.554 30.8655 102.746 30.375 102.905 29.75C103.064 29.1212 103.178 28.2992 103.246 27.2841L103.575 22.3636H111.274V32.0398H112.547V36.7955H110.183V34H103.166V36.8068H100.803ZM104.433 32.0398H108.911V24.392H105.791L105.609 27.2841C105.56 28.053 105.479 28.7348 105.365 29.3295C105.255 29.9242 105.121 30.4451 104.962 30.892C104.806 31.3352 104.63 31.7178 104.433 32.0398ZM113.997 37.2727V25.2727H116.384V26.7386H116.491C116.598 26.5038 116.751 26.2652 116.952 26.0227C117.156 25.7765 117.421 25.572 117.747 25.4091C118.077 25.2424 118.486 25.1591 118.974 25.1591C119.611 25.1591 120.198 25.3258 120.736 25.6591C121.274 25.9886 121.704 26.4867 122.026 27.1534C122.348 27.8163 122.509 28.6477 122.509 29.6477C122.509 30.6212 122.351 31.4432 122.037 32.1136C121.726 32.7803 121.302 33.286 120.764 33.6307C120.23 33.9716 119.632 34.142 118.969 34.142C118.499 34.142 118.099 34.0644 117.77 33.9091C117.444 33.7538 117.177 33.5587 116.969 33.3239C116.76 33.0852 116.601 32.8447 116.491 32.6023H116.418V37.2727H113.997ZM116.366 29.6364C116.366 30.1553 116.438 30.608 116.582 30.9943C116.726 31.3807 116.935 31.6818 117.207 31.8977C117.48 32.1098 117.812 32.2159 118.202 32.2159C118.596 32.2159 118.929 32.108 119.202 31.892C119.474 31.6723 119.681 31.3693 119.821 30.983C119.965 30.5928 120.037 30.1439 120.037 29.6364C120.037 29.1326 119.967 28.6894 119.827 28.3068C119.687 27.9242 119.48 27.625 119.207 27.4091C118.935 27.1932 118.599 27.0852 118.202 27.0852C117.808 27.0852 117.474 27.1894 117.202 27.3977C116.933 27.6061 116.726 27.9015 116.582 28.2841C116.438 28.6667 116.366 29.1174 116.366 29.6364ZM128.099 34.1705C127.202 34.1705 126.429 33.9886 125.781 33.625C125.137 33.2576 124.641 32.7386 124.293 32.0682C123.944 31.3939 123.77 30.5966 123.77 29.6761C123.77 28.7784 123.944 27.9905 124.293 27.3125C124.641 26.6345 125.132 26.1061 125.764 25.7273C126.401 25.3485 127.147 25.1591 128.003 25.1591C128.579 25.1591 129.115 25.2519 129.611 25.4375C130.111 25.6193 130.546 25.8939 130.918 26.2614C131.293 26.6288 131.584 27.0909 131.793 27.6477C132.001 28.2008 132.105 28.8485 132.105 29.5909V30.2557H124.736V28.7557H129.827C129.827 28.4072 129.751 28.0985 129.599 27.8295C129.448 27.5606 129.238 27.3504 128.969 27.1989C128.704 27.0436 128.395 26.9659 128.043 26.9659C127.675 26.9659 127.349 27.0511 127.065 27.2216C126.785 27.3883 126.565 27.6136 126.406 27.8977C126.247 28.178 126.166 28.4905 126.162 28.8352V30.2614C126.162 30.6932 126.241 31.0663 126.401 31.3807C126.563 31.6951 126.793 31.9375 127.088 32.108C127.384 32.2784 127.734 32.3636 128.139 32.3636C128.408 32.3636 128.654 32.3258 128.878 32.25C129.101 32.1742 129.293 32.0606 129.452 31.9091C129.611 31.7576 129.732 31.572 129.815 31.3523L132.054 31.5C131.94 32.0379 131.707 32.5076 131.355 32.9091C131.007 33.3068 130.556 33.6174 130.003 33.8409C129.454 34.0606 128.819 34.1705 128.099 34.1705ZM133.685 34V25.2727H137.406C138.482 25.2727 139.332 25.4773 139.957 25.8864C140.582 26.2955 140.895 26.8769 140.895 27.6307C140.895 28.1042 140.719 28.4981 140.366 28.8125C140.014 29.1269 139.526 29.339 138.901 29.4489C139.423 29.4867 139.868 29.6061 140.236 29.8068C140.607 30.0038 140.889 30.2595 141.082 30.5739C141.279 30.8883 141.378 31.2367 141.378 31.6193C141.378 32.1155 141.245 32.5417 140.98 32.8977C140.719 33.2538 140.334 33.5265 139.827 33.7159C139.323 33.9053 138.707 34 137.98 34H133.685ZM135.94 32.1875H137.98C138.317 32.1875 138.58 32.108 138.77 31.9489C138.963 31.786 139.06 31.5644 139.06 31.2841C139.06 30.9735 138.963 30.7292 138.77 30.5511C138.58 30.3731 138.317 30.2841 137.98 30.2841H135.94V32.1875ZM135.94 28.8636H137.457C137.7 28.8636 137.906 28.8295 138.077 28.7614C138.251 28.6894 138.384 28.5871 138.474 28.4545C138.569 28.322 138.616 28.1648 138.616 27.983C138.616 27.714 138.509 27.5038 138.293 27.3523C138.077 27.2008 137.781 27.125 137.406 27.125H135.94V28.8636ZM146.881 34.1705C145.983 34.1705 145.21 33.9886 144.562 33.625C143.919 33.2576 143.422 32.7386 143.074 32.0682C142.725 31.3939 142.551 30.5966 142.551 29.6761C142.551 28.7784 142.725 27.9905 143.074 27.3125C143.422 26.6345 143.913 26.1061 144.545 25.7273C145.182 25.3485 145.928 25.1591 146.784 25.1591C147.36 25.1591 147.896 25.2519 148.392 25.4375C148.892 25.6193 149.328 25.8939 149.699 26.2614C150.074 26.6288 150.366 27.0909 150.574 27.6477C150.782 28.2008 150.886 28.8485 150.886 29.5909V30.2557H143.517V28.7557H148.608C148.608 28.4072 148.532 28.0985 148.381 27.8295C148.229 27.5606 148.019 27.3504 147.75 27.1989C147.485 27.0436 147.176 26.9659 146.824 26.9659C146.456 26.9659 146.131 27.0511 145.847 27.2216C145.566 27.3883 145.347 27.6136 145.188 27.8977C145.028 28.178 144.947 28.4905 144.943 28.8352V30.2614C144.943 30.6932 145.023 31.0663 145.182 31.3807C145.345 31.6951 145.574 31.9375 145.869 32.108C146.165 32.2784 146.515 32.3636 146.92 32.3636C147.189 32.3636 147.436 32.3258 147.659 32.25C147.883 32.1742 148.074 32.0606 148.233 31.9091C148.392 31.7576 148.513 31.572 148.597 31.3523L150.835 31.5C150.722 32.0379 150.489 32.5076 150.136 32.9091C149.788 33.3068 149.337 33.6174 148.784 33.8409C148.235 34.0606 147.6 34.1705 146.881 34.1705ZM156.409 34.1705C155.515 34.1705 154.746 33.9811 154.102 33.6023C153.462 33.2197 152.97 32.6894 152.625 32.0114C152.284 31.3333 152.114 30.553 152.114 29.6705C152.114 28.7765 152.286 27.9924 152.631 27.3182C152.979 26.6402 153.473 26.1117 154.114 25.733C154.754 25.3504 155.515 25.1591 156.398 25.1591C157.159 25.1591 157.826 25.2973 158.398 25.5739C158.97 25.8504 159.422 26.2386 159.756 26.7386C160.089 27.2386 160.273 27.8258 160.307 28.5H158.023C157.958 28.0644 157.788 27.714 157.511 27.4489C157.239 27.1799 156.881 27.0455 156.438 27.0455C156.062 27.0455 155.735 27.1477 155.455 27.3523C155.178 27.553 154.962 27.8466 154.807 28.233C154.652 28.6193 154.574 29.0871 154.574 29.6364C154.574 30.1932 154.65 30.6667 154.801 31.0568C154.956 31.447 155.174 31.7443 155.455 31.9489C155.735 32.1534 156.062 32.2557 156.438 32.2557C156.714 32.2557 156.962 32.1989 157.182 32.0852C157.405 31.9716 157.589 31.8068 157.733 31.5909C157.881 31.3712 157.977 31.108 158.023 30.8011H160.307C160.269 31.4678 160.087 32.0549 159.761 32.5625C159.439 33.0663 158.994 33.4602 158.426 33.7443C157.858 34.0284 157.186 34.1705 156.409 34.1705ZM164.169 30.8068L167.311 25.2727H169.697V34H167.391V28.4489L164.26 34H161.857V25.2727H164.169V30.8068ZM177.712 28.6705V30.5739H173.155V28.6705H177.712ZM173.95 25.2727V34H171.638V25.2727H173.95ZM179.229 25.2727V34H176.933V25.2727H179.229ZM183.595 34.1648C183.038 34.1648 182.542 34.0682 182.107 33.875C181.671 33.678 181.326 33.3883 181.072 33.0057C180.822 32.6193 180.697 32.1383 180.697 31.5625C180.697 31.0777 180.786 30.6705 180.964 30.3409C181.143 30.0114 181.385 29.7462 181.692 29.5455C181.999 29.3447 182.347 29.1932 182.737 29.0909C183.131 28.9886 183.544 28.9167 183.976 28.875C184.483 28.822 184.893 28.7727 185.203 28.7273C185.514 28.678 185.739 28.6061 185.879 28.5114C186.019 28.4167 186.089 28.2765 186.089 28.0909V28.0568C186.089 27.697 185.976 27.4186 185.749 27.2216C185.525 27.0246 185.207 26.9261 184.794 26.9261C184.358 26.9261 184.012 27.0227 183.754 27.2159C183.497 27.4053 183.326 27.6439 183.243 27.9318L181.004 27.75C181.118 27.2197 181.341 26.7614 181.675 26.375C182.008 25.9848 182.438 25.6856 182.964 25.4773C183.495 25.2652 184.108 25.1591 184.805 25.1591C185.29 25.1591 185.754 25.2159 186.197 25.3295C186.644 25.4432 187.04 25.6193 187.385 25.858C187.733 26.0966 188.008 26.4034 188.209 26.7784C188.41 27.1496 188.51 27.5947 188.51 28.1136V34H186.214V32.7898H186.146C186.006 33.0625 185.819 33.303 185.584 33.5114C185.349 33.7159 185.067 33.8769 184.737 33.9943C184.408 34.108 184.027 34.1648 183.595 34.1648ZM184.288 32.4943C184.644 32.4943 184.959 32.4242 185.232 32.2841C185.504 32.1402 185.718 31.947 185.874 31.7045C186.029 31.4621 186.107 31.1875 186.107 30.8807V29.9545C186.031 30.0038 185.927 30.0492 185.794 30.0909C185.665 30.1288 185.519 30.1648 185.357 30.1989C185.194 30.2292 185.031 30.2576 184.868 30.2841C184.705 30.3068 184.557 30.3277 184.425 30.3466C184.141 30.3883 183.893 30.4545 183.68 30.5455C183.468 30.6364 183.304 30.7595 183.186 30.9148C183.069 31.0663 183.01 31.2557 183.01 31.483C183.01 31.8125 183.129 32.0644 183.368 32.2386C183.61 32.4091 183.917 32.4943 184.288 32.4943ZM192.416 22.3636V23.5909C192.416 23.9394 192.348 24.2955 192.212 24.6591C192.079 25.0189 191.901 25.3598 191.678 25.6818C191.454 26 191.21 26.2708 190.945 26.4943L189.876 25.8636C190.066 25.5644 190.232 25.233 190.376 24.8693C190.524 24.5057 190.598 24.0833 190.598 23.6023V22.3636H192.416ZM195.274 22.3636V23.5909C195.274 23.9394 195.206 24.2955 195.07 24.6591C194.937 25.0189 194.759 25.3598 194.536 25.6818C194.312 26 194.066 26.2708 193.797 26.4943L192.729 25.8636C192.922 25.5644 193.09 25.233 193.234 24.8693C193.382 24.5057 193.456 24.0833 193.456 23.6023V22.3636H195.274Z" fill="#23262F"/>
<path d="M29.8239 55.9091C29.8239 56.983 29.63 57.911 29.2422 58.6932C28.8544 59.4754 28.3224 60.0786 27.6463 60.5028C26.9702 60.9271 26.1979 61.1392 25.3295 61.1392C24.4612 61.1392 23.6889 60.9271 23.0128 60.5028C22.3366 60.0786 21.8047 59.4754 21.4169 58.6932C21.0291 57.911 20.8352 56.983 20.8352 55.9091C20.8352 54.8352 21.0291 53.9072 21.4169 53.125C21.8047 52.3428 22.3366 51.7396 23.0128 51.3153C23.6889 50.8911 24.4612 50.679 25.3295 50.679C26.1979 50.679 26.9702 50.8911 27.6463 51.3153C28.3224 51.7396 28.8544 52.3428 29.2422 53.125C29.63 53.9072 29.8239 54.8352 29.8239 55.9091ZM28.6307 55.9091C28.6307 55.0275 28.4832 54.2834 28.1882 53.6768C27.8965 53.0703 27.5005 52.6113 27 52.2997C26.5028 51.9882 25.946 51.8324 25.3295 51.8324C24.7131 51.8324 24.1546 51.9882 23.6541 52.2997C23.157 52.6113 22.7609 53.0703 22.4659 53.6768C22.1742 54.2834 22.0284 55.0275 22.0284 55.9091C22.0284 56.7907 22.1742 57.5348 22.4659 58.1413C22.7609 58.7479 23.157 59.2069 23.6541 59.5185C24.1546 59.83 24.7131 59.9858 25.3295 59.9858C25.946 59.9858 26.5028 59.83 27 59.5185C27.5005 59.2069 27.8965 58.7479 28.1882 58.1413C28.4832 57.5348 28.6307 56.7907 28.6307 55.9091ZM31.7379 63.8636V53.3636H32.8714V54.5767H33.0107C33.0968 54.4441 33.2161 54.2751 33.3686 54.0696C33.5244 53.8608 33.7464 53.6752 34.0348 53.5128C34.3265 53.3471 34.7209 53.2642 35.218 53.2642C35.861 53.2642 36.4278 53.425 36.9183 53.7464C37.4089 54.0679 37.7917 54.5237 38.0668 55.1136C38.3419 55.7036 38.4794 56.3996 38.4794 57.2017C38.4794 58.0104 38.3419 58.7114 38.0668 59.3047C37.7917 59.8946 37.4105 60.352 36.9233 60.6768C36.4361 60.9983 35.8743 61.1591 35.2379 61.1591C34.7474 61.1591 34.3546 61.0779 34.0597 60.9155C33.7647 60.7498 33.5376 60.5625 33.3786 60.3537C33.2195 60.1416 33.0968 59.9659 33.0107 59.8267H32.9112V63.8636H31.7379ZM32.8913 57.1818C32.8913 57.7585 32.9759 58.2673 33.1449 58.7081C33.3139 59.1456 33.5608 59.4886 33.8857 59.7372C34.2105 59.9825 34.6082 60.1051 35.0788 60.1051C35.5694 60.1051 35.9787 59.9759 36.3068 59.7173C36.6383 59.4555 36.8868 59.1042 37.0526 58.6634C37.2216 58.2192 37.3061 57.7254 37.3061 57.1818C37.3061 56.6449 37.2232 56.161 37.0575 55.7301C36.8951 55.2959 36.6482 54.9529 36.3168 54.701C35.9886 54.4458 35.576 54.3182 35.0788 54.3182C34.6016 54.3182 34.2005 54.4392 33.8757 54.6811C33.5509 54.9197 33.3056 55.2545 33.1399 55.6854C32.9742 56.1129 32.8913 56.6117 32.8913 57.1818ZM41.4425 59.2699L45.1214 53.3636H46.4737V61H45.3004V55.0938L41.6413 61H40.2692V53.3636H41.4425V59.2699ZM53.3358 53.3636V54.4574H49.796V61H48.6227V53.3636H53.3358ZM56.2218 59.2699L59.9007 53.3636H61.253V61H60.0797V55.0938L56.4206 61H55.0485V53.3636H56.2218V59.2699ZM68.5128 56.6449V57.7386H64.2969V56.6449H68.5128ZM64.5753 53.3636V61H63.402V53.3636H64.5753ZM69.4077 53.3636V61H68.2344V53.3636H69.4077ZM73.7976 61.179C73.3137 61.179 72.8745 61.0878 72.4801 60.9055C72.0857 60.7199 71.7725 60.4531 71.5405 60.1051C71.3085 59.7538 71.1925 59.3295 71.1925 58.8324C71.1925 58.3949 71.2786 58.0402 71.451 57.7685C71.6233 57.4934 71.8537 57.2779 72.142 57.1222C72.4304 56.9664 72.7486 56.8504 73.0966 56.7741C73.4479 56.6946 73.8009 56.6316 74.1555 56.5852C74.6196 56.5256 74.9957 56.4808 75.2841 56.451C75.5758 56.4179 75.7879 56.3632 75.9205 56.2869C76.0563 56.2107 76.1243 56.0781 76.1243 55.8892V55.8494C76.1243 55.3589 75.9901 54.9777 75.7216 54.706C75.4564 54.4342 75.0537 54.2983 74.5135 54.2983C73.9534 54.2983 73.5142 54.4209 73.196 54.6662C72.8778 54.9115 72.6541 55.1733 72.5249 55.4517L71.4112 55.054C71.6101 54.59 71.8752 54.2287 72.2067 53.9702C72.5414 53.7083 72.906 53.526 73.3004 53.4233C73.6982 53.3172 74.0893 53.2642 74.4737 53.2642C74.719 53.2642 75.0007 53.294 75.3189 53.3537C75.6404 53.41 75.9503 53.5277 76.2486 53.7067C76.5502 53.8857 76.8004 54.1558 76.9993 54.517C77.1982 54.8783 77.2976 55.3622 77.2976 55.9688V61H76.1243V59.9659H76.0646C75.9851 60.1316 75.8525 60.3089 75.6669 60.4979C75.4813 60.6868 75.2344 60.8475 74.9261 60.9801C74.6179 61.1127 74.2417 61.179 73.7976 61.179ZM73.9766 60.125C74.4406 60.125 74.8317 60.0339 75.1499 59.8516C75.4714 59.6693 75.7133 59.4339 75.8757 59.1456C76.0414 58.8572 76.1243 58.554 76.1243 58.2358V57.1619C76.0746 57.2216 75.9652 57.2763 75.7962 57.326C75.6304 57.3724 75.4382 57.4138 75.2195 57.4503C75.004 57.4834 74.7936 57.5133 74.5881 57.5398C74.3859 57.563 74.2218 57.5829 74.0959 57.5994C73.791 57.6392 73.5059 57.7038 73.2408 57.7933C72.9789 57.8795 72.7668 58.0104 72.6044 58.1861C72.4453 58.3584 72.3658 58.5937 72.3658 58.892C72.3658 59.2997 72.5166 59.608 72.8182 59.8168C73.1231 60.0223 73.5092 60.125 73.9766 60.125ZM78.763 61V59.9062H79.0414C79.2701 59.9062 79.4606 59.8615 79.6131 59.772C79.7656 59.6792 79.8882 59.5185 79.981 59.2898C80.0771 59.0578 80.15 58.7363 80.1998 58.3253C80.2528 57.911 80.2909 57.384 80.3141 56.7443L80.4533 53.3636H85.5442V61H84.3709V54.4574H81.5669L81.4476 57.1818C81.4211 57.8082 81.3648 58.3601 81.2786 58.8374C81.1957 59.3113 81.0681 59.709 80.8958 60.0305C80.7267 60.352 80.5014 60.594 80.2196 60.7564C79.9379 60.9188 79.5849 61 79.1607 61H78.763Z" fill="#23262F"/>
<path d="M240.815 58.9119V57.8977L245.29 50.8182H246.026V52.3892H245.528L242.148 57.7386V57.8182H248.173V58.9119H240.815ZM245.608 61V58.6037V58.1314V50.8182H246.781V61H245.608ZM249.798 58.9119V57.8977L254.272 50.8182H255.008V52.3892H254.511L251.13 57.7386V57.8182H257.156V58.9119H249.798ZM254.59 61V58.6037V58.1314V50.8182H255.764V61H254.59ZM262.638 50.3409L259.357 62.5312H258.283L261.564 50.3409H262.638ZM267.191 61.1392C266.608 61.1392 266.082 61.0232 265.615 60.7912C265.148 60.5592 264.773 60.241 264.491 59.8366C264.21 59.4323 264.055 58.9716 264.029 58.4545H265.222C265.269 58.9152 265.477 59.2964 265.849 59.598C266.223 59.8963 266.671 60.0455 267.191 60.0455C267.608 60.0455 267.98 59.9477 268.305 59.7521C268.633 59.5566 268.89 59.2881 269.075 58.9467C269.264 58.602 269.358 58.2126 269.358 57.7784C269.358 57.3343 269.261 56.9382 269.065 56.5902C268.873 56.2389 268.608 55.9621 268.27 55.7599C267.932 55.5578 267.546 55.455 267.111 55.4517C266.8 55.4484 266.48 55.4964 266.152 55.5959C265.824 55.692 265.554 55.8163 265.341 55.9688L264.188 55.8295L264.805 50.8182H270.094V51.9119H265.839L265.481 54.9148H265.54C265.749 54.7491 266.011 54.6115 266.326 54.5021C266.641 54.3928 266.969 54.3381 267.31 54.3381C267.933 54.3381 268.488 54.4872 268.976 54.7855C269.466 55.0805 269.851 55.4848 270.129 55.9986C270.411 56.5123 270.552 57.099 270.552 57.7585C270.552 58.4081 270.406 58.9882 270.114 59.4986C269.826 60.0057 269.428 60.4067 268.921 60.7017C268.414 60.9934 267.837 61.1392 267.191 61.1392ZM275.708 61.1392C275.125 61.1392 274.6 61.0232 274.132 60.7912C273.665 60.5592 273.291 60.241 273.009 59.8366C272.727 59.4323 272.573 58.9716 272.547 58.4545H273.74C273.786 58.9152 273.995 59.2964 274.366 59.598C274.741 59.8963 275.188 60.0455 275.708 60.0455C276.126 60.0455 276.497 59.9477 276.822 59.7521C277.15 59.5566 277.407 59.2881 277.593 58.9467C277.782 58.602 277.876 58.2126 277.876 57.7784C277.876 57.3343 277.778 56.9382 277.583 56.5902C277.391 56.2389 277.125 55.9621 276.787 55.7599C276.449 55.5578 276.063 55.455 275.629 55.4517C275.317 55.4484 274.998 55.4964 274.669 55.5959C274.341 55.692 274.071 55.8163 273.859 55.9688L272.706 55.8295L273.322 50.8182H278.612V51.9119H274.356L273.998 54.9148H274.058C274.267 54.7491 274.529 54.6115 274.843 54.5021C275.158 54.3928 275.486 54.3381 275.828 54.3381C276.451 54.3381 277.006 54.4872 277.493 54.7855C277.984 55.0805 278.368 55.4848 278.647 55.9986C278.928 56.5123 279.069 57.099 279.069 57.7585C279.069 58.4081 278.923 58.9882 278.632 59.4986C278.343 60.0057 277.946 60.4067 277.439 60.7017C276.931 60.9934 276.355 61.1392 275.708 61.1392Z" fill="#23262F"/>
<path d="M21.233 91V80.8182H24.7926C25.5019 80.8182 26.0869 80.9408 26.5476 81.1861C27.0083 81.428 27.3513 81.7545 27.5767 82.1655C27.8021 82.5732 27.9148 83.0256 27.9148 83.5227C27.9148 83.9602 27.8369 84.3215 27.6811 84.6065C27.5286 84.8916 27.3265 85.117 27.0746 85.2827C26.826 85.4484 26.5559 85.571 26.2642 85.6506V85.75C26.5758 85.7699 26.889 85.8793 27.2038 86.0781C27.5187 86.277 27.7822 86.562 27.9943 86.9332C28.2064 87.3045 28.3125 87.7585 28.3125 88.2955C28.3125 88.8059 28.1965 89.2649 27.9645 89.6726C27.7325 90.0803 27.3662 90.4034 26.8658 90.642C26.3653 90.8807 25.714 91 24.9119 91H21.233ZM22.4659 89.9062H24.9119C25.7173 89.9062 26.2891 89.7505 26.6271 89.4389C26.9685 89.1241 27.1392 88.7429 27.1392 88.2955C27.1392 87.9508 27.0514 87.6326 26.8757 87.3409C26.7 87.0459 26.4498 86.8106 26.125 86.6349C25.8002 86.456 25.4157 86.3665 24.9716 86.3665H22.4659V89.9062ZM22.4659 85.2926H24.7528C25.1241 85.2926 25.4588 85.2197 25.7571 85.0739C26.0587 84.928 26.2973 84.7225 26.473 84.4574C26.652 84.1922 26.7415 83.8807 26.7415 83.5227C26.7415 83.0753 26.5857 82.6958 26.2741 82.3842C25.9626 82.0694 25.4688 81.9119 24.7926 81.9119H22.4659V85.2926ZM39.2276 86.6449V87.7386H35.0117V86.6449H39.2276ZM35.2901 83.3636V91H34.1168V83.3636H35.2901ZM40.1225 83.3636V91H38.9492V83.3636H40.1225ZM44.5124 91.179C44.0285 91.179 43.5894 91.0878 43.195 90.9055C42.8005 90.7199 42.4873 90.4531 42.2553 90.1051C42.0233 89.7538 41.9073 89.3295 41.9073 88.8324C41.9073 88.3949 41.9935 88.0402 42.1658 87.7685C42.3382 87.4934 42.5685 87.2779 42.8569 87.1222C43.1452 86.9664 43.4634 86.8504 43.8114 86.7741C44.1628 86.6946 44.5157 86.6316 44.8704 86.5852C45.3344 86.5256 45.7106 86.4808 45.9989 86.451C46.2906 86.4179 46.5027 86.3632 46.6353 86.2869C46.7712 86.2107 46.8391 86.0781 46.8391 85.8892V85.8494C46.8391 85.3589 46.7049 84.9777 46.4364 84.706C46.1713 84.4342 45.7686 84.2983 45.2283 84.2983C44.6682 84.2983 44.229 84.4209 43.9109 84.6662C43.5927 84.9115 43.369 85.1733 43.2397 85.4517L42.1261 85.054C42.3249 84.59 42.5901 84.2287 42.9215 83.9702C43.2563 83.7083 43.6209 83.526 44.0153 83.4233C44.413 83.3172 44.8041 83.2642 45.1886 83.2642C45.4338 83.2642 45.7156 83.294 46.0337 83.3537C46.3552 83.41 46.6651 83.5277 46.9634 83.7067C47.265 83.8857 47.5153 84.1558 47.7141 84.517C47.913 84.8783 48.0124 85.3622 48.0124 85.9688V91H46.8391V89.9659H46.7795C46.6999 90.1316 46.5674 90.3089 46.3817 90.4979C46.1961 90.6868 45.9492 90.8475 45.641 90.9801C45.3327 91.1127 44.9566 91.179 44.5124 91.179ZM44.6914 90.125C45.1554 90.125 45.5465 90.0339 45.8647 89.8516C46.1862 89.6693 46.4281 89.4339 46.5906 89.1456C46.7563 88.8572 46.8391 88.554 46.8391 88.2358V87.1619C46.7894 87.2216 46.68 87.2763 46.511 87.326C46.3453 87.3724 46.1531 87.4138 45.9343 87.4503C45.7189 87.4834 45.5084 87.5133 45.3029 87.5398C45.1007 87.563 44.9367 87.5829 44.8107 87.5994C44.5058 87.6392 44.2208 87.7038 43.9556 87.7933C43.6938 87.8795 43.4817 88.0104 43.3192 88.1861C43.1602 88.3584 43.0806 88.5937 43.0806 88.892C43.0806 89.2997 43.2314 89.608 43.533 89.8168C43.8379 90.0223 44.2241 90.125 44.6914 90.125ZM49.4778 91V89.9062H49.7562C49.9849 89.9062 50.1755 89.8615 50.3279 89.772C50.4804 89.6792 50.603 89.5185 50.6958 89.2898C50.792 89.0578 50.8649 88.7363 50.9146 88.3253C50.9676 87.911 51.0057 87.384 51.0289 86.7443L51.1681 83.3636H56.2591V91H55.0858V84.4574H52.2818L52.1625 87.1818C52.1359 87.8082 52.0796 88.3601 51.9934 88.8374C51.9106 89.3113 51.783 89.709 51.6106 90.0305C51.4416 90.352 51.2162 90.594 50.9345 90.7564C50.6528 90.9188 50.2998 91 49.8755 91H49.4778ZM59.585 89.2699L63.264 83.3636H64.6163V91H63.443V85.0938L59.7839 91H58.4118V83.3636H59.585V89.2699ZM72.6516 83.3636V91H71.4783V83.3636H72.6516ZM72.1942 87.0028V88.0966C71.9291 88.196 71.6656 88.2839 71.4038 88.3601C71.1419 88.433 70.8668 88.491 70.5785 88.5341C70.2901 88.5739 69.9736 88.5938 69.6289 88.5938C68.7638 88.5938 68.0695 88.3601 67.5458 87.8928C67.0254 87.4254 66.7653 86.7244 66.7653 85.7898V83.3438H67.9386V85.7898C67.9386 86.1809 68.0131 86.5024 68.1623 86.7543C68.3114 87.0062 68.5136 87.1934 68.7688 87.3161C69.024 87.4387 69.3107 87.5 69.6289 87.5C70.1261 87.5 70.5752 87.4553 70.9762 87.3658C71.3806 87.273 71.7866 87.152 72.1942 87.0028ZM75.9776 89.2699L79.6566 83.3636H81.0089V91H79.8356V85.0938L76.1765 91H74.8043V83.3636H75.9776V89.2699ZM84.3311 89.2699L88.0101 83.3636H89.3624V91H88.1891V85.0938L84.53 91H83.1578V83.3636H84.3311V89.2699Z" fill="#31AA27"/>
<path d="M20.358 123.466V119.906H21.0142C21.2396 119.701 21.4517 119.411 21.6506 119.036C21.8527 118.658 22.0234 118.155 22.1626 117.525C22.3052 116.892 22.3996 116.088 22.446 115.114L22.6648 110.818H28.7102V119.906H29.8835V123.446H28.7102V121H21.5312V123.466H20.358ZM22.4858 119.906H27.5369V111.912H23.7784L23.6193 115.114C23.5795 115.856 23.5099 116.529 23.4105 117.132C23.3111 117.732 23.1835 118.264 23.0277 118.728C22.8719 119.189 22.6913 119.581 22.4858 119.906ZM34.6898 121.159C34.0004 121.159 33.3955 120.995 32.8752 120.667C32.3581 120.339 31.9538 119.88 31.6621 119.29C31.3738 118.7 31.2296 118.01 31.2296 117.222C31.2296 116.426 31.3738 115.732 31.6621 115.138C31.9538 114.545 32.3581 114.085 32.8752 113.756C33.3955 113.428 34.0004 113.264 34.6898 113.264C35.3792 113.264 35.9824 113.428 36.4995 113.756C37.0198 114.085 37.4242 114.545 37.7125 115.138C38.0042 115.732 38.15 116.426 38.15 117.222C38.15 118.01 38.0042 118.7 37.7125 119.29C37.4242 119.88 37.0198 120.339 36.4995 120.667C35.9824 120.995 35.3792 121.159 34.6898 121.159ZM34.6898 120.105C35.2135 120.105 35.6444 119.971 35.9824 119.702C36.3205 119.434 36.5707 119.081 36.7331 118.643C36.8955 118.206 36.9767 117.732 36.9767 117.222C36.9767 116.711 36.8955 116.236 36.7331 115.795C36.5707 115.354 36.3205 114.998 35.9824 114.726C35.6444 114.454 35.2135 114.318 34.6898 114.318C34.1661 114.318 33.7353 114.454 33.3972 114.726C33.0591 114.998 32.8089 115.354 32.6465 115.795C32.4841 116.236 32.4029 116.711 32.4029 117.222C32.4029 117.732 32.4841 118.206 32.6465 118.643C32.8089 119.081 33.0591 119.434 33.3972 119.702C33.7353 119.971 34.1661 120.105 34.6898 120.105ZM43.0433 121.159C42.3274 121.159 41.7109 120.99 41.1939 120.652C40.6768 120.314 40.2791 119.848 40.0007 119.255C39.7223 118.662 39.5831 117.984 39.5831 117.222C39.5831 116.446 39.7256 115.762 40.0107 115.168C40.299 114.572 40.7 114.106 41.2138 113.771C41.7308 113.433 42.334 113.264 43.0234 113.264C43.5604 113.264 44.0443 113.364 44.4751 113.562C44.906 113.761 45.259 114.04 45.5341 114.398C45.8092 114.756 45.9799 115.173 46.0462 115.651H44.8729C44.7834 115.303 44.5845 114.994 44.2763 114.726C43.9714 114.454 43.5604 114.318 43.0433 114.318C42.5859 114.318 42.1849 114.437 41.8402 114.676C41.4988 114.911 41.232 115.245 41.0398 115.675C40.8509 116.103 40.7564 116.605 40.7564 117.182C40.7564 117.772 40.8492 118.286 41.0348 118.723C41.2237 119.161 41.4889 119.5 41.8303 119.742C42.175 119.984 42.5793 120.105 43.0433 120.105C43.3482 120.105 43.625 120.052 43.8736 119.946C44.1222 119.84 44.3326 119.688 44.505 119.489C44.6773 119.29 44.8 119.051 44.8729 118.773H46.0462C45.9799 119.223 45.8158 119.629 45.554 119.991C45.2955 120.349 44.9524 120.634 44.5249 120.846C44.1006 121.055 43.6068 121.159 43.0433 121.159ZM47.1598 114.457V113.364H53.3643V114.457H50.8587V121H49.6854V114.457H47.1598ZM56.9265 121.179C56.4426 121.179 56.0034 121.088 55.609 120.906C55.2146 120.72 54.9014 120.453 54.6694 120.105C54.4374 119.754 54.3214 119.33 54.3214 118.832C54.3214 118.395 54.4076 118.04 54.5799 117.768C54.7522 117.493 54.9826 117.278 55.271 117.122C55.5593 116.966 55.8775 116.85 56.2255 116.774C56.5768 116.695 56.9298 116.632 57.2844 116.585C57.7485 116.526 58.1246 116.481 58.413 116.451C58.7047 116.418 58.9168 116.363 59.0494 116.287C59.1853 116.211 59.2532 116.078 59.2532 115.889V115.849C59.2532 115.359 59.119 114.978 58.8505 114.706C58.5853 114.434 58.1826 114.298 57.6424 114.298C57.0823 114.298 56.6431 114.421 56.3249 114.666C56.0067 114.911 55.783 115.173 55.6538 115.452L54.5401 115.054C54.739 114.59 55.0041 114.229 55.3356 113.97C55.6703 113.708 56.0349 113.526 56.4293 113.423C56.8271 113.317 57.2182 113.264 57.6026 113.264C57.8479 113.264 58.1296 113.294 58.4478 113.354C58.7693 113.41 59.0792 113.528 59.3775 113.707C59.6791 113.886 59.9293 114.156 60.1282 114.517C60.3271 114.878 60.4265 115.362 60.4265 115.969V121H59.2532V119.966H59.1935C59.114 120.132 58.9814 120.309 58.7958 120.498C58.6102 120.687 58.3633 120.848 58.055 120.98C57.7468 121.113 57.3706 121.179 56.9265 121.179ZM57.1055 120.125C57.5695 120.125 57.9606 120.034 58.2788 119.852C58.6003 119.669 58.8422 119.434 59.0046 119.146C59.1703 118.857 59.2532 118.554 59.2532 118.236V117.162C59.2035 117.222 59.0941 117.276 58.9251 117.326C58.7594 117.372 58.5671 117.414 58.3484 117.45C58.1329 117.483 57.9225 117.513 57.717 117.54C57.5148 117.563 57.3507 117.583 57.2248 117.599C56.9199 117.639 56.6348 117.704 56.3697 117.793C56.1078 117.879 55.8957 118.01 55.7333 118.186C55.5742 118.358 55.4947 118.594 55.4947 118.892C55.4947 119.3 55.6455 119.608 55.9471 119.817C56.252 120.022 56.6381 120.125 57.1055 120.125ZM62.568 121V113.364H65.6902C66.5121 113.364 67.1651 113.549 67.649 113.92C68.1329 114.292 68.3748 114.782 68.3748 115.392C68.3748 115.856 68.2373 116.216 67.9622 116.471C67.6871 116.723 67.3341 116.893 66.9032 116.983C67.185 117.023 67.4584 117.122 67.7235 117.281C67.992 117.44 68.2141 117.659 68.3897 117.938C68.5654 118.213 68.6532 118.551 68.6532 118.952C68.6532 119.343 68.5538 119.692 68.3549 120.001C68.1561 120.309 67.871 120.553 67.4998 120.732C67.1286 120.911 66.6845 121 66.1674 121H62.568ZM63.6816 119.926H66.1674C66.5718 119.926 66.8883 119.83 67.117 119.638C67.3457 119.446 67.46 119.184 67.46 118.852C67.46 118.458 67.3457 118.148 67.117 117.923C66.8883 117.694 66.5718 117.58 66.1674 117.58H63.6816V119.926ZM63.6816 116.565H65.6902C66.005 116.565 66.2752 116.522 66.5005 116.436C66.7259 116.347 66.8983 116.221 67.0176 116.058C67.1402 115.893 67.2015 115.697 67.2015 115.472C67.2015 115.15 67.0673 114.898 66.7988 114.716C66.5304 114.53 66.1608 114.438 65.6902 114.438H63.6816V116.565ZM70.4293 121V113.364H71.6026V116.685H72.3782L75.1225 113.364H76.6339L73.5515 117.043L76.6737 121H75.1623L72.6566 117.778H71.6026V121H70.4293ZM80.196 121.179C79.7121 121.179 79.273 121.088 78.8786 120.906C78.4841 120.72 78.1709 120.453 77.9389 120.105C77.7069 119.754 77.5909 119.33 77.5909 118.832C77.5909 118.395 77.6771 118.04 77.8494 117.768C78.0218 117.493 78.2521 117.278 78.5405 117.122C78.8288 116.966 79.147 116.85 79.495 116.774C79.8464 116.695 80.1993 116.632 80.554 116.585C81.018 116.526 81.3942 116.481 81.6825 116.451C81.9742 116.418 82.1863 116.363 82.3189 116.287C82.4548 116.211 82.5227 116.078 82.5227 115.889V115.849C82.5227 115.359 82.3885 114.978 82.12 114.706C81.8549 114.434 81.4522 114.298 80.9119 114.298C80.3518 114.298 79.9126 114.421 79.5945 114.666C79.2763 114.911 79.0526 115.173 78.9233 115.452L77.8097 115.054C78.0085 114.59 78.2737 114.229 78.6051 113.97C78.9399 113.708 79.3045 113.526 79.6989 113.423C80.0966 113.317 80.4877 113.264 80.8722 113.264C81.1174 113.264 81.3991 113.294 81.7173 113.354C82.0388 113.41 82.3487 113.528 82.647 113.707C82.9486 113.886 83.1989 114.156 83.3977 114.517C83.5966 114.878 83.696 115.362 83.696 115.969V121H82.5227V119.966H82.4631C82.3835 120.132 82.2509 120.309 82.0653 120.498C81.8797 120.687 81.6328 120.848 81.3246 120.98C81.0163 121.113 80.6402 121.179 80.196 121.179ZM80.375 120.125C80.839 120.125 81.2301 120.034 81.5483 119.852C81.8698 119.669 82.1117 119.434 82.2741 119.146C82.4399 118.857 82.5227 118.554 82.5227 118.236V117.162C82.473 117.222 82.3636 117.276 82.1946 117.326C82.0289 117.372 81.8366 117.414 81.6179 117.45C81.4025 117.483 81.192 117.513 80.9865 117.54C80.7843 117.563 80.6203 117.583 80.4943 117.599C80.1894 117.639 79.9044 117.704 79.6392 117.793C79.3774 117.879 79.1652 118.01 79.0028 118.186C78.8438 118.358 78.7642 118.594 78.7642 118.892C78.7642 119.3 78.915 119.608 79.2166 119.817C79.5215 120.022 79.9077 120.125 80.375 120.125ZM89.2978 119.051H90.5506C90.5771 119.396 90.7329 119.658 91.0179 119.837C91.3063 120.016 91.6808 120.105 92.1415 120.105C92.6122 120.105 93.0149 120.009 93.3496 119.817C93.6844 119.621 93.8517 119.306 93.8517 118.872C93.8517 118.617 93.7888 118.395 93.6628 118.206C93.5369 118.014 93.3596 117.865 93.1309 117.759C92.9022 117.652 92.632 117.599 92.3205 117.599H91.008V116.545H92.3205C92.7878 116.545 93.1325 116.439 93.3546 116.227C93.58 116.015 93.6926 115.75 93.6926 115.432C93.6926 115.09 93.5717 114.817 93.3297 114.612C93.0878 114.403 92.7447 114.298 92.3006 114.298C91.8532 114.298 91.4803 114.399 91.182 114.602C90.8837 114.8 90.7263 115.057 90.7097 115.372H89.4767C89.49 114.961 89.6159 114.598 89.8546 114.283C90.0932 113.965 90.418 113.717 90.829 113.538C91.24 113.355 91.7106 113.264 92.2409 113.264C92.7779 113.264 93.2435 113.359 93.638 113.548C94.0357 113.733 94.3423 113.987 94.5577 114.308C94.7765 114.626 94.8858 114.988 94.8858 115.392C94.8858 115.823 94.7649 116.171 94.5229 116.436C94.281 116.701 93.9777 116.89 93.6131 117.003V117.082C93.9015 117.102 94.1517 117.195 94.3638 117.361C94.5792 117.523 94.7466 117.737 94.8659 118.002C94.9853 118.264 95.0449 118.554 95.0449 118.872C95.0449 119.336 94.9206 119.741 94.6721 120.085C94.4235 120.427 94.0821 120.692 93.6479 120.881C93.2137 121.066 92.7182 121.159 92.1614 121.159C91.6212 121.159 91.1373 121.071 90.7097 120.896C90.2821 120.717 89.9424 120.47 89.6905 120.155C89.4419 119.837 89.311 119.469 89.2978 119.051ZM98.9402 121.179C98.4563 121.179 98.0171 121.088 97.6227 120.906C97.2283 120.72 96.9151 120.453 96.6831 120.105C96.4511 119.754 96.335 119.33 96.335 118.832C96.335 118.395 96.4212 118.04 96.5936 117.768C96.7659 117.493 96.9963 117.278 97.2846 117.122C97.573 116.966 97.8912 116.85 98.2392 116.774C98.5905 116.695 98.9435 116.632 99.2981 116.585C99.7621 116.526 100.138 116.481 100.427 116.451C100.718 116.418 100.93 116.363 101.063 116.287C101.199 116.211 101.267 116.078 101.267 115.889V115.849C101.267 115.359 101.133 114.978 100.864 114.706C100.599 114.434 100.196 114.298 99.6561 114.298C99.0959 114.298 98.6568 114.421 98.3386 114.666C98.0204 114.911 97.7967 115.173 97.6674 115.452L96.5538 115.054C96.7527 114.59 97.0178 114.229 97.3493 113.97C97.684 113.708 98.0486 113.526 98.443 113.423C98.8407 113.317 99.2318 113.264 99.6163 113.264C99.8616 113.264 100.143 113.294 100.461 113.354C100.783 113.41 101.093 113.528 101.391 113.707C101.693 113.886 101.943 114.156 102.142 114.517C102.341 114.878 102.44 115.362 102.44 115.969V121H101.267V119.966H101.207C101.128 120.132 100.995 120.309 100.809 120.498C100.624 120.687 100.377 120.848 100.069 120.98C99.7605 121.113 99.3843 121.179 98.9402 121.179ZM99.1191 120.125C99.5832 120.125 99.9743 120.034 100.292 119.852C100.614 119.669 100.856 119.434 101.018 119.146C101.184 118.857 101.267 118.554 101.267 118.236V117.162C101.217 117.222 101.108 117.276 100.939 117.326C100.773 117.372 100.581 117.414 100.362 117.45C100.147 117.483 99.9361 117.513 99.7306 117.54C99.5285 117.563 99.3644 117.583 99.2385 117.599C98.9335 117.639 98.6485 117.704 98.3833 117.793C98.1215 117.879 97.9094 118.01 97.747 118.186C97.5879 118.358 97.5083 118.594 97.5083 118.892C97.5083 119.3 97.6592 119.608 97.9608 119.817C98.2657 120.022 98.6518 120.125 99.1191 120.125ZM112.079 110.818V121H110.846V112.111H110.786L108.3 113.761V112.509L110.846 110.818H112.079ZM115.007 121V120.105L118.368 116.426C118.762 115.995 119.087 115.621 119.342 115.303C119.598 114.981 119.786 114.679 119.909 114.398C120.035 114.113 120.098 113.814 120.098 113.503C120.098 113.145 120.012 112.835 119.839 112.573C119.67 112.311 119.438 112.109 119.143 111.967C118.848 111.824 118.517 111.753 118.149 111.753C117.758 111.753 117.417 111.834 117.125 111.996C116.837 112.156 116.613 112.379 116.454 112.668C116.298 112.956 116.22 113.294 116.22 113.682H115.047C115.047 113.085 115.184 112.562 115.46 112.111C115.735 111.66 116.109 111.309 116.583 111.057C117.06 110.805 117.596 110.679 118.189 110.679C118.786 110.679 119.314 110.805 119.775 111.057C120.236 111.309 120.597 111.648 120.859 112.076C121.121 112.504 121.251 112.979 121.251 113.503C121.251 113.877 121.183 114.244 121.048 114.602C120.915 114.956 120.683 115.352 120.352 115.79C120.023 116.224 119.568 116.754 118.984 117.381L116.697 119.827V119.906H121.43V121H115.007ZM126.626 123.188V119.906H127.262C127.418 119.744 127.552 119.568 127.665 119.379C127.777 119.19 127.875 118.967 127.958 118.708C128.044 118.446 128.117 118.128 128.177 117.754C128.237 117.376 128.29 116.92 128.336 116.386L128.594 113.364H133.447V119.906H134.62V123.188H133.447V121H127.799V123.188H126.626ZM128.594 119.906H132.273V114.457H129.688L129.489 116.386C129.406 117.185 129.304 117.883 129.181 118.479C129.058 119.076 128.863 119.552 128.594 119.906ZM141.288 116.645V117.739H137.072V116.645H141.288ZM137.351 113.364V121H136.177V113.364H137.351ZM142.183 113.364V121H141.01V113.364H142.183ZM147.528 121.159C146.792 121.159 146.157 120.997 145.623 120.672C145.093 120.344 144.684 119.886 144.395 119.3C144.11 118.71 143.968 118.024 143.968 117.241C143.968 116.459 144.11 115.77 144.395 115.173C144.684 114.573 145.085 114.106 145.599 113.771C146.116 113.433 146.719 113.264 147.408 113.264C147.806 113.264 148.199 113.33 148.586 113.463C148.974 113.596 149.327 113.811 149.645 114.109C149.964 114.404 150.217 114.795 150.406 115.283C150.595 115.77 150.689 116.37 150.689 117.082V117.58H144.803V116.565H149.496C149.496 116.134 149.41 115.75 149.238 115.412C149.069 115.074 148.827 114.807 148.512 114.612C148.2 114.416 147.832 114.318 147.408 114.318C146.941 114.318 146.537 114.434 146.195 114.666C145.857 114.895 145.597 115.193 145.415 115.561C145.232 115.929 145.141 116.323 145.141 116.744V117.42C145.141 117.997 145.241 118.486 145.439 118.887C145.642 119.285 145.922 119.588 146.28 119.797C146.638 120.002 147.054 120.105 147.528 120.105C147.836 120.105 148.114 120.062 148.363 119.976C148.615 119.886 148.832 119.754 149.014 119.578C149.196 119.399 149.337 119.177 149.437 118.912L150.57 119.23C150.451 119.615 150.25 119.953 149.969 120.244C149.687 120.533 149.339 120.758 148.925 120.92C148.51 121.08 148.045 121.159 147.528 121.159ZM153.648 119.27L157.327 113.364H158.679V121H157.506V115.094L153.846 121H152.474V113.364H153.648V119.27ZM156.551 110.818H157.645C157.645 111.355 157.459 111.794 157.088 112.136C156.717 112.477 156.213 112.648 155.577 112.648C154.95 112.648 154.451 112.477 154.08 112.136C153.712 111.794 153.528 111.355 153.528 110.818H154.622C154.622 111.077 154.693 111.304 154.836 111.499C154.982 111.695 155.229 111.793 155.577 111.793C155.925 111.793 156.173 111.695 156.322 111.499C156.475 111.304 156.551 111.077 156.551 110.818Z" fill="#23262F"/>
<path d="M20 149C20 144.582 23.5817 141 28 141H272C276.418 141 280 144.582 280 149V181C280 185.418 276.418 189 272 189H28C23.5817 189 20 185.418 20 181V149Z" fill="#4B5DFF"/>
<path d="M93.1364 171.159C92.3864 171.159 91.7178 171.03 91.1307 170.773C90.5473 170.515 90.0833 170.157 89.7386 169.699C89.3977 169.237 89.2121 168.701 89.1818 168.091H90.6136C90.6439 168.466 90.7727 168.79 91 169.062C91.2273 169.331 91.5246 169.54 91.892 169.688C92.2595 169.835 92.6667 169.909 93.1136 169.909C93.6136 169.909 94.0568 169.822 94.4432 169.648C94.8295 169.473 95.1326 169.231 95.3523 168.92C95.572 168.61 95.6818 168.25 95.6818 167.841C95.6818 167.413 95.5758 167.036 95.3636 166.71C95.1515 166.381 94.8409 166.123 94.4318 165.938C94.0227 165.752 93.5227 165.659 92.9318 165.659H92V164.409H92.9318C93.3939 164.409 93.7992 164.326 94.1477 164.159C94.5 163.992 94.7746 163.758 94.9716 163.455C95.1723 163.152 95.2727 162.795 95.2727 162.386C95.2727 161.992 95.1856 161.65 95.0114 161.358C94.8371 161.066 94.5909 160.839 94.2727 160.676C93.9583 160.513 93.5871 160.432 93.1591 160.432C92.7576 160.432 92.3788 160.506 92.0227 160.653C91.6705 160.797 91.3826 161.008 91.1591 161.284C90.9356 161.557 90.8144 161.886 90.7955 162.273H89.4318C89.4545 161.663 89.6383 161.129 89.983 160.67C90.3277 160.208 90.7784 159.848 91.3352 159.591C91.8958 159.333 92.5114 159.205 93.1818 159.205C93.9015 159.205 94.5189 159.35 95.0341 159.642C95.5492 159.93 95.9451 160.311 96.2216 160.784C96.4981 161.258 96.6364 161.769 96.6364 162.318C96.6364 162.973 96.464 163.532 96.1193 163.994C95.7784 164.456 95.3144 164.777 94.7273 164.955V165.045C95.4621 165.167 96.036 165.479 96.4489 165.983C96.8617 166.483 97.0682 167.102 97.0682 167.841C97.0682 168.473 96.8958 169.042 96.5511 169.545C96.2102 170.045 95.7443 170.439 95.1534 170.727C94.5625 171.015 93.8902 171.159 93.1364 171.159ZM101.983 171.205C101.43 171.205 100.928 171.1 100.477 170.892C100.027 170.68 99.6686 170.375 99.4034 169.977C99.1383 169.576 99.0057 169.091 99.0057 168.523C99.0057 168.023 99.1042 167.617 99.3011 167.307C99.4981 166.992 99.7614 166.746 100.091 166.568C100.42 166.39 100.784 166.258 101.182 166.17C101.583 166.08 101.987 166.008 102.392 165.955C102.922 165.886 103.352 165.835 103.682 165.801C104.015 165.763 104.258 165.701 104.409 165.614C104.564 165.527 104.642 165.375 104.642 165.159V165.114C104.642 164.553 104.489 164.117 104.182 163.807C103.879 163.496 103.419 163.341 102.801 163.341C102.161 163.341 101.659 163.481 101.295 163.761C100.932 164.042 100.676 164.341 100.528 164.659L99.2557 164.205C99.483 163.674 99.786 163.261 100.165 162.966C100.547 162.667 100.964 162.458 101.415 162.341C101.869 162.22 102.316 162.159 102.756 162.159C103.036 162.159 103.358 162.193 103.722 162.261C104.089 162.326 104.443 162.46 104.784 162.665C105.129 162.869 105.415 163.178 105.642 163.591C105.869 164.004 105.983 164.557 105.983 165.25V171H104.642V169.818H104.574C104.483 170.008 104.331 170.21 104.119 170.426C103.907 170.642 103.625 170.826 103.273 170.977C102.92 171.129 102.491 171.205 101.983 171.205ZM102.188 170C102.718 170 103.165 169.896 103.528 169.688C103.896 169.479 104.172 169.21 104.358 168.881C104.547 168.551 104.642 168.205 104.642 167.841V166.614C104.585 166.682 104.46 166.744 104.267 166.801C104.078 166.854 103.858 166.902 103.608 166.943C103.362 166.981 103.121 167.015 102.886 167.045C102.655 167.072 102.468 167.095 102.324 167.114C101.975 167.159 101.65 167.233 101.347 167.335C101.047 167.434 100.805 167.583 100.619 167.784C100.438 167.981 100.347 168.25 100.347 168.591C100.347 169.057 100.519 169.409 100.864 169.648C101.212 169.883 101.653 170 102.188 170ZM108.43 171V162.273H115.294V171H113.953V163.523H109.771V171H108.43ZM117.743 174.273V162.273H119.038V163.659H119.197C119.296 163.508 119.432 163.314 119.607 163.08C119.785 162.841 120.038 162.629 120.368 162.443C120.701 162.254 121.152 162.159 121.72 162.159C122.455 162.159 123.103 162.343 123.663 162.71C124.224 163.078 124.661 163.598 124.976 164.273C125.29 164.947 125.447 165.742 125.447 166.659C125.447 167.583 125.29 168.384 124.976 169.062C124.661 169.737 124.226 170.259 123.669 170.631C123.112 170.998 122.47 171.182 121.743 171.182C121.182 171.182 120.733 171.089 120.396 170.903C120.059 170.714 119.8 170.5 119.618 170.261C119.436 170.019 119.296 169.818 119.197 169.659H119.084V174.273H117.743ZM119.061 166.636C119.061 167.295 119.158 167.877 119.351 168.381C119.544 168.881 119.826 169.273 120.197 169.557C120.569 169.837 121.023 169.977 121.561 169.977C122.122 169.977 122.589 169.83 122.964 169.534C123.343 169.235 123.627 168.833 123.817 168.33C124.01 167.822 124.107 167.258 124.107 166.636C124.107 166.023 124.012 165.47 123.822 164.977C123.637 164.481 123.355 164.089 122.976 163.801C122.601 163.509 122.129 163.364 121.561 163.364C121.016 163.364 120.557 163.502 120.186 163.778C119.815 164.051 119.535 164.434 119.345 164.926C119.156 165.415 119.061 165.985 119.061 166.636ZM131.038 171.182C130.25 171.182 129.559 170.994 128.964 170.619C128.374 170.244 127.911 169.72 127.578 169.045C127.249 168.371 127.084 167.583 127.084 166.682C127.084 165.773 127.249 164.979 127.578 164.301C127.911 163.623 128.374 163.097 128.964 162.722C129.559 162.347 130.25 162.159 131.038 162.159C131.826 162.159 132.516 162.347 133.107 162.722C133.701 163.097 134.163 163.623 134.493 164.301C134.826 164.979 134.993 165.773 134.993 166.682C134.993 167.583 134.826 168.371 134.493 169.045C134.163 169.72 133.701 170.244 133.107 170.619C132.516 170.994 131.826 171.182 131.038 171.182ZM131.038 169.977C131.637 169.977 132.129 169.824 132.516 169.517C132.902 169.21 133.188 168.807 133.374 168.307C133.559 167.807 133.652 167.265 133.652 166.682C133.652 166.098 133.559 165.555 133.374 165.051C133.188 164.547 132.902 164.14 132.516 163.83C132.129 163.519 131.637 163.364 131.038 163.364C130.44 163.364 129.947 163.519 129.561 163.83C129.175 164.14 128.889 164.547 128.703 165.051C128.518 165.555 128.425 166.098 128.425 166.682C128.425 167.265 128.518 167.807 128.703 168.307C128.889 168.807 129.175 169.21 129.561 169.517C129.947 169.824 130.44 169.977 131.038 169.977ZM140.585 171.182C139.767 171.182 139.063 170.989 138.472 170.602C137.881 170.216 137.426 169.684 137.108 169.006C136.79 168.328 136.631 167.553 136.631 166.682C136.631 165.795 136.794 165.013 137.119 164.335C137.449 163.653 137.907 163.121 138.494 162.739C139.085 162.352 139.775 162.159 140.562 162.159C141.176 162.159 141.729 162.273 142.222 162.5C142.714 162.727 143.117 163.045 143.432 163.455C143.746 163.864 143.941 164.341 144.017 164.886H142.676C142.574 164.489 142.347 164.136 141.994 163.83C141.646 163.519 141.176 163.364 140.585 163.364C140.063 163.364 139.604 163.5 139.21 163.773C138.82 164.042 138.515 164.422 138.295 164.915C138.08 165.403 137.972 165.977 137.972 166.636C137.972 167.311 138.078 167.898 138.29 168.398C138.506 168.898 138.809 169.286 139.199 169.562C139.593 169.839 140.055 169.977 140.585 169.977C140.934 169.977 141.25 169.917 141.534 169.795C141.818 169.674 142.059 169.5 142.256 169.273C142.453 169.045 142.593 168.773 142.676 168.455H144.017C143.941 168.97 143.754 169.434 143.455 169.847C143.159 170.256 142.767 170.581 142.278 170.824C141.794 171.062 141.229 171.182 140.585 171.182ZM147.318 169.023L151.523 162.273H153.068V171H151.727V164.25L147.545 171H145.977V162.273H147.318V169.023ZM154.337 163.523V162.273H161.428V163.523H158.564V171H157.223V163.523H154.337ZM164.543 165.432H167.043C168.065 165.432 168.848 165.691 169.389 166.21C169.931 166.729 170.202 167.386 170.202 168.182C170.202 168.705 170.08 169.18 169.838 169.608C169.596 170.032 169.24 170.371 168.77 170.625C168.3 170.875 167.724 171 167.043 171H163.384V162.273H164.724V169.75H167.043C167.573 169.75 168.009 169.61 168.349 169.33C168.69 169.049 168.861 168.689 168.861 168.25C168.861 167.788 168.69 167.411 168.349 167.119C168.009 166.828 167.573 166.682 167.043 166.682H164.543V165.432ZM180.288 171.182C179.47 171.182 178.766 170.989 178.175 170.602C177.584 170.216 177.129 169.684 176.811 169.006C176.493 168.328 176.334 167.553 176.334 166.682C176.334 165.795 176.497 165.013 176.822 164.335C177.152 163.653 177.61 163.121 178.197 162.739C178.788 162.352 179.478 162.159 180.266 162.159C180.879 162.159 181.432 162.273 181.925 162.5C182.417 162.727 182.821 163.045 183.135 163.455C183.449 163.864 183.644 164.341 183.72 164.886H182.379C182.277 164.489 182.05 164.136 181.697 163.83C181.349 163.519 180.879 163.364 180.288 163.364C179.766 163.364 179.307 163.5 178.913 163.773C178.523 164.042 178.218 164.422 177.999 164.915C177.783 165.403 177.675 165.977 177.675 166.636C177.675 167.311 177.781 167.898 177.993 168.398C178.209 168.898 178.512 169.286 178.902 169.562C179.296 169.839 179.758 169.977 180.288 169.977C180.637 169.977 180.953 169.917 181.237 169.795C181.521 169.674 181.762 169.5 181.959 169.273C182.156 169.045 182.296 168.773 182.379 168.455H183.72C183.644 168.97 183.457 169.434 183.158 169.847C182.862 170.256 182.47 170.581 181.982 170.824C181.497 171.062 180.932 171.182 180.288 171.182ZM192.408 162.273V171H191.067V162.273H192.408ZM191.885 166.432V167.682C191.582 167.795 191.281 167.896 190.982 167.983C190.682 168.066 190.368 168.133 190.038 168.182C189.709 168.227 189.347 168.25 188.953 168.25C187.964 168.25 187.171 167.983 186.572 167.449C185.978 166.915 185.68 166.114 185.68 165.045V162.25H187.021V165.045C187.021 165.492 187.107 165.86 187.277 166.148C187.447 166.436 187.679 166.65 187.97 166.79C188.262 166.93 188.589 167 188.953 167C189.521 167 190.035 166.949 190.493 166.847C190.955 166.741 191.419 166.602 191.885 166.432ZM198.527 171.182C197.686 171.182 196.961 170.996 196.351 170.625C195.745 170.25 195.277 169.727 194.947 169.057C194.622 168.383 194.459 167.598 194.459 166.705C194.459 165.811 194.622 165.023 194.947 164.341C195.277 163.655 195.735 163.121 196.322 162.739C196.913 162.352 197.603 162.159 198.391 162.159C198.845 162.159 199.294 162.235 199.737 162.386C200.18 162.538 200.584 162.784 200.947 163.125C201.311 163.462 201.601 163.909 201.817 164.466C202.033 165.023 202.141 165.708 202.141 166.523V167.091H195.413V165.932H200.777C200.777 165.439 200.679 165 200.482 164.614C200.288 164.227 200.012 163.922 199.652 163.699C199.296 163.475 198.875 163.364 198.391 163.364C197.857 163.364 197.394 163.496 197.004 163.761C196.618 164.023 196.321 164.364 196.112 164.784C195.904 165.205 195.8 165.655 195.8 166.136V166.909C195.8 167.568 195.913 168.127 196.141 168.585C196.372 169.04 196.692 169.386 197.101 169.625C197.51 169.86 197.985 169.977 198.527 169.977C198.879 169.977 199.197 169.928 199.482 169.83C199.769 169.727 200.018 169.576 200.226 169.375C200.434 169.17 200.595 168.917 200.709 168.614L202.004 168.977C201.868 169.417 201.639 169.803 201.317 170.136C200.995 170.466 200.597 170.723 200.124 170.909C199.65 171.091 199.118 171.182 198.527 171.182ZM203.368 163.523V162.273H210.459V163.523H207.595V171H206.254V163.523H203.368Z" fill="white"/>
<path d="M22.7037 219V208.818H26.2633C26.9726 208.818 27.5576 208.941 28.0183 209.186C28.479 209.428 28.822 209.754 29.0474 210.165C29.2728 210.573 29.3855 211.026 29.3855 211.523C29.3855 211.96 29.3076 212.321 29.1518 212.607C28.9993 212.892 28.7972 213.117 28.5453 213.283C28.2967 213.448 28.0266 213.571 27.7349 213.651V213.75C28.0465 213.77 28.3597 213.879 28.6745 214.078C28.9894 214.277 29.2529 214.562 29.465 214.933C29.6771 215.304 29.7832 215.759 29.7832 216.295C29.7832 216.806 29.6672 217.265 29.4352 217.673C29.2032 218.08 28.8369 218.403 28.3365 218.642C27.836 218.881 27.1847 219 26.3826 219H22.7037ZM23.9366 217.906H26.3826C27.188 217.906 27.7598 217.75 28.0978 217.439C28.4392 217.124 28.6099 216.743 28.6099 216.295C28.6099 215.951 28.5221 215.633 28.3464 215.341C28.1708 215.046 27.9205 214.811 27.5957 214.635C27.2709 214.456 26.8864 214.366 26.4423 214.366H23.9366V217.906ZM23.9366 213.293H26.2235C26.5948 213.293 26.9295 213.22 27.2278 213.074C27.5294 212.928 27.7681 212.723 27.9437 212.457C28.1227 212.192 28.2122 211.881 28.2122 211.523C28.2122 211.075 28.0564 210.696 27.7449 210.384C27.4333 210.069 26.9395 209.912 26.2633 209.912H23.9366V213.293ZM38.6898 219.159C37.9739 219.159 37.3574 218.99 36.8404 218.652C36.3233 218.314 35.9256 217.848 35.6472 217.255C35.3688 216.662 35.2296 215.984 35.2296 215.222C35.2296 214.446 35.3721 213.762 35.6571 213.168C35.9455 212.572 36.3465 212.106 36.8603 211.771C37.3773 211.433 37.9805 211.264 38.6699 211.264C39.2069 211.264 39.6908 211.364 40.1216 211.562C40.5525 211.761 40.9055 212.04 41.1806 212.398C41.4557 212.756 41.6264 213.173 41.6926 213.651H40.5194C40.4299 213.303 40.231 212.994 39.9228 212.726C39.6178 212.454 39.2069 212.318 38.6898 212.318C38.2324 212.318 37.8314 212.437 37.4867 212.676C37.1453 212.911 36.8785 213.245 36.6863 213.675C36.4973 214.103 36.4029 214.605 36.4029 215.182C36.4029 215.772 36.4957 216.286 36.6813 216.723C36.8702 217.161 37.1354 217.5 37.4767 217.742C37.8214 217.984 38.2258 218.105 38.6898 218.105C38.9947 218.105 39.2715 218.052 39.5201 217.946C39.7686 217.84 39.9791 217.688 40.1515 217.489C40.3238 217.29 40.4464 217.051 40.5194 216.773H41.6926C41.6264 217.223 41.4623 217.629 41.2005 217.991C40.9419 218.349 40.5989 218.634 40.1713 218.846C39.7471 219.055 39.2533 219.159 38.6898 219.159ZM43.4078 219V211.364H49.4135V219H48.2402V212.457H44.5811V219H43.4078ZM52.7296 217.27L56.4086 211.364H57.7608V219H56.5875V213.094L52.9284 219H51.5563V211.364H52.7296V217.27ZM63.0121 219.159C62.2962 219.159 61.6797 218.99 61.1626 218.652C60.6456 218.314 60.2479 217.848 59.9695 217.255C59.6911 216.662 59.5518 215.984 59.5518 215.222C59.5518 214.446 59.6944 213.762 59.9794 213.168C60.2678 212.572 60.6688 212.106 61.1825 211.771C61.6996 211.433 62.3028 211.264 62.9922 211.264C63.5291 211.264 64.013 211.364 64.4439 211.562C64.8748 211.761 65.2277 212.04 65.5028 212.398C65.7779 212.756 65.9486 213.173 66.0149 213.651H64.8416C64.7521 213.303 64.5533 212.994 64.245 212.726C63.9401 212.454 63.5291 212.318 63.0121 212.318C62.5547 212.318 62.1536 212.437 61.8089 212.676C61.4676 212.911 61.2008 213.245 61.0085 213.675C60.8196 214.103 60.7251 214.605 60.7251 215.182C60.7251 215.772 60.8179 216.286 61.0036 216.723C61.1925 217.161 61.4576 217.5 61.799 217.742C62.1437 217.984 62.5481 218.105 63.0121 218.105C63.317 218.105 63.5938 218.052 63.8423 217.946C64.0909 217.84 64.3014 217.688 64.4737 217.489C64.6461 217.29 64.7687 217.051 64.8416 216.773H66.0149C65.9486 217.223 65.7846 217.629 65.5227 217.991C65.2642 218.349 64.9212 218.634 64.4936 218.846C64.0694 219.055 63.5755 219.159 63.0121 219.159ZM70.8324 219.159C70.143 219.159 69.5381 218.995 69.0178 218.667C68.5007 218.339 68.0964 217.88 67.8047 217.29C67.5163 216.7 67.3722 216.01 67.3722 215.222C67.3722 214.426 67.5163 213.732 67.8047 213.138C68.0964 212.545 68.5007 212.085 69.0178 211.756C69.5381 211.428 70.143 211.264 70.8324 211.264C71.5218 211.264 72.125 211.428 72.642 211.756C73.1624 212.085 73.5668 212.545 73.8551 213.138C74.1468 213.732 74.2926 214.426 74.2926 215.222C74.2926 216.01 74.1468 216.7 73.8551 217.29C73.5668 217.88 73.1624 218.339 72.642 218.667C72.125 218.995 71.5218 219.159 70.8324 219.159ZM70.8324 218.105C71.3561 218.105 71.7869 217.971 72.125 217.702C72.4631 217.434 72.7133 217.081 72.8757 216.643C73.0381 216.206 73.1193 215.732 73.1193 215.222C73.1193 214.711 73.0381 214.236 72.8757 213.795C72.7133 213.354 72.4631 212.998 72.125 212.726C71.7869 212.454 71.3561 212.318 70.8324 212.318C70.3087 212.318 69.8778 212.454 69.5398 212.726C69.2017 212.998 68.9515 213.354 68.7891 213.795C68.6267 214.236 68.5455 214.711 68.5455 215.222C68.5455 215.732 68.6267 216.206 68.7891 216.643C68.9515 217.081 69.2017 217.434 69.5398 217.702C69.8778 217.971 70.3087 218.105 70.8324 218.105ZM76.0836 219V211.364H77.2569V214.685H78.0325L80.7768 211.364H82.2882L79.2058 215.043L82.3279 219H80.8166L78.3109 215.778H77.2569V219H76.0836Z" fill="#4B5DFF"/>
<path d="M21.4707 221.784H82.5268V222.739H21.4707V221.784Z" fill="#4B5DFF"/>
<path d="M236.442 206.925L237.908 209.858C238.108 210.267 238.642 210.658 239.092 210.733L241.75 211.175C243.45 211.458 243.85 212.692 242.625 213.908L240.558 215.975C240.208 216.325 240.017 217 240.125 217.483L240.717 220.042C241.183 222.067 240.108 222.85 238.317 221.792L235.825 220.317C235.375 220.05 234.633 220.05 234.175 220.317L231.683 221.792C229.9 222.85 228.817 222.058 229.283 220.042L229.875 217.483C229.983 217 229.792 216.325 229.442 215.975L227.375 213.908C226.158 212.692 226.55 211.458 228.25 211.175L230.908 210.733C231.35 210.658 231.883 210.267 232.083 209.858L233.55 206.925C234.35 205.333 235.65 205.333 236.442 206.925Z" stroke="#E9C401" stroke-linecap="round" stroke-linejoin="round"/>
<path d="M277.5 208.983C274.725 208.708 271.933 208.567 269.15 208.567C267.5 208.567 265.85 208.65 264.2 208.817L262.5 208.983" stroke="#F16063" stroke-linecap="round" stroke-linejoin="round"/>
<path d="M267.083 208.142L267.267 207.05C267.4 206.258 267.5 205.667 268.908 205.667H271.092C272.5 205.667 272.608 206.292 272.733 207.058L272.917 208.142" stroke="#F16063" stroke-linecap="round" stroke-linejoin="round"/>
<path d="M275.708 211.617L275.167 220.008C275.075 221.317 275 222.333 272.675 222.333H267.325C265 222.333 264.925 221.317 264.833 220.008L264.292 211.617" stroke="#F16063" stroke-linecap="round" stroke-linejoin="round"/>
</svg>
