<svg width="232" height="209" viewBox="0 0 232 209" fill="none" xmlns="http://www.w3.org/2000/svg">
<g clip-path="url(#clip0_119_2715)">
<path d="M118.815 0.604372L111.267 2.56074L18.2629 26.6637L10.714 28.6201C7.0499 29.5741 3.91194 31.9499 1.98861 35.2261C0.0652705 38.5023 -0.486377 42.4115 0.454688 46.096L33.1883 173.66C34.1376 177.343 36.5016 180.496 39.7616 182.429C43.0216 184.362 46.9115 184.916 50.5777 183.971L50.5972 183.966L158.66 155.96L158.679 155.955C162.343 155.001 165.481 152.625 167.405 149.349C169.328 146.073 169.88 142.163 168.938 138.479L136.205 10.9148C135.256 7.23241 132.892 4.07885 129.632 2.14594C126.372 0.213038 122.482 -0.341364 118.815 0.604372Z" fill="#F2F2F2"/>
<path d="M119.84 4.60341L110.899 6.9206L20.6798 30.302L11.7389 32.6192C9.12954 33.2985 6.89492 34.9903 5.52525 37.3234C4.15559 39.6565 3.76275 42.4403 4.4329 45.0641L37.1665 172.628C37.8425 175.251 39.526 177.496 41.8475 178.873C44.169 180.249 46.9391 180.644 49.5499 179.971L49.5694 179.965L157.632 151.96L157.651 151.955C160.261 151.275 162.495 149.584 163.865 147.251C165.235 144.917 165.627 142.134 164.957 139.51L132.224 11.9457C131.548 9.32342 129.864 7.07771 127.543 5.70124C125.221 4.32478 122.451 3.92996 119.84 4.60341Z" fill="white"/>
<path d="M113.09 45.9123L58.4243 60.0796C57.8137 60.2379 57.1656 60.1459 56.6225 59.8239C56.0794 59.5019 55.6859 58.9763 55.5284 58.3627C55.371 57.7491 55.4625 57.0978 55.7829 56.552C56.1033 56.0062 56.6263 55.6107 57.2369 55.4525L111.903 41.2851C112.513 41.1275 113.161 41.2199 113.704 41.542C114.246 41.864 114.639 42.3894 114.797 43.0026C114.954 43.6159 114.863 44.2668 114.543 44.8124C114.223 45.358 113.7 45.7536 113.09 45.9123Z" fill="#F2F2F2"/>
<path d="M124.59 51.2595L60.4272 67.888C59.8166 68.0462 59.1685 67.9542 58.6254 67.6322C58.0824 67.3102 57.6888 66.7846 57.5314 66.171C57.3739 65.5574 57.4655 64.9061 57.7859 64.3603C58.1063 63.8145 58.6293 63.419 59.2398 63.2608L123.402 46.6323C124.013 46.4741 124.661 46.5661 125.204 46.8881C125.747 47.2101 126.141 47.7357 126.298 48.3493C126.456 48.9629 126.364 49.6142 126.044 50.16C125.723 50.7058 125.2 51.1013 124.59 51.2595Z" fill="#F2F2F2"/>
<path d="M122.069 80.905L67.4028 95.0724C67.1005 95.1507 66.7857 95.1684 66.4766 95.1246C66.1674 95.0807 65.8699 94.976 65.601 94.8166C65.3321 94.6572 65.0971 94.4461 64.9094 94.1954C64.7217 93.9446 64.5849 93.6592 64.507 93.3554C64.429 93.0516 64.4113 92.7353 64.455 92.4246C64.4987 92.1139 64.6028 91.8149 64.7614 91.5447C64.9201 91.2745 65.1301 91.0383 65.3796 90.8496C65.6291 90.661 65.9131 90.5235 66.2154 90.4452L120.882 76.2778C121.184 76.1995 121.499 76.1817 121.808 76.2256C122.117 76.2695 122.414 76.3742 122.683 76.5336C122.952 76.693 123.187 76.9041 123.375 77.1548C123.563 77.4056 123.699 77.691 123.777 77.9948C123.855 78.2986 123.873 78.6149 123.829 78.9256C123.786 79.2363 123.682 79.5353 123.523 79.8055C123.364 80.0757 123.154 80.3119 122.905 80.5006C122.655 80.6892 122.371 80.8266 122.069 80.905Z" fill="#F2F2F2"/>
<path d="M133.569 86.2527L69.4067 102.881C69.1044 102.959 68.7896 102.977 68.4805 102.933C68.1713 102.889 67.8738 102.785 67.6049 102.625C67.336 102.466 67.101 102.255 66.9133 102.004C66.7256 101.753 66.5888 101.468 66.5109 101.164C66.4329 100.86 66.4152 100.544 66.4589 100.233C66.5026 99.9227 66.6067 99.6237 66.7653 99.3535C66.924 99.0832 67.134 98.847 67.3835 98.6584C67.633 98.4697 67.917 98.3323 68.2193 98.2539L132.382 81.6255C132.992 81.4673 133.64 81.5593 134.184 81.8813C134.727 82.2032 135.12 82.7289 135.278 83.3425C135.435 83.9561 135.343 84.6074 135.023 85.1532C134.703 85.6989 134.18 86.0944 133.569 86.2527Z" fill="#F2F2F2"/>
<path d="M131.049 115.898L76.3826 130.066C75.7722 130.223 75.1245 130.131 74.5818 129.809C74.0391 129.487 73.6458 128.961 73.4884 128.348C73.331 127.735 73.4224 127.084 73.7425 126.538C74.0625 125.993 74.5851 125.597 75.1953 125.438L129.861 111.271C130.472 111.113 131.12 111.205 131.663 111.527C132.206 111.849 132.6 112.374 132.757 112.988C132.915 113.602 132.823 114.253 132.503 114.799C132.182 115.344 131.659 115.74 131.049 115.898Z" fill="#F2F2F2"/>
<path d="M142.549 121.245L78.3863 137.873C78.0838 137.952 77.7689 137.97 77.4596 137.926C77.1503 137.883 76.8525 137.778 76.5834 137.619C76.3143 137.459 76.079 137.248 75.8912 136.997C75.7033 136.746 75.5664 136.461 75.4884 136.157C75.4104 135.853 75.3928 135.536 75.4365 135.226C75.4803 134.915 75.5846 134.616 75.7434 134.345C75.9023 134.075 76.1126 133.839 76.3623 133.65C76.6121 133.462 76.8963 133.324 77.1989 133.246L141.361 116.618C141.972 116.459 142.62 116.551 143.163 116.873C143.706 117.195 144.1 117.721 144.257 118.335C144.415 118.948 144.323 119.6 144.003 120.145C143.682 120.691 143.159 121.087 142.549 121.245Z" fill="#F2F2F2"/>
<path d="M49.0909 74.6057L29.7451 79.6194C29.4523 79.695 29.1417 79.6507 28.8814 79.4964C28.6211 79.342 28.4323 79.0902 28.3565 78.7962L23.9157 61.4901C23.8406 61.1959 23.8846 60.8837 24.0382 60.6221C24.1918 60.3605 24.4423 60.1708 24.7349 60.0947L44.0808 55.0809C44.3735 55.0054 44.6841 55.0497 44.9444 55.204C45.2047 55.3584 45.3935 55.6102 45.4693 55.9042L49.9101 73.2103C49.9853 73.5045 49.9412 73.8167 49.7877 74.0783C49.6341 74.3399 49.3835 74.5296 49.0909 74.6057Z" fill="#E6E6E6"/>
<path d="M58.0714 109.599L38.7256 114.613C38.4328 114.688 38.1222 114.644 37.8619 114.489C37.6016 114.335 37.4128 114.083 37.337 113.789L32.8962 96.4832C32.821 96.189 32.8651 95.8769 33.0187 95.6153C33.1723 95.3537 33.4228 95.164 33.7154 95.0878L53.0612 90.0741C53.354 89.9986 53.6646 90.0428 53.9249 90.1972C54.1852 90.3515 54.374 90.6034 54.4497 90.8974L58.8906 108.203C58.9657 108.498 58.9217 108.81 58.7681 109.071C58.6145 109.333 58.3639 109.523 58.0714 109.599Z" fill="#E6E6E6"/>
<path d="M67.0499 144.592L47.7041 149.605C47.4113 149.681 47.1007 149.637 46.8404 149.482C46.5801 149.328 46.3913 149.076 46.3155 148.782L41.8747 131.476C41.7996 131.182 41.8436 130.87 41.9972 130.608C42.1508 130.346 42.4013 130.157 42.6939 130.08L62.0398 125.067C62.3325 124.991 62.6431 125.036 62.9034 125.19C63.1637 125.344 63.3525 125.596 63.4283 125.89L67.8691 143.196C67.9443 143.49 67.9002 143.803 67.7466 144.064C67.5931 144.326 67.3425 144.515 67.0499 144.592Z" fill="#E6E6E6"/>
<path d="M194.211 32.9399H82.5726C78.7875 32.9442 75.1586 34.4572 72.4821 37.147C69.8057 39.8368 68.3002 43.4837 68.2959 47.2876V179.025C68.3002 182.829 69.8057 186.476 72.4821 189.166C75.1586 191.856 78.7875 193.369 82.5726 193.373H194.211C197.996 193.369 201.625 191.856 204.301 189.166C206.977 186.476 208.483 182.829 208.487 179.025V47.2876C208.483 43.4837 206.977 39.8368 204.301 37.147C201.625 34.4572 197.996 32.9442 194.211 32.9399Z" fill="#E6E6E6"/>
<path d="M194.21 37.0703H82.5721C79.8766 37.0733 77.2924 38.1508 75.3864 40.0662C73.4804 41.9817 72.4083 44.5787 72.4053 47.2876V179.025C72.4083 181.734 73.4804 184.331 75.3864 186.247C77.2924 188.162 79.8766 189.239 82.5721 189.242H194.21C196.906 189.239 199.49 188.162 201.396 186.247C203.302 184.331 204.374 181.734 204.377 179.025V47.2876C204.374 44.5788 203.302 41.9817 201.396 40.0663C199.49 38.1508 196.906 37.0734 194.21 37.0703Z" fill="white"/>
<path d="M205.939 209.401C220.332 209.401 232 197.675 232 183.21C232 168.745 220.332 157.019 205.939 157.019C191.545 157.019 179.877 168.745 179.877 183.21C179.877 197.675 191.545 209.401 205.939 209.401Z" fill="#4B5DFF"/>
<path d="M218.403 179.794H209.338V170.684C209.338 169.778 208.98 168.909 208.342 168.268C207.705 167.628 206.84 167.268 205.939 167.268C205.037 167.268 204.173 167.628 203.535 168.268C202.898 168.909 202.539 169.778 202.539 170.684V179.794H193.475C192.573 179.794 191.708 180.154 191.071 180.794C190.433 181.435 190.075 182.304 190.075 183.21C190.075 184.116 190.433 184.985 191.071 185.626C191.708 186.266 192.573 186.626 193.475 186.626H202.539V195.736C202.539 196.642 202.898 197.511 203.535 198.152C204.173 198.792 205.037 199.152 205.939 199.152C206.84 199.152 207.705 198.792 208.342 198.152C208.98 197.511 209.338 196.642 209.338 195.736V186.626H218.403C219.305 186.626 220.169 186.266 220.807 185.626C221.444 184.985 221.802 184.116 221.802 183.21C221.802 182.304 221.444 181.435 220.807 180.794C220.169 180.154 219.305 179.794 218.403 179.794Z" fill="white"/>
<path d="M177.409 109.46H120.954C120.642 109.46 120.332 109.399 120.044 109.279C119.755 109.159 119.493 108.983 119.272 108.761C119.05 108.539 118.875 108.275 118.755 107.985C118.636 107.695 118.574 107.384 118.574 107.07C118.574 106.756 118.636 106.446 118.755 106.155C118.875 105.865 119.05 105.602 119.272 105.38C119.493 105.158 119.755 104.982 120.044 104.862C120.332 104.742 120.642 104.681 120.954 104.681H177.409C178.039 104.682 178.643 104.934 179.088 105.382C179.534 105.83 179.784 106.437 179.784 107.07C179.784 107.704 179.534 108.311 179.088 108.759C178.643 109.207 178.039 109.459 177.409 109.46Z" fill="#E6E6E6"/>
<path d="M187.216 117.524H120.954C120.642 117.524 120.332 117.462 120.044 117.343C119.755 117.223 119.493 117.047 119.272 116.825C119.05 116.603 118.875 116.339 118.755 116.049C118.636 115.759 118.574 115.448 118.574 115.134C118.574 114.82 118.636 114.509 118.755 114.219C118.875 113.929 119.05 113.666 119.272 113.444C119.493 113.222 119.755 113.046 120.044 112.926C120.332 112.806 120.642 112.745 120.954 112.745H187.216C187.846 112.745 188.451 112.997 188.897 113.445C189.343 113.893 189.593 114.501 189.593 115.134C189.593 115.768 189.343 116.376 188.897 116.824C188.451 117.272 187.846 117.524 187.216 117.524Z" fill="#E6E6E6"/>
<path d="M177.409 145.597H120.954C120.642 145.598 120.332 145.536 120.044 145.416C119.755 145.296 119.493 145.12 119.272 144.899C119.05 144.677 118.875 144.413 118.755 144.123C118.636 143.833 118.574 143.522 118.574 143.208C118.574 142.894 118.636 142.583 118.755 142.293C118.875 142.003 119.05 141.74 119.272 141.518C119.493 141.296 119.755 141.12 120.044 141C120.332 140.88 120.642 140.818 120.954 140.819H177.409C178.039 140.819 178.644 141.071 179.09 141.519C179.536 141.967 179.786 142.574 179.786 143.208C179.786 143.842 179.536 144.45 179.09 144.898C178.644 145.346 178.039 145.597 177.409 145.597Z" fill="#E6E6E6"/>
<path d="M187.216 153.661H120.954C120.642 153.662 120.332 153.6 120.044 153.48C119.755 153.36 119.493 153.184 119.272 152.963C119.05 152.741 118.875 152.477 118.755 152.187C118.636 151.897 118.574 151.586 118.574 151.272C118.574 150.958 118.636 150.647 118.755 150.357C118.875 150.067 119.05 149.804 119.272 149.582C119.493 149.36 119.755 149.184 120.044 149.064C120.332 148.944 120.642 148.882 120.954 148.883H187.216C187.528 148.882 187.838 148.944 188.127 149.064C188.415 149.184 188.678 149.36 188.899 149.582C189.12 149.804 189.295 150.067 189.415 150.357C189.534 150.647 189.596 150.958 189.596 151.272C189.596 151.586 189.534 151.897 189.415 152.187C189.295 152.477 189.12 152.741 188.899 152.963C188.678 153.184 188.415 153.36 188.127 153.48C187.838 153.6 187.528 153.662 187.216 153.661Z" fill="#E6E6E6"/>
<path d="M108.307 121.184H88.3285C88.0262 121.184 87.7365 121.063 87.5228 120.848C87.309 120.633 87.1888 120.342 87.1885 120.038V102.166C87.1888 101.862 87.309 101.571 87.5228 101.356C87.7365 101.142 88.0262 101.021 88.3285 101.021H108.307C108.609 101.021 108.899 101.142 109.113 101.356C109.327 101.571 109.447 101.862 109.447 102.166V120.038C109.447 120.342 109.327 120.633 109.113 120.848C108.899 121.063 108.609 121.184 108.307 121.184Z" fill="#E6E6E6"/>
<path d="M108.307 157.322H88.3285C88.0262 157.321 87.7365 157.201 87.5227 156.986C87.309 156.771 87.1888 156.48 87.1885 156.176V138.304C87.1888 138 87.309 137.709 87.5227 137.494C87.7365 137.279 88.0262 137.159 88.3285 137.158H108.307C108.609 137.159 108.899 137.279 109.113 137.494C109.327 137.709 109.447 138 109.447 138.304V156.176C109.447 156.48 109.327 156.771 109.113 156.986C108.899 157.201 108.609 157.321 108.307 157.322Z" fill="#E6E6E6"/>
<path d="M177.471 69.2312H135.849C135.219 69.2312 134.614 68.9794 134.168 68.5314C133.722 68.0833 133.472 67.4756 133.472 66.8419C133.472 66.2082 133.722 65.6005 134.168 65.1524C134.614 64.7044 135.219 64.4526 135.849 64.4526H177.471C178.101 64.4526 178.706 64.7044 179.152 65.1524C179.598 65.6005 179.848 66.2082 179.848 66.8419C179.848 67.4756 179.598 68.0833 179.152 68.5314C178.706 68.9794 178.101 69.2312 177.471 69.2312Z" fill="#CCCCCC"/>
<path d="M187.278 77.2951H135.849C135.537 77.2951 135.228 77.2333 134.939 77.1133C134.651 76.9932 134.389 76.8172 134.168 76.5953C133.947 76.3735 133.772 76.1101 133.653 75.8202C133.533 75.5303 133.472 75.2196 133.472 74.9059C133.472 74.5921 133.533 74.2814 133.653 73.9915C133.772 73.7017 133.947 73.4383 134.168 73.2164C134.389 72.9945 134.651 72.8185 134.939 72.6985C135.228 72.5784 135.537 72.5166 135.849 72.5166H187.278C187.908 72.5166 188.513 72.7683 188.959 73.2164C189.405 73.6645 189.655 74.2722 189.655 74.9059C189.655 75.5395 189.405 76.1473 188.959 76.5953C188.513 77.0434 187.908 77.2951 187.278 77.2951Z" fill="#CCCCCC"/>
<path d="M126.638 87.0676H88.266C87.9637 87.0673 87.674 86.9465 87.4602 86.7317C87.2465 86.517 87.1263 86.2257 87.126 85.922V55.8263C87.1263 55.5226 87.2465 55.2314 87.4602 55.0166C87.674 54.8018 87.9637 54.681 88.266 54.6807H126.638C126.94 54.681 127.23 54.8018 127.443 55.0166C127.657 55.2314 127.777 55.5226 127.778 55.8263V85.922C127.777 86.2257 127.657 86.517 127.443 86.7317C127.23 86.9465 126.94 87.0673 126.638 87.0676Z" fill="#4B5DFF"/>
</g>
<defs>
<clipPath id="clip0_119_2715">
<rect width="232" height="209" fill="white"/>
</clipPath>
</defs>
</svg>
