<svg width="235" height="192" viewBox="0 0 235 192" fill="none" xmlns="http://www.w3.org/2000/svg">
<path d="M7.55533 2C7.14297 2.00043 6.74763 2.15521 6.45605 2.43039C6.16446 2.70556 6.00045 3.07866 6 3.46782V53.5322C6.00045 53.9213 6.16446 54.2944 6.45605 54.5696C6.74763 54.8448 7.14297 54.9996 7.55533 55H188.445C188.857 54.9996 189.252 54.8448 189.544 54.5696C189.836 54.2944 190 53.9213 190 53.5322V3.46782C190 3.07866 189.836 2.70556 189.544 2.43039C189.252 2.15521 188.857 2.00043 188.445 2H7.55533Z" fill="#E6E6E6"/>
<path d="M7.97852 53.4755H187.878V3.9873H7.97852V53.4755Z" fill="white"/>
<path d="M165.172 43.209C164.826 43.209 164.484 43.2772 164.165 43.4097C163.846 43.5422 163.556 43.7363 163.311 43.9812C163.067 44.226 162.873 44.5166 162.741 44.8364C162.609 45.1563 162.541 45.4991 162.541 45.8453C162.541 46.1916 162.609 46.5344 162.741 46.8542C162.873 47.1741 163.067 47.4647 163.311 47.7095C163.556 47.9543 163.846 48.1485 164.165 48.281C164.484 48.4135 164.826 48.4817 165.172 48.4817H175.693C176.039 48.4817 176.381 48.4135 176.7 48.281C177.019 48.1485 177.309 47.9543 177.553 47.7095C177.798 47.4647 177.992 47.1741 178.124 46.8542C178.256 46.5344 178.324 46.1916 178.324 45.8453C178.324 45.4991 178.256 45.1563 178.124 44.8364C177.992 44.5166 177.798 44.226 177.553 43.9812C177.309 43.7363 177.019 43.5422 176.7 43.4097C176.381 43.2772 176.039 43.209 175.693 43.209H165.172Z" fill="#4B5DFF"/>
<path d="M178.324 38.0957H56.8613V38.7896H178.324V38.0957Z" fill="#E6E6E6"/>
<path d="M31.4715 44.0864C39.9332 44.0864 46.7927 37.2119 46.7927 28.7317C46.7927 20.2515 39.9332 13.377 31.4715 13.377C23.0099 13.377 16.1504 20.2515 16.1504 28.7317C16.1504 37.2119 23.0099 44.0864 31.4715 44.0864Z" fill="#E6E6E6"/>
<path d="M57.0547 34.2221L56.6709 33.6449L69.2925 25.2121L77.9473 29.376L90.3965 21.4048L90.5648 21.4766L115.162 31.9922L134.883 22.2831L154.033 30.064L178.096 34.9662L178.555 35.4856L154.171 30.8688L134.909 23.0423L115.181 32.7544L90.4606 22.1862L77.9945 30.1679L69.3472 26.0081L57.0547 34.2221Z" fill="#3F3D56"/>
<path d="M59.1098 43.5726C58.5195 43.5821 57.9566 43.8238 57.5426 44.2454C57.1285 44.6671 56.8965 45.235 56.8965 45.8267C56.8965 46.4183 57.1285 46.9862 57.5426 47.4079C57.9566 47.8296 58.5195 48.0712 59.1098 48.0808H82.6409C83.2369 48.0896 83.8121 47.8609 84.24 47.4451C84.668 47.0292 84.9137 46.4601 84.9232 45.8628C84.9328 45.2654 84.7054 44.6887 84.291 44.2593C83.8766 43.8299 83.3091 43.5829 82.7131 43.5726C82.689 43.5722 82.665 43.5722 82.6409 43.5726H59.1098Z" fill="#E6E6E6"/>
<path d="M37.634 28.5411C37.4617 28.3684 37.228 28.2714 36.9843 28.2714C36.7406 28.2714 36.5069 28.3684 36.3345 28.541L36.3345 28.5411L32.39 32.4942V22.7462C32.388 22.5033 32.2903 22.2711 32.1182 22.1C31.9461 21.929 31.7135 21.833 31.4712 21.833C31.2288 21.833 30.9962 21.929 30.8241 22.1C30.652 22.2711 30.5543 22.5033 30.5523 22.7462V32.4942L26.6078 28.5411C26.4358 28.3686 26.2025 28.2715 25.9592 28.2712C25.7159 28.2708 25.4824 28.3672 25.3099 28.5392C25.1374 28.7112 25.04 28.9448 25.0391 29.1886C25.0382 29.4325 25.1338 29.6667 25.305 29.84L25.3083 29.8433L30.8214 35.3685C30.9937 35.5412 31.2275 35.6382 31.4712 35.6382C31.7149 35.6382 31.9486 35.5412 32.1209 35.3685L37.634 29.8433C37.8063 29.6707 37.9031 29.4364 37.9031 29.1922C37.9031 28.948 37.8063 28.7138 37.634 28.5411Z" fill="white"/>
<path d="M7.55534 137C7.14298 137 6.74764 137.155 6.45605 137.43C6.16447 137.706 6.00045 138.079 6 138.468V188.532C6.00045 188.921 6.16447 189.294 6.45605 189.57C6.74764 189.845 7.14298 190 7.55534 190H188.445C188.857 190 189.252 189.845 189.544 189.57C189.836 189.294 190 188.921 190 188.532V138.468C190 138.079 189.836 137.706 189.544 137.43C189.252 137.155 188.857 137 188.445 137H7.55534Z" fill="#E6E6E6"/>
<path d="M7.97949 188.284H187.88V138.796H7.97949V188.284Z" fill="white"/>
<path d="M165.172 178.018C164.474 178.018 163.805 178.295 163.312 178.79C162.818 179.284 162.541 179.955 162.541 180.654C162.541 181.353 162.818 182.024 163.312 182.518C163.805 183.013 164.474 183.29 165.172 183.29H175.693C176.391 183.29 177.06 183.013 177.553 182.518C178.047 182.024 178.324 181.353 178.324 180.654C178.324 179.955 178.047 179.284 177.553 178.79C177.06 178.295 176.391 178.018 175.693 178.018H165.172Z" fill="#4B5DFF"/>
<path d="M178.324 172.904H56.8613V173.598H178.324V172.904Z" fill="#E6E6E6"/>
<path d="M31.4715 178.895C39.9332 178.895 46.7927 172.02 46.7927 163.54C46.7927 155.06 39.9332 148.186 31.4715 148.186C23.0099 148.186 16.1504 155.06 16.1504 163.54C16.1504 172.02 23.0099 178.895 31.4715 178.895Z" fill="#4B5DFF"/>
<path d="M57.0537 169.031L56.6699 168.454L69.2915 160.021L77.9463 164.185L90.3961 156.211L115.161 166.798L134.882 157.089L154.03 164.872L178.093 155.185L178.551 155.704L154.17 165.677L134.909 157.851L115.181 167.563L90.4608 156.995L77.9953 164.977L69.348 160.817L57.0537 169.031Z" fill="#3F3D56"/>
<path d="M59.1098 178.38C58.5195 178.39 57.9566 178.631 57.5426 179.053C57.1285 179.475 56.8965 180.043 56.8965 180.634C56.8965 181.226 57.1285 181.794 57.5426 182.215C57.9566 182.637 58.5195 182.879 59.1098 182.888H82.6409C82.9362 182.893 83.2297 182.84 83.5044 182.731C83.7791 182.622 84.0298 182.46 84.242 182.254C84.4543 182.048 84.624 181.802 84.7415 181.531C84.8589 181.259 84.9219 180.967 84.9267 180.671C84.9315 180.375 84.8781 180.081 84.7695 179.806C84.6609 179.53 84.4993 179.279 84.2938 179.066C84.0884 178.854 83.8431 178.684 83.5721 178.566C83.301 178.448 83.0095 178.385 82.7141 178.38C82.6897 178.38 82.6653 178.38 82.6409 178.38H59.1098Z" fill="#E6E6E6"/>
<path d="M25.3092 163.731C25.3945 163.816 25.4958 163.884 25.6072 163.931C25.7187 163.977 25.8382 164.001 25.9589 164.001C26.0795 164.001 26.199 163.977 26.3105 163.931C26.422 163.884 26.5233 163.816 26.6086 163.731L26.6086 163.731L30.5531 159.778V169.526C30.5542 169.769 30.6511 170.002 30.8227 170.173C30.9942 170.345 31.2266 170.442 31.469 170.443C31.7115 170.443 31.9445 170.348 32.1171 170.177C32.2898 170.007 32.3882 169.775 32.3908 169.532V159.778L36.3353 163.731C36.5072 163.904 36.7406 164.002 36.9843 164.002C37.228 164.003 37.462 163.907 37.6348 163.734C37.8075 163.562 37.9049 163.328 37.9055 163.084C37.9062 162.84 37.81 162.605 37.6381 162.432L37.6348 162.429L32.1217 156.903C31.9494 156.731 31.7157 156.634 31.472 156.634C31.2283 156.634 30.9946 156.731 30.8222 156.903L25.3092 162.429C25.2239 162.514 25.1562 162.616 25.11 162.727C25.0638 162.839 25.04 162.959 25.04 163.08C25.04 163.201 25.0638 163.32 25.11 163.432C25.1562 163.544 25.2239 163.645 25.3092 163.731Z" fill="white"/>
<path d="M39.5553 69C39.143 69.0004 38.7476 69.1552 38.4561 69.4304C38.1645 69.7056 38.0005 70.0787 38 70.4678V120.532C38.0005 120.921 38.1645 121.294 38.4561 121.57C38.7476 121.845 39.143 122 39.5553 122H220.445C220.857 122 221.252 121.845 221.544 121.57C221.836 121.294 222 120.921 222 120.532V70.4678C222 70.0787 221.836 69.7056 221.544 69.4304C221.252 69.1552 220.857 69.0004 220.445 69H39.5553Z" fill="#E6E6E6"/>
<path d="M39.9795 120.284H219.88V70.7959H39.9795V120.284Z" fill="white"/>
<path d="M197.172 110.018C196.474 110.018 195.805 110.295 195.312 110.79C194.818 111.284 194.541 111.955 194.541 112.654C194.541 113.353 194.818 114.024 195.312 114.518C195.805 115.013 196.474 115.29 197.172 115.29H207.693C208.391 115.29 209.06 115.013 209.553 114.518C210.047 114.024 210.324 113.353 210.324 112.654C210.324 111.955 210.047 111.284 209.553 110.79C209.06 110.295 208.391 110.018 207.693 110.018H197.172Z" fill="#4B5DFF"/>
<path d="M210.324 104.904H88.8613V105.598H210.324V104.904Z" fill="#E6E6E6"/>
<path d="M63.4715 110.895C71.9332 110.895 78.7927 104.02 78.7927 95.5403C78.7927 87.0601 71.9332 80.1855 63.4715 80.1855C55.0099 80.1855 48.1504 87.0601 48.1504 95.5403C48.1504 104.02 55.0099 110.895 63.4715 110.895Z" fill="#4B5DFF"/>
<path d="M89.0537 101.031L88.6699 100.454L101.291 92.0208L109.946 96.1847L122.396 88.2111L147.161 98.798L166.882 89.0888L186.03 96.8721L210.093 87.1846L210.551 87.704L186.17 97.6768L166.909 89.8509L147.181 99.563L122.461 88.9948L109.995 96.9771L101.348 92.8173L89.0537 101.031Z" fill="#3F3D56"/>
<path d="M91.1098 110.38C90.5195 110.39 89.9566 110.631 89.5426 111.053C89.1285 111.475 88.8965 112.043 88.8965 112.634C88.8965 113.226 89.1285 113.794 89.5426 114.215C89.9566 114.637 90.5195 114.879 91.1098 114.888H114.641C114.936 114.893 115.23 114.84 115.504 114.731C115.779 114.622 116.03 114.46 116.242 114.254C116.454 114.048 116.624 113.802 116.741 113.531C116.859 113.259 116.922 112.967 116.927 112.671C116.931 112.375 116.878 112.081 116.769 111.806C116.661 111.53 116.499 111.279 116.294 111.066C116.088 110.854 115.843 110.684 115.572 110.566C115.301 110.448 115.009 110.385 114.714 110.38C114.69 110.38 114.665 110.38 114.641 110.38H91.1098Z" fill="#E6E6E6"/>
<path d="M57.3092 95.7309C57.3945 95.8165 57.4958 95.8843 57.6072 95.9306C57.7187 95.9768 57.8382 96.0007 57.9589 96.0007C58.0795 96.0007 58.199 95.9769 58.3105 95.9306C58.422 95.8843 58.5233 95.8165 58.6086 95.731L58.6086 95.7309L62.5531 91.7778V101.526C62.5542 101.769 62.6511 102.002 62.8227 102.173C62.9942 102.345 63.2266 102.442 63.469 102.443C63.7115 102.443 63.9445 102.348 64.1171 102.177C64.2898 102.007 64.3882 101.775 64.3908 101.532V91.7778L68.3353 95.7309C68.5072 95.9041 68.7406 96.0017 68.9843 96.0023C69.228 96.003 69.462 95.9065 69.6348 95.7343C69.8075 95.562 69.9049 95.3281 69.9055 95.0838C69.9062 94.8396 69.81 94.6051 69.6381 94.432L69.6348 94.4286L64.1217 88.9035C63.9494 88.7308 63.7157 88.6338 63.472 88.6338C63.2283 88.6338 62.9946 88.7308 62.8222 88.9035L57.3092 94.4286C57.2239 94.5142 57.1562 94.6157 57.11 94.7274C57.0638 94.8391 57.04 94.9589 57.04 95.0798C57.04 95.2007 57.0638 95.3205 57.11 95.4322C57.1562 95.5439 57.2239 95.6454 57.3092 95.7309Z" fill="white"/>
</svg>
