<svg width="142" height="231" viewBox="0 0 142 231" fill="none" xmlns="http://www.w3.org/2000/svg">
<g clip-path="url(#clip0_119_2767)">
<path d="M43.0921 44.0052C42.3538 46.9442 39.9479 52.8539 39.9268 55.9017L40.0931 55.6863C40.5443 56.2636 41.0414 56.8034 41.5793 57.3004C42.2892 56.3157 43.1959 55.4899 44.2416 54.8758C43.8052 56.2034 43.6382 57.6052 43.7506 58.9985C45.4454 62.5709 50.7139 60.1592 53.8776 59.3128C57.5919 62.5608 61.9991 62.9398 67.312 60.0574C68.9003 60.0056 70.6669 59.8648 71.6387 58.7874C72.6104 57.71 67.5559 52.2009 67.9702 50.8209C70.9212 40.9908 70.7544 42.0599 66.887 38.3119C66.036 37.4872 65.8521 36.1083 64.8494 35.3473C63.4584 34.2927 61.5291 34.173 59.7565 34.108C60.2096 34.0704 60.6454 33.9166 61.022 33.6613C61.3986 33.4059 61.7033 33.0577 61.9067 32.6502C62.0786 32.244 62.1353 31.7982 62.0705 31.3619C62.0057 30.9255 61.8219 30.5156 61.5395 30.1772C60.7805 29.2323 59.4123 28.8091 58.1504 28.8288C56.9158 28.9122 55.7014 29.1856 54.5497 29.6392C53.792 29.8461 53.0772 30.1874 52.4394 30.6468C52.1386 30.8645 51.9112 31.169 51.7877 31.5197C51.6642 31.8704 51.6504 32.2505 51.7482 32.6093C51.8974 32.9326 52.1175 33.2179 52.3921 33.444C52.6666 33.6701 52.9885 33.8312 53.3338 33.9152C53.8625 34.0589 54.4078 34.1315 54.9556 34.1312C52.4416 34.1464 49.9918 34.9288 47.9323 36.374C45.358 38.2364 43.8344 41.0672 43.0921 44.0052Z" fill="#2F2E41"/>
<path d="M68.6264 49.98C69.9182 44.5899 66.6066 39.1706 61.2298 37.8756C55.853 36.5807 50.4471 39.9004 49.1553 45.2906C47.8636 50.6807 51.1752 56.1001 56.552 57.395C61.9288 58.69 67.3347 55.3702 68.6264 49.98Z" fill="#FFB6B6"/>
<path d="M52.2075 43.6032C53.0191 45.2676 54.7391 45.6052 56.3061 45.7484C56.8003 45.7951 57.2965 45.8337 57.7956 45.8602C57.9446 45.6108 58.1056 45.3643 58.2767 45.1288C58.9866 44.144 59.8932 43.3183 60.939 42.7042C60.593 43.7531 60.4174 44.8508 60.4189 45.9555C61.3555 45.9639 62.2939 45.9473 63.2341 45.9055C64.0426 45.966 64.8434 45.7129 65.4711 45.1984C66.0987 44.6839 66.5052 43.9474 66.6065 43.141C67.6399 44.4118 68.8166 45.5808 70.2584 45.9451C71.9415 46.3044 69.2785 45.5223 70.1176 44.0161C70.8006 42.9032 71.0741 41.4958 71.2261 40.1529C71.4048 38.5566 71.3791 36.7493 70.4846 35.8739C69.7669 35.1645 66.9401 37.4353 65.9783 37.638C63.8569 38.095 67.9435 36.628 65.9598 37.5095L65.8384 37.9274C65.9035 35.7417 64.8549 33.7902 63.3314 33.253C62.3044 32.8949 61.1596 33.1344 60.0501 33.3867C58.6163 33.6478 57.2284 34.1183 55.9309 34.7833C54.4496 35.5991 53.2558 36.8537 52.513 38.3757C51.7219 40.0288 51.5072 42.1656 52.2075 43.6032Z" fill="#2F2E41"/>
<path d="M61.5047 32.3799C61.4028 32.3642 61.6615 32.3669 61.5739 32.3812C61.6172 32.3727 61.6598 32.3607 61.7012 32.3453C61.7083 32.3429 61.8028 32.2978 61.7403 32.33C61.8817 32.2657 62.0015 32.1618 62.0852 32.0308C62.2791 31.7101 62.4177 31.359 62.4952 30.9922C62.5902 30.5084 62.7862 30.0503 63.0702 29.6478C63.1517 29.5399 63.2575 29.4528 63.3788 29.3935C63.5002 29.3343 63.6338 29.3045 63.7688 29.3068C63.9038 29.309 64.0363 29.3431 64.1557 29.4063C64.275 29.4695 64.3779 29.56 64.4558 29.6705C64.707 30.0727 64.6022 30.6246 64.5215 31.0643C64.4385 31.5209 64.2827 31.9611 64.0599 32.368C63.6846 33.0349 63.1238 33.5778 62.446 33.9308C61.6621 34.3434 60.7663 34.4918 59.8916 34.3537C59.7743 34.3227 59.6685 34.2581 59.5872 34.1679C59.5058 34.0776 59.4524 33.9656 59.4335 33.8455C59.4145 33.7254 59.4308 33.6023 59.4804 33.4913C59.53 33.3803 59.6107 33.2862 59.7127 33.2203L61.0363 32.4541C61.1057 32.4115 61.1828 32.383 61.2631 32.3703C61.3435 32.3576 61.4256 32.3608 61.5047 32.3799C61.5838 32.3989 61.6583 32.4334 61.7241 32.4813C61.79 32.5293 61.8457 32.5898 61.8882 32.6593C61.9307 32.7288 61.9591 32.8061 61.9718 32.8866C61.9845 32.9672 61.9813 33.0495 61.9623 33.1288C61.9433 33.2081 61.9089 33.2828 61.8611 33.3488C61.8132 33.4148 61.7529 33.4707 61.6836 33.5133L60.3599 34.2794L60.181 33.146C60.3627 33.1728 60.5469 33.1791 60.73 33.1649C60.9265 33.1579 61.1211 33.123 61.3078 33.0611C61.488 33.012 61.6624 32.9433 61.8278 32.8564C61.9336 32.8004 62.0366 32.7391 62.1363 32.6726C62.1725 32.6485 62.2083 32.6236 62.2436 32.5981C62.241 32.6 62.3912 32.4826 62.3258 32.537C62.4913 32.3962 62.6434 32.2402 62.78 32.071C62.8283 32.0111 62.8715 31.9473 62.9094 31.8803C62.9759 31.771 63.0359 31.658 63.0893 31.5418C63.1966 31.2964 63.2731 31.0385 63.3168 30.7741C63.338 30.6626 63.3534 30.5501 63.3629 30.437C63.3615 30.3759 63.3643 30.3147 63.3712 30.2539C63.4042 30.1067 63.3724 30.337 63.4404 30.3895L63.7247 30.5452C63.7752 30.553 63.8268 30.5494 63.8757 30.5346C63.9246 30.5197 63.9695 30.4941 64.0072 30.4594C64.0319 30.4121 64.0262 30.4202 63.99 30.4837C63.948 30.5583 63.9108 30.6356 63.8785 30.715C63.8094 30.9009 63.7498 31.0903 63.6998 31.2823C63.5981 31.69 63.4532 32.0858 63.2676 32.4627C63.0872 32.8429 62.7917 33.1564 62.4232 33.3583C62.0546 33.5603 61.6319 33.6405 61.2153 33.5875C61.0562 33.5479 60.9191 33.4471 60.8335 33.307C60.7478 33.1669 60.7206 32.9987 60.7576 32.8386C60.7989 32.6802 60.8997 32.544 61.039 32.4585C61.1783 32.373 61.3451 32.3448 61.5047 32.3799Z" fill="#2F2E41"/>
<path d="M57.8426 221.803L62.437 221.803L64.6227 204.038H57.8418L57.8426 221.803Z" fill="#FFB6B6"/>
<path d="M63.9658 222.218V219.096L62.758 219.17L57.8415 219.462L56.7036 219.532L55.8337 229.989L55.7871 230.549H59.0492L59.1541 229.993L59.6279 227.462L60.8512 229.993L61.1192 230.549H69.7678C70.2824 230.546 70.775 230.339 71.1386 229.974C71.5022 229.609 71.7073 229.115 71.7096 228.599C72.0746 226.89 64.8823 223.195 63.9658 222.218Z" fill="#2F2E41"/>
<path d="M6.6944 216.253L10.4771 218.866L22.3338 205.483L16.7507 201.626L6.6944 216.253Z" fill="#FFB6B6"/>
<path d="M11.5013 220.078L13.269 217.507L12.2326 216.881L8.0193 214.324L7.04276 213.734L0.406538 221.849L0.0507812 222.284L2.73668 224.14L3.1382 223.742L4.96088 221.928L4.5355 224.707L4.44095 225.318L11.5618 230.239C11.9874 230.529 12.51 230.639 13.0161 230.545C13.5221 230.451 13.9709 230.161 14.2648 229.737C15.5329 228.538 11.7027 221.404 11.5013 220.078Z" fill="#2F2E41"/>
<path d="M121.113 41.1936C120.758 41.9679 120.115 42.5727 119.322 42.8794C118.529 43.1861 117.648 43.1705 116.866 42.8358C116.708 42.7653 116.557 42.6818 116.413 42.5862L96.6899 57.5652L90.493 52.3054L115.703 37.9951C116.145 37.4268 116.762 37.0212 117.458 36.8414C118.154 36.6617 118.889 36.718 119.55 37.0015C120.306 37.3346 120.899 37.9552 121.199 38.7267C121.499 39.4982 121.48 40.3575 121.148 41.1156C121.137 41.1418 121.125 41.1678 121.113 41.1936Z" fill="#FFB6B6"/>
<path d="M63.195 83.2631C63.195 83.2631 56.225 81.4801 61.1077 72.3044C65.9903 63.1286 84.7696 52.8964 86.0694 52.769C87.3692 52.6416 86.3148 53.8832 88.5664 51.8366C90.3977 50.1721 91.1473 51.7575 91.2154 50.9482C91.3948 48.814 94.1709 52.4488 93.8023 49.8271C93.4336 47.2054 99.7061 55.6383 99.7061 55.6383C99.7061 55.6383 99.7042 57.2014 96.4097 58.4695C94.5594 59.1817 93.2685 58.5783 93.312 60.1741C93.3555 61.7699 89.5602 61.173 89.0684 61.5219C88.5767 61.8709 80.2768 72.9576 80.2768 72.9576L63.195 83.2631Z" fill="#4B5DFF"/>
<path d="M129.119 72.7842C120.598 70.6582 113.283 66.479 107.565 59.58C107.129 59.3122 106.816 58.8821 106.696 58.3839C106.577 57.8856 106.659 57.3601 106.925 56.9224L116.872 40.604C117.139 40.167 117.568 39.854 118.065 39.7337C118.562 39.6135 119.087 39.6957 119.523 39.9625L141.077 53.1668C141.513 53.4345 141.825 53.8647 141.945 54.3629C142.065 54.8611 141.983 55.3867 141.717 55.8243L131.77 72.1428C131.503 72.5798 131.073 72.8928 130.576 73.013C130.079 73.1333 129.555 73.051 129.119 72.7842Z" fill="#E6E6E6"/>
<path d="M123.372 67.5441C118.886 67.0532 114.223 63.4588 109.515 59.0552C109.107 58.8045 108.814 58.4016 108.702 57.935C108.589 57.4684 108.666 56.9762 108.916 56.5663L117.465 42.542C117.715 42.1327 118.117 41.8395 118.582 41.7269C119.048 41.6142 119.539 41.6913 119.947 41.9411L139.128 53.6911C139.536 53.9419 139.828 54.3448 139.941 54.8114C140.053 55.278 139.976 55.7702 139.727 56.1801L134.431 64.8679C133.317 66.691 131.527 67.9967 129.453 68.4984C127.38 69.0001 125.193 68.6569 123.372 67.5441Z" fill="white"/>
<path d="M131.481 53.4248C131.675 52.6546 130.938 51.8029 129.833 51.5223C128.729 51.2418 127.676 51.6386 127.481 52.4088C127.287 53.1789 128.024 54.0307 129.128 54.3112C130.233 54.5918 131.286 54.1949 131.481 53.4248Z" fill="white"/>
<path d="M117.994 53.3378C118.189 52.5677 117.451 51.716 116.347 51.4354C115.243 51.1548 114.19 51.5517 113.995 52.3219C113.8 53.092 114.538 53.9437 115.642 54.2243C116.746 54.5049 117.8 54.108 117.994 53.3378Z" fill="#3F3D56"/>
<path d="M134.011 64.6411C134.205 63.8709 133.468 63.0192 132.364 62.7386C131.259 62.4581 130.206 62.855 130.012 63.6251C129.817 64.3952 130.554 65.247 131.659 65.5275C132.763 65.8081 133.816 65.4112 134.011 64.6411Z" fill="#FF6584"/>
<path d="M137.154 68.8709C137.234 68.1536 136.896 67.5269 136.398 67.4711C135.9 67.4154 135.432 67.9517 135.352 68.669C135.272 69.3863 135.611 70.013 136.108 70.0687C136.606 70.1245 137.074 69.5882 137.154 68.8709Z" fill="#E6E6E6"/>
<path d="M138.264 77.3425C138.344 76.6252 138.005 75.9985 137.507 75.9428C137.009 75.887 136.541 76.4233 136.461 77.1406C136.381 77.8579 136.72 78.4847 137.218 78.5404C137.715 78.5962 138.184 78.0598 138.264 77.3425Z" fill="#3F3D56"/>
<path d="M124.477 61.198C124.557 60.4807 124.218 59.854 123.72 59.7983C123.222 59.7425 122.754 60.2788 122.674 60.9961C122.594 61.7134 122.933 62.3401 123.431 62.3959C123.928 62.4516 124.397 61.9153 124.477 61.198Z" fill="#E6E6E6"/>
<path d="M131.263 58.6414C131.343 57.9241 131.004 57.2974 130.506 57.2416C130.008 57.1859 129.54 57.7222 129.46 58.4395C129.38 59.1568 129.719 59.7835 130.217 59.8392C130.714 59.895 131.183 59.3587 131.263 58.6414Z" fill="#FF6584"/>
<path d="M122.902 51.7361C122.982 51.0188 122.644 50.3921 122.146 50.3363C121.648 50.2806 121.18 50.8169 121.1 51.5342C121.02 52.2515 121.359 52.8782 121.856 52.934C122.354 52.9897 122.822 52.4534 122.902 51.7361Z" fill="#3F3D56"/>
<path d="M80.5967 121.687L80.7151 120.441L75.605 106.396L53.828 110.606C53.828 110.606 42.6044 124.467 45.1002 133.641C45.7771 136.129 37.2604 152.654 40.0634 150.872C42.8663 149.089 37.1481 154.05 38.6126 154.166C40.077 154.282 37.7772 156.012 37.3417 156.955C27.3104 178.675 11.2676 207.034 11.2676 207.034C11.2676 207.034 14.6041 216.437 19.8688 211.18C25.1334 205.922 60.3526 159.217 60.3526 159.217C60.3526 159.217 59.8779 162.258 59.216 166.881C57.1712 181.164 53.9591 209.917 56.813 211.406C59.0913 212.588 61.6423 213.142 64.2045 213.011C64.2045 213.011 83.0926 169.226 80.5967 160.885" fill="#2F2E41"/>
<path d="M67.7204 63.1097L65.6936 58.8862L54.7127 60.2199L53.5773 63.6657C50.395 66.8528 47.7737 70.5568 45.8244 74.6208C42.7859 81.1278 52.8983 109.871 51.2344 111.539C49.5705 113.207 43.4054 114.106 46.1785 116.149C48.9517 118.193 46.1785 116.886 45.4874 119.217C44.7963 121.549 43.4355 130.828 43.4355 130.828C43.4355 130.828 53.9932 139.7 60.6488 126.356C70.3549 127.19 72.2961 118.016 72.2961 118.016L75.5592 112.598C79.7929 110.655 73.2667 88.4081 74.9306 83.9601C76.5945 79.512 67.7204 63.1097 67.7204 63.1097Z" fill="#4B5DFF"/>
<path d="M77.7564 110.733C77.7815 109.099 77.7766 107.34 78.5003 105.835C79.0439 104.704 80.0529 103.574 81.3824 103.48C82.5127 103.399 83.7959 104.069 83.8999 105.301C84.0236 106.765 82.7938 108.164 81.798 109.088C80.5949 110.196 79.1302 110.979 77.5419 111.362C77.4306 111.395 77.3313 111.461 77.256 111.55C77.1807 111.638 77.1326 111.747 77.1176 111.863C77.1025 111.979 77.121 112.096 77.171 112.201C77.2209 112.307 77.3002 112.395 77.3991 112.457C78.6637 113.158 79.7815 114.097 80.6912 115.223C81.5312 116.263 82.3997 117.637 82.5771 118.99C82.6526 119.567 82.5506 120.268 81.9415 120.509C81.363 120.738 80.6591 120.44 80.1628 120.145C78.9953 119.366 78.0804 118.262 77.5309 116.969C76.8526 115.503 76.6242 113.869 76.8746 112.273C76.9979 111.519 75.8462 111.194 75.7219 111.955C75.1741 115.305 76.5077 119.295 79.4977 121.142C80.8582 121.982 82.9335 122.13 83.6165 120.356C84.2353 118.749 83.2115 116.819 82.3559 115.497C81.2585 113.803 79.7638 112.404 78.0025 111.422L77.8597 112.517C79.5956 112.089 81.1994 111.238 82.5289 110.04C83.8011 108.895 85.1711 107.195 85.1004 105.38C85.0369 103.748 83.7367 102.565 82.1779 102.327C80.4831 102.067 78.9708 102.993 77.9997 104.335C76.6677 106.177 76.5946 108.548 76.5609 110.733C76.5663 110.889 76.6316 111.036 76.7431 111.144C76.8546 111.252 77.0036 111.312 77.1586 111.312C77.3136 111.312 77.4626 111.252 77.5741 111.144C77.6856 111.036 77.7509 110.889 77.7563 110.733L77.7564 110.733Z" fill="#2F2E41"/>
<path d="M29.2083 133.616C29.9622 133.223 30.533 132.549 30.7994 131.74C31.0658 130.931 31.0067 130.05 30.6347 129.283C30.5566 129.129 30.4659 128.981 30.3635 128.842L44.3128 108.354L38.7662 102.409L25.7544 128.358C25.21 128.828 24.8363 129.466 24.6916 130.172C24.5469 130.877 24.6394 131.611 24.9545 132.259C25.1373 132.625 25.3904 132.953 25.6993 133.221C26.0082 133.49 26.3669 133.695 26.7548 133.825C27.1428 133.954 27.5524 134.006 27.9603 133.977C28.3683 133.948 28.7665 133.839 29.1323 133.656C29.1579 133.643 29.1832 133.63 29.2083 133.616Z" fill="#FFB6B6"/>
<path d="M68.2609 73.5469C68.2609 73.5469 66.1402 66.6562 57.2395 71.9983C48.3389 77.3405 39.0723 96.6489 39.0096 97.9566C38.9469 99.2644 40.1318 98.1472 38.2041 100.503C36.6362 102.419 38.2528 103.091 37.4498 103.199C35.3324 103.484 39.0909 106.084 36.4607 105.845C33.8304 105.605 42.5421 111.469 42.5421 111.469C42.5421 111.469 44.0993 111.39 45.1999 108.028C45.8181 106.14 45.1532 104.878 46.7452 104.842C48.3372 104.807 47.555 101.037 47.8784 100.527C48.2017 100.017 58.8375 91.1593 58.8375 91.1593L68.2609 73.5469Z" fill="#4B5DFF"/>
<path d="M54.3315 39.5514C60.8761 31.9851 49.2423 52.0187 57.9334 59.8286C54.3912 62.6461 41.3983 61.6465 42.1324 59.8286C42.8666 58.0107 45.2732 40.666 47.8554 39.5514C50.4377 38.4369 54.3315 39.5514 54.3315 39.5514Z" fill="#2F2E41"/>
<path d="M45.4092 134.516C45.6039 133.746 44.8665 132.894 43.7622 132.614C42.6579 132.333 41.6048 132.73 41.4101 133.5C41.2154 134.27 41.9529 135.122 43.0572 135.403C44.1615 135.683 45.2145 135.286 45.4092 134.516Z" fill="white"/>
<path d="M31.9239 134.429C32.1186 133.659 31.3812 132.807 30.2768 132.527C29.1725 132.246 28.1195 132.643 27.9248 133.413C27.7301 134.183 28.4675 135.035 29.5718 135.316C30.6761 135.596 31.7292 135.199 31.9239 134.429Z" fill="#3F3D56"/>
<path d="M47.9405 145.733C48.1351 144.963 47.3977 144.111 46.2934 143.83C45.1891 143.55 44.1361 143.947 43.9414 144.717C43.7467 145.487 44.4841 146.339 45.5884 146.619C46.6927 146.9 47.7458 146.503 47.9405 145.733Z" fill="#FF6584"/>
<path d="M51.0841 149.962C51.164 149.244 50.8253 148.618 50.3276 148.562C49.8298 148.506 49.3614 149.042 49.2815 149.76C49.2015 150.477 49.5403 151.104 50.038 151.16C50.5358 151.215 51.0041 150.679 51.0841 149.962Z" fill="#E6E6E6"/>
<path d="M52.1925 158.434C52.2724 157.717 51.9337 157.09 51.4359 157.034C50.9382 156.978 50.4698 157.515 50.3899 158.232C50.3099 158.949 50.6486 159.576 51.1464 159.632C51.6442 159.687 52.1125 159.151 52.1925 158.434Z" fill="#3F3D56"/>
<path d="M38.4053 142.289C38.4853 141.572 38.1466 140.945 37.6488 140.889C37.1511 140.833 36.6827 141.37 36.6028 142.087C36.5228 142.804 36.8615 143.431 37.3593 143.487C37.8571 143.542 38.3254 143.006 38.4053 142.289Z" fill="#E6E6E6"/>
<path d="M45.1925 139.733C45.2724 139.016 44.9337 138.389 44.4359 138.333C43.9382 138.278 43.4698 138.814 43.3899 139.531C43.3099 140.249 43.6486 140.875 44.1464 140.931C44.6442 140.987 45.1125 140.45 45.1925 139.733Z" fill="#FF6584"/>
<path d="M36.8311 132.828C36.9111 132.111 36.5724 131.484 36.0746 131.428C35.5768 131.372 35.1085 131.909 35.0286 132.626C34.9486 133.343 35.2873 133.97 35.7851 134.026C36.2828 134.082 36.7512 133.545 36.8311 132.828Z" fill="#3F3D56"/>
<path d="M124.706 114.543C124.901 113.773 124.163 112.921 123.059 112.64C121.955 112.36 120.902 112.757 120.707 113.527C120.512 114.297 121.25 115.149 122.354 115.429C123.458 115.71 124.511 115.313 124.706 114.543Z" fill="white"/>
<path d="M111.221 114.456C111.415 113.686 110.678 112.834 109.574 112.554C108.469 112.273 107.416 112.67 107.222 113.44C107.027 114.21 107.764 115.062 108.869 115.342C109.973 115.623 111.026 115.226 111.221 114.456Z" fill="#3F3D56"/>
<path d="M127.237 125.759C127.432 124.989 126.695 124.137 125.59 123.857C124.486 123.576 123.433 123.973 123.238 124.743C123.044 125.513 123.781 126.365 124.885 126.646C125.99 126.926 127.043 126.529 127.237 125.759Z" fill="#FF6584"/>
<path d="M130.381 129.989C130.461 129.272 130.122 128.645 129.624 128.589C129.127 128.534 128.658 129.07 128.578 129.787C128.498 130.504 128.837 131.131 129.335 131.187C129.833 131.243 130.301 130.706 130.381 129.989Z" fill="#E6E6E6"/>
<path d="M131.489 138.461C131.569 137.743 131.231 137.117 130.733 137.061C130.235 137.005 129.767 137.541 129.687 138.259C129.607 138.976 129.946 139.603 130.443 139.659C130.941 139.714 131.409 139.178 131.489 138.461Z" fill="#3F3D56"/>
<path d="M117.702 122.316C117.782 121.598 117.443 120.972 116.946 120.916C116.448 120.86 115.98 121.396 115.9 122.114C115.82 122.831 116.158 123.458 116.656 123.514C117.154 123.569 117.622 123.033 117.702 122.316Z" fill="#E6E6E6"/>
<path d="M124.489 119.76C124.569 119.042 124.231 118.416 123.733 118.36C123.235 118.304 122.767 118.84 122.687 119.558C122.607 120.275 122.946 120.902 123.443 120.957C123.941 121.013 124.409 120.477 124.489 119.76Z" fill="#FF6584"/>
<path d="M116.128 112.854C116.208 112.137 115.869 111.51 115.371 111.455C114.874 111.399 114.405 111.935 114.325 112.652C114.245 113.37 114.584 113.996 115.082 114.052C115.58 114.108 116.048 113.572 116.128 112.854Z" fill="#3F3D56"/>
<path d="M17.5157 54.6235C17.7104 53.8534 16.973 53.0016 15.8686 52.721C14.7643 52.4405 13.7113 52.8374 13.5166 53.6075C13.3219 54.3776 14.0593 55.2294 15.1636 55.5099C16.2679 55.7905 17.321 55.3936 17.5157 54.6235Z" fill="white"/>
<path d="M4.03025 54.5361C4.22494 53.7659 3.48754 52.9142 2.38322 52.6336C1.2789 52.3531 0.225849 52.75 0.0311631 53.5201C-0.163523 54.2902 0.573876 55.142 1.6782 55.4225C2.78252 55.7031 3.83557 55.3062 4.03025 54.5361Z" fill="#3F3D56"/>
<path d="M20.0469 65.8398C20.2416 65.0697 19.5042 64.2179 18.3999 63.9374C17.2956 63.6568 16.2425 64.0537 16.0478 64.8238C15.8531 65.5939 16.5905 66.4457 17.6949 66.7263C18.7992 67.0068 19.8522 66.6099 20.0469 65.8398Z" fill="#FF6584"/>
<path d="M23.1906 70.0691C23.2706 69.3518 22.9319 68.7251 22.4341 68.6693C21.9363 68.6136 21.468 69.1499 21.3881 69.8672C21.3081 70.5845 21.6468 71.2112 22.1446 71.267C22.6423 71.3227 23.1107 70.7864 23.1906 70.0691Z" fill="#E6E6E6"/>
<path d="M24.2999 78.5408C24.3798 77.8235 24.0411 77.1968 23.5434 77.141C23.0456 77.0853 22.5773 77.6216 22.4973 78.3389C22.4174 79.0562 22.7561 79.6829 23.2538 79.7387C23.7516 79.7944 24.2199 79.2581 24.2999 78.5408Z" fill="#3F3D56"/>
<path d="M10.5118 62.3963C10.5918 61.679 10.253 61.0523 9.75528 60.9965C9.25751 60.9407 8.78917 61.477 8.70922 62.1944C8.62927 62.9117 8.96797 63.5384 9.46574 63.5941C9.96351 63.6499 10.4318 63.1136 10.5118 62.3963Z" fill="#E6E6E6"/>
<path d="M17.2988 59.8401C17.3787 59.1228 17.04 58.4961 16.5423 58.4403C16.0445 58.3846 15.5762 58.9209 15.4962 59.6382C15.4163 60.3555 15.755 60.9822 16.2527 61.038C16.7505 61.0937 17.2188 60.5574 17.2988 59.8401Z" fill="#FF6584"/>
<path d="M8.93759 52.9348C9.01754 52.2175 8.67883 51.5908 8.18106 51.5351C7.68329 51.4793 7.21496 52.0156 7.135 52.7329C7.05505 53.4502 7.39375 54.0769 7.89152 54.1327C8.38929 54.1885 8.85764 53.6521 8.93759 52.9348Z" fill="#3F3D56"/>
<path d="M80.8741 3.09223C81.0688 2.3221 80.3314 1.47035 79.227 1.1898C78.1227 0.909243 77.0697 1.30612 76.875 2.07626C76.6803 2.84639 77.4177 3.69814 78.522 3.97869C79.6263 4.25925 80.6794 3.86237 80.8741 3.09223Z" fill="white"/>
</g>
<defs>
<clipPath id="clip0_119_2767">
<rect width="142" height="231" fill="white"/>
</clipPath>
</defs>
</svg>
