<svg width="80" height="64" viewBox="0 0 80 64" fill="none" xmlns="http://www.w3.org/2000/svg">
<path d="M9.61814 21.4958C11.8603 12.4661 19.0202 5.48446 28.102 3.47206L29.6149 3.13683C36.4555 1.62106 43.5448 1.62106 50.3854 3.13683L51.8983 3.47206C60.9801 5.48446 68.14 12.4661 70.3822 21.4958C72.095 28.3938 72.095 35.6062 70.3822 42.5042C68.14 51.5339 60.9801 58.5155 51.8983 60.5279L50.3854 60.8632C43.5448 62.3789 36.4555 62.3789 29.6149 60.8632L28.102 60.5279C19.0202 58.5155 11.8603 51.5339 9.61814 42.5042C7.90528 35.6062 7.90528 28.3938 9.61814 21.4958Z" stroke="#23262F" stroke-width="1.5"/>
<path d="M29.6149 3.13683C36.4555 1.62106 43.5448 1.62106 50.3854 3.13683L51.8983 3.47206C60.9801 5.48446 68.14 12.4661 70.3822 21.4958C72.095 28.3938 72.095 35.6062 70.3822 42.5042C68.14 51.5339 60.9801 58.5155 51.8983 60.5279L50.3854 60.8632C43.5448 62.3789 36.4555 62.3789 29.6149 60.8632L28.102 60.5279C19.0202 58.5155 11.8603 51.5339 9.61814 42.5042C8.76171 39.0552 8.3335 35.5276 8.3335 32" stroke="#23262F" stroke-width="1.5" stroke-linecap="round"/>
<path fill-rule="evenodd" clip-rule="evenodd" d="M40.0008 15.3335C41.2753 15.3335 42.3085 16.3068 42.3085 17.5074V19.2859H42.5641C46.8557 19.2859 50 22.8007 50 26.7299C50 27.9306 48.9668 28.9039 47.6923 28.9039C46.4178 28.9039 45.3846 27.9306 45.3846 26.7299C45.3846 24.838 43.9369 23.6338 42.5641 23.6338H42.3085V30.4776L45.4243 31.545C48.2557 32.5149 50 35.1527 50 37.9462C50 41.5021 47.1503 44.7141 43.222 44.7141H42.3085V46.4929C42.3085 47.6935 41.2753 48.6668 40.0008 48.6668C38.7263 48.6668 37.6931 47.6935 37.6931 46.4929V44.7141H37.4359C33.1443 44.7141 30 41.1994 30 37.2701C30 36.0695 31.0332 35.0962 32.3077 35.0962C33.5822 35.0962 34.6154 36.0695 34.6154 37.2701C34.6154 39.162 36.0631 40.3663 37.4359 40.3663H37.6931V33.523L34.5757 32.4551C31.7443 31.4852 30 28.8474 30 26.0538C30 22.498 32.8497 19.2859 36.778 19.2859H37.6931V17.5074C37.6931 16.3068 38.7263 15.3335 40.0008 15.3335ZM37.6931 23.6338H36.778C35.7685 23.6338 34.6154 24.5353 34.6154 26.0538C34.6154 27.215 35.3336 28.0883 36.153 28.369L37.6931 28.8966V23.6338ZM42.3085 35.104V40.3663H43.222C44.2315 40.3663 45.3846 39.4647 45.3846 37.9462C45.3846 36.785 44.6664 35.9117 43.847 35.631L42.3085 35.104Z" fill="#4B5DFF"/>
</svg>
