<svg width="80" height="64" viewBox="0 0 80 64" fill="none" xmlns="http://www.w3.org/2000/svg">
<path d="M11.1763 42.1652L11.9064 41.994L11.1763 42.1652ZM11.1763 21.8348L10.4461 21.6635L11.1763 21.8348ZM68.8237 21.8348L69.5539 21.6635L68.8237 21.8348ZM68.8237 42.1652L68.0936 41.9939L68.8237 42.1652ZM50.1652 60.8237L49.9939 60.0936L50.1652 60.8237ZM29.8348 60.8237L30.0061 60.0936L29.8348 60.8237ZM29.8348 3.17625L29.6635 2.44607L29.8348 3.17625ZM50.1652 3.17625L50.3365 2.44607L50.1652 3.17625ZM11.9064 41.994C10.3645 35.4205 10.3645 28.5795 11.9064 22.006L10.4461 21.6635C8.85131 28.4622 8.85131 35.5378 10.4461 42.3365L11.9064 41.994ZM68.0936 22.0061C69.6355 28.5795 69.6355 35.4205 68.0936 41.9939L69.5539 42.3365C71.1487 35.5378 71.1487 28.4622 69.5539 21.6635L68.0936 22.0061ZM49.9939 60.0936C43.4205 61.6355 36.5795 61.6355 30.0061 60.0936L29.6635 61.5539C36.4622 63.1487 43.5378 63.1487 50.3365 61.5539L49.9939 60.0936ZM30.006 3.90643C36.5795 2.36452 43.4205 2.36452 49.9939 3.90643L50.3365 2.44607C43.5378 0.851305 36.4622 0.851306 29.6635 2.44607L30.006 3.90643ZM30.0061 60.0936C21.0253 57.987 14.013 50.9747 11.9064 41.994L10.4461 42.3365C12.6828 51.8719 20.1281 59.3172 29.6635 61.5539L30.0061 60.0936ZM50.3365 61.5539C59.8719 59.3172 67.3172 51.8719 69.5539 42.3365L68.0936 41.9939C65.987 50.9747 58.9747 57.987 49.9939 60.0936L50.3365 61.5539ZM49.9939 3.90643C58.9747 6.01303 65.987 13.0253 68.0936 22.0061L69.5539 21.6635C67.3172 12.1281 59.8719 4.68277 50.3365 2.44607L49.9939 3.90643ZM29.6635 2.44607C20.1281 4.68277 12.6828 12.1281 10.4461 21.6635L11.9064 22.006C14.013 13.0253 21.0253 6.01303 30.006 3.90643L29.6635 2.44607Z" fill="#4B5DFF"/>
<path d="M11.1763 42.1652L10.4461 42.3365L11.1763 42.1652ZM11.9064 22.006C12.001 21.6028 11.7508 21.1992 11.3475 21.1046C10.9443 21.01 10.5407 21.2602 10.4461 21.6635L11.9064 22.006ZM68.8237 21.8348L69.5539 21.6635L68.8237 21.8348ZM68.8237 42.1652L68.0936 41.9939L68.8237 42.1652ZM50.1652 60.8237L49.9939 60.0936L50.1652 60.8237ZM29.8348 60.8237L29.6635 61.5539L29.8348 60.8237ZM50.3365 2.44607C49.9332 2.35147 49.5296 2.60171 49.435 3.00497C49.3405 3.40824 49.5907 3.81183 49.994 3.90643L50.3365 2.44607ZM11.9064 41.994C10.3645 35.4205 10.3645 28.5795 11.9064 22.006L10.4461 21.6635C8.85131 28.4622 8.85131 35.5378 10.4461 42.3365L11.9064 41.994ZM68.0936 22.006C69.6355 28.5795 69.6355 35.4205 68.0936 41.9939L69.5539 42.3365C71.1487 35.5378 71.1487 28.4622 69.5539 21.6635L68.0936 22.006ZM49.9939 60.0936C43.4205 61.6355 36.5795 61.6355 30.0061 60.0936L29.6635 61.5539C36.4622 63.1487 43.5378 63.1487 50.3365 61.5539L49.9939 60.0936ZM30.0061 60.0936C21.0253 57.987 14.013 50.9747 11.9064 41.994L10.4461 42.3365C12.6828 51.8719 20.1281 59.3172 29.6635 61.5539L30.0061 60.0936ZM50.3365 61.5539C59.8719 59.3172 67.3172 51.8719 69.5539 42.3365L68.0936 41.9939C65.987 50.9747 58.9747 57.987 49.9939 60.0936L50.3365 61.5539ZM49.994 3.90643C58.9747 6.01303 65.987 13.0253 68.0936 22.006L69.5539 21.6635C67.3172 12.1281 59.8719 4.68277 50.3365 2.44607L49.994 3.90643Z" fill="#23262F"/>
<path d="M24.9258 22.801C24.6329 22.5081 24.1581 22.5081 23.8652 22.801C23.5723 23.0939 23.5723 23.5688 23.8652 23.8617L24.9258 22.801ZM27.8631 26.7989L27.3328 27.3293C27.4734 27.4699 27.6642 27.5489 27.8631 27.5489C28.062 27.5489 28.2528 27.4699 28.3934 27.3293L27.8631 26.7989ZM35.3286 20.3941C35.6215 20.1012 35.6215 19.6263 35.3286 19.3334C35.0357 19.0405 34.5608 19.0405 34.2679 19.3334L35.3286 20.3941ZM43.4672 24.3151C43.053 24.3151 42.7172 24.6509 42.7172 25.0651C42.7172 25.4793 43.053 25.8151 43.4672 25.8151V24.3151ZM55.6037 25.8151C56.0179 25.8151 56.3537 25.4793 56.3537 25.0651C56.3537 24.6509 56.0179 24.3151 55.6037 24.3151V25.8151ZM24.9258 40.1389C24.6329 39.846 24.1581 39.846 23.8652 40.1389C23.5723 40.4318 23.5723 40.9067 23.8652 41.1996L24.9258 40.1389ZM27.8631 44.1368L27.3328 44.6671C27.6256 44.96 28.1005 44.96 28.3934 44.6671L27.8631 44.1368ZM35.3286 37.732C35.6215 37.4391 35.6215 36.9642 35.3286 36.6713C35.0357 36.3784 34.5608 36.3784 34.2679 36.6713L35.3286 37.732ZM43.4672 41.653C43.053 41.653 42.7172 41.9888 42.7172 42.403C42.7172 42.8172 43.053 43.153 43.4672 43.153V41.653ZM55.6037 43.153C56.0179 43.153 56.3537 42.8172 56.3537 42.403C56.3537 41.9888 56.0179 41.653 55.6037 41.653V43.153ZM23.8652 23.8617L27.3328 27.3293L28.3934 26.2686L24.9258 22.801L23.8652 23.8617ZM28.3934 27.3293L35.3286 20.3941L34.2679 19.3334L27.3328 26.2686L28.3934 27.3293ZM43.4672 25.8151H55.6037V24.3151H43.4672V25.8151ZM23.8652 41.1996L27.3328 44.6671L28.3934 43.6065L24.9258 40.1389L23.8652 41.1996ZM28.3934 44.6671L35.3286 37.732L34.2679 36.6713L27.3328 43.6065L28.3934 44.6671ZM43.4672 43.153H55.6037V41.653H43.4672V43.153Z" fill="#4B5DFF"/>
</svg>
