<svg width="80" height="64" viewBox="0 0 80 64" fill="none" xmlns="http://www.w3.org/2000/svg">
<path d="M11.5726 37.1815L12.293 36.973L11.5726 37.1815ZM11.5726 15.0218L10.8522 14.8133L11.5726 15.0218ZM68.4274 15.0218L69.1479 14.8133V14.8133L68.4274 15.0218ZM68.4274 37.1814L67.707 36.973L67.707 36.973L68.4274 37.1814ZM56.0493 48.6918L55.9092 47.955L56.0493 48.6918ZM23.9507 48.6918L24.0908 47.955L23.9507 48.6918ZM23.9507 3.51147L23.8106 2.77467L23.9507 3.51147ZM56.0493 3.51147L56.1894 2.77467L56.0493 3.51147ZM11.7335 37.7375L11.0131 37.946L11.7335 37.7375ZM68.2665 37.7375L68.9869 37.9459V37.9459L68.2665 37.7375ZM68.2665 14.4658L67.5461 14.6743V14.6743L68.2665 14.4658ZM11.7335 14.4658L12.4539 14.6743V14.6743L11.7335 14.4658ZM40.75 51.7433C40.75 51.3291 40.4142 50.9933 40 50.9933C39.5858 50.9933 39.25 51.3291 39.25 51.7433H40.75ZM39.25 62C39.25 62.4142 39.5858 62.75 40 62.75C40.4142 62.75 40.75 62.4142 40.75 62H39.25ZM31.2129 61.25C30.7986 61.25 30.4629 61.5858 30.4629 62C30.4629 62.4142 30.7986 62.75 31.2129 62.75V61.25ZM48.7871 62.75C49.2014 62.75 49.5371 62.4142 49.5371 62C49.5371 61.5858 49.2014 61.25 48.7871 61.25V62.75ZM67.5461 14.6743L67.707 15.2303L69.1479 14.8133L68.9869 14.2573L67.5461 14.6743ZM67.707 36.973L67.5461 37.529L68.9869 37.9459L69.1478 37.3899L67.707 36.973ZM12.4539 37.529L12.293 36.973L10.8522 37.39L11.0131 37.946L12.4539 37.529ZM12.293 15.2303L12.4539 14.6743L11.0131 14.2573L10.8522 14.8133L12.293 15.2303ZM12.293 36.973C10.2357 29.8634 10.2357 22.3398 12.293 15.2303L10.8522 14.8133C8.71595 22.1953 8.71595 30.008 10.8522 37.39L12.293 36.973ZM67.707 15.2303C69.7644 22.3399 69.7643 29.8634 67.707 36.973L69.1478 37.3899C71.284 30.008 71.2841 22.1953 69.1479 14.8133L67.707 15.2303ZM55.9092 47.955C45.4025 49.9527 34.5975 49.9527 24.0908 47.955L23.8106 49.4286C34.5024 51.4615 45.4976 51.4615 56.1894 49.4286L55.9092 47.955ZM24.0908 4.24827C34.5975 2.25058 45.4025 2.25058 55.9092 4.24827L56.1894 2.77467C45.4976 0.741775 34.5024 0.741776 23.8106 2.77467L24.0908 4.24827ZM24.0908 47.955C18.4883 46.8897 13.9939 42.8506 12.4539 37.529L11.0131 37.946C12.715 43.8272 17.6706 48.2611 23.8106 49.4286L24.0908 47.955ZM56.1894 49.4286C62.3294 48.2611 67.285 43.8272 68.9869 37.9459L67.5461 37.529C66.0061 42.8506 61.5117 46.8897 55.9092 47.955L56.1894 49.4286ZM55.9092 4.24827C61.5117 5.31352 66.0061 9.35267 67.5461 14.6743L68.9869 14.2573C67.285 8.3761 62.3294 3.94212 56.1894 2.77467L55.9092 4.24827ZM23.8106 2.77467C17.6706 3.94212 12.715 8.37609 11.0131 14.2573L12.4539 14.6743C13.9939 9.35267 18.4883 5.31352 24.0908 4.24827L23.8106 2.77467ZM39.25 51.7433V62H40.75V51.7433H39.25ZM31.2129 62.75H48.7871V61.25H31.2129V62.75Z" fill="#23262F"/>
<path d="M26.667 29.5L35.3925 22.6287C35.7683 22.3327 35.9562 22.1847 36.164 22.2111C36.3718 22.2375 36.5167 22.4278 36.8066 22.8083L43.194 31.1917C43.4839 31.5722 43.6289 31.7625 43.8367 31.7889C44.0444 31.8153 44.2324 31.6673 44.6082 31.3713L53.3337 24.5" stroke="#4B5DFF" stroke-width="1.5" stroke-linecap="round"/>
</svg>
