<svg width="561" height="457" viewBox="0 0 561 457" fill="none" xmlns="http://www.w3.org/2000/svg">
<circle cx="131.507" cy="27.5066" r="270.567" transform="rotate(-45 131.507 27.5066)" stroke="#6070FF" stroke-width="64.8651"/>
<circle cx="117.056" cy="42.5857" r="235.913" transform="rotate(-45 117.056 42.5857)" stroke="#6171FF" stroke-width="53.3138"/>
<path d="M246.487 -101.297C327.544 -20.2403 326.14 114.356 241.146 199.349C156.153 284.342 21.5572 285.746 -59.4996 204.689C-140.556 123.633 -139.152 -10.9631 -54.1589 -95.9564C30.8343 -180.95 165.43 -182.354 246.487 -101.297Z" stroke="#6A79FF" stroke-width="46.2053"/>
<path d="M222.926 -63.2842C293.399 7.18934 292.275 124.344 218.213 198.407C144.151 272.469 26.9961 273.592 -43.4774 203.119C-113.951 132.645 -112.827 15.4903 -38.7651 -58.5719C35.297 -132.634 152.452 -133.758 222.926 -63.2842Z" stroke="#717FFF" stroke-width="46.2053"/>
<path d="M200.62 -25.2716C263.427 37.5352 262.72 142.59 195.908 209.402C129.096 276.213 24.0414 276.921 -38.7654 214.114C-101.572 151.307 -100.865 46.2523 -34.0531 -20.5593C32.7585 -87.3709 137.814 -88.0784 200.62 -25.2716Z" stroke="#6F7DFF" stroke-width="62.1994"/>
</svg>
