<svg width="574" height="260" viewBox="0 0 574 260" fill="none" xmlns="http://www.w3.org/2000/svg">
<g opacity="0.3">
<circle cx="208.5" cy="365.5" r="365" stroke="white" stroke-dasharray="5 5"/>
<path d="M422.877 358.441C422.931 360.114 422.968 361.791 422.986 363.473L422.486 363.479C422.495 364.318 422.5 365.158 422.5 366C422.5 366.842 422.495 367.682 422.486 368.521L422.986 368.527C422.968 370.209 422.931 371.887 422.877 373.56L422.377 373.543C422.323 375.217 422.25 376.886 422.159 378.55L422.658 378.577C422.567 380.258 422.457 381.935 422.329 383.606L421.831 383.568C421.703 385.235 421.558 386.898 421.394 388.554L421.892 388.603C421.726 390.28 421.543 391.952 421.341 393.617L420.845 393.557C420.644 395.219 420.425 396.875 420.188 398.525L420.683 398.596C420.444 400.262 420.187 401.921 419.912 403.574L419.419 403.492C419.144 405.145 418.852 406.791 418.542 408.431L419.033 408.524C418.721 410.175 418.39 411.82 418.042 413.457L417.553 413.354C417.205 414.993 416.839 416.626 416.456 418.252L416.942 418.366C416.557 420.001 416.154 421.628 415.734 423.247L415.25 423.122C414.828 424.745 414.389 426.361 413.933 427.969L414.414 428.105C413.957 429.719 413.481 431.326 412.989 432.924L412.511 432.777C412.017 434.38 411.506 435.975 410.978 437.562L411.452 437.72C410.923 439.311 410.376 440.894 409.812 442.469L409.342 442.3C408.776 443.88 408.194 445.45 407.595 447.013L408.062 447.192C407.461 448.757 406.844 450.314 406.21 451.862L405.747 451.672C405.111 453.224 404.459 454.767 403.79 456.301L404.248 456.501C403.577 458.038 402.89 459.567 402.187 461.085L401.733 460.875C401.028 462.396 400.307 463.907 399.57 465.409L400.019 465.629C399.279 467.135 398.524 468.631 397.752 470.117L397.308 469.886C396.536 471.373 395.748 472.85 394.944 474.316L395.382 474.557C394.575 476.028 393.752 477.489 392.914 478.939L392.481 478.689C391.643 480.139 390.789 481.578 389.919 483.006L390.346 483.266C389.474 484.699 388.586 486.122 387.682 487.533L387.261 487.263C386.358 488.673 385.44 490.072 384.507 491.46L384.922 491.739C383.985 493.131 383.034 494.512 382.067 495.881L381.658 495.592C380.693 496.96 379.712 498.315 378.717 499.659L379.119 499.956C378.12 501.305 377.106 502.641 376.078 503.965L375.683 503.659C374.657 504.98 373.616 506.29 372.56 507.587L372.948 507.902C371.889 509.204 370.816 510.493 369.728 511.769L369.348 511.444C368.262 512.718 367.162 513.978 366.049 515.226L366.422 515.559C365.305 516.811 364.173 518.049 363.028 519.274L362.663 518.933C361.521 520.155 360.364 521.364 359.195 522.559L359.552 522.909C358.379 524.108 357.192 525.293 355.992 526.465L355.643 526.107C354.445 527.276 353.235 528.43 352.012 529.57L352.353 529.936C351.125 531.08 349.885 532.209 348.633 533.324L348.3 532.951C347.05 534.063 345.788 535.16 344.513 536.243L344.836 536.624C343.558 537.71 342.267 538.78 340.964 539.836L340.649 539.447C339.349 540.5 338.037 541.538 336.713 542.561L337.018 542.957C335.691 543.982 334.352 544.991 333.001 545.985L332.705 545.582C331.357 546.573 329.998 547.549 328.627 548.509L328.914 548.918C327.541 549.88 326.156 550.825 324.76 551.755L324.483 551.338C323.09 552.266 321.687 553.176 320.272 554.071L320.539 554.493C319.122 555.389 317.695 556.269 316.257 557.131L316 556.702C314.565 557.563 313.12 558.406 311.664 559.233L311.911 559.668C310.454 560.496 308.987 561.306 307.509 562.1L307.272 561.659C305.799 562.451 304.315 563.225 302.822 563.982L303.048 564.428C301.554 565.185 300.049 565.925 298.535 566.648L298.32 566.196C296.811 566.916 295.292 567.619 293.764 568.303L293.968 568.76C292.44 569.445 290.901 570.112 289.354 570.761L289.161 570.3C287.619 570.947 286.069 571.576 284.51 572.186L284.692 572.652C283.132 573.263 281.563 573.855 279.986 574.43L279.815 573.96C278.245 574.532 276.666 575.085 275.08 575.62L275.239 576.093C273.652 576.628 272.056 577.145 270.452 577.643L270.304 577.165C268.709 577.66 267.106 578.136 265.495 578.594L265.632 579.075C264.02 579.533 262.4 579.971 260.773 580.391L260.648 579.907C259.032 580.324 257.409 580.722 255.778 581.101L255.891 581.588C254.258 581.967 252.619 582.327 250.972 582.668L250.871 582.179C249.238 582.517 247.598 582.835 245.951 583.135L246.041 583.627C244.391 583.927 242.734 584.208 241.071 584.469L240.993 583.975C239.348 584.233 237.695 584.472 236.037 584.691L236.103 585.187C234.441 585.407 232.773 585.607 231.099 585.788L231.046 585.291C229.389 585.47 227.727 585.629 226.059 585.768L226.101 586.267C224.432 586.406 222.757 586.526 221.077 586.626L221.047 586.127C219.383 586.226 217.714 586.306 216.04 586.366L216.058 586.865C214.386 586.925 212.708 586.965 211.026 586.985L211.02 586.485C210.181 586.495 209.341 586.5 208.5 586.5C207.659 586.5 206.818 586.495 205.979 586.485L205.973 586.985C204.291 586.965 202.614 586.925 200.942 586.865L200.959 586.366C199.286 586.306 197.617 586.226 195.953 586.127L195.923 586.626C194.243 586.526 192.568 586.406 190.899 586.267L190.94 585.768C189.273 585.629 187.611 585.47 185.954 585.291L185.901 585.788C184.227 585.607 182.559 585.407 180.897 585.187L180.962 584.691C179.304 584.472 177.652 584.233 176.006 583.975L175.929 584.469C174.266 584.208 172.609 583.927 170.959 583.627L171.049 583.135C169.402 582.835 167.762 582.517 166.129 582.179L166.028 582.668C164.381 582.327 162.741 581.967 161.109 581.588L161.222 581.101C159.591 580.722 157.968 580.324 156.352 579.907L156.227 580.391C154.6 579.971 152.98 579.533 151.368 579.075L151.505 578.594C149.894 578.136 148.291 577.66 146.696 577.165L146.548 577.643C144.944 577.145 143.348 576.628 141.761 576.093L141.92 575.62C140.334 575.085 138.755 574.532 137.185 573.96L137.014 574.43C135.437 573.855 133.868 573.263 132.308 572.652L132.49 572.186C130.931 571.576 129.381 570.947 127.839 570.3L127.646 570.761C126.099 570.112 124.56 569.445 123.031 568.76L123.236 568.303C121.708 567.619 120.189 566.916 118.68 566.196L118.465 566.647C116.951 565.925 115.446 565.185 113.952 564.428L114.178 563.982C112.684 563.225 111.201 562.451 109.727 561.659L109.491 562.1C108.013 561.306 106.546 560.496 105.089 559.668L105.336 559.233C103.88 558.406 102.435 557.563 101 556.702L100.743 557.131C99.305 556.269 97.8774 555.389 96.4607 554.493L96.7279 554.071C95.3134 553.176 93.9097 552.266 92.5171 551.338L92.24 551.755C90.8441 550.825 89.4594 549.88 88.086 548.918L88.3728 548.509C87.0021 547.549 85.6428 546.573 84.2951 545.582L83.9988 545.985C82.648 544.991 81.3088 543.981 79.9816 542.957L80.2872 542.561C78.9631 541.538 77.6508 540.5 76.3508 539.447L76.036 539.836C74.7329 538.78 73.442 537.71 72.1635 536.624L72.4871 536.243C71.2122 535.16 69.9497 534.063 68.6998 532.95L68.3674 533.324C67.1146 532.209 65.8745 531.08 64.6473 529.936L64.9882 529.57C63.7649 528.43 62.5545 527.275 61.3571 526.107L61.0079 526.465C59.8079 525.293 58.621 524.108 57.4476 522.909L57.8049 522.559C56.6355 521.364 55.4794 520.155 54.3368 518.933L53.9715 519.274C52.8267 518.049 51.6954 516.811 50.578 515.559L50.951 515.226C49.8376 513.978 48.738 512.718 47.6524 511.444L47.2719 511.769C46.1844 510.493 45.1109 509.204 44.0517 507.902L44.4395 507.587C43.3843 506.29 42.3432 504.98 41.3167 503.658L40.9217 503.965C39.8936 502.641 38.88 501.305 37.8811 499.956L38.2829 499.659C37.2877 498.315 36.3072 496.96 35.3416 495.592L34.9332 495.881C33.9665 494.512 33.0147 493.131 32.078 491.738L32.4929 491.459C31.5597 490.072 30.6416 488.673 29.7387 487.263L29.3176 487.533C28.4142 486.122 27.5261 484.699 26.6535 483.266L27.0806 483.006C26.2111 481.578 25.3571 480.139 24.5187 478.689L24.0859 478.939C23.2475 477.489 22.4248 476.028 21.618 474.557L22.0564 474.316C21.2523 472.85 20.464 471.373 19.6917 469.886L19.248 470.117C18.4763 468.631 17.7206 467.135 16.9811 465.629L17.43 465.409C16.6927 463.907 15.9716 462.396 15.267 460.875L14.8133 461.085C14.1098 459.566 13.4226 458.038 12.7519 456.501L13.2102 456.301C12.5412 454.767 11.8887 453.224 11.253 451.672L10.7903 451.862C10.1563 450.314 9.53888 448.757 8.93835 447.191L9.40518 447.012C8.806 445.45 8.22362 443.88 7.6583 442.3L7.18755 442.469C6.62389 440.894 6.07714 439.311 5.54753 437.72L6.02194 437.562C5.49382 435.975 4.98278 434.38 4.48904 432.777L4.01119 432.924C3.51874 431.326 3.04346 429.719 2.58558 428.105L3.0666 427.968C2.61047 426.36 2.17165 424.745 1.75035 423.122L1.26639 423.247C0.845935 421.628 0.442891 420 0.0574794 418.366L0.544129 418.251C0.160721 416.626 -0.205199 414.993 -0.553414 413.353L-1.0425 413.457C-1.39035 411.819 -1.72057 410.175 -2.03294 408.524L-1.54166 408.431C-1.85186 406.791 -2.14443 405.145 -2.41915 403.492L-2.91238 403.574C-3.18719 401.921 -3.44418 400.261 -3.68313 398.596L-3.1882 398.525C-3.42497 396.875 -3.64399 395.219 -3.84507 393.557L-4.34145 393.617C-4.54297 391.951 -4.7265 390.28 -4.89184 388.603L-4.39425 388.554C-4.55762 386.897 -4.70318 385.235 -4.83075 383.568L-5.32929 383.606C-5.45713 381.935 -5.56693 380.258 -5.65848 378.577L-5.15922 378.55C-5.24983 376.886 -5.32253 375.217 -5.37714 373.543L-5.87687 373.559C-5.93145 371.886 -5.96798 370.209 -5.98627 368.527L-5.4863 368.521C-5.49543 367.682 -5.5 366.842 -5.5 366C-5.5 365.158 -5.49542 364.318 -5.4863 363.479L-5.98627 363.473C-5.96798 361.791 -5.93144 360.113 -5.87686 358.44L-5.37713 358.457C-5.32253 356.783 -5.24982 355.114 -5.15921 353.45L-5.65847 353.423C-5.56692 351.742 -5.45712 350.065 -5.32928 348.394L-4.83073 348.432C-4.70317 346.765 -4.5576 345.102 -4.39424 343.446L-4.89182 343.397C-4.72649 341.72 -4.54295 340.048 -4.34143 338.383L-3.84505 338.443C-3.64397 336.781 -3.42495 335.125 -3.18818 333.475L-3.68311 333.404C-3.44415 331.738 -3.18716 330.079 -2.91235 328.426L-2.41912 328.508C-2.1444 326.855 -1.85183 325.209 -1.54163 323.569L-2.03291 323.476C-1.72054 321.825 -1.39032 320.18 -1.04247 318.543L-0.553383 318.646C-0.205169 317.007 0.160752 315.374 0.54416 313.748L0.0575104 313.634C0.442921 311.999 0.845964 310.372 1.26642 308.753L1.75038 308.878C2.17169 307.255 2.61051 305.639 3.06663 304.031L2.58561 303.895C3.0435 302.281 3.51878 300.674 4.01123 299.076L4.48907 299.223C4.98282 297.62 5.49386 296.025 6.02198 294.438L5.54757 294.28C6.07718 292.689 6.62393 291.106 7.18759 289.531L7.65834 289.7C8.22367 288.12 8.80604 286.55 9.40523 284.987L8.93839 284.808C9.53893 283.243 10.1563 281.686 10.7903 280.138L11.253 280.328C11.8888 278.776 12.5413 277.233 13.2103 275.699L12.752 275.499C13.4226 273.962 14.1098 272.433 14.8133 270.915L15.267 271.125C15.9717 269.604 16.6928 268.093 17.43 266.591L16.9812 266.371C17.7206 264.865 18.4763 263.369 19.248 261.883L19.6918 262.114C20.464 260.627 21.2523 259.15 22.0564 257.684L21.618 257.443C22.4248 255.972 23.2476 254.511 24.0859 253.061L24.5188 253.311C25.3571 251.861 26.2111 250.422 27.0806 248.994L26.6535 248.734C27.5261 247.301 28.4143 245.878 29.3177 244.467L29.7388 244.737C30.6416 243.327 31.5597 241.928 32.4929 240.54L32.078 240.261C33.0147 238.869 33.9665 237.488 34.9332 236.119L35.3416 236.408C36.3073 235.04 37.2878 233.685 38.2829 232.341L37.8811 232.044C38.88 230.695 39.8937 229.359 40.9218 228.035L41.3167 228.341C42.3433 227.02 43.3843 225.71 44.4395 224.413L44.0517 224.098C45.1109 222.796 46.1844 221.507 47.272 220.231L47.6525 220.556C48.7381 219.282 49.8377 218.022 50.951 216.774L50.578 216.441C51.6955 215.189 52.8267 213.951 53.9716 212.726L54.3369 213.067C55.4794 211.845 56.6356 210.636 57.805 209.441L57.4476 209.091C58.6211 207.892 59.8079 206.707 61.0079 205.535L61.3572 205.893C62.5545 204.724 63.765 203.57 64.9883 202.43L64.6474 202.064C65.8746 200.92 67.1147 199.791 68.3675 198.676L68.6999 199.049C69.9498 197.937 71.2123 196.84 72.4872 195.757L72.1636 195.376C73.4421 194.29 74.733 193.22 76.0361 192.164L76.3508 192.553C77.6509 191.5 78.9631 190.462 80.2872 189.439L79.9816 189.043C81.3089 188.019 82.6481 187.009 83.9989 186.015L84.2952 186.418C85.6429 185.427 87.0022 184.451 88.3729 183.491L88.0861 183.082C89.4595 182.12 90.8442 181.175 92.2401 180.245L92.5172 180.662C93.9098 179.734 95.3135 178.824 96.728 177.929L96.4608 177.507C97.8775 176.611 99.3051 175.731 100.743 174.869L101 175.298C102.435 174.437 103.88 173.594 105.336 172.767L105.089 172.332C106.546 171.504 108.013 170.694 109.491 169.9L109.728 170.341C111.201 169.549 112.685 168.775 114.178 168.018L113.952 167.572C115.446 166.815 116.951 166.075 118.465 165.352L118.68 165.804C120.189 165.084 121.708 164.381 123.236 163.697L123.032 163.24C124.56 162.555 126.099 161.888 127.646 161.239L127.839 161.7C129.381 161.053 130.931 160.424 132.49 159.814L132.308 159.348C133.868 158.737 135.437 158.144 137.014 157.57L137.185 158.04C138.755 157.468 140.334 156.915 141.92 156.38L141.761 155.907C143.348 155.372 144.944 154.855 146.548 154.357L146.696 154.835C148.291 154.34 149.894 153.864 151.505 153.406L151.368 152.925C152.98 152.467 154.6 152.029 156.227 151.609L156.352 152.093C157.968 151.676 159.591 151.278 161.222 150.899L161.109 150.412C162.742 150.033 164.381 149.673 166.028 149.332L166.129 149.821C167.762 149.483 169.402 149.165 171.049 148.865L170.959 148.373C172.609 148.073 174.266 147.792 175.929 147.531L176.007 148.025C177.652 147.767 179.305 147.528 180.963 147.309L180.897 146.813C182.559 146.593 184.227 146.393 185.901 146.212L185.954 146.709C187.611 146.53 189.273 146.371 190.941 146.232L190.899 145.733C192.568 145.594 194.243 145.474 195.923 145.374L195.953 145.873C197.617 145.774 199.286 145.694 200.96 145.634L200.942 145.135C202.614 145.075 204.292 145.035 205.974 145.015L205.98 145.515C206.819 145.505 207.659 145.5 208.5 145.5C209.341 145.5 210.182 145.505 211.021 145.515L211.027 145.015C212.709 145.035 214.386 145.075 216.058 145.135L216.041 145.634C217.714 145.694 219.383 145.774 221.047 145.873L221.077 145.374C222.757 145.474 224.432 145.594 226.101 145.733L226.06 146.232C227.727 146.371 229.389 146.53 231.046 146.709L231.099 146.212C232.773 146.393 234.441 146.593 236.103 146.813L236.038 147.309C237.696 147.528 239.348 147.767 240.994 148.025L241.071 147.531C242.734 147.792 244.391 148.073 246.041 148.373L245.951 148.865C247.598 149.165 249.238 149.483 250.871 149.821L250.972 149.332C252.619 149.673 254.259 150.033 255.891 150.412L255.778 150.899C257.409 151.278 259.032 151.676 260.648 152.093L260.773 151.609C262.4 152.029 264.02 152.468 265.632 152.925L265.495 153.406C267.106 153.864 268.709 154.34 270.304 154.835L270.452 154.357C272.056 154.855 273.652 155.372 275.239 155.907L275.08 156.38C276.666 156.915 278.245 157.468 279.815 158.04L279.986 157.57C281.563 158.145 283.132 158.737 284.692 159.348L284.51 159.814C286.069 160.424 287.619 161.053 289.161 161.7L289.354 161.239C290.901 161.888 292.44 162.555 293.969 163.24L293.764 163.697C295.292 164.381 296.811 165.084 298.32 165.804L298.535 165.353C300.049 166.075 301.554 166.815 303.048 167.572L302.822 168.018C304.316 168.775 305.799 169.549 307.273 170.341L307.509 169.9C308.987 170.694 310.454 171.504 311.911 172.332L311.664 172.767C313.12 173.594 314.565 174.437 316 175.298L316.257 174.869C317.695 175.731 319.123 176.611 320.539 177.507L320.272 177.929C321.687 178.824 323.09 179.735 324.483 180.662L324.76 180.245C326.156 181.175 327.541 182.12 328.914 183.082L328.627 183.491C329.998 184.451 331.357 185.427 332.705 186.418L333.001 186.015C334.352 187.009 335.691 188.019 337.018 189.043L336.713 189.439C338.037 190.462 339.349 191.5 340.649 192.553L340.964 192.164C342.267 193.22 343.558 194.29 344.837 195.376L344.513 195.757C345.788 196.84 347.05 197.937 348.3 199.05L348.633 198.676C349.885 199.791 351.125 200.92 352.353 202.064L352.012 202.43C353.235 203.57 354.446 204.725 355.643 205.893L355.992 205.535C357.192 206.707 358.379 207.892 359.552 209.091L359.195 209.441C360.365 210.636 361.521 211.845 362.663 213.067L363.028 212.726C364.173 213.951 365.305 215.189 366.422 216.441L366.049 216.774C367.162 218.022 368.262 219.282 369.348 220.556L369.728 220.231C370.816 221.507 371.889 222.796 372.948 224.098L372.561 224.413C373.616 225.71 374.657 227.02 375.683 228.342L376.078 228.035C377.106 229.359 378.12 230.695 379.119 232.044L378.717 232.341C379.712 233.685 380.693 235.04 381.658 236.408L382.067 236.119C383.034 237.488 383.985 238.869 384.922 240.261L384.507 240.541C385.44 241.928 386.358 243.327 387.261 244.737L387.682 244.467C388.586 245.878 389.474 247.301 390.347 248.734L389.919 248.994C390.789 250.422 391.643 251.861 392.481 253.311L392.914 253.061C393.753 254.511 394.575 255.972 395.382 257.443L394.944 257.684C395.748 259.15 396.536 260.627 397.308 262.114L397.752 261.883C398.524 263.369 399.279 264.865 400.019 266.371L399.57 266.591C400.307 268.093 401.028 269.604 401.733 271.125L402.187 270.915C402.89 272.434 403.577 273.962 404.248 275.499L403.79 275.699C404.459 277.233 405.111 278.776 405.747 280.328L406.21 280.138C406.844 281.686 407.461 283.243 408.062 284.808L407.595 284.988C408.194 286.55 408.776 288.12 409.342 289.7L409.812 289.531C410.376 291.106 410.923 292.689 411.452 294.28L410.978 294.438C411.506 296.025 412.017 297.62 412.511 299.223L412.989 299.076C413.481 300.674 413.957 302.281 414.414 303.895L413.933 304.032C414.39 305.64 414.828 307.255 415.25 308.878L415.734 308.753C416.154 310.372 416.557 312 416.943 313.634L416.456 313.749C416.839 315.374 417.205 317.007 417.553 318.647L418.043 318.543C418.39 320.181 418.721 321.825 419.033 323.476L418.542 323.569C418.852 325.209 419.144 326.855 419.419 328.508L419.912 328.426C420.187 330.079 420.444 331.739 420.683 333.404L420.188 333.475C420.425 335.125 420.644 336.781 420.845 338.443L421.341 338.383C421.543 340.049 421.727 341.72 421.892 343.397L421.394 343.446C421.558 345.103 421.703 346.765 421.831 348.432L422.329 348.394C422.457 350.065 422.567 351.742 422.658 353.423L422.159 353.45C422.25 355.114 422.323 356.783 422.377 358.457L422.877 358.441Z" stroke="white" stroke-dasharray="5 5"/>
<circle cx="209" cy="366" r="291.5" stroke="white"/>
</g>
</svg>
