<svg width="731" height="539" viewBox="0 0 731 539" fill="none" xmlns="http://www.w3.org/2000/svg">
<g opacity="0.3">
<circle cx="365.5" cy="365.5" r="365" stroke="white" stroke-dasharray="5 5"/>
<path d="M579.877 358.441C579.931 360.114 579.968 361.791 579.986 363.473L579.486 363.479C579.495 364.318 579.5 365.158 579.5 366C579.5 366.842 579.495 367.682 579.486 368.521L579.986 368.527C579.968 370.209 579.931 371.887 579.877 373.56L579.377 373.543C579.323 375.217 579.25 376.886 579.159 378.55L579.659 378.577C579.567 380.258 579.457 381.935 579.329 383.606L578.831 383.568C578.703 385.235 578.558 386.898 578.394 388.554L578.892 388.603C578.727 390.28 578.543 391.952 578.341 393.617L577.845 393.557C577.644 395.219 577.425 396.875 577.188 398.525L577.683 398.596C577.444 400.262 577.187 401.921 576.912 403.574L576.419 403.492C576.144 405.145 575.852 406.791 575.542 408.431L576.033 408.524C575.721 410.175 575.39 411.82 575.043 413.457L574.553 413.354C574.205 414.993 573.839 416.626 573.456 418.252L573.943 418.366C573.557 420.001 573.154 421.628 572.734 423.247L572.25 423.122C571.828 424.745 571.39 426.361 570.933 427.969L571.414 428.105C570.957 429.719 570.481 431.326 569.989 432.924L569.511 432.777C569.017 434.38 568.506 435.975 567.978 437.562L568.452 437.72C567.923 439.311 567.376 440.894 566.812 442.469L566.342 442.3C565.776 443.88 565.194 445.45 564.595 447.013L565.062 447.192C564.461 448.757 563.844 450.314 563.21 451.862L562.747 451.672C562.111 453.224 561.459 454.767 560.79 456.301L561.248 456.501C560.577 458.038 559.89 459.567 559.187 461.085L558.733 460.875C558.028 462.396 557.307 463.907 556.57 465.409L557.019 465.629C556.279 467.135 555.524 468.631 554.752 470.117L554.308 469.886C553.536 471.373 552.748 472.85 551.944 474.316L552.382 474.557C551.575 476.028 550.752 477.489 549.914 478.939L549.481 478.689C548.643 480.139 547.789 481.578 546.919 483.006L547.347 483.266C546.474 484.699 545.586 486.122 544.682 487.533L544.261 487.263C543.358 488.673 542.44 490.072 541.507 491.46L541.922 491.739C540.985 493.131 540.034 494.512 539.067 495.881L538.658 495.592C537.693 496.96 536.712 498.315 535.717 499.659L536.119 499.956C535.12 501.305 534.106 502.641 533.078 503.965L532.683 503.659C531.657 504.98 530.616 506.29 529.56 507.587L529.948 507.902C528.889 509.204 527.816 510.493 526.728 511.769L526.348 511.444C525.262 512.718 524.162 513.978 523.049 515.226L523.422 515.559C522.305 516.811 521.173 518.049 520.028 519.274L519.663 518.933C518.521 520.155 517.364 521.364 516.195 522.559L516.552 522.909C515.379 524.108 514.192 525.293 512.992 526.465L512.643 526.107C511.445 527.276 510.235 528.43 509.012 529.57L509.353 529.936C508.125 531.08 506.885 532.209 505.633 533.324L505.3 532.951C504.05 534.063 502.788 535.16 501.513 536.243L501.836 536.624C500.558 537.71 499.267 538.78 497.964 539.836L497.649 539.447C496.349 540.5 495.037 541.538 493.713 542.561L494.018 542.957C492.691 543.982 491.352 544.991 490.001 545.985L489.705 545.582C488.357 546.573 486.998 547.549 485.627 548.509L485.914 548.918C484.541 549.88 483.156 550.825 481.76 551.755L481.483 551.338C480.09 552.266 478.687 553.176 477.272 554.071L477.539 554.493C476.123 555.389 474.695 556.269 473.257 557.131L473 556.702C471.565 557.563 470.12 558.406 468.664 559.233L468.911 559.668C467.454 560.496 465.987 561.306 464.509 562.1L464.273 561.659C462.799 562.451 461.316 563.225 459.822 563.982L460.048 564.428C458.554 565.185 457.049 565.925 455.535 566.648L455.32 566.196C453.811 566.916 452.292 567.619 450.764 568.303L450.969 568.76C449.44 569.445 447.901 570.112 446.354 570.761L446.161 570.3C444.619 570.947 443.069 571.576 441.51 572.186L441.692 572.652C440.132 573.263 438.563 573.855 436.986 574.43L436.815 573.96C435.245 574.532 433.666 575.085 432.08 575.62L432.239 576.093C430.652 576.628 429.056 577.145 427.452 577.643L427.304 577.165C425.709 577.66 424.106 578.136 422.495 578.594L422.632 579.075C421.02 579.533 419.4 579.971 417.773 580.391L417.648 579.907C416.032 580.324 414.409 580.722 412.778 581.101L412.891 581.588C411.258 581.967 409.619 582.327 407.972 582.668L407.871 582.179C406.238 582.517 404.598 582.835 402.951 583.135L403.041 583.627C401.391 583.927 399.734 584.208 398.071 584.469L397.994 583.975C396.348 584.233 394.695 584.472 393.037 584.691L393.103 585.187C391.441 585.407 389.773 585.607 388.099 585.788L388.046 585.291C386.389 585.47 384.727 585.629 383.059 585.768L383.101 586.267C381.432 586.406 379.757 586.526 378.077 586.626L378.047 586.127C376.383 586.226 374.714 586.306 373.04 586.366L373.058 586.865C371.386 586.925 369.708 586.965 368.026 586.985L368.021 586.485C367.182 586.495 366.341 586.5 365.5 586.5C364.659 586.5 363.818 586.495 362.979 586.485L362.973 586.985C361.291 586.965 359.614 586.925 357.942 586.865L357.959 586.366C356.286 586.306 354.617 586.226 352.953 586.127L352.923 586.626C351.243 586.526 349.568 586.406 347.899 586.267L347.94 585.768C346.273 585.629 344.611 585.47 342.954 585.291L342.901 585.788C341.227 585.607 339.559 585.407 337.897 585.187L337.962 584.691C336.304 584.472 334.652 584.233 333.006 583.975L332.929 584.469C331.266 584.208 329.609 583.927 327.959 583.627L328.049 583.135C326.402 582.835 324.762 582.517 323.129 582.179L323.028 582.668C321.381 582.327 319.741 581.967 318.109 581.588L318.222 581.101C316.591 580.722 314.968 580.324 313.352 579.907L313.227 580.391C311.6 579.971 309.98 579.533 308.368 579.075L308.505 578.594C306.894 578.136 305.291 577.66 303.696 577.165L303.548 577.643C301.944 577.145 300.348 576.628 298.761 576.093L298.92 575.62C297.334 575.085 295.755 574.532 294.185 573.96L294.014 574.43C292.437 573.855 290.868 573.263 289.308 572.652L289.49 572.186C287.931 571.576 286.381 570.947 284.839 570.3L284.646 570.761C283.099 570.112 281.56 569.445 280.031 568.76L280.236 568.303C278.708 567.619 277.189 566.916 275.68 566.196L275.465 566.647C273.951 565.925 272.446 565.185 270.952 564.428L271.178 563.982C269.684 563.225 268.201 562.451 266.727 561.659L266.491 562.1C265.013 561.306 263.546 560.496 262.089 559.668L262.336 559.233C260.88 558.406 259.435 557.563 258 556.702L257.743 557.131C256.305 556.269 254.877 555.389 253.461 554.493L253.728 554.071C252.313 553.176 250.91 552.266 249.517 551.338L249.24 551.755C247.844 550.825 246.459 549.88 245.086 548.918L245.373 548.509C244.002 547.549 242.643 546.573 241.295 545.582L240.999 545.985C239.648 544.991 238.309 543.981 236.982 542.957L237.287 542.561C235.963 541.538 234.651 540.5 233.351 539.447L233.036 539.836C231.733 538.78 230.442 537.71 229.164 536.624L229.487 536.243C228.212 535.16 226.95 534.063 225.7 532.95L225.367 533.324C224.115 532.209 222.875 531.08 221.647 529.936L221.988 529.57C220.765 528.43 219.555 527.275 218.357 526.107L218.008 526.465C216.808 525.293 215.621 524.108 214.448 522.909L214.805 522.559C213.636 521.364 212.479 520.155 211.337 518.933L210.972 519.274C209.827 518.049 208.695 516.811 207.578 515.559L207.951 515.226C206.838 513.978 205.738 512.718 204.652 511.444L204.272 511.769C203.184 510.493 202.111 509.204 201.052 507.902L201.44 507.587C200.384 506.29 199.343 504.98 198.317 503.658L197.922 503.965C196.894 502.641 195.88 501.305 194.881 499.956L195.283 499.659C194.288 498.315 193.307 496.96 192.342 495.592L191.933 495.881C190.967 494.512 190.015 493.131 189.078 491.738L189.493 491.459C188.56 490.072 187.642 488.673 186.739 487.263L186.318 487.533C185.414 486.122 184.526 484.699 183.654 483.266L184.081 483.006C183.211 481.578 182.357 480.139 181.519 478.689L181.086 478.939C180.248 477.489 179.425 476.028 178.618 474.557L179.056 474.316C178.252 472.85 177.464 471.373 176.692 469.886L176.248 470.117C175.476 468.631 174.721 467.135 173.981 465.629L174.43 465.409C173.693 463.907 172.972 462.396 172.267 460.875L171.813 461.085C171.11 459.566 170.423 458.038 169.752 456.501L170.21 456.301C169.541 454.767 168.889 453.224 168.253 451.672L167.79 451.862C167.156 450.314 166.539 448.757 165.938 447.191L166.405 447.012C165.806 445.45 165.224 443.88 164.658 442.3L164.188 442.469C163.624 440.894 163.077 439.311 162.548 437.72L163.022 437.562C162.494 435.975 161.983 434.38 161.489 432.777L161.011 432.924C160.519 431.326 160.043 429.719 159.586 428.105L160.067 427.968C159.611 426.36 159.172 424.745 158.75 423.122L158.266 423.247C157.846 421.628 157.443 420 157.058 418.366L157.544 418.251C157.161 416.626 156.795 414.993 156.447 413.353L155.958 413.457C155.61 411.819 155.279 410.175 154.967 408.524L155.458 408.431C155.148 406.791 154.856 405.145 154.581 403.492L154.088 403.574C153.813 401.921 153.556 400.261 153.317 398.596L153.812 398.525C153.575 396.875 153.356 395.219 153.155 393.557L152.659 393.617C152.457 391.951 152.274 390.28 152.108 388.603L152.606 388.554C152.442 386.897 152.297 385.235 152.169 383.568L151.671 383.606C151.543 381.935 151.433 380.258 151.342 378.577L151.841 378.55C151.75 376.886 151.677 375.217 151.623 373.543L151.123 373.559C151.069 371.886 151.032 370.209 151.014 368.527L151.514 368.521C151.505 367.682 151.5 366.842 151.5 366C151.5 365.158 151.505 364.318 151.514 363.479L151.014 363.473C151.032 361.791 151.069 360.113 151.123 358.44L151.623 358.457C151.678 356.783 151.75 355.114 151.841 353.45L151.342 353.423C151.433 351.742 151.543 350.065 151.671 348.394L152.169 348.432C152.297 346.765 152.442 345.102 152.606 343.446L152.108 343.397C152.274 341.72 152.457 340.048 152.659 338.383L153.155 338.443C153.356 336.781 153.575 335.125 153.812 333.475L153.317 333.404C153.556 331.738 153.813 330.079 154.088 328.426L154.581 328.508C154.856 326.855 155.148 325.209 155.458 323.569L154.967 323.476C155.279 321.825 155.61 320.18 155.958 318.543L156.447 318.646C156.795 317.007 157.161 315.374 157.544 313.748L157.058 313.634C157.443 311.999 157.846 310.372 158.266 308.753L158.75 308.878C159.172 307.255 159.611 305.639 160.067 304.031L159.586 303.895C160.044 302.281 160.519 300.674 161.011 299.076L161.489 299.223C161.983 297.62 162.494 296.025 163.022 294.438L162.548 294.28C163.077 292.689 163.624 291.106 164.188 289.531L164.658 289.7C165.224 288.12 165.806 286.55 166.405 284.987L165.938 284.808C166.539 283.243 167.156 281.686 167.79 280.138L168.253 280.328C168.889 278.776 169.541 277.233 170.21 275.699L169.752 275.499C170.423 273.962 171.11 272.433 171.813 270.915L172.267 271.125C172.972 269.604 173.693 268.093 174.43 266.591L173.981 266.371C174.721 264.865 175.476 263.369 176.248 261.883L176.692 262.114C177.464 260.627 178.252 259.15 179.056 257.684L178.618 257.443C179.425 255.972 180.248 254.511 181.086 253.061L181.519 253.311C182.357 251.861 183.211 250.422 184.081 248.994L183.654 248.734C184.526 247.301 185.414 245.878 186.318 244.467L186.739 244.737C187.642 243.327 188.56 241.928 189.493 240.54L189.078 240.261C190.015 238.869 190.967 237.488 191.933 236.119L192.342 236.408C193.307 235.04 194.288 233.685 195.283 232.341L194.881 232.044C195.88 230.695 196.894 229.359 197.922 228.035L198.317 228.341C199.343 227.02 200.384 225.71 201.44 224.413L201.052 224.098C202.111 222.796 203.184 221.507 204.272 220.231L204.653 220.556C205.738 219.282 206.838 218.022 207.951 216.774L207.578 216.441C208.695 215.189 209.827 213.951 210.972 212.726L211.337 213.067C212.479 211.845 213.636 210.636 214.805 209.441L214.448 209.091C215.621 207.892 216.808 206.707 218.008 205.535L218.357 205.893C219.555 204.724 220.765 203.57 221.988 202.43L221.647 202.064C222.875 200.92 224.115 199.791 225.368 198.676L225.7 199.049C226.95 197.937 228.212 196.84 229.487 195.757L229.164 195.376C230.442 194.29 231.733 193.22 233.036 192.164L233.351 192.553C234.651 191.5 235.963 190.462 237.287 189.439L236.982 189.043C238.309 188.019 239.648 187.009 240.999 186.015L241.295 186.418C242.643 185.427 244.002 184.451 245.373 183.491L245.086 183.082C246.459 182.12 247.844 181.175 249.24 180.245L249.517 180.662C250.91 179.734 252.313 178.824 253.728 177.929L253.461 177.507C254.878 176.611 256.305 175.731 257.743 174.869L258 175.298C259.435 174.437 260.88 173.594 262.336 172.767L262.089 172.332C263.546 171.504 265.013 170.694 266.491 169.9L266.728 170.341C268.201 169.549 269.685 168.775 271.178 168.018L270.952 167.572C272.446 166.815 273.951 166.075 275.465 165.352L275.68 165.804C277.189 165.084 278.708 164.381 280.236 163.697L280.032 163.24C281.561 162.555 283.099 161.888 284.646 161.239L284.839 161.7C286.381 161.053 287.931 160.424 289.49 159.814L289.308 159.348C290.868 158.737 292.437 158.144 294.014 157.57L294.185 158.04C295.755 157.468 297.334 156.915 298.921 156.38L298.761 155.907C300.348 155.372 301.944 154.855 303.548 154.357L303.696 154.835C305.291 154.34 306.894 153.864 308.505 153.406L308.368 152.925C309.98 152.467 311.6 152.029 313.227 151.609L313.352 152.093C314.968 151.676 316.591 151.278 318.222 150.899L318.109 150.412C319.742 150.033 321.381 149.673 323.028 149.332L323.129 149.821C324.763 149.483 326.402 149.165 328.049 148.865L327.959 148.373C329.609 148.073 331.266 147.792 332.929 147.531L333.007 148.025C334.652 147.767 336.305 147.528 337.963 147.309L337.897 146.813C339.559 146.593 341.227 146.393 342.901 146.212L342.954 146.709C344.611 146.53 346.273 146.371 347.941 146.232L347.899 145.733C349.568 145.594 351.243 145.474 352.923 145.374L352.953 145.873C354.617 145.774 356.286 145.694 357.96 145.634L357.942 145.135C359.614 145.075 361.292 145.035 362.974 145.015L362.98 145.515C363.819 145.505 364.659 145.5 365.5 145.5C366.341 145.5 367.182 145.505 368.021 145.515L368.027 145.015C369.709 145.035 371.386 145.075 373.058 145.135L373.041 145.634C374.715 145.694 376.384 145.774 378.047 145.873L378.077 145.374C379.757 145.474 381.432 145.594 383.101 145.733L383.06 146.232C384.727 146.371 386.389 146.53 388.046 146.709L388.099 146.212C389.773 146.393 391.441 146.593 393.103 146.813L393.038 147.309C394.696 147.528 396.348 147.767 397.994 148.025L398.071 147.531C399.734 147.792 401.391 148.073 403.041 148.373L402.951 148.865C404.598 149.165 406.238 149.483 407.871 149.821L407.972 149.332C409.619 149.673 411.259 150.033 412.891 150.412L412.778 150.899C414.409 151.278 416.032 151.676 417.648 152.093L417.773 151.609C419.4 152.029 421.02 152.468 422.632 152.925L422.495 153.406C424.106 153.864 425.709 154.34 427.304 154.835L427.452 154.357C429.056 154.855 430.652 155.372 432.239 155.907L432.08 156.38C433.666 156.915 435.245 157.468 436.815 158.04L436.986 157.57C438.563 158.145 440.132 158.737 441.692 159.348L441.51 159.814C443.069 160.424 444.619 161.053 446.161 161.7L446.354 161.239C447.902 161.888 449.44 162.555 450.969 163.24L450.764 163.697C452.292 164.381 453.811 165.084 455.32 165.804L455.535 165.353C457.049 166.075 458.554 166.815 460.048 167.572L459.822 168.018C461.316 168.775 462.799 169.549 464.273 170.341L464.509 169.9C465.987 170.694 467.454 171.504 468.911 172.332L468.665 172.767C470.12 173.594 471.565 174.437 473 175.298L473.257 174.869C474.695 175.731 476.123 176.611 477.539 177.507L477.272 177.929C478.687 178.824 480.09 179.735 481.483 180.662L481.76 180.245C483.156 181.175 484.541 182.12 485.914 183.082L485.627 183.491C486.998 184.451 488.357 185.427 489.705 186.418L490.001 186.015C491.352 187.009 492.691 188.019 494.018 189.043L493.713 189.439C495.037 190.462 496.349 191.5 497.649 192.553L497.964 192.164C499.267 193.22 500.558 194.29 501.837 195.376L501.513 195.757C502.788 196.84 504.05 197.937 505.3 199.05L505.633 198.676C506.885 199.791 508.126 200.92 509.353 202.064L509.012 202.43C510.235 203.57 511.446 204.725 512.643 205.893L512.992 205.535C514.192 206.707 515.379 207.892 516.552 209.091L516.195 209.441C517.365 210.636 518.521 211.845 519.663 213.067L520.029 212.726C521.173 213.951 522.305 215.189 523.422 216.441L523.049 216.774C524.162 218.022 525.262 219.282 526.348 220.556L526.728 220.231C527.816 221.507 528.889 222.796 529.948 224.098L529.561 224.413C530.616 225.71 531.657 227.02 532.683 228.342L533.078 228.035C534.106 229.359 535.12 230.695 536.119 232.044L535.717 232.341C536.712 233.685 537.693 235.04 538.658 236.408L539.067 236.119C540.034 237.488 540.985 238.869 541.922 240.261L541.507 240.541C542.44 241.928 543.358 243.327 544.261 244.737L544.682 244.467C545.586 245.878 546.474 247.301 547.347 248.734L546.919 248.994C547.789 250.422 548.643 251.861 549.481 253.311L549.914 253.061C550.753 254.511 551.575 255.972 552.382 257.443L551.944 257.684C552.748 259.15 553.536 260.627 554.308 262.114L554.752 261.883C555.524 263.369 556.279 264.865 557.019 266.371L556.57 266.591C557.307 268.093 558.028 269.604 558.733 271.125L559.187 270.915C559.89 272.434 560.577 273.962 561.248 275.499L560.79 275.699C561.459 277.233 562.111 278.776 562.747 280.328L563.21 280.138C563.844 281.686 564.461 283.243 565.062 284.808L564.595 284.988C565.194 286.55 565.776 288.12 566.342 289.7L566.812 289.531C567.376 291.106 567.923 292.689 568.453 294.28L567.978 294.438C568.506 296.025 569.017 297.62 569.511 299.223L569.989 299.076C570.481 300.674 570.957 302.281 571.414 303.895L570.933 304.032C571.39 305.64 571.828 307.255 572.25 308.878L572.734 308.753C573.154 310.372 573.557 312 573.943 313.634L573.456 313.749C573.839 315.374 574.205 317.007 574.553 318.647L575.043 318.543C575.39 320.181 575.721 321.825 576.033 323.476L575.542 323.569C575.852 325.209 576.144 326.855 576.419 328.508L576.912 328.426C577.187 330.079 577.444 331.739 577.683 333.404L577.188 333.475C577.425 335.125 577.644 336.781 577.845 338.443L578.341 338.383C578.543 340.049 578.727 341.72 578.892 343.397L578.394 343.446C578.558 345.103 578.703 346.765 578.831 348.432L579.329 348.394C579.457 350.065 579.567 351.742 579.659 353.423L579.159 353.45C579.25 355.114 579.323 356.783 579.377 358.457L579.877 358.441Z" stroke="white" stroke-dasharray="5 5"/>
<circle cx="366" cy="366" r="291.5" stroke="white"/>
</g>
</svg>
