<svg width="130" height="24" viewBox="0 0 130 24" fill="none" xmlns="http://www.w3.org/2000/svg">
<path d="M0.453125 0.454545H8.07102L13.3111 13.2244H13.5753L18.8153 0.454545H26.4332V23H20.4446V9.96591H20.2685L15.2486 22.8239H11.6378L6.6179 9.87784H6.44176V23H0.453125V0.454545ZM35.4547 0.454545V23H29.334V0.454545H35.4547ZM38.3555 23V0.454545H48.087C49.7603 0.454545 51.2244 0.759114 52.4794 1.36825C53.7344 1.97739 54.7105 2.8544 55.4077 3.99929C56.1049 5.14418 56.4535 6.51657 56.4535 8.11648C56.4535 9.73106 56.0939 11.0924 55.3746 12.2006C54.6628 13.3088 53.661 14.1455 52.3693 14.7106C51.085 15.2757 49.5842 15.5582 47.8668 15.5582H42.0543V10.8026H46.6339C47.3531 10.8026 47.9659 10.7145 48.4723 10.5384C48.986 10.3549 49.3787 10.065 49.6502 9.66868C49.9291 9.27237 50.0685 8.75497 50.0685 8.11648C50.0685 7.47064 49.9291 6.9459 49.6502 6.54226C49.3787 6.13127 48.986 5.83037 48.4723 5.63956C47.9659 5.44141 47.3531 5.34233 46.6339 5.34233H44.4762V23H38.3555ZM51.5657 12.652L57.2021 23H50.5529L45.0487 12.652H51.5657ZM80.9034 11.7273C80.9034 14.2372 80.4154 16.3545 79.4393 18.0792C78.4632 19.7965 77.1458 21.0992 75.4872 21.9872C73.8286 22.8679 71.9792 23.3082 69.9389 23.3082C67.884 23.3082 66.0272 22.8642 64.3686 21.9762C62.7173 21.0808 61.4036 19.7745 60.4276 18.0572C59.4588 16.3325 58.9744 14.2225 58.9744 11.7273C58.9744 9.21733 59.4588 7.10369 60.4276 5.38636C61.4036 3.66169 62.7173 2.35902 64.3686 1.47834C66.0272 0.590316 67.884 0.146306 69.9389 0.146306C71.9792 0.146306 73.8286 0.590316 75.4872 1.47834C77.1458 2.35902 78.4632 3.66169 79.4393 5.38636C80.4154 7.10369 80.9034 9.21733 80.9034 11.7273ZM74.6065 11.7273C74.6065 10.3769 74.4267 9.23935 74.0671 8.31463C73.7148 7.38257 73.1901 6.67803 72.4929 6.20099C71.803 5.71662 70.9517 5.47443 69.9389 5.47443C68.9261 5.47443 68.0711 5.71662 67.3739 6.20099C66.6841 6.67803 66.1593 7.38257 65.7997 8.31463C65.4474 9.23935 65.2713 10.3769 65.2713 11.7273C65.2713 13.0777 65.4474 14.2189 65.7997 15.1509C66.1593 16.0756 66.6841 16.7802 67.3739 17.2646C68.0711 17.7416 68.9261 17.9801 69.9389 17.9801C70.9517 17.9801 71.803 17.7416 72.4929 17.2646C73.1901 16.7802 73.7148 16.0756 74.0671 15.1509C74.4267 14.2189 74.6065 13.0777 74.6065 11.7273ZM104.784 8.90909H98.5748C98.5308 8.39536 98.4134 7.92933 98.2226 7.51101C98.0391 7.09268 97.7822 6.73307 97.452 6.43217C97.1291 6.12393 96.7364 5.88909 96.2741 5.72763C95.8117 5.55883 95.287 5.47443 94.6998 5.47443C93.6724 5.47443 92.8027 5.72396 92.0908 6.22301C91.3863 6.72206 90.8505 7.43762 90.4836 8.36967C90.124 9.30173 89.9442 10.4209 89.9442 11.7273C89.9442 13.107 90.1276 14.2629 90.4946 15.195C90.8689 16.1197 91.4083 16.8169 92.1128 17.2866C92.8174 17.7489 93.665 17.9801 94.6558 17.9801C95.2209 17.9801 95.7273 17.9104 96.175 17.771C96.6227 17.6242 97.0116 17.415 97.3419 17.1435C97.6721 16.8719 97.94 16.5453 98.1455 16.1637C98.3583 15.7747 98.5015 15.3381 98.5748 14.8537L104.784 14.8977C104.71 15.8518 104.442 16.8242 103.98 17.815C103.518 18.7984 102.861 19.7085 102.009 20.5451C101.166 21.3744 100.12 22.0423 98.8721 22.5487C97.6244 23.055 96.175 23.3082 94.5237 23.3082C92.4541 23.3082 90.5973 22.8642 88.9534 21.9762C87.3168 21.0882 86.0215 19.7818 85.0674 18.0572C84.1206 16.3325 83.6473 14.2225 83.6473 11.7273C83.6473 9.21733 84.1317 7.10369 85.1004 5.38636C86.0692 3.66169 87.3755 2.35902 89.0194 1.47834C90.6634 0.590316 92.4981 0.146306 94.5237 0.146306C95.9475 0.146306 97.2575 0.34079 98.4537 0.729757C99.65 1.11873 100.699 1.6875 101.602 2.43608C102.505 3.17732 103.231 4.09103 103.782 5.1772C104.332 6.26338 104.666 7.50734 104.784 8.90909ZM129.401 11.7273C129.401 14.2372 128.913 16.3545 127.937 18.0792C126.961 19.7965 125.644 21.0992 123.985 21.9872C122.327 22.8679 120.477 23.3082 118.437 23.3082C116.382 23.3082 114.525 22.8642 112.867 21.9762C111.215 21.0808 109.902 19.7745 108.926 18.0572C107.957 16.3325 107.472 14.2225 107.472 11.7273C107.472 9.21733 107.957 7.10369 108.926 5.38636C109.902 3.66169 111.215 2.35902 112.867 1.47834C114.525 0.590316 116.382 0.146306 118.437 0.146306C120.477 0.146306 122.327 0.590316 123.985 1.47834C125.644 2.35902 126.961 3.66169 127.937 5.38636C128.913 7.10369 129.401 9.21733 129.401 11.7273ZM123.105 11.7273C123.105 10.3769 122.925 9.23935 122.565 8.31463C122.213 7.38257 121.688 6.67803 120.991 6.20099C120.301 5.71662 119.45 5.47443 118.437 5.47443C117.424 5.47443 116.569 5.71662 115.872 6.20099C115.182 6.67803 114.657 7.38257 114.298 8.31463C113.945 9.23935 113.769 10.3769 113.769 11.7273C113.769 13.0777 113.945 14.2189 114.298 15.1509C114.657 16.0756 115.182 16.7802 115.872 17.2646C116.569 17.7416 117.424 17.9801 118.437 17.9801C119.45 17.9801 120.301 17.7416 120.991 17.2646C121.688 16.7802 122.213 16.0756 122.565 15.1509C122.925 14.2189 123.105 13.0777 123.105 11.7273Z" fill="#23262F"/>
</svg>
