<svg width="585" height="325" viewBox="0 0 585 325" fill="none" xmlns="http://www.w3.org/2000/svg">
<path d="M461.8 -122.165C506.259 12.2067 428.262 159.046 283.839 203.932C139.416 248.819 -12.1429 173.324 -56.6015 38.9528C-101.06 -95.4188 -23.0629 -242.259 121.36 -287.145C265.782 -332.031 417.341 -256.536 461.8 -122.165Z" stroke="#6070FF" stroke-width="64.8651"/>
<path d="M408.734 -105.225C447.53 12.0316 379.45 140.049 253.591 179.165C127.731 218.282 -4.46651 152.511 -43.2624 35.254C-82.0584 -82.0027 -13.978 -210.02 111.881 -249.136C237.74 -288.253 369.938 -222.482 408.734 -105.225Z" stroke="#6171FF" stroke-width="53.3138"/>
<path d="M364.796 -101.847C398.933 1.32678 336.31 116.068 220.249 152.139C104.189 188.211 -15.6031 130.163 -49.7395 26.9895C-83.8759 -76.1842 -21.2531 -190.926 94.8071 -226.997C210.867 -263.068 330.66 -205.021 364.796 -101.847Z" stroke="#6A79FF" stroke-width="46.2053"/>
<path d="M326.183 -79.5689C355.804 9.95522 301.52 109.901 200.264 141.371C99.0082 172.841 -5.12249 122.13 -34.7427 32.6058C-64.363 -56.9184 -10.079 -156.864 91.1767 -188.334C192.432 -219.804 296.563 -169.093 326.183 -79.5689Z" stroke="#717FFF" stroke-width="46.2053"/>
<path d="M288.711 -56.7511C314.902 22.4109 266.967 112.267 175.201 140.788C83.4356 169.308 -9.47657 123.227 -35.6684 44.0649C-61.8602 -35.0971 -13.9248 -124.953 77.8409 -153.474C169.607 -181.994 262.519 -135.913 288.711 -56.7511Z" stroke="#6F7DFF" stroke-width="62.1994"/>
</svg>
