<svg width="641" height="858" viewBox="0 0 641 858" fill="none" xmlns="http://www.w3.org/2000/svg">
<circle cx="211.507" cy="428.507" r="270.567" transform="rotate(-135 211.507 428.507)" stroke="#6070FF" stroke-width="64.8651"/>
<circle cx="226.586" cy="442.958" r="235.914" transform="rotate(-135 226.586 442.958)" stroke="#6171FF" stroke-width="53.3138"/>
<path d="M82.7031 313.526C163.76 232.47 298.356 233.874 383.349 318.867C468.342 403.86 469.746 538.456 388.69 619.513C307.633 700.569 173.037 699.165 88.0437 614.172C3.05049 529.179 1.64636 394.583 82.7031 313.526Z" stroke="#6A79FF" stroke-width="46.2053"/>
<path d="M120.716 337.088C191.189 266.614 308.344 267.738 382.407 341.8C456.469 415.862 457.592 533.017 387.119 603.491C316.645 673.964 199.49 672.841 125.428 598.779C51.3661 524.716 50.2424 407.561 120.716 337.088Z" stroke="#717FFF" stroke-width="46.2053"/>
<path d="M158.728 359.393C221.535 296.586 326.59 297.294 393.402 364.105C460.214 430.917 460.921 535.972 398.114 598.779C335.307 661.585 230.252 660.878 163.441 594.066C96.6292 527.255 95.9217 422.2 158.728 359.393Z" stroke="#6F7DFF" stroke-width="62.1994"/>
</svg>
