<svg width="218" height="27" viewBox="0 0 218 27" fill="none" xmlns="http://www.w3.org/2000/svg">
<g clip-path="url(#clip0_119_2439)">
<path fill-rule="evenodd" clip-rule="evenodd" d="M0.75 0.791959H13.2635C17.7362 0.791959 21.787 3.74964 21.787 8.51977C21.787 11.8413 20.2749 14.1357 16.9504 14.9789L24.3257 26.2094H14.7756L8.91107 13.7719H9.03146C12.1747 13.7719 13.3243 11.9004 13.3243 8.88094C13.3243 5.98236 11.5106 4.29337 9.3344 4.29337H8.42688V26.2094H0.75V0.791959ZM41.9178 15.4635H33.938V20.7143C33.938 21.8018 34.6021 22.4663 36.0533 22.4663H43.2474V26.2094H30.1306C27.4703 26.2094 25.4753 24.2775 25.4753 21.2003V6.22532C25.4753 2.783 28.1952 0.791959 31.2181 0.791959H42.824V4.53503H35.4488C34.3005 4.53503 33.938 5.44126 33.938 6.82948V11.7191H41.9178V15.4635ZM66.3389 22.2247C66.3389 24.4561 65.8547 26.4498 63.2551 26.4498C61.5023 26.4498 60.5961 25.7852 59.6886 24.3366L50.8025 9.96841H50.6821V26.2094H46.4501V5.31911C46.4501 3.26764 46.8735 0.550293 50.8634 0.550293C53.4021 0.550293 54.6112 1.81769 55.8799 3.87047L61.9851 13.5302H62.1055V0.550293H66.3375V22.2247H66.3389ZM70.9942 0.791959H79.396V26.2094H70.9942V0.791959ZM93.4811 4.53503C92.2124 4.53503 90.58 4.65587 90.58 6.64823C90.58 11.3566 101.945 7.01071 101.945 17.3337C101.945 23.2517 97.9552 26.2094 92.6953 26.2094H83.5672V22.4663H90.7612C93.0578 22.4663 94.6307 22.2838 94.6307 19.4469C94.6307 14.7372 82.4202 18.542 82.4202 8.94135C82.4202 3.62881 86.168 0.790636 91.1859 0.790636H99.2861V4.53372H93.4811V4.53503ZM105.028 26.2094V0.791959H113.492V9.72674H119.294V0.791959H127.757V26.2094H119.294V13.4698H113.492V26.2094H105.028ZM129.692 26.2094L136.28 5.68291C137.246 2.6635 138.335 0.551606 141.84 0.551606C144.985 0.551606 146.072 2.84605 146.918 5.44256L153.749 26.2107H145.346L143.834 21.5627H135.191L133.559 26.2107H129.692V26.2094ZM136.34 17.9983H142.748L139.665 7.73438H139.544L136.34 17.9983ZM159.19 0.791959L164.389 19.024H164.511L168.136 6.22532L166.746 0.791959H175.269L180.165 19.3274H180.287L185.486 0.791959H189.777L182.583 23.7337C181.979 25.906 180.467 26.4498 178.414 26.4498C175.269 26.4498 173.455 25.0615 172.67 22.0434L170.313 12.3837H170.192L167.773 21.3789C166.988 24.1566 165.477 26.4498 162.213 26.4498C158.947 26.4498 157.436 24.7595 156.65 21.8018L150.725 0.790636H159.19V0.791959ZM184.881 23.4304C184.881 21.7401 186.272 20.4727 187.904 20.4727C189.537 20.4727 190.865 21.7401 190.865 23.4304C190.865 25.1206 189.537 26.3907 187.904 26.3907C186.272 26.3907 184.881 25.122 184.881 23.4304ZM187.906 25.906C189.236 25.906 190.262 24.8212 190.262 23.4304C190.262 22.0421 189.236 20.9573 187.906 20.9573C186.515 20.9573 185.487 22.0421 185.487 23.4304C185.486 24.8212 186.515 25.906 187.906 25.906ZM187.301 25.122H186.756V21.7414H188.027C188.873 21.7414 189.236 22.0434 189.236 22.708C189.236 23.3108 188.873 23.5551 188.388 23.6129L189.354 25.1206H188.75L187.842 23.6733H187.3V25.122H187.301ZM187.906 23.19C188.329 23.19 188.691 23.19 188.691 22.6463C188.691 22.226 188.33 22.1643 187.965 22.1643H187.301V23.19H187.906Z" fill="#C28334"/>
<path d="M193.284 26.2709H218.249V0.97168H193.284V26.2709Z" stroke="#C28334" stroke-miterlimit="2.613"/>
<path d="M205.616 23.6745C212.445 23.7336 216.799 20.5343 216.799 16.2488C216.799 12.3232 211.6 9.18422 205.616 9.1238C198.604 9.00297 194.735 12.3245 194.735 16.2488C194.737 20.1705 199.389 23.6128 205.616 23.6745Z" stroke="#C28334" stroke-miterlimit="2.613"/>
<path fill-rule="evenodd" clip-rule="evenodd" d="M204.467 1.27393L204.71 14.1343C204.71 14.1343 205.798 14.9788 206.583 14.0135L206.886 1.33434L204.467 1.27393Z" fill="#C28334"/>
<path d="M213.595 21.4405C213.595 21.4405 210.391 18.6627 205.495 18.6036C200.96 18.5419 197.756 21.0793 197.756 21.0793" stroke="#C28334" stroke-miterlimit="2.613"/>
<path fill-rule="evenodd" clip-rule="evenodd" d="M206.584 14.376C205.676 15.0405 204.711 14.376 204.711 14.376C204.711 14.376 204.166 14.7989 204.408 15.5843C204.648 16.4288 204.95 16.2488 205.555 16.4288C205.555 16.4288 206.642 16.5496 206.886 15.5843C207.129 14.678 206.584 14.376 206.584 14.376Z" fill="#C28334"/>
<path d="M203.924 9.30518V18.4829" stroke="#C28334" stroke-miterlimit="2.613"/>
<path d="M201.628 9.72656V19.1447" stroke="#C28334" stroke-miterlimit="2.613"/>
<path d="M200.297 9.96826V19.5059" stroke="#C28334" stroke-miterlimit="2.613"/>
<path d="M198.906 10.5122V20.3532" stroke="#C28334" stroke-miterlimit="2.613"/>
<path d="M202.896 9.4248V18.663" stroke="#C28334" stroke-miterlimit="2.613"/>
<path d="M197.576 11.1753V20.8968" stroke="#C28334" stroke-miterlimit="2.613"/>
<path fill-rule="evenodd" clip-rule="evenodd" d="M196.73 12.0816C196.73 12.0816 192.62 16.0663 196.79 20.2927V11.9595L196.73 12.0816Z" fill="#C28334"/>
</g>
<defs>
<clipPath id="clip0_119_2439">
<rect width="218" height="26" fill="white" transform="translate(0 0.5)"/>
</clipPath>
</defs>
</svg>
