<svg width="161" height="37" viewBox="0 0 161 37" fill="none" xmlns="http://www.w3.org/2000/svg">
<g clip-path="url(#clip0_119_2453)">
<path fill-rule="evenodd" clip-rule="evenodd" d="M161.001 28.7737C161.001 32.7836 161.191 36.1 161.191 36.1H152.737L152.712 25.0077C152.712 21.2371 151.604 19.8848 149.583 19.8848C146.933 19.8848 145.574 21.9306 145.574 26.239L145.56 36.1H137.258C137.516 29.5 137.265 19.5911 137.06 13.481H144.561C144.561 13.481 144.728 14.3931 144.728 15.8674L144.72 16.7261C145.748 15.2771 148.828 12.8043 152.537 12.9939C156.246 13.1835 158.927 15.0059 160.101 17.5012C160.767 18.9154 160.964 21.0569 161.009 22.6476L161.001 28.7737ZM56.6374 33.235C55.35 34.6905 52.4418 36.7579 49.1168 36.5083C44.4337 36.1545 40.7441 34.012 40.7441 26.9353L40.7625 13.4847H49.1168L49.1214 24.5761C49.1214 28.3486 50.1287 29.7009 52.1508 29.7009C54.7981 29.7009 56.0772 27.2281 56.0772 23.3448L56.0846 13.4857H64.3131C64.0542 20.0866 64.3058 29.9946 64.5105 36.1038H57.0111C56.596 35.4056 56.6374 33.235 56.6374 33.235ZM127.235 33.2556C127.235 35.2714 127.397 36.1094 127.397 36.1094H134.57C134.57 36.1094 134.371 32.2365 134.367 24.7093C134.367 24.6052 134.405 19.973 133.812 18.6574C133.219 17.3398 131.988 14.2495 126.702 13.176C121.419 12.1015 115.811 14.1538 114.976 14.7882V20.3587C114.976 20.3587 118.612 18.3411 121.423 18.3411C123.55 18.3411 126.547 18.4856 126.707 21.6716C126.707 21.6716 125.599 21.6313 123.995 21.6313C118.836 21.6313 112.367 22.641 112.25 29.0637C112.16 34.089 116.491 36.4266 120.292 36.3168C120.293 36.314 124.658 36.5524 127.235 33.2556Z" fill="#CC2131"/>
<path fill-rule="evenodd" clip-rule="evenodd" d="M120.16 28.8454C119.989 25.6763 125.999 26.092 126.761 26.3745C126.798 31.7451 120.35 32.3626 120.16 28.8454Z" fill="white"/>
<path fill-rule="evenodd" clip-rule="evenodd" d="M102.337 25.0239C102.337 21.2486 101.038 19.9357 99.2825 19.9357C96.6333 19.9357 95.2725 21.9412 95.2725 26.2552L95.2872 36.0993H87.066L87.0495 6.87649H95.3303L95.3551 15.7719C96.738 14.52 99.2311 12.8628 102.257 13.0176C105.962 13.2072 110.704 14.9555 110.704 23.1161V36.0984H102.338V25.0239H102.337ZM84.5793 20.8301C81.5913 18.3751 74.3591 18.6285 74.3591 24.5069C74.3591 31.0571 82.1946 30.876 85.1588 28.6435L85.3736 35.0605C81.1662 37.2893 65.9708 38.0503 65.9708 24.6298C65.9708 11.2008 80.9531 11.8887 85.1376 14.4525L84.5793 20.8301ZM4.59435 23.8734L0.485135 36.0984H10.664L13.5575 26.6662H19.842L22.6143 36.0984H41.209C41.209 36.0984 36.0879 20.7625 36.0861 20.7663C35.154 22.6065 33.3662 25.3336 29.5986 27.1683L29.3717 26.4353C30.7693 25.7568 34.6811 23.5703 36.2541 18.27C36.4074 17.6891 37.109 14.7002 37.1962 14.2535C37.2835 13.8068 37.558 12.7586 38.4102 12.1439C39.4542 11.3641 40.3312 12.0407 42.602 10.9784C42.8472 10.8855 42.8454 10.8038 42.6011 10.7119C41.9721 10.4547 40.8224 10.0381 39.4102 10.0437C38.5369 10.0475 38.0456 9.83819 37.2853 9.07149C36.9116 8.69518 36.0558 6.77608 32.739 6.77608C32.2615 6.77608 31.7491 6.79485 31.3442 6.87743L29.211 0.47168H12.4179L7.13517 16.2524L-0.153055 16.2486C-0.235076 16.9972 -0.117006 17.7545 0.188596 18.4399C0.494198 19.1254 0.975901 19.7133 1.58246 20.1413C0.99636 20.5516 0.525351 21.1113 0.216103 21.765C-0.0931444 22.4186 -0.229897 23.1435 -0.180602 23.8678L4.59435 23.8734Z" fill="#CC2131"/>
<path fill-rule="evenodd" clip-rule="evenodd" d="M26.9521 27.3116L29.2735 35.1438H31.3176L28.7979 26.6885C28.3121 26.9062 27.6363 27.1352 26.9521 27.3116ZM34.7362 10.1477L33.0264 11.012C32.8455 11.1002 32.7638 11.0195 32.8446 10.8318L33.638 9.0938C33.2583 8.96918 32.8484 8.9803 32.4757 9.12533C32.103 9.27037 31.7897 9.5407 31.5873 9.89186C31.3849 10.243 31.3054 10.6541 31.362 11.0576C31.4185 11.461 31.6077 11.8328 31.8984 12.1118C32.1891 12.3907 32.5641 12.5603 32.9617 12.5926C33.3592 12.6249 33.7557 12.518 34.0859 12.2895C34.4161 12.0609 34.6604 11.7244 34.7786 11.3351C34.8968 10.9459 34.8818 10.5271 34.7362 10.1477Z" fill="white"/>
<path fill-rule="evenodd" clip-rule="evenodd" d="M30.6196 6.63707C30.667 6.62726 30.7163 6.63678 30.757 6.6636C30.7977 6.69043 30.8264 6.73243 30.8372 6.78065C30.8458 6.82914 30.8355 6.87916 30.8083 6.91989C30.7812 6.96063 30.7394 6.98881 30.6921 6.99837C27.9025 7.68624 27.1376 10.0877 27.2376 11.6155C27.2533 11.8491 27.2881 12.232 27.3432 12.4C22.9503 14.5377 19.1441 16.9795 14.7741 22.2648L25.6941 22.2611C25.0384 22.6627 24.3139 23.2671 23.5104 23.969L24.5444 27.6899L26.7436 35.1317L24.6527 35.1167L21.5151 24.6128H8.81736C9.25445 23.557 9.99549 22.5285 10.6291 21.9148L2.52637 21.9204C2.62829 20.9801 3.37851 20.1683 4.50889 20.1683C4.5447 20.1683 4.57317 20.1393 4.57317 20.1027C4.57317 20.0661 4.5447 20.037 4.50889 20.037C3.418 20.037 2.67421 19.3163 2.53371 18.3215H16.3829C19.0495 15.7755 23.0623 13.3525 25.6004 12.1776C25.4094 9.47865 26.9245 6.9918 30.6196 6.63707Z" fill="white"/>
<path fill-rule="evenodd" clip-rule="evenodd" d="M17.041 15.3288L20.6378 3.45947L23.0428 11.4859C23.0418 11.485 19.0134 13.6781 17.041 15.3288Z" fill="white"/>
</g>
<defs>
<clipPath id="clip0_119_2453">
<rect width="161" height="36" fill="white" transform="translate(0 0.5)"/>
</clipPath>
</defs>
</svg>
