<svg width="146" height="97" viewBox="0 0 146 97" fill="none" xmlns="http://www.w3.org/2000/svg">
<path fill-rule="evenodd" clip-rule="evenodd" d="M135.064 37.4594H90.677L75.5249 0.114258L72.7374 7.09303L60.6242 37.4594H13.1362L0.205078 67.6164L72.7374 77.592L74.8541 77.8854L145.794 67.6164L135.064 37.4594ZM74.6448 69.2094L72.7374 69.1463L4.4174 66.7363L15.3361 41.7137H60.3729L72.7374 10.1108L75.5249 3.02701L90.6342 41.7137H132.612L141.078 66.7363L74.6448 69.2094Z" fill="#33348E"/>
<path fill-rule="evenodd" clip-rule="evenodd" d="M136.153 56.6776L131.73 54.645L134.162 51.3128L131.941 43.4959H96.6899L100.273 51.0622H120.141L117.416 54.645L120.833 57.8091H93.5888L75.5248 6.8208L72.7373 14.0719L57.7324 53.3447H50.9839L49.0143 43.4952H36.9641L31.2009 51.5432L26.7372 43.4952H16.3002L6.82812 65.1855H16.929L21.3506 57.8091L24.6828 65.1855H37.4248L41.4278 57.3477L45.4308 65.1855H64.4177L68.2114 60.4915L72.7381 63.4043L75.5256 65.1855L82.1689 60.4915L85.7937 65.1855H139.066L136.153 56.6776ZM75.5248 55.1057L72.7373 53.1563L69.7615 51.0615L72.7373 44.0197L75.5248 37.4596L81.1192 51.0615L75.5248 55.1057Z" fill="#33348E"/>
</svg>
