<svg width="199" height="41" viewBox="0 0 199 41" fill="none" xmlns="http://www.w3.org/2000/svg">
<path fill-rule="evenodd" clip-rule="evenodd" d="M3.26749 12.4168C2.21028 10.6964 5.04821 9.02015 8.3925 6.59397C9.28975 6.91782 10.187 6.79946 11.0853 7.12331C36.9445 -7.64464 52.2782 4.06987 52.434 12.4168C52.4424 12.7342 52.4361 13.0484 52.4234 13.3604L52.4191 13.4852C52.1373 19.4016 48.3344 24.4939 42.9339 28.0315L42.9572 28.0584L42.936 28.0713C44.3619 30.5212 43.8873 32.9527 43.6606 35.2681C42.3746 33.198 41.0028 31.4454 39.5526 29.9896L39.5229 30.0069L39.4858 29.9757C36.5054 31.4076 33.336 32.3923 30.0769 32.8989L30.0854 35.9749L41.5759 40.8854H11.6383L22.6807 35.6866L22.6531 33.1668C21.921 33.1025 21.1916 33.0092 20.4667 32.8871C8.00691 30.76 7.49419 24.3874 19.2506 21.6804C20.3359 21.4949 21.4269 21.3456 22.5218 21.2328L22.5133 20.4764L0.40625 13.3604H45.9784C45.6352 8.31542 41.0706 5.85374 34.6256 4.74125C24.9551 3.88805 17.8311 5.74077 13.2569 10.2994C13.0535 11.5937 10.6499 12.4179 6.04716 12.7697L3.26749 12.4168ZM40.5398 25.3869L40.5271 25.3955C40.0826 25.0456 39.6208 24.7188 39.1437 24.4164C36.6076 22.8004 33.65 21.6847 30.0441 21.2414L30.043 20.6819L45.8757 15.5897C45.6543 17.0776 45.1331 18.7475 44.2687 20.6217C43.5388 22.2054 42.4477 23.815 40.6362 25.3385L40.5398 25.3869ZM36.9053 27.7195L36.8947 27.7259L36.9286 27.755C35.9742 28.2467 34.9053 28.7179 33.7072 29.1666C32.6595 29.5765 31.4127 29.8659 30.0684 30.0553L30.0536 24.6628C32.5224 25.1851 34.8563 26.2263 36.9053 27.7195ZM22.5578 24.5251C22.0959 24.5918 21.6309 24.6747 21.1616 24.7693C10.2569 26.9922 15.4116 29.5862 22.6203 30.1995L22.5578 24.5251Z" fill="#CC2229"/>
<path fill-rule="evenodd" clip-rule="evenodd" d="M65.3957 9.06336H72.7676L66.6712 19.872H64.543L65.3957 9.06336ZM182.291 9.06336H189.663L183.568 19.872H181.438L182.291 9.06336ZM74.3248 9.06336H81.6956L75.5991 19.872H73.471L74.3248 9.06336ZM191.221 9.06336H198.593L192.496 19.872H190.366L191.221 9.06336ZM145.368 9.24626H153.557L145.295 40.4724H137.105L145.368 9.24626ZM157.393 9.24626H179.624L179.637 10.6471L162.445 33.2079L173.127 33.1853L171.36 40.4724H148.545L150.592 32.7388L166.026 16.0901L155.576 16.1138L157.393 9.24626ZM107.435 40.0378C110.016 29.6358 112.593 19.2318 115.173 8.82666H129.921C143.403 9.88105 142.354 24.7286 129.081 30.1867C130.486 31.5144 132.476 32.3697 134.632 33.0906L132.839 40.8931C127.06 39.3782 122.297 36.8294 118.763 33.0336L120.669 25.4011C128.949 25.6044 132.483 21.1415 129.55 16.7701C128.635 14.9013 122.536 14.1115 121.174 17.7685L115.96 40.2088C113.119 40.154 110.277 40.097 107.435 40.0378ZM92.3047 15.6071L87.8036 33.167C92.4837 33.9147 96.7634 34.3042 97.5738 30.4352C98.0526 28.1511 95.3238 27.2495 90.9318 26.9235L92.4138 21.0146C97.8736 21.1996 100.177 20.5584 100.151 18.4991C100.114 15.4284 96.8079 14.9497 92.3047 15.6071ZM85.5536 9.36246H100.921C109.613 9.58518 111.899 18.0214 103.007 23.6344C111.41 28.8526 102.374 40.24 95.5431 40.3573H77.5398L85.5536 9.36246Z" fill="#33348E"/>
</svg>
